<svg width="674" height="826" viewBox="0 0 674 826" fill="none" xmlns="http://www.w3.org/2000/svg">
<path fill-rule="evenodd" clip-rule="evenodd" d="M602.1 705.013C602.089 715.204 595.934 721.361 585.752 721.361C575.57 721.361 569.414 715.204 569.403 705.013C569.414 694.821 575.57 688.664 585.752 688.664C595.934 688.664 602.089 694.821 602.1 705.013ZM644.945 669.629C644.915 692.468 644.9 715.311 644.9 738.151C644.9 777.352 621.972 796.027 583.326 796.027C570.954 796.027 558.404 794.489 546.714 790.329C546.714 790.316 546.714 790.303 546.714 790.29C539.212 786.751 536.378 779.783 539.178 771.311C542.289 761.967 549.807 758.193 559.146 761.29C565.625 763.439 572.186 764.963 579.073 764.963C595.242 764.963 602.257 758.26 603.037 746.237C595.93 750.326 587.183 752.5 577.049 752.5C547.772 752.5 530.072 734.36 530.041 704.333C530.072 674.306 547.772 656.166 577.049 656.166C588.774 656.166 598.643 659.076 606.263 664.495C608.469 657.76 615.241 653.844 625.215 653.844C637.503 653.844 644.932 659.789 644.945 669.629Z" fill="#F9FAFA"/>
<path d="M113.181 623.82C112.783 623.82 49.0993 623.669 49.0993 623.669C34.1743 623.669 25.1562 632.703 25.1562 647.667C25.1562 647.667 25.1837 723.816 25.1837 736.529C25.1837 746.304 33.3109 752.207 46.7557 752.207C60.2006 752.207 68.7115 746.592 68.7115 737.078C68.7115 732.685 68.4375 721.665 68.3552 714.965C68.3277 712.988 69.8216 711.039 72.0967 711.039C80.1554 711.039 105.108 711.012 105.108 711.012C115.236 711.012 121.39 704.847 121.39 694.702C121.39 684.556 115.236 678.392 105.108 678.392H82.3893C75.5641 678.392 72.7683 674.232 72.7683 667.382C72.7683 660.531 75.5504 656.371 82.3893 656.371C82.3893 656.371 112.345 656.303 113.427 656.289C123.172 656.165 129.051 649.974 129.051 640.061C129.051 630.149 123.076 623.903 113.194 623.82H113.181Z" fill="#F9FAFA"/>
<path d="M480.33 655.528C472.45 654.978 465.418 656.585 459.251 659.578C454.468 661.898 452.372 665.193 451.974 665.385C451.563 665.591 451.221 665.467 451.015 665.069C447.958 658.218 441.408 654.319 432.307 654.319C419.424 654.319 411.639 662.117 411.639 675.022V737.653C411.639 746.988 419.41 752.658 432.307 752.658C445.204 752.658 452.975 746.988 452.975 737.653L453.029 708.37C453.029 699.762 458.224 691.648 466.816 691.648C475.41 691.648 480.686 696.851 480.686 705.459C480.686 705.459 480.714 737.447 480.714 737.529C480.714 746.865 488.499 752.644 501.382 752.644C514.264 752.644 522.035 746.851 522.035 737.529V701.423C522.035 677.645 504.013 657.203 480.33 655.541V655.528Z" fill="#F9FAFA"/>
<path d="M263.142 606.256C250.259 606.256 242.475 614.054 242.475 626.959V737.64C242.475 746.976 250.259 752.646 263.142 752.646C276.026 752.646 283.81 746.976 283.81 737.64V626.959C283.81 614.054 276.026 606.256 263.142 606.256Z" fill="#F9FAFA"/>
<path d="M175.455 646.743C165.436 646.743 154.308 648.116 144.796 651.63C137.217 654.431 133.873 661.543 136.354 669.766C139.054 678.69 146.071 682.465 154.993 679.774C159.899 678.086 164.189 677.537 169.246 677.537C177.84 677.537 183.267 679.706 186.049 683.907C186.049 683.907 188.297 687.572 188.297 688.327C188.297 689.083 187.831 689.522 187.104 689.522C186.447 689.522 160.105 688.973 158.035 688.973C138.478 688.973 126.596 700.862 126.596 720.466C126.596 740.071 138.423 751.974 158.022 751.974C173.756 751.974 184.227 746.538 191.189 738.863C191.284 747.43 198.48 752.633 210.39 752.633C222.3 752.633 229.522 747.457 229.605 738.849V694.945C229.605 661.598 209.814 646.771 175.441 646.771L175.455 646.743ZM174.468 724.901C168.848 724.901 165.436 721.482 165.409 715.881C165.395 710.843 169.52 706.765 174.563 706.765H185.871C187.201 706.765 188.228 707.493 188.228 708.728C188.228 714.22 186.172 724.915 174.468 724.915V724.901Z" fill="#F9FAFA"/>
<path d="M317.593 606.256C304.709 606.256 296.925 614.054 296.925 626.959V737.64C296.925 746.976 304.709 752.646 317.593 752.646C330.476 752.646 338.261 746.976 338.261 737.64V626.959C338.261 614.054 330.476 606.256 317.593 606.256Z" fill="#F9FAFA"/>
<path d="M374.758 655.918C361.875 655.918 354.09 663.716 354.09 676.621V737.641C354.09 746.976 361.875 752.647 374.758 752.647C387.64 752.647 395.425 746.976 395.425 737.641V676.621C395.425 663.716 387.64 655.918 374.758 655.918Z" fill="#F9FAFA"/>
<path fill-rule="evenodd" clip-rule="evenodd" d="M396.566 625.989C396.552 639.736 388.248 648.041 374.515 648.041C360.78 648.041 352.476 639.736 352.461 625.989C352.476 612.242 360.78 603.937 374.515 603.937C388.248 603.937 396.552 612.242 396.566 625.989Z" fill="#F9FAFA"/>
<path fill-rule="evenodd" clip-rule="evenodd" d="M498.424 324.313C496.084 292.804 469.583 263.774 437.864 257.466C404.481 250.837 369.299 266.497 347.287 292.608L347.323 292.626C346.676 293.373 346.041 294.128 345.416 294.891C343.781 296.948 342.226 299.064 340.759 301.234C319.685 332.408 315.079 372.678 322.094 409.637C329.109 446.596 346.832 480.715 367.446 512.204C377.627 527.766 404.256 554.085 422.768 556.581C479.564 564.228 544.279 504.523 582.473 468.635L582.488 468.645C584.612 466.651 586.844 464.537 589.136 462.304C611.247 439.361 636.396 402.717 626.693 362.536C619.976 334.721 591.747 315.788 563.132 316.398C538.057 316.932 523.793 322.577 504.975 335.16C501.944 337.186 497.727 334.554 498.106 330.928C498.377 328.338 498.539 325.868 498.424 324.313ZM460.503 317.618C462.413 316.107 462.615 312.781 460.934 311.028C457.741 307.719 454.305 310.604 454.395 310.585C450.657 313.467 445.732 314.303 441.275 312.484C439.978 311.954 438.838 311.373 437.666 310.602C435.646 309.228 432.49 309.785 431.21 311.933C429.93 314.082 430.381 316.923 432.541 318.39C436.565 321.127 440.985 322.652 445.857 322.644C451.444 322.611 456.063 321.114 460.503 317.618ZM386.165 305.458C388.099 303.606 391.009 304.204 392.756 305.89C397.125 310.297 403.811 311.191 409.251 308.264L409.22 308.243C411.509 307.004 414.225 308.1 415.469 310.347C416.713 312.594 415.51 315.44 413.365 316.596C408.791 319.073 404.17 319.79 399.065 318.925C393.825 318.03 389.577 315.748 385.734 312.049C383.851 310.23 384.469 307.087 386.165 305.458ZM552.229 433.968C535.045 457.635 512.512 477.358 486.796 491.303C479.399 495.319 471.74 498.85 463.903 501.906C461.561 502.82 460.742 506.031 461.8 508.155C462.998 510.573 465.696 511.188 468.049 510.259C496.42 499.199 522.317 481.69 543.139 459.48C549.187 453.037 554.835 446.218 560.026 439.077C563.56 434.216 555.763 429.106 552.239 433.952L552.229 433.968Z" fill="#F9CC2E"/>
<path fill-rule="evenodd" clip-rule="evenodd" d="M41.4956 194.458C28.0517 277.1 55.8697 361.877 83.4478 440.951C99.7652 487.689 125.476 537.377 172.307 553.391C217.756 568.93 273.234 541.9 289.011 496.549C298.843 468.256 292.598 430.778 271.916 408.43C264.345 400.248 255.302 393.695 244.161 390.942C230.524 387.586 215.859 390.364 204.178 398.046L204.162 398.071C201.76 399.639 198.241 398.207 197.01 395.86C195.589 393.144 196.839 390.272 199.221 388.708C206.78 383.731 215.601 380.553 224.592 379.523C241.182 377.62 257.627 382.132 270.605 392.71C275.186 396.45 279.264 400.65 282.998 405.144C292.012 402.283 299.479 399.839 309.634 395.425C309.958 395.284 310.282 395.143 310.606 395.001C307.261 360.898 313.439 325.047 333.056 296.029C335.087 293.024 337.292 290.072 339.7 287.234C339.85 287.022 340.009 286.816 340.178 286.617C363.921 258.452 402.337 240.934 439.674 248.348L439.676 248.349C449.016 250.206 457.951 253.799 466.1 258.736C471.258 245.142 473.395 227.6 466.789 213.739C457.643 192.038 433.337 179.186 409.621 177.222C395.441 176.057 381.368 178.016 367.48 181.294C352.027 187.687 335.811 192.239 319.196 194.749C316.369 195.177 313.55 193.678 312.9 190.727C312.313 188.065 314.095 184.859 316.922 184.43C336.375 181.493 355.325 175.712 373.044 167.312C387.012 157.36 399.776 146.053 409.575 132.048C427.507 106.39 432.582 68.9383 412.804 44.6898C401.06 30.2909 382.5 22.7613 364.045 20.8132C343.517 18.6463 323.168 22.6183 303.073 26.5407L303.07 26.5413C301.344 26.8781 299.62 27.2147 297.898 27.5469C211.703 44.1757 118.637 62.1299 68.2956 133.24C56.3633 150.087 44.1371 177.971 41.4543 194.468L41.4956 194.458ZM215.276 223.866C218.043 228.9 220.809 233.928 223.574 238.957C226.334 243.974 229.093 248.991 231.854 254.014C233.581 257.139 237.849 258.73 241.049 256.856C244.25 254.982 245.731 250.998 243.892 247.66C241.314 242.971 238.738 238.286 236.161 233.602L235.6 232.581L235.577 232.54C232.823 227.533 230.069 222.525 227.314 217.512C225.586 214.387 221.319 212.796 218.118 214.67C214.917 216.544 213.437 220.528 215.276 223.866ZM198.79 271.149C196.027 266.126 193.265 261.104 190.501 256.076C188.661 252.737 190.142 248.754 193.343 246.88C196.544 245.006 200.811 246.597 202.539 249.722C205.299 254.744 208.059 259.761 210.818 264.778C213.584 269.807 216.349 274.835 219.116 279.869C220.956 283.208 219.475 287.191 216.274 289.065C213.073 290.939 208.806 289.348 207.078 286.223C204.354 281.266 201.63 276.314 198.907 271.362L198.79 271.149Z" fill="#F9FAFA"/>
</svg>
