<svg width="24" height="25" viewBox="0 0 24 25" fill="none" xmlns="http://www.w3.org/2000/svg">
<path fill-rule="evenodd" clip-rule="evenodd" d="M7.43799 4.78198C7.93299 4.28798 8.8 3.93699 9.5 3.93799H14.531C15.231 3.93899 16.1 4.31699 16.594 4.81299L20.156 8.37598C20.65 8.87098 21.001 9.73799 21 10.438V15.469C20.999 16.169 20.621 17.038 20.125 17.532L16.563 21.094C16.067 21.588 15.2 21.939 14.5 21.938H9.46899C8.76899 21.937 7.90001 21.559 7.40601 21.063L3.844 17.501C3.35 17.005 2.999 16.138 3 15.438V10.407C3.001 9.70698 3.379 8.838 3.875 8.344L7.43799 4.78198ZM11 8.9397C11 8.3877 11.448 7.9397 12 7.9397C12.552 7.9397 13 8.3877 13 8.9397V13.9397C13 14.4917 12.552 14.9397 12 14.9397C11.448 14.9397 11 14.4917 11 13.9397V8.9397ZM11 16.9397C11 16.3877 11.448 15.9397 12 15.9397C12.552 15.9397 13 16.3877 13 16.9397C13 17.4917 12.552 17.9397 12 17.9397C11.448 17.9397 11 17.4917 11 16.9397Z" fill="#F9FAFA"/>
</svg>
