<svg width="264" height="212" viewBox="0 0 264 212" fill="none" xmlns="http://www.w3.org/2000/svg">
<path fill-rule="evenodd" clip-rule="evenodd" d="M251.553 35.1253C254.427 43.8868 253.455 57.0881 244.683 70.2168C234.596 85.3122 213.602 100.064 202.885 100.441C197.509 100.63 188.674 94.4506 185.029 90.527C177.65 82.5883 170.965 73.7632 167.181 63.6126C163.397 53.4619 162.752 41.8078 167.222 31.9373C171.692 22.0667 181.829 14.5142 192.663 14.805C202.278 15.0657 211.489 22.4763 213.289 31.7184C212.15 32.9181 211.159 34.0801 210.281 35.3396C210.192 35.4693 210.124 35.6014 210.081 35.7332C209.887 36.3421 210.183 36.9328 210.66 37.2563C211.25 37.6588 212.161 37.6809 212.688 36.9261L212.687 36.93C214.01 35.0336 215.698 33.323 217.2 31.861C221.273 28.2814 224.958 26.329 231.273 25.1111C239.366 23.5505 248.986 27.2954 251.553 35.1253Z" fill="#8D8D8D"/>
<path d="M233.844 59.1937C230.132 66.7042 224.707 73.3541 218.095 78.5216C216.194 80.0093 214.194 81.3724 212.12 82.6098C211.5 82.9797 211.426 83.9266 211.831 84.4769C212.29 85.1037 213.085 85.1491 213.707 84.7743C221.215 80.2962 227.703 74.1122 232.519 66.8404C233.919 64.7305 235.186 62.5336 236.308 60.2671C237.072 58.7243 234.608 57.6508 233.846 59.1888L233.844 59.1937Z" fill="#F9FAFA"/>
<path d="M187.528 28.7462C187.438 30.8519 187.348 32.9539 187.258 35.0596C187.231 35.7149 187.75 36.3714 188.431 36.3822C189.112 36.393 189.724 35.9087 189.753 35.2092C189.844 33.1035 189.933 31.0015 190.024 28.8958C190.05 28.2405 189.532 27.584 188.851 27.5732C188.17 27.5624 187.557 28.0467 187.528 28.7462Z" fill="#161616"/>
<path d="M180.569 28.7462C180.479 30.8519 180.389 32.9539 180.299 35.0596C180.272 35.7149 180.791 36.3714 181.472 36.3822C182.153 36.393 182.765 35.9087 182.794 35.2092C182.885 33.1035 182.974 31.0015 183.065 28.8958C183.091 28.2405 182.573 27.584 181.892 27.5732C181.211 27.5624 180.598 28.0467 180.569 28.7462Z" fill="#161616"/>
<path fill-rule="evenodd" clip-rule="evenodd" d="M182.976 46.0638C182.325 47.3121 182.015 48.6932 182.041 49.4991C182.047 49.6793 181.977 49.8532 181.849 49.9791C181.844 49.9865 181.831 50.0078 181.811 50.0495C181.775 50.1257 181.732 50.2392 181.688 50.394C181.6 50.7027 181.52 51.1331 181.471 51.6663C181.374 52.7307 181.407 54.1606 181.73 55.7681C182.079 57.5067 182.788 61.0333 183.986 64.4745C184.585 66.1949 185.3 67.8752 186.143 69.2909C186.989 70.7138 187.936 71.822 188.979 72.4568C189.283 72.6415 189.379 73.0375 189.195 73.3411C189.01 73.6447 188.614 73.741 188.31 73.5563C187.013 72.7668 185.934 71.4585 185.036 69.949C184.134 68.4325 183.386 66.6646 182.771 64.8977C181.541 61.3667 180.818 57.7643 180.469 56.0253L180.468 56.0216C180.12 54.2909 180.081 52.7361 180.189 51.5491C180.243 50.9566 180.335 50.4446 180.45 50.0416C180.507 49.8406 180.573 49.6561 180.648 49.4977C180.678 49.436 180.712 49.3696 180.754 49.3035C180.776 48.2383 181.158 46.7655 181.835 45.4683C182.557 44.0842 183.714 42.7155 185.337 42.3894C186.245 42.2071 187.067 42.3003 187.525 42.9719C187.729 43.2706 187.805 43.615 187.826 43.9312C187.847 44.2498 187.815 44.588 187.765 44.9155C187.698 45.3471 187.583 45.835 187.475 46.2915C187.425 46.5053 187.376 46.7122 187.335 46.9033C187.329 46.9276 187.324 46.9517 187.319 46.9756C187.577 46.8192 187.862 46.6796 188.171 46.5705C189.178 46.2144 190.423 46.193 191.742 46.948C192.283 47.2579 192.637 47.8234 192.895 48.4314C193.159 49.0537 193.363 49.8247 193.544 50.6739C193.725 51.527 193.889 52.4928 194.062 53.5115L194.065 53.5298C194.238 54.5479 194.42 55.6246 194.641 56.726C195.541 61.2033 197.042 65.8441 200.772 68.2007C201.073 68.3905 201.163 68.788 200.973 69.0885C200.783 69.389 200.385 69.4787 200.085 69.2888C195.852 66.615 194.279 61.4547 193.379 56.9795C193.154 55.8589 192.969 54.766 192.797 53.7525L192.793 53.7266C192.619 52.701 192.46 51.7634 192.285 50.9417C192.109 50.1161 191.925 49.441 191.71 48.9336C191.489 48.4119 191.275 48.1641 191.102 48.065C190.135 47.5111 189.283 47.5425 188.599 47.7841C187.889 48.0351 187.343 48.5216 187.072 48.8745C186.919 49.0748 186.662 49.1669 186.416 49.1098C186.17 49.0528 185.98 48.8572 185.931 48.6097C185.809 48.0048 185.939 47.2678 186.077 46.6304C186.13 46.3866 186.185 46.1523 186.239 45.9256C186.339 45.5005 186.433 45.1023 186.493 44.7187C186.537 44.4352 186.553 44.2014 186.541 44.0161C186.529 43.8284 186.489 43.7371 186.462 43.6974C186.462 43.6973 186.462 43.6971 186.462 43.6969C186.455 43.685 186.34 43.5008 185.591 43.6513C184.541 43.8623 183.634 44.8026 182.976 46.0638Z" fill="#161616"/>
<path fill-rule="evenodd" clip-rule="evenodd" d="M129.744 88.9824C129.769 89.3369 129.502 89.6445 129.147 89.6693C127.964 89.7521 126.819 90.4549 125.786 91.681C124.755 92.904 123.883 94.5939 123.254 96.5063C121.988 100.35 121.756 104.903 122.977 108.054C124.934 113.103 129.776 115.073 131.927 115.417C132.278 115.473 132.517 115.803 132.461 116.154C132.405 116.505 132.075 116.744 131.724 116.688C129.299 116.3 123.956 114.141 121.777 108.519C120.414 105.001 120.707 100.123 122.031 96.1037C122.696 94.0845 123.636 92.2348 124.802 90.8515C125.965 89.4712 127.403 88.501 129.058 88.3853C129.412 88.3605 129.72 88.6278 129.744 88.9824Z" fill="#161616"/>
<path fill-rule="evenodd" clip-rule="evenodd" d="M140.091 111.508L140.18 112.535C140.248 113.31 140.2 114.552 139.851 115.838C139.503 117.123 138.836 118.513 137.617 119.498C135.419 121.274 133.284 121.285 132.243 120.958C131.616 121.03 130.726 121.042 129.905 120.853C129.036 120.652 128.025 120.165 127.743 119.045C127.482 118.007 127.507 117.229 127.739 116.556C127.93 116.004 128.258 115.556 128.541 115.168C128.584 115.109 128.626 115.051 128.667 114.995C128.874 114.706 129.276 114.64 129.565 114.847C129.853 115.054 129.92 115.456 129.713 115.745C129.663 115.814 129.616 115.879 129.571 115.941C129.282 116.34 129.079 116.62 128.956 116.977C128.825 117.355 128.774 117.868 128.991 118.731C129.092 119.132 129.475 119.433 130.195 119.599C130.89 119.759 131.697 119.737 132.223 119.663L132.391 119.639L132.549 119.702C133.056 119.902 134.823 120.101 136.808 118.497C137.744 117.74 138.302 116.632 138.609 115.501C138.782 114.863 138.869 114.238 138.903 113.7C138.135 114.128 137.257 114.593 136.45 115.021L136.392 115.052C135.792 115.37 135.232 115.666 134.779 115.915C134.313 116.171 133.997 116.356 133.859 116.457C133.386 116.799 133.137 116.991 132.998 117.217C132.893 117.388 132.812 117.647 132.94 118.214C133.018 118.561 132.801 118.905 132.454 118.983C132.108 119.062 131.763 118.844 131.685 118.497C131.507 117.712 131.569 117.082 131.903 116.541C132.191 116.074 132.652 115.741 133.052 115.451C133.069 115.439 133.086 115.427 133.103 115.414C133.319 115.258 133.709 115.034 134.159 114.787C134.623 114.532 135.191 114.231 135.789 113.914L135.823 113.896C137.018 113.263 138.321 112.573 139.208 112.039L140.091 111.508Z" fill="#161616"/>
<path d="M203.494 106.257C212.266 93.1282 213.238 79.9269 210.364 71.1653C207.797 63.3354 198.177 59.5906 190.084 61.1512C181.992 62.7117 178.218 65.4785 172.414 71.3297C172.615 60.498 162.301 51.1386 151.474 50.845C140.64 50.5543 130.503 58.1067 126.033 67.9773C121.563 77.8479 122.209 89.502 125.992 99.6526C129.776 109.803 136.461 118.628 143.84 126.567C147.485 130.491 156.32 136.67 161.696 136.481C172.414 136.104 193.408 121.352 203.494 106.257Z" fill="#F9CC2E"/>
<path d="M171.498 72.971C172.858 71.0205 174.606 69.2667 176.139 67.7776C177.24 66.7061 178.174 65.8422 179.075 65.0572C179.461 64.7188 179.626 64.2545 179.531 63.7796C179.425 63.2582 179.023 62.809 178.511 62.6366C178.038 62.4768 177.542 62.5789 177.147 62.9187C176.199 63.7441 175.226 64.647 174.082 65.7601C172.065 67.7316 170.445 69.4405 169.092 71.3806C169.003 71.5103 168.935 71.6424 168.893 71.7742C168.698 72.3831 168.994 72.9738 169.471 73.2973C170.061 73.6998 170.972 73.7219 171.5 72.9671L171.498 72.971Z" fill="#8D8D8D"/>
<path d="M192.655 95.2339C188.943 102.745 183.519 109.394 176.907 114.562C175.005 116.05 173.005 117.413 170.932 118.65C170.312 119.02 170.237 119.967 170.642 120.517C171.101 121.144 171.897 121.189 172.519 120.815C180.026 116.336 186.514 110.152 191.331 102.881C192.73 100.771 193.998 98.5739 195.12 96.3074C195.883 94.7645 193.419 93.691 192.658 95.229L192.655 95.2339Z" fill="#F9FAFA"/>
<path d="M152.001 90.5587C151.91 92.6644 151.821 94.7664 151.73 96.8721C151.704 97.5274 152.222 98.1839 152.903 98.1947C153.584 98.2055 154.197 97.7212 154.226 97.0217C154.316 94.916 154.406 92.814 154.496 90.7083C154.523 90.053 154.004 89.3965 153.323 89.3857C152.642 89.3749 152.03 89.8592 152.001 90.5587Z" fill="#161616"/>
<path d="M145.042 88.9844C144.951 91.0901 144.862 93.1922 144.771 95.2979C144.745 95.9531 145.263 96.6097 145.944 96.6205C146.625 96.6313 147.238 96.147 147.267 95.4475C147.357 93.3418 147.447 91.2398 147.537 89.1341C147.564 88.4788 147.045 87.8223 146.364 87.8115C145.683 87.8007 145.071 88.285 145.042 88.9844Z" fill="#161616"/>
<path fill-rule="evenodd" clip-rule="evenodd" d="M164.913 97.9778C165.258 97.8921 165.468 97.543 165.382 97.198C165.297 96.8531 164.948 96.6429 164.603 96.7286C162.601 97.2259 159.343 97.8197 156.103 97.9796C154.483 98.0595 152.884 98.0302 151.456 97.8321C150.021 97.633 148.804 97.2693 147.916 96.7115C145.374 95.1146 143.193 94.2832 141.248 94.0469C139.292 93.8092 137.615 94.1791 136.103 94.9185C134.477 95.7134 133.522 97.2589 133.07 98.7999C132.62 100.331 132.627 101.982 133.058 103.114C133.521 104.331 134.722 105.13 135.958 105.019C136.218 104.996 136.468 104.935 136.705 104.836C136.897 105.259 137.205 105.609 137.577 105.897C138.153 106.345 138.91 106.67 139.707 106.937C140.456 107.188 141.292 107.405 142.123 107.62L142.303 107.667C143.203 107.9 144.095 108.136 144.919 108.424C146.006 108.804 147.829 109.268 149.863 109.708C149.953 109.75 150.05 109.771 150.147 109.769C150.652 109.877 151.168 109.983 151.688 110.085C154.423 110.624 157.317 111.081 159.25 111.207C159.605 111.23 159.911 110.962 159.934 110.607C159.958 110.252 159.689 109.946 159.334 109.923C157.485 109.802 154.656 109.358 151.937 108.822C151.693 108.774 151.451 108.725 151.21 108.676C151.415 108.268 151.586 107.802 151.73 107.323C152.007 106.402 152.217 105.325 152.369 104.255C152.641 102.341 152.736 100.362 152.661 99.2482C153.797 99.3265 154.986 99.3234 156.166 99.2652C159.505 99.1004 162.847 98.4911 164.913 97.9778ZM151.358 99.1178C151.332 99.1142 151.306 99.1107 151.279 99.107C149.762 98.8965 148.35 98.4989 147.248 97.8113C147.276 98.9624 147.173 100.685 146.936 102.358C146.784 103.429 146.573 104.506 146.296 105.426C146.091 106.108 145.833 106.762 145.499 107.262C146.49 107.593 148.081 108 149.893 108.397C150.097 108.076 150.305 107.591 150.498 106.952C150.749 106.115 150.948 105.107 151.095 104.074C151.385 102.028 151.454 99.9916 151.358 99.1178ZM144.245 106.778C144.224 106.799 144.206 106.821 144.189 106.843C143.666 106.692 143.139 106.554 142.626 106.421L142.459 106.377L142.458 106.377L142.458 106.377C141.615 106.159 140.821 105.953 140.117 105.717C139.361 105.463 138.769 105.193 138.366 104.881C138.009 104.603 137.831 104.319 137.789 103.991C138.201 103.467 138.502 102.748 138.644 101.846C138.699 101.494 138.459 101.165 138.108 101.11C137.757 101.055 137.428 101.294 137.373 101.646C137.122 103.242 136.378 103.69 135.843 103.737C135.23 103.792 134.536 103.381 134.261 102.657C133.954 101.85 133.913 100.496 134.305 99.1627C134.693 97.8391 135.471 96.6601 136.668 96.0749C137.978 95.4342 139.406 95.1197 141.093 95.3247C142.477 95.4928 144.061 96.0138 145.918 97.0285C145.913 97.0765 145.913 97.1258 145.919 97.1757C146.023 98.0226 145.956 100.095 145.661 102.178C145.515 103.211 145.316 104.219 145.064 105.056C144.804 105.919 144.516 106.502 144.245 106.778Z" fill="#161616"/>
<path fill-rule="evenodd" clip-rule="evenodd" d="M143.704 97.1688C144.197 95.7853 146.878 95.0621 149.929 95.542C152.98 96.0218 155.31 97.5331 155.354 99.001L155.378 99.0048L154.978 101.548L154.954 101.544C154.461 102.928 151.78 103.651 148.729 103.171C145.678 102.691 143.348 101.18 143.304 99.7117L143.281 99.708L143.317 99.475L143.32 99.4538L143.324 99.4327L143.638 97.438C143.639 97.4318 143.639 97.4255 143.64 97.4193C143.641 97.413 143.642 97.4068 143.643 97.4006L143.681 97.1651L143.704 97.1688Z" fill="#F9CC2E"/>
<path fill-rule="evenodd" clip-rule="evenodd" d="M143.324 99.4327L143.638 97.438L143.64 97.4193L143.643 97.4006L143.681 97.1651L143.704 97.1688C144.197 95.7853 146.878 95.0621 149.929 95.542C152.98 96.0218 155.31 97.5331 155.354 99.001L155.378 99.0048L154.978 101.548L154.954 101.544C154.461 102.928 151.78 103.651 148.729 103.171C145.678 102.691 143.348 101.18 143.304 99.7117L143.281 99.708L143.317 99.475L143.32 99.4538L143.324 99.4327ZM144.59 99.6634L144.591 99.6729C144.593 99.7505 144.718 100.173 145.584 100.728C146.376 101.236 147.545 101.682 148.929 101.899C150.313 102.117 151.563 102.052 152.473 101.812C153.467 101.549 153.716 101.185 153.742 101.112L153.745 101.102L154.068 99.0508L154.068 99.0399C154.065 98.9623 153.94 98.5395 153.075 97.9846C152.282 97.4767 151.113 97.0311 149.729 96.8134C148.345 96.5957 147.096 96.661 146.186 96.9011C145.191 97.1635 144.943 97.5276 144.917 97.6007L144.914 97.6096L144.912 97.618L144.912 97.6193L144.912 97.6206L144.91 97.6293L144.594 99.6425L144.592 99.6538L144.59 99.6634Z" fill="#161616"/>
<path fill-rule="evenodd" clip-rule="evenodd" d="M146.645 97.3706C146.7 97.0195 147.03 96.7796 147.381 96.8349L149.924 97.2348C150.158 97.2717 150.353 97.4346 150.431 97.6587C150.509 97.8828 150.458 98.1318 150.297 98.3064L149.669 98.9893C149.428 99.2508 149.021 99.2677 148.759 99.027C148.561 98.8444 148.503 98.5662 148.592 98.3283L147.181 98.1063C146.83 98.0511 146.59 97.7217 146.645 97.3706Z" fill="#161616"/>
<path fill-rule="evenodd" clip-rule="evenodd" d="M145.91 98.896C146.061 98.5746 146.445 98.437 146.766 98.5888C147.553 98.9603 148.515 99.2581 149.579 99.4254C150.542 99.5769 151.459 99.6009 152.266 99.5206C152.619 99.4854 152.935 99.7436 152.97 100.097C153.005 100.451 152.747 100.766 152.393 100.801C151.47 100.893 150.442 100.864 149.379 100.697C148.206 100.512 147.125 100.181 146.217 99.7527C145.896 99.601 145.758 99.2174 145.91 98.896Z" fill="#161616"/>
<path opacity="0.28" fill-rule="evenodd" clip-rule="evenodd" d="M107.797 13.1246L87.5757 15.4754C84.9797 15.7772 83.0217 17.976 83.0217 20.5894V35.3118C88.3725 33.2467 93.9801 30.2356 99.0862 25.3985C103.056 21.6377 105.811 17.4276 107.797 13.1246ZM83.0217 67.2319V44.1602C84.85 43.6507 86.5964 43.2188 88.2133 42.8189L88.2246 42.8161L88.244 42.8113C88.6679 42.7065 89.0829 42.6038 89.4881 42.5025C97.8284 40.4175 103.513 38.7 108.235 34.2262C112.51 30.1771 113.978 24.7733 115.843 14.4454C115.927 13.9849 116.01 13.5163 116.096 13.0402L116.099 13.0189L116.102 13.0065L116.102 13.0036C116.153 12.7188 116.204 12.4313 116.256 12.1412L139.071 9.48895C138.489 12.1698 137.987 14.9489 137.462 17.8599L137.327 18.6068C135.611 28.1162 133.364 40.562 123.284 50.1114C113.965 58.9383 102.978 61.6849 94.9279 63.6971L94.7949 63.7304C89.8279 64.9721 86.0639 65.9519 83.0217 67.2319ZM83.0217 139.206V85.7732C84.2971 84.0141 85.8037 82.2773 87.592 80.5979C96.5058 72.2271 107.559 69.4938 115.818 67.4515L115.818 67.4515C116.281 67.3369 116.736 67.2244 117.181 67.1133C126.303 64.8352 132.786 62.9075 138.179 57.8033C143.139 53.1098 144.781 46.8602 146.817 35.5982C146.909 35.0889 147.002 34.5713 147.096 34.0458L147.096 34.0457C148.453 26.4704 150.105 17.2468 154.314 7.71692L182.448 4.44629C180.836 5.98133 179.461 7.56896 178.321 9.27204C172.138 18.5125 170.431 27.9653 168.457 38.8941L168.349 39.4904L168.31 39.7054C166.422 50.1531 164.013 63.4814 153.219 73.6962C143.213 83.1655 131.406 86.1141 122.573 88.3197L122.483 88.3424C112.893 90.7373 107.102 92.2933 102.571 96.5483C98.8178 100.073 98.2292 103.423 96.8651 111.189L96.7304 111.955C95.3447 119.826 93.092 129.89 83.0217 139.206ZM112.677 176.21L91.9136 169.192C93.2148 166.164 93.8905 162.915 94.5424 159.2C94.6542 158.563 94.765 157.898 94.88 157.209L94.88 157.208L94.8801 157.208L94.8801 157.208C96.2102 149.231 98.0931 137.938 108.331 128.293C118.273 118.926 130.619 115.859 140.18 113.484L140.18 113.484C140.692 113.357 141.196 113.231 141.691 113.107C152.177 110.48 160.052 108.176 166.621 101.94C172.793 96.0798 174.743 88.2914 177.078 75.3312C177.143 74.9741 177.207 74.6138 177.272 74.2504L177.392 73.5802V73.5801C179.537 61.5742 182.26 46.3321 192.162 31.4872C195.44 26.5719 199.384 22.501 203.496 19.0258V57.7841C201.286 64.3553 200.062 71.1607 198.758 78.4021L198.758 78.4022L198.758 78.4024L198.613 79.2112L198.594 79.3139C196.405 91.4665 193.716 106.387 181.686 117.809C170.474 128.453 157.226 131.772 147.016 134.331L147.009 134.332C136.054 137.077 128.927 138.951 123.335 144.219C118.592 148.688 117.819 153.109 116.293 161.847L116.286 161.887C116.223 162.245 116.159 162.61 116.094 162.982C115.384 167.03 114.483 171.532 112.677 176.21ZM147.874 188.108L126.889 181.014C128.217 173.982 130.744 165.073 138.998 157.315C148.377 148.498 160.014 145.616 168.861 143.424C169.347 143.304 169.824 143.186 170.292 143.069C180.032 140.634 187.145 138.537 193.07 132.925C198.577 127.708 200.358 120.769 202.529 108.746C202.624 108.221 202.719 107.688 202.816 107.147L202.823 107.105C203.039 105.903 203.26 104.665 203.496 103.394V152.688C194.07 159.679 183.758 162.257 175.653 164.283L175.653 164.283L175.599 164.297C165.391 166.848 158.995 168.547 153.984 173.258C149.981 177.021 149.184 180.677 147.874 188.108ZM197.041 204.714C196.927 204.684 196.813 204.65 196.699 204.612L174.465 197.096C175.886 194.842 177.675 192.602 179.95 190.464C187.347 183.511 196.315 180.72 203.496 178.88V199.734C203.496 200.487 203.339 201.192 203.058 201.825C200.706 202.641 198.754 203.541 197.041 204.714Z" fill="#F9FAFA"/>
<path fill-rule="evenodd" clip-rule="evenodd" d="M197.64 1.70868C201.272 1.28647 204.46 4.12529 204.46 7.78162V199.735C204.46 203.919 200.352 206.867 196.389 205.527L86.211 168.284C83.7269 167.444 82.0549 165.114 82.0549 162.492V20.59C82.0549 17.4865 84.3801 14.8754 87.4628 14.517L197.64 1.70868ZM202.53 7.78162C202.53 5.27992 200.348 3.33757 197.863 3.62645L87.6857 16.4348C85.5765 16.68 83.9856 18.4666 83.9856 20.59V162.492C83.9856 164.286 85.1296 165.88 86.8292 166.455L197.007 203.698C199.719 204.614 202.53 202.598 202.53 199.735V7.78162Z" fill="#666666"/>
<path d="M112.366 118.612C112.366 142.924 92.6574 162.632 68.346 162.632C44.0347 162.632 24.3264 142.924 24.3264 118.612C24.3264 94.301 44.0347 74.5928 68.346 74.5928C92.6574 74.5928 112.366 94.301 112.366 118.612Z" fill="#F9FAFA"/>
<path fill-rule="evenodd" clip-rule="evenodd" d="M15.8539 134.266C16.476 134.61 16.7015 135.393 16.3576 136.016C15.8427 136.947 15.7027 138.228 16.0799 139.151C16.2562 139.582 16.5412 139.932 16.9683 140.173C17.4041 140.419 18.0782 140.601 19.1033 140.529C21.9062 140.331 23.9899 141.347 25.1243 143.071C26.2208 144.738 26.2861 146.862 25.5153 148.614C25.2291 149.265 24.4696 149.561 23.8189 149.274C23.1682 148.988 22.8727 148.229 23.1589 147.578C23.6164 146.538 23.5405 145.348 22.9735 144.486C22.4445 143.681 21.3423 142.952 19.2843 143.097C17.879 143.196 16.6754 142.963 15.7037 142.415C14.7233 141.862 14.0708 141.039 13.697 140.125C12.974 138.356 13.2831 136.256 14.1047 134.77C14.4486 134.148 15.2317 133.922 15.8539 134.266Z" fill="#EFC0FF"/>
<path fill-rule="evenodd" clip-rule="evenodd" d="M23.2945 117.583C21.4463 117.583 19.948 119.081 19.948 120.929C19.948 122.777 21.4463 124.276 23.2945 124.276C25.1428 124.276 26.6411 122.777 26.6411 120.929C26.6411 119.081 25.1428 117.583 23.2945 117.583ZM17.3738 120.929C17.3738 117.659 20.0246 115.008 23.2945 115.008C26.5645 115.008 29.2153 117.659 29.2153 120.929C29.2153 124.199 26.5645 126.85 23.2945 126.85C20.0246 126.85 17.3738 124.199 17.3738 120.929Z" fill="#EFC0FF"/>
<path d="M23.2965 100.335C23.2965 101.473 22.3745 102.395 21.2371 102.395C20.0998 102.395 19.1777 101.473 19.1777 100.335C19.1777 99.1979 20.0998 98.2759 21.2371 98.2759C22.3745 98.2759 23.2965 99.1979 23.2965 100.335Z" fill="#F9CC2E"/>
<path d="M43.3717 73.5633C43.3717 74.7007 42.4497 75.6227 41.3123 75.6227C40.175 75.6227 39.2529 74.7007 39.2529 73.5633C39.2529 72.4259 40.175 71.5039 41.3123 71.5039C42.4497 71.5039 43.3717 72.4259 43.3717 73.5633Z" fill="#F9CC2E"/>
<path d="M35.5803 110.981L31.7042 112.019L32.7428 108.143L35.5803 110.981Z" fill="#666666"/>
<path d="M53.5954 71.8521L49.7193 72.8907L50.7579 69.0146L53.5954 71.8521Z" fill="#EFC0FF"/>
<path d="M116.479 159.028C116.479 160.166 115.557 161.088 114.42 161.088C113.282 161.088 112.36 160.166 112.36 159.028C112.36 157.891 113.282 156.969 114.42 156.969C115.557 156.969 116.479 157.891 116.479 159.028Z" fill="#F9CC2E"/>
<path fill-rule="evenodd" clip-rule="evenodd" d="M125.55 166.702C126.011 167.243 125.945 168.056 125.403 168.516L117.068 175.601C116.526 176.062 115.714 175.996 115.253 175.454C114.793 174.912 114.859 174.1 115.401 173.64L123.736 166.555C124.278 166.094 125.09 166.16 125.55 166.702Z" fill="#EFC0FF"/>
<path d="M132.881 151.653L129.005 152.692L130.044 148.816L132.881 151.653Z" fill="#EFC0FF"/>
<path fill-rule="evenodd" clip-rule="evenodd" d="M47.1837 95.8812C47.2287 96.02 47.2656 96.3384 47.2681 96.844C47.2704 97.3273 47.2421 97.9112 47.1953 98.5283C47.1018 99.7612 46.9374 101.089 46.8145 101.933C46.7977 102.048 46.8125 102.165 46.8572 102.273L52.3738 115.524C52.5104 115.852 52.8871 116.007 53.2152 115.871C53.5434 115.734 53.6986 115.357 53.562 115.029L48.1135 101.942C48.2359 101.075 48.3888 99.812 48.4788 98.6256C48.5269 97.9913 48.5578 97.3695 48.5552 96.8378C48.5527 96.3316 48.5211 95.8264 48.405 95.4749C48.242 94.9816 47.8604 94.7134 47.4438 94.6193C47.069 94.5347 46.6652 94.5859 46.3184 94.6688C45.8836 94.7726 45.4313 94.9533 45.0372 95.1426C44.8066 94.6172 44.5085 93.9937 44.1759 93.3946C43.9312 92.9537 43.6621 92.516 43.3819 92.1366C43.1076 91.7652 42.7958 91.4126 42.4576 91.1771C42.1185 90.941 41.6922 90.7865 41.2537 90.9462C40.8443 91.0953 40.6295 91.4484 40.5174 91.7126C40.4947 91.766 40.474 91.8212 40.455 91.8776C40.0946 91.618 39.57 91.3907 38.9876 91.6197C38.317 91.8833 38.1184 92.5229 38.0707 92.9814C38.0043 92.9526 37.9374 92.9251 37.8703 92.8995C37.6151 92.8018 37.3273 92.718 37.0422 92.6955C36.7637 92.6735 36.4059 92.7044 36.0998 92.9328C35.7066 93.2261 35.5994 93.7046 35.5657 94.0623C35.5292 94.4514 35.5618 94.9074 35.6215 95.3736C35.7005 95.9915 35.841 96.718 35.9807 97.4409C36.0497 97.798 36.1186 98.1542 36.1798 98.4961C36.4845 100.197 38.3356 113.97 39.2259 120.667C39.2728 121.019 39.5963 121.267 39.9487 121.22C40.301 121.173 40.5487 120.849 40.5018 120.497C39.6151 113.828 37.7582 100.008 37.4468 98.2692C37.3777 97.8834 37.3043 97.5045 37.2333 97.1373C37.0987 96.4422 36.9722 95.789 36.8982 95.2102C36.8422 94.7724 36.8241 94.4286 36.8472 94.1828C36.8572 94.0768 36.8726 94.0127 36.884 93.9766C36.8987 93.9763 36.9175 93.9767 36.941 93.9786C37.0561 93.9877 37.2157 94.0271 37.4104 94.1016C37.798 94.2499 38.2066 94.4908 38.4594 94.6668C38.6837 94.823 38.9822 94.8205 39.2038 94.6605C39.4254 94.5006 39.5219 94.2181 39.4443 93.956C39.3812 93.7429 39.3254 93.4141 39.3487 93.1371C39.3602 93.0009 39.3881 92.913 39.4142 92.8645C39.4344 92.8271 39.4468 92.8221 39.4584 92.8176C39.4587 92.8175 39.459 92.8174 39.4593 92.8172C39.4652 92.8148 39.4809 92.8083 39.531 92.8255C39.5943 92.8473 39.6862 92.8999 39.7992 92.9992C40.0278 93.1999 40.2342 93.4946 40.348 93.7033C40.4908 93.9654 40.7951 94.0949 41.083 94.0161C41.3708 93.9373 41.5668 93.6709 41.5563 93.3727C41.5421 92.9724 41.5868 92.4909 41.7008 92.219C41.7075 92.2234 41.7146 92.2282 41.7221 92.2334C41.8909 92.3509 42.1042 92.5732 42.3466 92.9013C42.5831 93.2215 42.8223 93.6081 43.0506 94.0194C43.5075 94.8424 43.8988 95.7239 44.1169 96.2785C44.1859 96.4542 44.3286 96.5906 44.5072 96.6518C44.6857 96.713 44.8822 96.6927 45.0444 96.5963C45.4616 96.3486 46.0875 96.0473 46.6176 95.9206C46.8885 95.8559 47.0669 95.8537 47.1603 95.8748C47.1703 95.8771 47.178 95.8793 47.1837 95.8812ZM41.6008 92.1668C41.6009 92.167 41.603 92.1677 41.607 92.1683C41.6028 92.1669 41.6008 92.1666 41.6008 92.1668ZM41.7522 92.1227C41.7533 92.1216 41.7539 92.121 41.7538 92.121L41.7522 92.1227Z" fill="#161616"/>
<path fill-rule="evenodd" clip-rule="evenodd" d="M44.4264 95.3636C44.7565 95.2316 45.131 95.3921 45.263 95.7221L45.7778 97.0092C45.9098 97.3392 45.7493 97.7138 45.4193 97.8458C45.0893 97.9778 44.7148 97.8173 44.5828 97.4873L44.0679 96.2001C43.9359 95.8701 44.0964 95.4956 44.4264 95.3636Z" fill="#161616"/>
<path d="M120.088 142.296C128.86 129.167 129.832 115.966 126.958 107.204C124.391 99.3742 114.771 95.6294 106.678 97.19C98.5854 98.7506 94.812 101.517 89.0075 107.369C89.2091 96.5368 78.8948 87.1774 68.0678 86.8839C57.2338 86.5931 47.0968 94.1455 42.6267 104.016C38.1567 113.887 38.8023 125.541 42.586 135.691C46.3697 145.842 53.0552 154.667 60.4338 162.606C64.0786 166.529 72.9137 172.709 78.2896 172.52C89.0075 172.143 110.001 157.391 120.088 142.296Z" fill="#EFC0FF"/>
<path d="M88.092 109.01C89.4522 107.059 91.1998 105.306 92.7329 103.816C93.8336 102.745 94.7682 101.881 95.6689 101.096C96.0544 100.758 96.2202 100.293 96.1252 99.8184C96.0191 99.2971 95.617 98.8478 95.1048 98.6755C94.6318 98.5156 94.1357 98.6178 93.7412 98.9575C92.7929 99.7829 91.8198 100.686 90.6755 101.799C88.659 103.77 87.0383 105.479 85.6858 107.419C85.5967 107.549 85.5285 107.681 85.4863 107.813C85.2916 108.422 85.5878 109.013 86.0646 109.336C86.6549 109.739 87.566 109.761 88.0933 109.006L88.092 109.01Z" fill="#F9FAFA"/>
<path d="M109.249 131.273C105.537 138.783 100.113 145.433 93.5005 150.601C91.5989 152.088 89.5992 153.451 87.5255 154.689C86.9058 155.059 86.8314 156.006 87.2359 156.556C87.6949 157.183 88.4908 157.228 89.1127 156.853C96.62 152.375 103.108 146.191 107.925 138.92C109.324 136.81 110.592 134.613 111.714 132.346C112.477 130.803 110.013 129.73 109.252 131.268L109.249 131.273Z" fill="#F9FAFA"/>
<path fill-rule="evenodd" clip-rule="evenodd" d="M107.6 112.951C107.484 113.039 107.272 113.279 106.981 113.693C106.703 114.088 106.392 114.583 106.078 115.117C105.45 116.182 104.827 117.365 104.445 118.128C104.393 118.232 104.314 118.32 104.216 118.383L92.1171 126.106C91.8175 126.297 91.4196 126.209 91.2284 125.909C91.0371 125.61 91.125 125.212 91.4246 125.021L103.374 117.393C103.769 116.612 104.365 115.488 104.969 114.463C105.292 113.915 105.622 113.387 105.928 112.952C106.219 112.538 106.534 112.142 106.83 111.92C107.246 111.608 107.712 111.606 108.108 111.767C108.464 111.911 108.766 112.184 109.003 112.45C109.301 112.784 109.569 113.191 109.784 113.571C110.273 113.272 110.874 112.931 111.489 112.629C111.942 112.407 112.413 112.201 112.86 112.05C113.297 111.902 113.755 111.791 114.167 111.791C114.58 111.791 115.018 111.908 115.287 112.289C115.537 112.646 115.512 113.058 115.453 113.339C115.441 113.396 115.427 113.453 115.41 113.51C115.854 113.503 116.414 113.616 116.762 114.137C117.161 114.736 116.959 115.375 116.736 115.778C116.807 115.793 116.878 115.808 116.947 115.826C117.212 115.891 117.497 115.987 117.743 116.131C117.985 116.272 118.26 116.502 118.381 116.865C118.536 117.33 118.351 117.784 118.174 118.097C117.982 118.437 117.694 118.793 117.379 119.141C116.961 119.603 116.431 120.119 115.903 120.632C115.642 120.886 115.382 121.139 115.137 121.385C113.915 122.607 104.526 132.852 99.9687 137.839C99.7289 138.101 99.3218 138.119 99.0594 137.88C98.7971 137.64 98.7787 137.233 99.0185 136.971C103.557 132.004 112.977 121.724 114.227 120.474C114.504 120.197 114.78 119.928 115.049 119.667C115.556 119.174 116.033 118.71 116.425 118.277C116.721 117.95 116.932 117.678 117.054 117.463C117.106 117.371 117.13 117.309 117.141 117.273C117.129 117.265 117.114 117.254 117.093 117.242C116.994 117.184 116.84 117.125 116.638 117.075C116.235 116.975 115.762 116.939 115.454 116.939C115.181 116.939 114.937 116.767 114.847 116.509C114.756 116.251 114.838 115.964 115.052 115.793C115.225 115.654 115.459 115.416 115.598 115.176C115.667 115.057 115.694 114.969 115.7 114.915C115.705 114.872 115.698 114.861 115.691 114.851C115.691 114.851 115.69 114.85 115.69 114.85C115.687 114.845 115.678 114.831 115.627 114.816C115.562 114.798 115.457 114.788 115.307 114.805C115.005 114.839 114.667 114.963 114.455 115.07C114.188 115.203 113.864 115.135 113.673 114.906C113.481 114.677 113.473 114.347 113.652 114.108C113.892 113.787 114.131 113.367 114.193 113.078C114.184 113.078 114.176 113.078 114.167 113.078C113.961 113.078 113.659 113.139 113.273 113.269C112.896 113.397 112.478 113.578 112.056 113.785C111.211 114.199 110.386 114.699 109.89 115.029C109.733 115.134 109.538 115.165 109.356 115.113C109.175 115.061 109.025 114.932 108.947 114.76C108.747 114.319 108.405 113.714 108.042 113.307C107.857 113.099 107.712 112.995 107.623 112.959C107.614 112.955 107.606 112.953 107.6 112.951ZM114.304 113.093C114.304 113.093 114.302 113.092 114.298 113.09C114.303 113.092 114.304 113.093 114.304 113.093ZM114.205 112.97C114.205 112.968 114.205 112.968 114.205 112.968L114.205 112.97Z" fill="#161616"/>
<path fill-rule="evenodd" clip-rule="evenodd" d="M109.245 115.464C109.563 115.305 109.949 115.433 110.108 115.751C110.428 116.391 110.562 117.275 110.562 118.066C110.562 118.471 110.527 118.877 110.453 119.244C110.381 119.602 110.262 119.967 110.068 120.258C109.871 120.553 109.471 120.633 109.176 120.436C108.88 120.239 108.8 119.839 108.997 119.544C109.061 119.448 109.135 119.266 109.191 118.988C109.246 118.72 109.275 118.402 109.275 118.066C109.275 117.378 109.152 116.717 108.957 116.327C108.798 116.009 108.927 115.623 109.245 115.464Z" fill="#161616"/>
<path d="M55.0326 113.632C56.5667 115.078 58.0987 116.52 59.6328 117.965C60.1112 118.413 60.9469 118.451 61.4005 117.942C61.854 117.434 61.8878 116.654 61.3778 116.174C59.8437 114.729 58.3117 113.287 56.7777 111.842C56.2992 111.393 55.4635 111.356 55.01 111.865C54.5564 112.373 54.5226 113.153 55.0326 113.632Z" fill="#161616"/>
<path d="M54.7453 120.022C56.7676 119.428 58.7859 118.834 60.8082 118.24C61.437 118.054 61.8911 117.352 61.6815 116.703C61.4719 116.055 60.8159 115.632 60.1444 115.83C58.1222 116.424 56.1038 117.018 54.0816 117.612C53.4528 117.798 52.9987 118.5 53.2083 119.149C53.4179 119.797 54.0738 120.22 54.7453 120.022Z" fill="#161616"/>
<path d="M65.3215 118.764C66.8469 120.219 68.3704 121.67 69.8958 123.124C70.3716 123.575 71.2071 123.617 71.6636 123.112C72.1202 122.606 72.1586 121.827 71.6514 121.344C70.126 119.89 68.6025 118.439 67.0771 116.984C66.6014 116.533 65.7659 116.491 65.3093 116.996C64.8528 117.502 64.8143 118.282 65.3215 118.764Z" fill="#161616"/>
<path d="M71.9876 114.802C69.9654 115.396 67.947 115.989 65.9247 116.583C65.2959 116.77 64.8418 117.472 65.0514 118.12C65.261 118.769 65.917 119.192 66.5885 118.994C68.6107 118.4 70.6291 117.806 72.6513 117.212C73.2801 117.026 73.7343 116.323 73.5247 115.675C73.3151 115.027 72.6591 114.604 71.9876 114.802Z" fill="#161616"/>
</svg>
