<svg width="38" height="38" viewBox="0 0 38 38" fill="none" xmlns="http://www.w3.org/2000/svg">
<g filter="url(#filter0_b_4753_92183)">
<path fill-rule="evenodd" clip-rule="evenodd" d="M18.9997 20.5723C18.9626 20.5723 18.931 20.5992 18.9245 20.6358C18.3765 23.7291 14.8974 26.1139 10.6872 26.1139C6.72639 26.1139 3.41262 24.0033 2.57761 21.1778C2.43274 20.6875 2.09606 20.2625 1.8243 19.8295C1.67142 19.5859 1.58301 19.2977 1.58301 18.9889V17.4056C1.58301 16.5311 2.29189 15.8223 3.16634 15.8223C3.23524 15.8223 3.29939 15.7885 3.34038 15.7331C4.37428 14.3364 6.47568 13.4473 10.6872 13.4473C15.3404 13.4473 17.4177 14.5327 18.3253 16.1889C18.4624 16.4391 18.7144 16.6139 18.9997 16.6139C19.2849 16.6139 19.537 16.4391 19.6741 16.1889C20.5817 14.5327 22.6589 13.4473 27.3122 13.4473C31.5237 13.4473 33.6251 14.3364 34.659 15.7331C34.7 15.7885 34.7641 15.8223 34.833 15.8223C35.7075 15.8223 36.4163 16.5311 36.4163 17.4056V18.9889C36.4163 19.2977 36.3279 19.5859 36.175 19.8295C35.9033 20.2625 35.5666 20.6875 35.4217 21.1778C34.5867 24.0033 31.2729 26.1139 27.3122 26.1139C23.102 26.1139 19.6228 23.7291 19.0748 20.6358C19.0683 20.5992 19.0368 20.5723 18.9997 20.5723Z" fill="#F9FAFA"/>
</g>
<path d="M33.25 19.7806C33.25 21.9667 30.5917 23.7389 27.3125 23.7389C24.0333 23.7389 21.375 21.9667 21.375 19.7806C21.375 17.5945 22.1667 15.8223 27.3125 15.8223C32.4583 15.8223 33.25 17.5945 33.25 19.7806Z" fill="#F9CC2E"/>
<path d="M16.625 19.7806C16.625 21.9667 13.9667 23.7389 10.6875 23.7389C7.40831 23.7389 4.75 21.9667 4.75 19.7806C4.75 17.5945 5.54167 15.8223 10.6875 15.8223C15.8333 15.8223 16.625 17.5945 16.625 19.7806Z" fill="#F9CC2E"/>
<path d="M6.95508 16.0176L8.83482 14.9323L13.9645 23.8172L12.0847 24.9024L6.95508 16.0176Z" fill="white" fill-opacity="0.4"/>
<path d="M22.958 16.0176L24.8378 14.9323L29.9674 23.8172L28.0877 24.9024L22.958 16.0176Z" fill="white" fill-opacity="0.4"/>
<defs>
<filter id="filter0_b_4753_92183" x="-0.000325561" y="11.8639" width="37.9999" height="15.8334" filterUnits="userSpaceOnUse" color-interpolation-filters="sRGB">
<feFlood flood-opacity="0" result="BackgroundImageFix"/>
<feGaussianBlur in="BackgroundImageFix" stdDeviation="0.791667"/>
<feComposite in2="SourceAlpha" operator="in" result="effect1_backgroundBlur_4753_92183"/>
<feBlend mode="normal" in="SourceGraphic" in2="effect1_backgroundBlur_4753_92183" result="shape"/>
</filter>
</defs>
</svg>
