<svg width="38" height="38" viewBox="0 0 38 38" fill="none" xmlns="http://www.w3.org/2000/svg">
<g filter="url(#filter0_b_7896_11950)">
<mask id="path-1-inside-1_7896_11950" fill="white">
<path fill-rule="evenodd" clip-rule="evenodd" d="M19.3856 7.77103C21.5497 8.11837 23.3515 9.11215 24.3339 10.3468L24.8482 10.4293L24.8969 10.4369C26.0382 10.6201 27.0493 11.1211 27.8545 11.8351C27.9916 11.8497 28.1291 11.8679 28.2668 11.89C32.4237 12.5572 35.2526 16.4678 34.5854 20.6246C33.9183 24.7813 30.008 27.6101 25.8514 26.9433L25.8513 26.9435L24.7096 26.7602C23.3902 27.6254 21.368 28.0055 19.2038 27.6581C17.0397 27.3108 15.2379 26.317 14.2555 25.0824L13.7413 24.9999L13.6925 24.9922C12.5512 24.8091 11.5401 24.308 10.7348 23.594C10.5979 23.5795 10.4605 23.5612 10.3228 23.5391C6.166 22.872 3.33706 18.9614 4.00421 14.8046C4.67132 10.648 8.5815 7.81913 12.7381 8.48583L12.7381 8.48569L13.8798 8.66893C15.1992 7.80374 17.2214 7.4237 19.3856 7.77103Z"/>
</mask>
<path fill-rule="evenodd" clip-rule="evenodd" d="M19.3856 7.77103C21.5497 8.11837 23.3515 9.11215 24.3339 10.3468L24.8482 10.4293L24.8969 10.4369C26.0382 10.6201 27.0493 11.1211 27.8545 11.8351C27.9916 11.8497 28.1291 11.8679 28.2668 11.89C32.4237 12.5572 35.2526 16.4678 34.5854 20.6246C33.9183 24.7813 30.008 27.6101 25.8514 26.9433L25.8513 26.9435L24.7096 26.7602C23.3902 27.6254 21.368 28.0055 19.2038 27.6581C17.0397 27.3108 15.2379 26.317 14.2555 25.0824L13.7413 24.9999L13.6925 24.9922C12.5512 24.8091 11.5401 24.308 10.7348 23.594C10.5979 23.5795 10.4605 23.5612 10.3228 23.5391C6.166 22.872 3.33706 18.9614 4.00421 14.8046C4.67132 10.648 8.5815 7.81913 12.7381 8.48583L12.7381 8.48569L13.8798 8.66893C15.1992 7.80374 17.2214 7.4237 19.3856 7.77103Z" fill="white"/>
<path d="M24.3339 10.3468L24.148 10.4946L24.2053 10.5667L24.2962 10.5813L24.3339 10.3468ZM24.8482 10.4293L24.8106 10.6638L24.8116 10.664L24.8482 10.4293ZM24.8969 10.4369L24.9345 10.2024L24.9335 10.2023L24.8969 10.4369ZM27.8545 11.8351L27.6969 12.0128L27.7539 12.0633L27.8295 12.0713L27.8545 11.8351ZM25.8514 26.9433L25.889 26.7088L25.6545 26.6712L25.6169 26.9057L25.8514 26.9433ZM25.8513 26.9435L25.8137 27.178L26.0482 27.2156L26.0858 26.9811L25.8513 26.9435ZM24.7096 26.7602L24.7472 26.5257L24.6563 26.5111L24.5794 26.5616L24.7096 26.7602ZM14.2555 25.0824L14.4414 24.9345L14.3841 24.8625L14.2932 24.8479L14.2555 25.0824ZM13.7413 24.9999L13.7789 24.7654L13.7779 24.7652L13.7413 24.9999ZM13.6925 24.9922L13.6549 25.2267L13.6559 25.2269L13.6925 24.9922ZM10.7348 23.594L10.8924 23.4163L10.8355 23.3658L10.7599 23.3578L10.7348 23.594ZM12.7381 8.48583L12.7004 8.72033L12.9349 8.75794L12.9726 8.52346L12.7381 8.48583ZM12.7381 8.48569L12.7757 8.25119L12.5412 8.21356L12.5036 8.44805L12.7381 8.48569ZM13.8798 8.66893L13.8422 8.90343L13.9331 8.91802L14.01 8.86754L13.8798 8.66893ZM24.5197 10.1989C23.492 8.90726 21.6308 7.89084 19.4232 7.53653L19.3479 8.00553C21.4686 8.34589 23.211 9.31704 24.148 10.4946L24.5197 10.1989ZM24.8859 10.1948L24.3715 10.1123L24.2962 10.5813L24.8106 10.6638L24.8859 10.1948ZM24.9335 10.2023L24.8849 10.1947L24.8116 10.664L24.8602 10.6716L24.9335 10.2023ZM28.0121 11.6575C27.1741 10.9144 26.1217 10.3929 24.9345 10.2024L24.8592 10.6714C25.9547 10.8472 26.9245 11.3279 27.6969 12.0128L28.0121 11.6575ZM28.3045 11.6555C28.1625 11.6328 28.0208 11.6139 27.8795 11.599L27.8295 12.0713C27.9624 12.0854 28.0957 12.1031 28.2292 12.1245L28.3045 11.6555ZM34.8199 20.6622C35.5079 16.3759 32.5908 12.3435 28.3045 11.6555L28.2292 12.1245C32.2565 12.7709 34.9973 16.5597 34.351 20.587L34.8199 20.6622ZM25.8137 27.1778C30.0999 27.8654 34.132 24.9484 34.8199 20.6622L34.351 20.587C33.7046 24.6141 29.9161 27.3549 25.889 26.7088L25.8137 27.1778ZM26.0858 26.9811L26.0859 26.9809L25.6169 26.9057L25.6168 26.9058L26.0858 26.9811ZM24.672 26.9947L25.8137 27.178L25.889 26.709L24.7472 26.5257L24.672 26.9947ZM19.1662 27.8926C21.3738 28.2469 23.4595 27.864 24.8398 26.9588L24.5794 26.5616C23.3209 27.3869 21.3621 27.764 19.2415 27.4236L19.1662 27.8926ZM14.0697 25.2303C15.0974 26.5219 16.9586 27.5383 19.1662 27.8926L19.2415 27.4236C17.1208 27.0833 15.3784 26.1121 14.4414 24.9345L14.0697 25.2303ZM13.7036 25.2344L14.2179 25.3169L14.2932 24.8479L13.7789 24.7654L13.7036 25.2344ZM13.6559 25.2269L13.7046 25.2345L13.7779 24.7652L13.7292 24.7576L13.6559 25.2269ZM10.5773 23.7717C11.4152 24.5148 12.4677 25.0362 13.6549 25.2267L13.7302 24.7577C12.6347 24.5819 11.6649 24.1013 10.8924 23.4163L10.5773 23.7717ZM10.2852 23.7736C10.427 23.7964 10.5686 23.8152 10.7098 23.8302L10.7599 23.3578C10.6271 23.3437 10.4939 23.326 10.3605 23.3046L10.2852 23.7736ZM3.76972 14.7669C3.08178 19.0532 5.99886 23.0857 10.2852 23.7736L10.3605 23.3046C6.33315 22.6583 3.59235 18.8695 4.23871 14.8422L3.76972 14.7669ZM12.7757 8.25133C8.48961 7.56385 4.45761 10.4808 3.76972 14.7669L4.23871 14.8422C4.88504 10.8151 8.67339 8.0744 12.7004 8.72033L12.7757 8.25133ZM12.5036 8.44805L12.5036 8.44819L12.9726 8.52346L12.9726 8.52333L12.5036 8.44805ZM13.9174 8.43443L12.7757 8.25119L12.7004 8.72019L13.8422 8.90343L13.9174 8.43443ZM19.4232 7.53653C17.2156 7.18223 15.1299 7.56519 13.7496 8.47033L14.01 8.86754C15.2685 8.0423 17.2273 7.66517 19.3479 8.00553L19.4232 7.53653Z" fill="url(#paint0_linear_7896_11950)" mask="url(#path-1-inside-1_7896_11950)"/>
</g>
<g filter="url(#filter1_b_7896_11950)">
<mask id="path-3-inside-2_7896_11950" fill="white">
<path fill-rule="evenodd" clip-rule="evenodd" d="M15.9413 12.7545C13.3881 12.3324 10.976 14.06 10.5539 16.6132C10.1318 19.1665 11.8594 21.5785 14.4126 22.0007C14.4976 22.0147 14.5824 22.0264 14.667 22.0357C15.1598 22.4766 15.7796 22.7873 16.4803 22.9031L16.5058 22.9073L16.8254 22.9601C17.4256 23.722 18.5304 24.3381 19.8598 24.5579C21.1892 24.7777 22.4335 24.5499 23.247 24.0218L23.9112 24.1316L23.948 24.1379C26.5013 24.56 28.9133 22.8324 29.3355 20.2791C29.7576 17.7259 28.03 15.3138 25.4767 14.8917C25.3917 14.8776 25.3067 14.8659 25.2221 14.8566C24.7293 14.4157 24.1095 14.1051 23.4088 13.9892L23.3833 13.9851L23.0637 13.9323C22.4635 13.1704 21.3587 12.5542 20.0293 12.3344C18.6999 12.1146 17.4556 12.3424 16.6421 12.8705L15.9833 12.7616L15.9413 12.7545Z"/>
</mask>
<path fill-rule="evenodd" clip-rule="evenodd" d="M15.9413 12.7545C13.3881 12.3324 10.976 14.06 10.5539 16.6132C10.1318 19.1665 11.8594 21.5785 14.4126 22.0007C14.4976 22.0147 14.5824 22.0264 14.667 22.0357C15.1598 22.4766 15.7796 22.7873 16.4803 22.9031L16.5058 22.9073L16.8254 22.9601C17.4256 23.722 18.5304 24.3381 19.8598 24.5579C21.1892 24.7777 22.4335 24.5499 23.247 24.0218L23.9112 24.1316L23.948 24.1379C26.5013 24.56 28.9133 22.8324 29.3355 20.2791C29.7576 17.7259 28.03 15.3138 25.4767 14.8917C25.3917 14.8776 25.3067 14.8659 25.2221 14.8566C24.7293 14.4157 24.1095 14.1051 23.4088 13.9892L23.3833 13.9851L23.0637 13.9323C22.4635 13.1704 21.3587 12.5542 20.0293 12.3344C18.6999 12.1146 17.4556 12.3424 16.6421 12.8705L15.9833 12.7616L15.9413 12.7545Z" fill="#F9CC2E"/>
<path d="M10.5539 16.6132L10.3196 16.5745L10.5539 16.6132ZM15.9413 12.7545L15.9811 12.5204L15.9801 12.5202L15.9413 12.7545ZM14.667 22.0357L14.8254 21.8587L14.7687 21.808L14.6931 21.7997L14.667 22.0357ZM16.4803 22.9031L16.4415 23.1375L16.4424 23.1376L16.4803 22.9031ZM16.5058 22.9073L16.5445 22.6729L16.5437 22.6728L16.5058 22.9073ZM16.8254 22.9601L17.0119 22.8131L16.955 22.7408L16.8641 22.7258L16.8254 22.9601ZM23.247 24.0218L23.2857 23.7875L23.1949 23.7725L23.1177 23.8226L23.247 24.0218ZM23.9112 24.1316L23.9508 23.8975L23.9499 23.8973L23.9112 24.1316ZM23.948 24.1379L23.9084 24.372L23.9093 24.3722L23.948 24.1379ZM25.2221 14.8566L25.0637 15.0336L25.1204 15.0843L25.196 15.0927L25.2221 14.8566ZM23.4088 13.9892L23.4476 13.7549L23.4467 13.7548L23.4088 13.9892ZM23.3833 13.9851L23.3446 14.2194L23.3454 14.2196L23.3833 13.9851ZM23.0637 13.9323L22.8772 14.0792L22.9341 14.1516L23.025 14.1666L23.0637 13.9323ZM20.0293 12.3344L19.9906 12.5687L20.0293 12.3344ZM16.6421 12.8705L16.6034 13.1049L16.6942 13.1199L16.7714 13.0698L16.6421 12.8705ZM15.9833 12.7616L15.9435 12.9958L15.9445 12.9959L15.9833 12.7616ZM10.7882 16.652C11.189 14.2281 13.4787 12.5881 15.9026 12.9888L15.9801 12.5202C13.2974 12.0766 10.7631 13.8918 10.3196 16.5745L10.7882 16.652ZM14.4514 21.7664C12.0275 21.3656 10.3875 19.0758 10.7882 16.652L10.3196 16.5745C9.87604 19.2572 11.6912 21.7915 14.3739 22.235L14.4514 21.7664ZM14.6931 21.7997C14.6127 21.7908 14.5321 21.7797 14.4514 21.7664L14.3739 22.235C14.4631 22.2497 14.5521 22.262 14.641 22.2718L14.6931 21.7997ZM16.519 22.6688C15.8642 22.5605 15.2855 22.2704 14.8254 21.8587L14.5086 22.2127C15.034 22.6828 15.6951 23.014 16.4415 23.1375L16.519 22.6688ZM16.5437 22.6728L16.5182 22.6687L16.4424 23.1376L16.4679 23.1417L16.5437 22.6728ZM16.8641 22.7258L16.5445 22.6729L16.467 23.1416L16.7866 23.1944L16.8641 22.7258ZM19.8985 24.3236C18.6125 24.111 17.5671 23.5177 17.0119 22.8131L16.6388 23.1071C17.2842 23.9262 18.4482 24.5653 19.821 24.7923L19.8985 24.3236ZM23.1177 23.8226C22.3653 24.311 21.1845 24.5362 19.8985 24.3236L19.821 24.7923C21.1939 25.0192 22.5017 24.7888 23.3763 24.221L23.1177 23.8226ZM23.9499 23.8973L23.2857 23.7875L23.2083 24.2561L23.8724 24.3659L23.9499 23.8973ZM23.9877 23.9037L23.9508 23.8975L23.8715 24.3658L23.9084 24.372L23.9877 23.9037ZM29.1011 20.2404C28.7004 22.6642 26.4106 24.3043 23.9868 23.9035L23.9093 24.3722C26.5919 24.8157 29.1262 23.0005 29.5698 20.3179L29.1011 20.2404ZM25.438 15.126C27.8618 15.5267 29.5019 17.8165 29.1011 20.2404L29.5698 20.3179C30.0133 17.6352 28.1981 15.1009 25.5155 14.6574L25.438 15.126ZM25.196 15.0927C25.2765 15.1015 25.3571 15.1126 25.438 15.126L25.5155 14.6574C25.4262 14.6426 25.337 14.6303 25.2481 14.6205L25.196 15.0927ZM23.3701 14.2235C24.0249 14.3318 24.6036 14.6219 25.0637 15.0336L25.3804 14.6796C24.855 14.2095 24.194 13.8783 23.4476 13.7549L23.3701 14.2235ZM23.3454 14.2196L23.3709 14.2237L23.4467 13.7548L23.4212 13.7507L23.3454 14.2196ZM23.025 14.1666L23.3446 14.2194L23.4221 13.7508L23.1025 13.6979L23.025 14.1666ZM19.9906 12.5687C21.2766 12.7814 22.322 13.3746 22.8772 14.0792L23.2503 13.7853C22.6049 12.9662 21.4409 12.3271 20.0681 12.1001L19.9906 12.5687ZM16.7714 13.0698C17.5238 12.5813 18.7046 12.3561 19.9906 12.5687L20.0681 12.1001C18.6952 11.8731 17.3874 12.1036 16.5128 12.6713L16.7714 13.0698ZM15.9445 12.9959L16.6034 13.1049L16.6808 12.6362L16.022 12.5273L15.9445 12.9959ZM15.9016 12.9886L15.9435 12.9958L16.023 12.5275L15.9811 12.5204L15.9016 12.9886Z" fill="url(#paint1_linear_7896_11950)" mask="url(#path-3-inside-2_7896_11950)"/>
</g>
<g filter="url(#filter2_b_7896_11950)">
<path d="M24.6026 17.6407C24.1855 16.5062 24.9126 15.5506 26.0711 15.4814C26.8336 15.4359 27.6014 15.7763 28.0874 16.3639C28.2356 16.5432 28.4967 16.6071 28.7111 16.5167C29.4136 16.2201 30.2518 16.273 30.907 16.6657C31.9025 17.2623 32.1057 18.4457 31.2116 19.2591C30.2988 20.0895 28.1308 20.5076 27.5291 20.6102C27.4274 20.6275 27.3263 20.6028 27.2442 20.5404C26.758 20.1714 25.0284 18.7989 24.6026 17.6407Z" fill="#FF4D00"/>
<path d="M24.7141 17.5997C24.5177 17.0655 24.5932 16.5845 24.8431 16.23C25.094 15.874 25.53 15.6327 26.0782 15.6C26.8022 15.5568 27.5336 15.8807 27.9959 16.4396C28.1776 16.6593 28.4946 16.7369 28.7572 16.6261C29.4255 16.344 30.2238 16.3947 30.8459 16.7675C31.317 17.0498 31.5921 17.4653 31.6502 17.8969C31.708 18.3267 31.5527 18.7883 31.1317 19.1713C30.6965 19.5672 29.949 19.8733 29.2193 20.0939C28.4947 20.313 27.8076 20.4422 27.5091 20.4931C27.4398 20.505 27.372 20.4883 27.316 20.4458C27.0748 20.2628 26.5252 19.8307 25.9837 19.3016C25.4386 18.7687 24.9171 18.1519 24.7141 17.5997Z" stroke="url(#paint2_linear_7896_11950)" stroke-width="0.2375"/>
</g>
<g filter="url(#filter3_b_7896_11950)">
<path d="M8.76936 17.6407C8.35227 16.5062 9.07933 15.5506 10.2378 15.4814C11.0004 15.4359 11.7681 15.7763 12.2541 16.3639C12.4024 16.5432 12.6635 16.6071 12.8778 16.5167C13.5803 16.2201 14.4185 16.273 15.0737 16.6657C16.0692 17.2623 16.2724 18.4457 15.3783 19.2591C14.4656 20.0895 12.2975 20.5076 11.6958 20.6102C11.5942 20.6275 11.4931 20.6028 11.4109 20.5404C10.9247 20.1714 9.19516 18.7989 8.76936 17.6407Z" fill="#FF4D00"/>
<path d="M8.88082 17.5997C8.68442 17.0655 8.75996 16.5845 9.00981 16.23C9.26072 15.874 9.69671 15.6327 10.2449 15.6C10.9689 15.5568 11.7004 15.8807 12.1626 16.4396C12.3443 16.6593 12.6614 16.7369 12.924 16.6261C13.5922 16.344 14.3905 16.3947 15.0127 16.7675C15.4837 17.0498 15.7589 17.4653 15.8169 17.8969C15.8747 18.3267 15.7194 18.7883 15.2984 19.1713C14.8632 19.5672 14.1157 19.8733 13.3861 20.0939C12.6614 20.313 11.9743 20.4422 11.6759 20.4931C11.6066 20.505 11.5387 20.4883 11.4827 20.4458C11.2415 20.2628 10.6919 19.8307 10.1505 19.3016C9.60534 18.7687 9.08383 18.1519 8.88082 17.5997Z" stroke="url(#paint3_linear_7896_11950)" stroke-width="0.2375"/>
</g>
<g filter="url(#filter4_b_7896_11950)">
<mask id="path-9-inside-3_7896_11950" fill="white">
<path fill-rule="evenodd" clip-rule="evenodd" d="M11.864 8.28718C7.46177 8.28718 3.89307 11.8559 3.89307 16.2581C3.89307 19.3859 5.69466 22.093 8.31675 23.3982C9.06411 25.9412 11.4153 27.7978 14.2002 27.7978L14.2378 27.7977H14.7961C16.0149 28.9096 18.0399 29.6371 20.3318 29.6371C22.6238 29.6371 24.6488 28.9096 25.8676 27.7977H27.0598L27.0756 27.7977C31.4778 27.7977 35.0465 24.229 35.0465 19.8268C35.0465 16.6989 33.2449 13.9919 30.6228 12.6867C29.8755 10.1437 27.5242 8.28708 24.7393 8.28708L24.702 8.2872H24.1434C22.9246 7.17526 20.8997 6.44775 18.6077 6.44775C16.3158 6.44775 14.2908 7.17527 13.072 8.2872L11.8802 8.2872L11.864 8.28718Z"/>
</mask>
<path fill-rule="evenodd" clip-rule="evenodd" d="M11.864 8.28718C7.46177 8.28718 3.89307 11.8559 3.89307 16.2581C3.89307 19.3859 5.69466 22.093 8.31675 23.3982C9.06411 25.9412 11.4153 27.7978 14.2002 27.7978L14.2378 27.7977H14.7961C16.0149 28.9096 18.0399 29.6371 20.3318 29.6371C22.6238 29.6371 24.6488 28.9096 25.8676 27.7977H27.0598L27.0756 27.7977C31.4778 27.7977 35.0465 24.229 35.0465 19.8268C35.0465 16.6989 33.2449 13.9919 30.6228 12.6867C29.8755 10.1437 27.5242 8.28708 24.7393 8.28708L24.702 8.2872H24.1434C22.9246 7.17526 20.8997 6.44775 18.6077 6.44775C16.3158 6.44775 14.2908 7.17527 13.072 8.2872L11.8802 8.2872L11.864 8.28718Z" fill="#F9FAFA" fill-opacity="0.4"/>
<path d="M11.864 8.28718L11.8642 8.04968L11.864 8.04968V8.28718ZM8.31675 23.3982L8.54462 23.3312L8.51539 23.2318L8.42259 23.1856L8.31675 23.3982ZM14.2002 27.7978V28.0353L14.2009 28.0353L14.2002 27.7978ZM14.2378 27.7977V27.5602L14.2371 27.5602L14.2378 27.7977ZM14.7961 27.7977L14.9562 27.6222L14.8882 27.5602H14.7961V27.7977ZM25.8676 27.7977V27.5602H25.7755L25.7075 27.6222L25.8676 27.7977ZM27.0598 27.7977L27.06 27.5602H27.0598V27.7977ZM27.0756 27.7977L27.0754 28.0352H27.0756V27.7977ZM30.6228 12.6867L30.395 12.7537L30.4242 12.8531L30.517 12.8993L30.6228 12.6867ZM24.7393 8.28708V8.04958L24.7386 8.04959L24.7393 8.28708ZM24.702 8.2872V8.5247L24.7027 8.5247L24.702 8.2872ZM24.1434 8.2872L23.9834 8.46265L24.0514 8.5247H24.1434V8.2872ZM13.072 8.2872V8.5247H13.1641L13.2321 8.46265L13.072 8.2872ZM11.8802 8.2872L11.88 8.5247H11.8802V8.2872ZM4.13057 16.2581C4.13057 11.9871 7.59294 8.52468 11.864 8.52468V8.04968C7.3306 8.04968 3.65557 11.7247 3.65557 16.2581H4.13057ZM8.42259 23.1856C5.87804 21.919 4.13057 19.2924 4.13057 16.2581H3.65557C3.65557 19.4795 5.51127 22.267 8.21092 23.6108L8.42259 23.1856ZM14.2002 27.5603C11.5236 27.5603 9.26307 25.7759 8.54462 23.3312L8.08889 23.4651C8.86515 26.1065 11.3071 28.0353 14.2002 28.0353V27.5603ZM14.2371 27.5602L14.1995 27.5603L14.2009 28.0353L14.2385 28.0352L14.2371 27.5602ZM14.7961 27.5602H14.2378V28.0352H14.7961V27.5602ZM20.3318 29.3996C18.0839 29.3996 16.1212 28.6851 14.9562 27.6222L14.6361 27.9731C15.9087 29.1342 17.9959 29.8746 20.3318 29.8746V29.3996ZM25.7075 27.6222C24.5425 28.6851 22.5798 29.3996 20.3318 29.3996V29.8746C22.6678 29.8746 24.755 29.1342 26.0276 27.9731L25.7075 27.6222ZM27.0598 27.5602H25.8676V28.0352H27.0598V27.5602ZM27.0758 27.5602L27.06 27.5602L27.0596 28.0352L27.0754 28.0352L27.0758 27.5602ZM34.809 19.8268C34.809 24.0978 31.3466 27.5602 27.0756 27.5602V28.0352C31.609 28.0352 35.284 24.3602 35.284 19.8268H34.809ZM30.517 12.8993C33.0615 14.1659 34.809 16.7925 34.809 19.8268H35.284C35.284 16.6054 33.4283 13.8179 30.7287 12.4741L30.517 12.8993ZM24.7393 8.52458C27.416 8.52458 29.6765 10.309 30.395 12.7537L30.8507 12.6197C30.0744 9.9784 27.6324 8.04958 24.7393 8.04958V8.52458ZM24.7027 8.5247L24.7401 8.52458L24.7386 8.04959L24.7012 8.0497L24.7027 8.5247ZM24.1434 8.5247H24.702V8.0497H24.1434V8.5247ZM18.6077 6.68525C20.8557 6.68525 22.8184 7.39982 23.9834 8.46265L24.3035 8.11174C23.0309 6.9507 20.9437 6.21025 18.6077 6.21025V6.68525ZM13.2321 8.46265C14.3971 7.39983 16.3598 6.68525 18.6077 6.68525V6.21025C16.2717 6.21025 14.1846 6.95071 12.9119 8.11174L13.2321 8.46265ZM11.8802 8.5247L13.072 8.5247V8.0497L11.8802 8.0497V8.5247ZM11.8637 8.52468L11.88 8.5247L11.8805 8.0497L11.8642 8.04968L11.8637 8.52468Z" fill="url(#paint4_linear_7896_11950)" mask="url(#path-9-inside-3_7896_11950)"/>
</g>
<g filter="url(#filter5_b_7896_11950)">
<ellipse cx="6.07438" cy="29.33" rx="2.31747" ry="2.31747" transform="rotate(180 6.07438 29.33)" fill="#F9FAFA" fill-opacity="0.9"/>
<path d="M3.87566 29.33C3.87566 28.1157 4.86006 27.1313 6.07438 27.1313C7.2887 27.1313 8.2731 28.1157 8.2731 29.33C8.2731 30.5443 7.2887 31.5287 6.07438 31.5287C4.86006 31.5287 3.87566 30.5443 3.87566 29.33Z" stroke="url(#paint5_linear_7896_11950)" stroke-width="0.2375"/>
</g>
<path d="M21.2874 15.5811V15.5811C21.2874 16.605 22.1175 17.4351 23.1414 17.4351V17.4351C24.1653 17.4351 24.9954 16.605 24.9954 15.5811V15.5811" stroke="#3D3D3D" stroke-width="1.58333" stroke-linecap="round"/>
<path d="M14.0071 15.5811V15.5811C14.0071 16.605 14.8372 17.4351 15.8611 17.4351V17.4351C16.885 17.4351 17.7151 16.605 17.7151 15.5811V15.5811" stroke="#3D3D3D" stroke-width="1.58333" stroke-linecap="round"/>
<defs>
<filter id="filter0_b_7896_11950" x="-1.63493" y="2.1014" width="41.8595" height="31.2264" filterUnits="userSpaceOnUse" color-interpolation-filters="sRGB">
<feFlood flood-opacity="0" result="BackgroundImageFix"/>
<feGaussianBlur in="BackgroundImageFix" stdDeviation="2.77083"/>
<feComposite in2="SourceAlpha" operator="in" result="effect1_backgroundBlur_7896_11950"/>
<feBlend mode="normal" in="SourceGraphic" in2="effect1_backgroundBlur_7896_11950" result="shape"/>
</filter>
<filter id="filter1_b_7896_11950" x="4.94881" y="6.70931" width="29.9918" height="23.4735" filterUnits="userSpaceOnUse" color-interpolation-filters="sRGB">
<feFlood flood-opacity="0" result="BackgroundImageFix"/>
<feGaussianBlur in="BackgroundImageFix" stdDeviation="2.77083"/>
<feComposite in2="SourceAlpha" operator="in" result="effect1_backgroundBlur_7896_11950"/>
<feBlend mode="normal" in="SourceGraphic" in2="effect1_backgroundBlur_7896_11950" result="shape"/>
</filter>
<filter id="filter2_b_7896_11950" x="21.3172" y="12.3109" width="13.63" height="11.4715" filterUnits="userSpaceOnUse" color-interpolation-filters="sRGB">
<feFlood flood-opacity="0" result="BackgroundImageFix"/>
<feGaussianBlur in="BackgroundImageFix" stdDeviation="1.58333"/>
<feComposite in2="SourceAlpha" operator="in" result="effect1_backgroundBlur_7896_11950"/>
<feBlend mode="normal" in="SourceGraphic" in2="effect1_backgroundBlur_7896_11950" result="shape"/>
</filter>
<filter id="filter3_b_7896_11950" x="5.48397" y="12.3109" width="13.63" height="11.4715" filterUnits="userSpaceOnUse" color-interpolation-filters="sRGB">
<feFlood flood-opacity="0" result="BackgroundImageFix"/>
<feGaussianBlur in="BackgroundImageFix" stdDeviation="1.58333"/>
<feComposite in2="SourceAlpha" operator="in" result="effect1_backgroundBlur_7896_11950"/>
<feBlend mode="normal" in="SourceGraphic" in2="effect1_backgroundBlur_7896_11950" result="shape"/>
</filter>
<filter id="filter4_b_7896_11950" x="-1.6486" y="0.906087" width="42.2367" height="34.2728" filterUnits="userSpaceOnUse" color-interpolation-filters="sRGB">
<feFlood flood-opacity="0" result="BackgroundImageFix"/>
<feGaussianBlur in="BackgroundImageFix" stdDeviation="2.77083"/>
<feComposite in2="SourceAlpha" operator="in" result="effect1_backgroundBlur_7896_11950"/>
<feBlend mode="normal" in="SourceGraphic" in2="effect1_backgroundBlur_7896_11950" result="shape"/>
</filter>
<filter id="filter5_b_7896_11950" x="-1.78483" y="21.471" width="15.7183" height="15.7181" filterUnits="userSpaceOnUse" color-interpolation-filters="sRGB">
<feFlood flood-opacity="0" result="BackgroundImageFix"/>
<feGaussianBlur in="BackgroundImageFix" stdDeviation="2.77083"/>
<feComposite in2="SourceAlpha" operator="in" result="effect1_backgroundBlur_7896_11950"/>
<feBlend mode="normal" in="SourceGraphic" in2="effect1_backgroundBlur_7896_11950" result="shape"/>
</filter>
<linearGradient id="paint0_linear_7896_11950" x1="27.7696" y1="23.2659" x2="16.7806" y2="2.74477" gradientUnits="userSpaceOnUse">
<stop stop-color="white"/>
<stop offset="1" stop-color="#F9CC2E" stop-opacity="0"/>
</linearGradient>
<linearGradient id="paint1_linear_7896_11950" x1="25.1381" y1="21.883" x2="18.443" y2="9.23702" gradientUnits="userSpaceOnUse">
<stop stop-color="white"/>
<stop offset="1" stop-color="#F9CC2E" stop-opacity="0"/>
</linearGradient>
<linearGradient id="paint2_linear_7896_11950" x1="25.2353" y1="15.1696" x2="28.7388" y2="21.839" gradientUnits="userSpaceOnUse">
<stop stop-color="#F9CC2E"/>
<stop offset="1" stop-color="#F9CC2E" stop-opacity="0"/>
</linearGradient>
<linearGradient id="paint3_linear_7896_11950" x1="9.40207" y1="15.1696" x2="12.9056" y2="21.839" gradientUnits="userSpaceOnUse">
<stop stop-color="#F9CC2E"/>
<stop offset="1" stop-color="#F9CC2E" stop-opacity="0"/>
</linearGradient>
<linearGradient id="paint4_linear_7896_11950" x1="29.8326" y1="21.056" x2="15.0869" y2="1.68945" gradientUnits="userSpaceOnUse">
<stop stop-color="white"/>
<stop offset="1" stop-color="#F9CC2E" stop-opacity="0"/>
</linearGradient>
<linearGradient id="paint5_linear_7896_11950" x1="4.69697" y1="28.3546" x2="8.086" y2="31.1674" gradientUnits="userSpaceOnUse">
<stop stop-color="white"/>
<stop offset="1" stop-color="#F9CC2E" stop-opacity="0"/>
</linearGradient>
</defs>
</svg>
