<svg width="27" height="26" viewBox="0 0 27 26" fill="none" xmlns="http://www.w3.org/2000/svg">
<path d="M13.834 5.41663C8.8634 5.41663 4.83398 9.44637 4.83398 14.4166C4.83398 19.3869 8.8634 23.4166 13.834 23.4166C18.8042 23.4166 22.834 19.3869 22.834 14.4166C22.834 9.44637 18.8042 5.41663 13.834 5.41663Z" fill="#6A6A6A" fill-opacity="0.4"/>
<path d="M13.4781 2.16663C12.6734 2.16663 11.8566 2.29002 11.0345 2.50434C10.4543 2.65697 10.1357 3.24583 10.2878 3.82385C10.44 4.40188 11.0312 4.75367 11.6112 4.60213C12.2607 4.43218 12.8689 4.33152 13.4781 4.33152C14.1059 4.33152 14.7315 4.43218 15.3788 4.60213C15.9587 4.75367 16.5495 4.40188 16.7027 3.82385C16.8547 3.24583 16.5017 2.65697 15.9218 2.50434C15.1007 2.29002 14.2992 2.16663 13.4781 2.16663ZM21.0806 5.41396C20.4811 5.41396 19.9945 5.89889 19.9945 6.4964C19.9945 7.09391 20.4811 7.57885 21.0806 7.57885C21.6801 7.57885 22.1667 7.09391 22.1667 6.4964C22.1667 5.89889 21.6801 5.41396 21.0806 5.41396ZM13.4781 9.74374C12.8786 9.74374 12.3921 10.2287 12.3921 10.8262V14.0735C12.3921 14.3604 12.4942 14.6483 12.6973 14.8518L14.8694 17.0167C15.294 17.4388 16.0065 17.4388 16.4312 17.0167C16.8547 16.5934 16.8547 15.8834 16.4312 15.4601L14.5642 13.5994V10.8262C14.5642 10.2287 14.0776 9.74374 13.4781 9.74374Z" fill="#F9CC2E"/>
</svg>
