<svg width="48" height="48" viewBox="0 0 48 48" fill="none" xmlns="http://www.w3.org/2000/svg">
<g filter="url(#filter0_b_4753_92343)">
<path fill-rule="evenodd" clip-rule="evenodd" d="M37.3777 36.7339C41.4865 32.625 38.5828 23.0596 30.8921 15.3688C23.2013 7.67809 13.6359 4.77437 9.52704 8.8832C7.513 10.8972 7.66496 15.1035 9.01335 19.3428C9.06059 19.4913 9.19917 19.5916 9.35503 19.5916C9.5972 19.5916 9.77066 19.3578 9.70537 19.1246C8.78475 15.8365 8.60138 12.3316 10.0184 10.8889C12.8835 7.97183 21.0428 9.66565 27.324 15.8322C33.6052 21.9987 36.4015 29.6592 33.537 32.577C31.624 34.5259 27.7404 34.1974 23.976 32.9677C23.0356 32.6605 22.03 33.3351 22.03 34.3245C22.03 34.8021 22.2743 35.2487 22.6846 35.4931C28.5874 39.01 34.4079 39.7037 37.3777 36.7339Z" fill="#F9CC2E"/>
</g>
<g filter="url(#filter1_b_4753_92343)">
<path d="M17.9394 22.4627C17.917 21.4008 19.347 21.041 19.8299 21.987L22.6031 27.4202C22.7431 27.6943 23.0015 27.8888 23.3037 27.9473L28.8243 29.0161C29.6569 29.1774 29.9235 30.2367 29.2663 30.7728L24.9091 34.3272C24.6706 34.5218 24.535 34.8154 24.5414 35.1232L24.67 41.2218C24.6923 42.2837 23.2624 42.6435 22.7795 41.6975L20.0062 36.2644C19.8663 35.9902 19.6079 35.7957 19.3057 35.7372L13.7851 34.6684C12.9524 34.5072 12.6859 33.4478 13.343 32.9117L17.7003 29.3573C17.9388 29.1627 18.0744 28.8691 18.0679 28.5614L17.9394 22.4627Z" fill="#F9CC2E"/>
</g>
<defs>
<filter id="filter0_b_4753_92343" x="4.00562" y="3.01733" width="39.2379" height="39.5825" filterUnits="userSpaceOnUse" color-interpolation-filters="sRGB">
<feFlood flood-opacity="0" result="BackgroundImageFix"/>
<feGaussianBlur in="BackgroundImageFix" stdDeviation="2"/>
<feComposite in2="SourceAlpha" operator="in" result="effect1_backgroundBlur_4753_92343"/>
<feBlend mode="normal" in="SourceGraphic" in2="effect1_backgroundBlur_4753_92343" result="shape"/>
</filter>
<filter id="filter1_b_4753_92343" x="8.97437" y="17.4399" width="24.6606" height="28.8047" filterUnits="userSpaceOnUse" color-interpolation-filters="sRGB">
<feFlood flood-opacity="0" result="BackgroundImageFix"/>
<feGaussianBlur in="BackgroundImageFix" stdDeviation="2"/>
<feComposite in2="SourceAlpha" operator="in" result="effect1_backgroundBlur_4753_92343"/>
<feBlend mode="normal" in="SourceGraphic" in2="effect1_backgroundBlur_4753_92343" result="shape"/>
</filter>
</defs>
</svg>
