<svg width="264" height="212" viewBox="0 0 264 212" fill="none" xmlns="http://www.w3.org/2000/svg">
<path d="M186.703 173.84C186.703 180.718 155.588 186.293 117.207 186.293C78.8246 186.293 47.71 180.718 47.71 173.84C47.71 166.962 78.8246 161.387 117.207 161.387C155.588 161.387 186.703 166.962 186.703 173.84Z" fill="url(#paint0_linear_4744_86892)"/>
<path d="M28.3195 76.2227C28.3195 76.2227 28.5442 79.9339 29.7391 81.1308C30.9339 82.3276 34.639 82.5527 34.639 82.5527C34.639 82.5527 30.9668 82.7503 29.7391 83.9746C28.5881 85.1275 28.3195 88.8827 28.3195 88.8827C28.3195 88.8827 28.0016 85.0781 26.9 83.9746C25.7161 82.7888 22 82.5527 22 82.5527C22 82.5527 25.6996 82.3331 26.9 81.1308C28.166 79.8626 28.3195 76.2227 28.3195 76.2227Z" fill="#8D8D8D"/>
<path d="M36.3537 92.291C36.3537 92.291 36.5784 96.0023 37.7733 97.1991C38.9681 98.396 42.6732 98.6211 42.6732 98.6211C42.6732 98.6211 39.001 98.8187 37.7733 100.043C36.6223 101.196 36.3537 104.951 36.3537 104.951C36.3537 104.951 36.0358 101.146 34.9341 100.043C33.7503 98.8571 30.0342 98.6211 30.0342 98.6211C30.0342 98.6211 33.7338 98.4015 34.9341 97.1991C36.2002 95.9309 36.3537 92.291 36.3537 92.291Z" fill="#8D8D8D"/>
<path d="M175.038 116.164C185.245 94.3713 183.681 74.2578 177.342 61.7157C171.679 50.5069 156.325 47.0707 144.489 51.278C134.316 54.8945 129.155 59.1219 123.204 66.6827C122.088 68.1 119.643 67.5255 119.067 65.8162C114.427 52.0508 98.6621 42.7714 83.9511 44.6041C67.5606 46.6506 54.019 60.3547 49.5475 76.252C45.0761 92.1493 48.7215 109.561 56.7502 123.987C64.779 138.414 76.8761 150.177 89.8141 160.447C96.2057 165.522 110.935 172.807 118.991 171.289C135.054 168.263 163.303 141.222 175.038 116.164Z" fill="#222222"/>
<path d="M112.362 93.8597C112.221 97.1457 112.082 100.426 111.94 103.712C111.899 104.734 112.708 105.759 113.771 105.776C114.834 105.793 115.789 105.037 115.835 103.945C115.976 100.659 116.115 97.3792 116.257 94.0932C116.298 93.0707 115.489 92.0461 114.426 92.0292C113.363 92.0124 112.408 92.7682 112.362 93.8597Z" fill="#8D8D8D"/>
<path d="M97.9003 91.4496C97.759 94.7355 97.6197 98.0158 97.4785 101.302C97.437 102.324 98.246 103.349 99.3089 103.366C100.372 103.383 101.327 102.627 101.373 101.535C101.514 98.2493 101.653 94.969 101.795 91.6831C101.836 90.6605 101.027 89.6359 99.9643 89.6191C98.9013 89.6022 97.946 90.3581 97.9003 91.4496Z" fill="#8D8D8D"/>
<path fill-rule="evenodd" clip-rule="evenodd" d="M191.103 101.178C185.106 102.634 178.978 104.446 176.205 105.861C175.714 106.112 175.518 106.714 175.769 107.206C176.02 107.698 176.623 107.893 177.115 107.642C179.647 106.35 185.55 104.585 191.575 103.122C197.6 101.659 203.499 100.558 206 100.52C206.552 100.512 206.993 100.058 206.985 99.5056C206.977 98.9534 206.523 98.5124 205.97 98.5206C203.211 98.5617 197.1 99.7222 191.103 101.178ZM202.483 105.86C202.525 106.411 203.005 106.824 203.555 106.782C206.191 106.585 207.709 106.327 208.666 106.164C208.84 106.135 208.995 106.109 209.135 106.086C209.597 106.013 209.79 106.003 209.929 106.021C210.042 106.035 210.184 106.076 210.503 106.255L210.508 106.258C210.532 106.271 210.57 106.291 210.587 106.452C210.61 106.666 210.566 106.995 210.432 107.427C210.388 107.567 210.338 107.709 210.283 107.85C209.456 108.676 208.835 109.14 208.419 109.386C208.203 109.513 208.058 109.573 207.979 109.598L207.966 109.602C207.478 109.579 207.035 109.917 206.939 110.41C206.834 110.953 207.188 111.477 207.73 111.582C208.048 111.644 208.359 111.576 208.585 111.504C208.793 111.437 209.02 111.338 209.263 111.206C209.28 111.275 209.298 111.339 209.314 111.399C209.337 111.479 209.358 111.555 209.379 111.627C209.474 111.957 209.548 112.213 209.566 112.502C209.586 112.804 209.539 113.117 209.306 113.479C209.058 113.863 208.56 114.361 207.566 114.926C207.213 115.127 206.564 115.514 205.669 116.046L205.668 116.047L205.668 116.047C202.181 118.123 194.971 122.415 187.059 126.572C182.093 129.181 176.881 131.721 172.181 133.605C167.442 135.505 163.356 136.684 160.591 136.684C160.039 136.684 159.591 137.132 159.591 137.684C159.591 138.236 160.039 138.684 160.591 138.684C163.774 138.684 168.174 137.367 172.925 135.461C177.715 133.541 182.995 130.967 187.989 128.343C195.972 124.149 203.299 119.785 206.748 117.732L206.748 117.732C207.609 117.219 208.228 116.851 208.555 116.665C209.721 116.002 210.507 115.307 210.986 114.563C211.481 113.795 211.606 113.045 211.562 112.373C211.528 111.845 211.382 111.347 211.286 111.017C211.269 110.96 211.254 110.907 211.241 110.861C211.201 110.719 211.181 110.631 211.173 110.575C211.466 110.054 212.023 109.042 212.341 108.022C212.509 107.484 212.64 106.852 212.576 106.243C212.508 105.592 212.203 104.918 211.485 104.513C211.061 104.274 210.659 104.098 210.181 104.037C209.73 103.98 209.286 104.037 208.821 104.111C208.673 104.135 208.512 104.162 208.334 104.192L208.334 104.192L208.334 104.192C207.381 104.354 205.945 104.598 203.406 104.788C202.855 104.829 202.442 105.309 202.483 105.86ZM207.927 109.611C207.927 109.611 207.931 109.611 207.938 109.609C207.931 109.61 207.927 109.611 207.927 109.611Z" fill="#666666"/>
<path fill-rule="evenodd" clip-rule="evenodd" d="M211.788 98.6179C200.248 101.839 188.283 95.0955 185.062 83.5561C181.841 72.0168 188.584 60.0511 200.124 56.8301C211.663 53.6092 223.629 60.3526 226.85 71.8919C230.071 83.4313 223.327 95.397 211.788 98.6179ZM193.348 62.0751L211.991 95.0488L215.735 92.932L197.091 59.9582L193.348 62.0751Z" fill="#F9FAFA" fill-opacity="0.15"/>
<g filter="url(#filter0_b_4744_86892)">
<path fill-rule="evenodd" clip-rule="evenodd" d="M189.878 82.2119C192.356 91.0915 201.564 96.2806 210.444 93.802C219.323 91.3235 224.512 82.1158 222.034 73.2362C219.555 64.3566 210.348 59.1675 201.468 61.646C192.588 64.1246 187.399 73.3322 189.878 82.2119ZM210.419 98.9532C210.876 98.8568 211.332 98.7451 211.788 98.6179C223.327 95.397 230.071 83.4313 226.85 71.8919C223.629 60.3526 211.663 53.6092 200.124 56.8301C188.584 60.0511 181.841 72.0168 185.062 83.5561C187.403 91.9427 194.363 97.7961 202.421 99.132L202.537 105.999L210.536 105.864L210.419 98.9532Z" fill="#666666"/>
</g>
<path fill-rule="evenodd" clip-rule="evenodd" d="M92.6004 122.565C91.7565 123.465 90.8099 124.434 89.6515 125.399C87.3589 127.31 86.1814 127.807 84.9402 127.573C84.263 127.445 83.4677 127.082 82.401 126.379C81.3375 125.678 80.0779 124.69 78.4691 123.383C78.0405 123.035 77.4107 123.1 77.0624 123.528C76.7141 123.957 76.7793 124.587 77.2079 124.935C78.8128 126.239 80.1433 127.286 81.3004 128.049C82.4544 128.809 83.5105 129.338 84.5698 129.538C86.8013 129.959 88.6367 128.848 90.9319 126.936C92.1839 125.893 93.1957 124.854 94.0591 123.933C94.2421 123.738 94.4163 123.551 94.5834 123.371L94.5836 123.371C95.2226 122.683 95.7579 122.108 96.2806 121.641C96.9303 121.061 97.4504 120.755 97.9526 120.65C98.4288 120.551 99.0259 120.605 99.8875 121.036C99.9671 121.076 99.9707 121.092 99.9823 121.144L99.983 121.147C100.01 121.268 100.007 121.48 99.9431 121.845C99.9156 122.001 99.8822 122.16 99.8448 122.337L99.8448 122.337L99.8448 122.337L99.8319 122.398C99.7911 122.592 99.7462 122.808 99.7129 123.023C99.6516 123.418 99.5957 123.988 99.8052 124.524C99.8314 124.59 99.8646 124.654 99.9044 124.714L100.708 125.919C100.952 126.285 101.406 126.448 101.827 126.322C103.863 125.711 105.245 125.186 106.438 124.535C107.634 123.883 108.6 123.126 109.813 122.115C110.628 121.436 111.175 121.367 111.428 121.414C111.628 121.452 111.876 121.606 112.019 122.112C112.322 123.181 111.933 125.398 109.682 127.857L106.915 130.229C106.495 130.588 106.447 131.22 106.806 131.639C107.166 132.058 107.797 132.107 108.216 131.747L109.736 130.445C109.762 130.58 109.78 130.756 109.78 130.989C109.78 131.424 109.572 131.787 109.22 132.14C109.043 132.316 108.848 132.472 108.651 132.621C108.626 132.64 108.597 132.662 108.566 132.685C108.412 132.8 108.202 132.957 108.065 133.094C107.674 133.485 107.674 134.118 108.065 134.508C108.39 134.833 108.884 134.888 109.265 134.671C109.166 135.073 108.876 135.635 108.29 136.345C107.071 137.823 104.804 139.661 101.435 141.643C97.5405 143.934 87.2135 149.138 75.8301 149.138C75.2779 149.138 74.8301 149.585 74.8301 150.138C74.8301 150.69 75.2779 151.138 75.8301 151.138C87.7463 151.138 98.4468 145.721 102.449 143.367C105.908 141.332 108.401 139.354 109.833 137.618C110.545 136.755 111.054 135.88 111.235 135.03C111.375 134.368 111.313 133.713 111.001 133.142C111.42 132.612 111.78 131.9 111.78 130.989C111.78 130.273 111.66 129.71 111.424 129.236C111.388 129.165 111.351 129.098 111.313 129.035C113.692 126.354 114.498 123.523 113.943 121.566C113.649 120.528 112.925 119.66 111.796 119.448C110.721 119.247 109.583 119.704 108.533 120.579C107.336 121.576 106.495 122.226 105.481 122.779C104.591 123.264 103.537 123.692 101.959 124.189L101.66 123.741C101.659 123.727 101.658 123.709 101.657 123.688C101.656 123.601 101.665 123.485 101.689 123.329C101.713 123.174 101.748 123.006 101.789 122.81L101.802 122.749C101.838 122.577 101.879 122.384 101.913 122.192C101.985 121.781 102.054 121.238 101.934 120.708C101.8 120.109 101.437 119.575 100.782 119.247C99.635 118.674 98.575 118.477 97.5447 118.692C96.5405 118.901 95.7048 119.474 94.9485 120.149C94.3495 120.684 93.731 121.35 93.0838 122.046C92.9245 122.218 92.7634 122.391 92.6004 122.565Z" fill="#666666"/>
<defs>
<filter id="filter0_b_4744_86892" x="180.258" y="52.0259" width="51.3962" height="57.9734" filterUnits="userSpaceOnUse" color-interpolation-filters="sRGB">
<feFlood flood-opacity="0" result="BackgroundImageFix"/>
<feGaussianBlur in="BackgroundImageFix" stdDeviation="2"/>
<feComposite in2="SourceAlpha" operator="in" result="effect1_backgroundBlur_4744_86892"/>
<feBlend mode="normal" in="SourceGraphic" in2="effect1_backgroundBlur_4744_86892" result="shape"/>
</filter>
<linearGradient id="paint0_linear_4744_86892" x1="117.207" y1="161.387" x2="117.207" y2="186.293" gradientUnits="userSpaceOnUse">
<stop stop-color="#222222"/>
<stop offset="1"/>
</linearGradient>
</defs>
</svg>
