<svg width="48" height="48" viewBox="0 0 48 48" fill="none" xmlns="http://www.w3.org/2000/svg">
<path d="M10.9995 25.501C10.9995 24.6725 11.6711 24.001 12.4995 24.001C13.3279 24.001 13.9995 24.6725 13.9995 25.501V29.501C13.9995 30.3294 13.3279 31.001 12.4995 31.001C11.6711 31.001 10.9995 30.3294 10.9995 29.501V25.501Z" fill="#F9CC2E"/>
<path d="M34.0002 25.501C34.0002 24.6725 34.6718 24.001 35.5002 24.001C36.3287 24.001 37.0002 24.6725 37.0002 25.501V29.501C37.0002 30.3294 36.3287 31.001 35.5002 31.001C34.6718 31.001 34.0002 30.3294 34.0002 29.501V25.501Z" fill="#F9CC2E"/>
<path fill-rule="evenodd" clip-rule="evenodd" d="M7.98488 20.5788C7.20383 20.8713 6.68628 21.6178 6.68628 22.4518V26.0475C6.68628 27.152 7.58171 28.0475 8.68628 28.0475H23.9996H23.9996H39.3129C40.4175 28.0475 41.3129 27.152 41.3129 26.0475V22.4518C41.3129 21.6178 40.7954 20.8713 40.0143 20.5788L23.9996 14.5815C23.9996 14.5815 23.9996 14.5815 23.9996 14.5815C23.9996 14.5815 23.9996 14.5815 23.9996 14.5815L7.98488 20.5788Z" fill="#F9FAFA"/>
<path fill-rule="evenodd" clip-rule="evenodd" d="M24.0007 5.00171C21.2393 5.00171 19.0007 7.24029 19.0007 10.0017V34.8757C19.0007 35.202 18.8415 35.5078 18.5742 35.695L15.2366 38.0313C14.702 38.4055 14.3835 39.0171 14.3835 39.6697V42.0129C14.3835 43.5263 15.9993 44.4914 17.3317 43.7739L23.0535 40.6929C23.6455 40.3742 24.358 40.3742 24.9499 40.6929L30.6717 43.7739C32.0042 44.4914 33.6199 43.5263 33.6199 42.0129V39.6697C33.6199 39.0171 33.3015 38.4055 32.7668 38.0313L29.4273 35.6936C29.1599 35.5064 29.0007 35.2006 29.0007 34.8743V10.0017C29.0007 7.24029 26.7622 5.00171 24.0007 5.00171Z" fill="#8ED6FF"/>
<path fill-rule="evenodd" clip-rule="evenodd" d="M23.0005 6.00098C21.8959 6.00098 21.0005 6.89641 21.0005 8.00098C21.0005 8.55326 21.4482 9.00098 22.0005 9.00098H23.0005V6.00098ZM25.0005 6.00098L25.0005 9.00098H26.0005C26.5528 9.00098 27.0005 8.55326 27.0005 8.00098C27.0005 6.89641 26.1051 6.00098 25.0005 6.00098Z" fill="#F9FAFA"/>
</svg>
