<svg width="22" height="22" viewBox="0 0 22 22" fill="none" xmlns="http://www.w3.org/2000/svg">
<path d="M1 11C1 16.5228 5.477 21 11 21C16.523 21 21 16.5228 21 11C21 5.477 16.523 0.999999 11 1C5.477 1 0.999999 5.477 1 11Z" fill="#F9FAFA"/>
<path fill-rule="evenodd" clip-rule="evenodd" d="M7.07104 10C6.51876 10 6.07104 10.4477 6.07104 11C6.07104 11.5523 6.51876 12 7.07104 12L10.071 12L10.071 15C10.071 15.5523 10.5188 16 11.071 16C11.6233 16 12.071 15.5523 12.071 15L12.071 12L15.071 12C15.6233 12 16.071 11.5523 16.071 11C16.071 10.4477 15.6233 10 15.071 10L12.071 10L12.071 7C12.071 6.44771 11.6233 6 11.071 6C10.5188 6 10.071 6.44771 10.071 7L10.071 10L7.07104 10Z" fill="#666666"/>
</svg>
