<svg width="48" height="48" viewBox="0 0 48 48" fill="none" xmlns="http://www.w3.org/2000/svg">
<path fill-rule="evenodd" clip-rule="evenodd" d="M6.00024 39.0076L6.00024 37.9825C6.00928 33.5719 9.58753 29.9993 14.0002 29.9993H33.0002C37.4185 29.9993 41.0002 33.581 41.0002 37.9993V38.9993C41.0002 40.1038 40.1048 40.9993 39.0002 40.9993H8.00023C6.89845 40.9993 6.00475 40.1084 6.00024 39.0076Z" fill="#F9CC2E"/>
<path d="M35.782 12.0967C36.1726 11.7062 36.8057 11.7062 37.1962 12.0967C37.5868 12.4873 37.5868 13.1204 37.1962 13.5109L13.1546 37.5526C12.7641 37.9431 12.1309 37.9431 11.7404 37.5526C11.3499 37.162 11.3499 36.5289 11.7404 36.1384L35.782 12.0967Z" fill="#F9FAFA"/>
<path d="M13.0776 13.589L13.2355 13.4311C19.49 7.2615 29.5617 7.28772 35.7837 13.5098C42.0321 19.7582 42.0321 29.8888 35.7837 36.1372C35.7694 36.1515 35.755 36.1658 35.7406 36.1801C35.3656 36.5523 34.7634 36.5316 34.3898 36.158L13.0996 14.8678C12.7461 14.5144 12.7266 13.9448 13.0776 13.589Z" fill="#FF4D00"/>
<path d="M33.2481 33.7221C32.8837 34.0836 32.298 34.0679 31.935 33.7049L15.6134 17.3834C15.2361 17.0061 15.2198 16.3971 15.5962 16.019C15.6073 16.0078 15.6184 15.9967 15.6296 15.9855C21.878 9.73714 30.9006 8.62911 35.7821 13.5107C40.6483 18.3768 39.5625 27.358 33.3661 33.6041L33.2481 33.7221Z" fill="#F9FAFA"/>
<path d="M21.184 21.7469L21.3912 21.5397C27.6076 15.3546 34.0356 11.7638 35.7832 13.5114C37.5405 15.2688 33.8998 21.7587 27.6515 28.0071C27.6474 28.0112 27.6433 28.0153 27.6391 28.0194C27.2533 28.405 26.6289 28.399 26.2432 28.0133L21.19 22.9601C20.855 22.6251 20.8498 22.0828 21.184 21.7469Z" fill="#FF4D00"/>
</svg>
