<svg width="264" height="212" viewBox="0 0 264 212" fill="none" xmlns="http://www.w3.org/2000/svg">
<path d="M48.467 89.3804C69.9939 89.3804 69.9939 95.9038 93.8039 89.3804C118.919 95.5774 157.732 65.2437 203.395 64.2651C249.058 63.2866 224.27 139.937 203.395 159.833C182.521 179.73 137.836 154.289 99.3487 164.4C60.8613 174.511 34.1158 152.332 24.0047 132.109C13.8936 111.886 26.9402 89.3804 48.467 89.3804Z" fill="url(#paint0_angular_4744_86919)"/>
<path d="M242.535 27.324C245.608 38.4805 232.886 45.8013 221.582 48.277C211.04 50.5856 195.279 47.9316 195.279 39.8066C195.279 31.6816 204.661 20.3803 216.232 17.9621C226.905 15.7316 239.64 16.8124 242.535 27.324Z" fill="url(#paint1_linear_4744_86919)"/>
<path fill-rule="evenodd" clip-rule="evenodd" d="M184.343 95.663C184.4 95.8743 184.458 96.0865 184.498 96.3034L184.492 96.3103C186.18 104.786 180.348 112.867 174.107 118.852C161.557 130.88 145.842 139.529 129.032 143.919C125.117 144.941 121.138 145.735 117.126 146.285C121.962 154.52 122.922 165.163 118.562 173.722C111.887 186.816 93.9374 192.698 80.804 186.091C67.2714 179.283 61.5409 163.145 58.5484 148.292C53.4833 123.165 48.5833 96.2982 56.0993 71.8005C57.6007 66.9102 62.4707 58.965 66.7913 54.354C85.0213 34.8909 113.99 33.3275 140.82 31.8794C141.948 31.8185 143.074 31.7577 144.194 31.6959C149.873 31.3817 155.643 31.2355 161.158 32.5957C166.673 33.956 171.986 37.0131 174.947 41.8689C179.933 50.0463 176.832 61.191 170.325 68.2232C167.302 71.4867 163.71 74.0694 159.844 76.2667C155.369 77.7104 150.767 78.761 146.096 79.401C144.929 79.5616 144.187 80.9144 144.425 82.0538C144.688 83.3169 145.85 83.9779 147.018 83.8173C151.186 83.246 155.295 82.3524 159.311 81.1551C162.385 81.0626 165.445 81.2541 168.455 81.9229C175.578 83.5107 182.425 88.4367 184.278 95.4191C184.299 95.5004 184.321 95.5817 184.343 95.663Z" fill="#F9FAFA"/>
<path d="M115.943 83.1944C115.589 83.5 115.22 83.7813 114.832 84.0459C114.527 84.2541 115.091 83.9089 114.87 84.0162C114.773 84.0666 114.673 84.1247 114.577 84.1751C114.383 84.2759 114.179 84.363 113.977 84.4424C113.897 84.4727 113.806 84.4892 113.73 84.5301C114.075 84.3291 113.96 84.4626 113.782 84.5064C113.569 84.5537 113.358 84.5933 113.137 84.6193C112.792 84.6575 112.45 84.6697 112.105 84.6895C111.96 84.6929 111.68 84.6766 112.274 84.6873C112.207 84.6867 112.147 84.689 112.08 84.6883C111.918 84.6935 111.751 84.688 111.588 84.6748C111.241 84.6578 110.91 84.6022 110.575 84.5359C110.24 84.4696 110.941 84.6509 110.704 84.5711C110.617 84.5354 110.518 84.5121 110.428 84.4841C110.234 84.4221 110.04 84.3417 109.856 84.2566C109.672 84.1714 109.491 84.0786 109.311 83.9857C109.083 83.8643 109.099 83.9071 109.311 83.9857C109.174 83.9292 109.031 83.8066 108.907 83.7192C108.062 83.1528 106.808 83.1676 106.131 84.1531C105.537 85.0193 105.497 86.4403 106.407 87.052C107.47 87.763 108.536 88.3034 109.776 88.6082C110.654 88.8272 111.534 88.8203 112.437 88.7778C113.434 88.7295 114.351 88.6116 115.318 88.2519C116.375 87.8573 117.366 87.1733 118.233 86.4202C119.047 85.717 119.352 84.3693 118.678 83.512C118.004 82.6546 116.797 82.4354 115.929 83.1885L115.943 83.1944Z" fill="#161616"/>
<path d="M135.107 80.6977C134.948 80.8793 134.77 81.0446 134.615 81.2365C134.718 81.1086 134.907 80.9564 134.677 81.1682C134.592 81.2524 134.502 81.3263 134.413 81.4003C134.254 81.5395 134.082 81.6728 133.915 81.7915C133.821 81.8552 133.728 81.9188 133.627 81.9795C133.346 82.1706 133.927 81.8223 133.715 81.9304C133.525 82.0227 133.343 82.118 133.142 82.197C133.033 82.2372 132.924 82.2774 132.818 82.3103C132.473 82.4323 133.241 82.221 132.849 82.2974C132.545 82.3597 132.239 82.4293 131.936 82.4916C131.633 82.5539 131.326 82.606 131.01 82.6376C130.851 82.657 130.691 82.6589 130.527 82.668C130.329 82.6799 131.076 82.6818 130.666 82.6572C130.585 82.6494 130.509 82.6518 130.428 82.644C130.053 82.6167 129.675 82.4945 129.306 82.4702C129.623 82.5584 129.683 82.5749 129.473 82.5136L129.36 82.4837C129.239 82.4508 129.121 82.4106 129.003 82.3703C128.746 82.281 128.495 82.1771 128.244 82.0733C127.31 81.6698 126.057 82.1584 125.696 83.1525C125.336 84.1465 125.738 85.2857 126.737 85.7159C128.598 86.5198 130.528 86.7894 132.526 86.3874C133.491 86.1891 134.458 85.9836 135.326 85.4895C136.424 84.8684 137.324 84.0722 138.151 83.109C138.819 82.3273 138.648 80.9339 137.824 80.3456C136.927 79.7102 135.81 79.8709 135.087 80.7063L135.107 80.6977Z" fill="#161616"/>
<path fill-rule="evenodd" clip-rule="evenodd" d="M79.149 113.116C79.6159 113.261 80.3736 113.701 81.4963 114.736C82.5133 115.673 84.0821 116.636 85.8784 117.555C87.6922 118.483 89.8043 119.398 91.9574 120.224C96.2425 121.868 100.794 123.2 103.564 123.559C104.111 123.63 104.613 123.244 104.684 122.696C104.755 122.148 104.368 121.647 103.821 121.576C101.285 121.247 96.9069 119.981 92.6739 118.357C90.568 117.549 88.5239 116.662 86.789 115.774C85.0366 114.878 83.6641 114.014 82.8517 113.265C81.6544 112.162 80.6331 111.482 79.7409 111.206C79.2815 111.064 78.8204 111.017 78.376 111.107C77.9219 111.2 77.5487 111.423 77.2601 111.719C76.9247 112.062 76.7156 112.49 76.5833 112.911C76.3078 112.779 76.0053 112.692 75.6756 112.657C74.5036 112.534 73.3031 113.117 72.2225 113.971C70.8169 115.082 69.0671 117.266 68.8362 120.13C68.5993 123.069 69.9796 126.427 74.2738 129.781C76.6882 131.666 80.4507 134.357 84.4552 136.689C88.4271 139.002 92.7637 141.039 96.2915 141.497C96.8392 141.568 97.3408 141.182 97.4119 140.634C97.4829 140.086 97.0965 139.585 96.5488 139.514C93.4452 139.111 89.4037 137.256 85.4617 134.961C81.5522 132.684 77.865 130.048 75.5049 128.204C71.5668 125.129 70.6625 122.365 70.8297 120.291C71.0029 118.143 72.3459 116.423 73.4625 115.54C74.3998 114.8 75.0745 114.605 75.4663 114.646C75.7379 114.675 76.1164 114.846 76.423 115.709C76.591 116.182 77.0838 116.457 77.5748 116.352C78.0657 116.247 78.4025 115.794 78.362 115.294C78.3299 114.897 78.3257 114.403 78.3925 113.956C78.4641 113.477 78.5934 113.216 78.6913 113.116C78.7228 113.084 78.7444 113.073 78.7751 113.067C78.8154 113.059 78.9288 113.048 79.149 113.116Z" fill="#3D3D3D"/>
<path fill-rule="evenodd" clip-rule="evenodd" d="M196.248 139C198.635 131.907 194.1 127.281 191.53 125.851L192.503 124.103C195.551 125.799 200.954 131.286 198.143 139.638C195.41 147.762 189.105 150.644 186.12 151.052L185.849 149.07C188.172 148.753 193.784 146.322 196.248 139Z" fill="#3D3D3D"/>
<path fill-rule="evenodd" clip-rule="evenodd" d="M192.162 111.614C196.085 120.965 196.184 135.521 187.726 150.686C178.001 168.123 156.288 186.145 144.573 187.504C138.697 188.185 128.467 182.191 124.126 178.211C115.337 170.16 107.23 161.076 102.187 150.282C97.1445 139.489 95.409 126.771 99.4384 115.557C103.468 104.343 113.914 95.1698 125.815 94.533C137.508 93.9107 149.429 102.935 150.528 114.538C150.604 116.301 150.604 118.174 150.38 119.987L150.382 119.982C150.258 120.987 151.02 121.639 151.798 121.744C152.426 121.83 153.103 121.564 153.391 120.923C153.453 120.784 153.495 120.626 153.517 120.454C153.837 117.873 153.768 115.284 153.567 112.189C153.558 112.051 153.549 111.913 153.539 111.778C157.955 107.051 161.863 104.42 169.048 102.425C177.782 100.001 188.657 103.257 192.162 111.614Z" fill="#F9CC2E"/>
<path fill-rule="evenodd" clip-rule="evenodd" d="M192.162 111.614C196.085 120.965 196.184 135.521 187.726 150.686C178.001 168.123 156.288 186.145 144.573 187.504C138.697 188.185 128.467 182.191 124.126 178.211C115.337 170.16 107.23 161.076 102.187 150.282C97.1445 139.489 95.409 126.771 99.4384 115.557C103.468 104.343 113.914 95.1698 125.815 94.533C137.508 93.9107 149.429 102.935 150.528 114.538C150.604 116.301 150.604 118.174 150.38 119.987L150.382 119.982C150.258 120.987 151.02 121.639 151.798 121.744C152.426 121.83 153.103 121.564 153.391 120.923C153.453 120.784 153.495 120.626 153.517 120.454C153.837 117.873 153.768 115.284 153.567 112.189C153.558 112.051 153.549 111.913 153.539 111.778C157.955 107.051 161.863 104.42 169.048 102.425C177.782 100.001 188.657 103.257 192.162 111.614Z" fill="url(#paint2_radial_4744_86919)"/>
<path d="M182.892 136.047C180.409 144.919 175.901 153.211 169.808 160.142C168.056 162.137 166.173 164.017 164.184 165.777C163.589 166.303 163.702 167.341 164.251 167.854C164.875 168.438 165.744 168.325 166.34 167.793C173.541 161.424 179.293 153.42 183.017 144.58C184.1 142.015 185.022 139.383 185.773 136.705C186.284 134.882 183.403 134.224 182.893 136.041L182.892 136.047Z" fill="#F9FAFA"/>
<path d="M96.3311 141.459C98.3352 136.442 103.683 133.961 106.531 134.824C108.486 135.417 108.742 136.694 108.169 138.657C105.615 139.444 103.872 140.907 102.794 142.172C102.436 142.593 102.486 143.224 102.907 143.582C103.327 143.94 103.958 143.89 104.316 143.469C105.699 141.847 108.524 139.674 113.505 140.156C114.173 140.307 114.832 140.497 115.477 140.729C120.004 142.358 123.096 145.749 125.408 149.556C126.563 151.454 127.52 153.448 128.447 155.448C129.827 161.528 129.098 167.985 125.823 173.583C119.947 183.615 106.682 189.524 94.1522 188.888C89.5772 189.112 84.979 188.269 80.8555 186.195C74.3378 182.916 69.6298 177.472 66.166 171.05C65.8779 151.262 90.9084 143.213 96.299 141.571C96.2963 141.526 96.3067 141.489 96.3311 141.459Z" fill="#F9FAFA"/>
<path d="M186.16 118.515C183.218 112.821 183.684 107.924 185.577 105.641C188.545 104.116 193.396 102.714 197.042 112.121C200.688 121.529 199.148 125.668 195.643 126.814C192.139 127.96 189.101 124.209 186.16 118.515Z" fill="#F9FAFA"/>
<defs>
<radialGradient id="paint0_angular_4744_86919" cx="0" cy="0" r="1" gradientUnits="userSpaceOnUse" gradientTransform="translate(124.841 115.97) rotate(90) scale(51.7137 104.319)">
<stop stop-color="#FFF00D" stop-opacity="0.67"/>
<stop offset="0.307292" stop-color="#FFF00D" stop-opacity="0.09"/>
<stop offset="0.578125" stop-color="#161616"/>
<stop offset="1" stop-color="#EFC0FF" stop-opacity="0.71"/>
</radialGradient>
<linearGradient id="paint1_linear_4744_86919" x1="194.833" y1="49.1687" x2="303.165" y2="-17.2566" gradientUnits="userSpaceOnUse">
<stop stop-color="#C7AFDD" stop-opacity="0.12"/>
<stop offset="1" stop-color="#FBED0E"/>
</linearGradient>
<radialGradient id="paint2_radial_4744_86919" cx="0" cy="0" r="1" gradientUnits="userSpaceOnUse" gradientTransform="translate(149.767 127.93) rotate(89.0135) scale(59.0878 130.719)">
<stop stop-color="#FFA800"/>
<stop offset="1" stop-color="#F9CC2E" stop-opacity="0"/>
</radialGradient>
</defs>
</svg>
