<svg width="264" height="212" viewBox="0 0 264 212" fill="none" xmlns="http://www.w3.org/2000/svg">
<path d="M219.862 179.921C219.862 188.742 178.703 195.893 127.931 195.893C77.1589 195.893 36 188.742 36 179.921C36 171.099 77.1589 163.948 127.931 163.948C178.703 163.948 219.862 171.099 219.862 179.921Z" fill="url(#paint0_linear_4744_86875)"/>
<path d="M144.786 55.3051C144.449 39.7503 137.773 28.5448 130.502 23.0962C124.006 18.2263 114.124 20.6395 108.473 26.4724C102.822 32.3053 101.34 36.6709 99.9607 44.6742C94.0027 35.8167 80.3878 34.09 71.4822 39.9713C62.5724 45.8587 58.6574 57.6835 60.6268 68.1772C62.5962 78.6709 69.7029 87.7136 78.4932 93.7693C87.2835 99.825 97.6671 103.171 108.109 105.41C113.269 106.517 123.892 106.513 128.125 103.322C136.564 96.9613 145.175 73.19 144.786 55.3051Z" fill="#2C2C2E"/>
<path d="M204.37 108.393C215.933 93.7808 218.327 78.344 215.776 67.7654C213.499 58.3117 202.537 52.995 192.87 54.0639C183.202 55.1328 178.502 58.0298 171.119 64.3626C172.383 51.6403 161.137 39.6533 148.429 38.2821C135.712 36.9135 123.072 44.8369 116.879 56.0242C110.685 67.2115 110.34 80.9816 113.829 93.2805C117.318 105.579 124.346 116.594 132.273 126.631C136.189 131.592 145.996 139.698 152.338 139.985C164.981 140.557 191.075 125.194 204.37 108.393Z" fill="#3D3D3D"/>
<path d="M182.949 138.036C195.044 119.934 196.384 101.731 192.421 89.6504C188.882 78.8542 175.618 73.6907 164.459 75.8425C153.3 77.9943 148.097 81.8092 140.094 89.877C140.372 74.9419 126.15 62.0368 111.222 61.632C96.2833 61.2311 82.306 71.6447 76.1426 85.2546C69.9791 98.8645 70.8693 114.934 76.0864 128.93C81.3034 142.926 90.5217 155.094 100.696 166.04C105.721 171.45 117.903 179.971 125.316 179.71C140.094 179.19 169.041 158.85 182.949 138.036Z" fill="#F9CC2E"/>
<path d="M138.831 92.1383C140.707 89.4489 143.116 87.0306 145.23 84.9774C146.748 83.4999 148.037 82.3088 149.279 81.2264C149.81 80.7598 150.039 80.1196 149.908 79.4647C149.761 78.7459 149.207 78.1265 148.501 77.8888C147.849 77.6685 147.165 77.8093 146.621 78.2778C145.313 79.4158 143.971 80.6607 142.394 82.1956C139.613 84.9139 137.378 87.2703 135.514 89.9454C135.391 90.1242 135.297 90.3063 135.238 90.4881C134.97 91.3277 135.378 92.1421 136.036 92.5882C136.85 93.1432 138.106 93.1736 138.833 92.1329L138.831 92.1383Z" fill="#3D3D3D"/>
<path d="M91.3735 149.987L83.3202 122.606C83.1251 121.942 83.3079 121.226 83.7968 120.737C84.1843 120.349 84.7208 120.149 85.2674 120.188L102.686 121.432C103.509 121.491 104.211 122.048 104.454 122.836L112.833 149.904C113.04 150.575 112.859 151.305 112.363 151.802C111.984 152.181 111.461 152.382 110.925 152.353L93.1871 151.42C92.3398 151.375 91.6129 150.801 91.3735 149.987Z" fill="#3D3D3D"/>
<path fill-rule="evenodd" clip-rule="evenodd" d="M83.0897 120.03C83.6823 119.437 84.5028 119.131 85.3386 119.191L102.758 120.435C103.991 120.523 105.044 121.359 105.41 122.54L113.788 149.608C114.105 150.634 113.829 151.75 113.07 152.509C112.49 153.089 111.692 153.395 110.873 153.352L93.1346 152.418C91.8637 152.351 90.7733 151.49 90.4141 150.269L82.3609 122.888C82.0625 121.874 82.3421 120.777 83.0897 120.03ZM85.1961 121.186C84.9389 121.167 84.6863 121.261 84.504 121.444C84.2738 121.674 84.1878 122.011 84.2796 122.324L92.3329 149.705C92.4526 150.112 92.816 150.399 93.2397 150.421L110.978 151.355C111.231 151.368 111.477 151.273 111.656 151.095C111.89 150.861 111.975 150.516 111.877 150.2L103.499 123.132C103.377 122.738 103.026 122.459 102.615 122.43L85.1961 121.186Z" fill="#3D3D3D"/>
<path fill-rule="evenodd" clip-rule="evenodd" d="M83.0588 122.157C83.1004 121.606 83.5805 121.193 84.1312 121.235L102.722 122.638C103.128 122.669 103.475 122.943 103.599 123.331L106.405 132.1C106.574 132.626 106.284 133.189 105.758 133.357C105.232 133.525 104.669 133.235 104.501 132.709L101.9 124.582L83.9807 123.229C83.43 123.188 83.0172 122.708 83.0588 122.157ZM110.076 147.231C110.605 147.073 111.163 147.373 111.322 147.902L112.374 151.41C112.533 151.939 112.232 152.496 111.703 152.655C111.174 152.814 110.617 152.513 110.458 151.984L109.406 148.477C109.247 147.948 109.547 147.39 110.076 147.231Z" fill="#F9FAFA"/>
<path fill-rule="evenodd" clip-rule="evenodd" d="M146.253 128.08C146.77 127.889 147.035 127.313 146.843 126.795C146.651 126.277 146.076 126.013 145.558 126.205C139.726 128.365 133.131 130.095 127.3 131.067C124.385 131.552 121.677 131.846 119.361 131.913C117.027 131.98 115.164 131.813 113.9 131.424C112.726 131.063 111.719 130.843 110.882 130.756C110.063 130.67 109.321 130.7 108.725 130.917C108.18 131.116 107.704 131.502 107.51 132.089C106.494 131.774 105.481 131.634 104.602 131.762C103.887 131.866 103.169 132.164 102.674 132.794C102.304 133.267 102.128 133.838 102.107 134.46C101.844 134.652 101.572 134.895 101.342 135.187C101.006 135.613 100.705 136.222 100.759 136.937C100.169 137.919 99.9307 139.673 100.902 141.94C101.683 143.761 103.869 145.978 107.255 147.727C110.679 149.496 115.421 150.839 121.463 150.839H138.485C139.038 150.839 139.485 150.391 139.485 149.839C139.485 149.287 139.038 148.839 138.485 148.839H121.463C115.72 148.839 111.296 147.563 108.173 145.95C105.012 144.317 103.27 142.386 102.741 141.152C102.274 140.063 102.204 139.253 102.26 138.715C102.288 138.444 102.349 138.239 102.409 138.098C102.44 138.027 102.469 137.974 102.493 137.938C102.514 137.905 102.527 137.891 102.529 137.889C102.529 137.889 102.529 137.889 102.529 137.889C102.797 137.621 102.89 137.225 102.77 136.865C102.74 136.773 102.737 136.648 102.912 136.426C102.947 136.382 102.986 136.339 103.026 136.297C103.103 136.375 103.185 136.451 103.269 136.525C103.624 136.835 104.225 137.262 104.952 137.262C105.505 137.262 105.952 136.815 105.952 136.262C105.952 135.714 105.511 135.269 104.964 135.262C104.956 135.261 104.929 135.253 104.88 135.229C104.801 135.188 104.699 135.118 104.584 135.018C104.393 134.851 104.221 134.649 104.106 134.495C104.12 134.235 104.193 134.099 104.248 134.029C104.33 133.924 104.506 133.797 104.89 133.741C105.699 133.623 106.986 133.898 108.358 134.584C108.764 134.787 109.255 134.691 109.555 134.351C109.855 134.012 109.889 133.512 109.637 133.135C109.53 132.974 109.476 132.858 109.448 132.783C109.645 132.723 110.029 132.677 110.673 132.745C111.343 132.815 112.218 132.999 113.312 133.336C114.886 133.82 117.006 133.981 119.418 133.912C121.849 133.842 124.651 133.536 127.629 133.039C133.583 132.047 140.3 130.285 146.253 128.08Z" fill="#F9FAFA"/>
<path d="M120.929 105.244C120.779 105.409 120.612 105.557 120.466 105.731C120.563 105.615 120.74 105.479 120.524 105.669C120.444 105.745 120.36 105.811 120.277 105.878C120.128 106.003 119.967 106.122 119.811 106.228C119.724 106.285 119.637 106.342 119.543 106.396C119.281 106.566 119.822 106.257 119.624 106.352C119.448 106.434 119.279 106.518 119.093 106.587C118.991 106.622 118.89 106.656 118.792 106.685C118.473 106.79 119.183 106.611 118.821 106.673C118.541 106.725 118.258 106.783 117.978 106.835C117.698 106.886 117.414 106.928 117.123 106.951C116.976 106.966 116.828 106.965 116.678 106.97C116.495 106.978 117.183 106.993 116.806 106.963C116.732 106.954 116.661 106.955 116.587 106.946C116.242 106.914 115.897 106.795 115.559 106.765C115.848 106.852 115.903 106.869 115.711 106.808L115.607 106.779C115.497 106.746 115.389 106.707 115.282 106.668C115.047 106.581 114.818 106.48 114.589 106.38C113.737 105.991 112.575 106.417 112.225 107.324C111.874 108.232 112.223 109.288 113.133 109.702C114.83 110.477 116.601 110.762 118.447 110.43C119.338 110.266 120.231 110.095 121.039 109.657C122.061 109.106 122.905 108.391 123.684 107.52C124.313 106.814 124.182 105.529 123.435 104.972C122.622 104.371 121.591 104.497 120.91 105.252L120.929 105.244Z" fill="#161616"/>
<path d="M98.0494 106.127C98.5706 108.917 99.0925 111.702 99.6138 114.491C99.7781 115.359 100.658 116.063 101.555 115.87C102.451 115.677 103.107 114.856 102.933 113.929C102.412 111.139 101.89 108.355 101.369 105.565C101.204 104.697 100.325 103.994 99.4279 104.186C98.531 104.379 97.8752 105.201 98.0494 106.127Z" fill="#161616"/>
<defs>
<linearGradient id="paint0_linear_4744_86875" x1="127.931" y1="163.948" x2="127.931" y2="195.893" gradientUnits="userSpaceOnUse">
<stop stop-color="#222222"/>
<stop offset="1"/>
</linearGradient>
</defs>
</svg>
