<svg width="48" height="48" viewBox="0 0 48 48" fill="none" xmlns="http://www.w3.org/2000/svg">
<path fill-rule="evenodd" clip-rule="evenodd" d="M33.7479 16.959C33.7479 17.6091 33.3661 18.17 32.8145 18.4299L36.321 25.881C36.4089 26.0678 36.4368 26.2773 36.4009 26.4806L34.9769 34.5503C34.8926 35.0281 34.4774 35.3765 33.9921 35.3765H14.0034C13.5182 35.3765 13.1029 35.0281 13.0186 34.5503L11.5946 26.4806C11.5587 26.2773 11.5866 26.0678 11.6745 25.881L15.1811 18.4296C14.6298 18.1697 14.2483 17.6089 14.2483 16.959C14.2483 16.0615 14.9758 15.334 15.8733 15.334C16.7708 15.334 17.4983 16.0615 17.4983 16.959C17.4983 17.4765 17.2564 17.9375 16.8795 18.2351L23.2129 26.2573C23.6132 26.7644 24.3823 26.7644 24.7826 26.2573L31.1162 18.2347C30.7396 17.9371 30.4979 17.4763 30.4979 16.959C30.4979 16.0615 31.2254 15.334 32.1229 15.334C33.0204 15.334 33.7479 16.0615 33.7479 16.959Z" fill="#F9FAFA"/>
<path d="M25.8977 16.5847C25.5432 16.1021 25.714 15.4172 26.0554 14.9252C26.3357 14.5213 26.5 14.0307 26.5 13.5017C26.5 12.121 25.3807 11.0017 24 11.0017C22.6193 11.0017 21.5 12.121 21.5 13.5017C21.5 14.0307 21.6643 14.5213 21.9446 14.9252C22.286 15.4172 22.4568 16.1021 22.1023 16.5847L17.1321 23.3495C16.8025 23.7981 16.17 23.8912 15.7251 23.5566L11.7027 20.531C11.3436 20.2609 11.2326 19.782 11.2486 19.333C11.2495 19.306 11.25 19.2789 11.25 19.2517C11.25 18.0091 10.2426 17.0017 9 17.0017C7.75736 17.0017 6.75 18.0091 6.75 19.2517C6.75 20.175 7.30608 20.9683 8.10159 21.3152C8.50526 21.4912 8.88177 21.7886 8.97562 22.2188L11.8567 35.4279C12.0571 36.3467 12.8705 37.0017 13.8108 37.0017H34.1892C35.1295 37.0017 35.9429 36.3467 36.1433 35.4279L39.1663 21.5681C39.1749 21.529 39.21 21.5017 39.25 21.5017C40.4926 21.5017 41.5 20.4943 41.5 19.2517C41.5 18.0091 40.4926 17.0017 39.25 17.0017C38.0074 17.0017 37 18.0091 37 19.2517C37 19.6617 36.8836 20.09 36.556 20.3364L32.2749 23.5566C31.83 23.8912 31.1975 23.7981 30.8679 23.3495L25.8977 16.5847Z" fill="#F9CC2E"/>
<circle cx="10.9992" cy="31.1684" r="2.16667" fill="#FF4D00"/>
<circle cx="36.9987" cy="31.1684" r="2.16667" fill="#FF4D00"/>
<circle cx="23.9985" cy="30.251" r="3.25" fill="#FF4D00"/>
<ellipse cx="16.5002" cy="30.0002" rx="1.5" ry="2" fill="#F9FAFA"/>
<ellipse cx="31.5002" cy="30.0002" rx="1.5" ry="2" fill="#F9FAFA"/>
</svg>
