<svg width="38" height="38" viewBox="0 0 38 38" fill="none" xmlns="http://www.w3.org/2000/svg">
<path fill-rule="evenodd" clip-rule="evenodd" d="M26.7171 13.4251C26.7171 13.9398 26.4149 14.3839 25.9782 14.5896L28.7541 20.4884C28.8237 20.6363 28.8458 20.8021 28.8174 20.9631L27.69 27.3516C27.6233 27.7299 27.2946 28.0056 26.9104 28.0056H11.086C10.7019 28.0056 10.3732 27.7299 10.3064 27.3516L9.17904 20.9631C9.15063 20.8021 9.17275 20.6363 9.24234 20.4884L12.0184 14.5894C11.5819 14.3836 11.2799 13.9396 11.2799 13.4251C11.2799 12.7146 11.8559 12.1387 12.5664 12.1387C13.2769 12.1387 13.8528 12.7146 13.8528 13.4251C13.8528 13.8348 13.6613 14.1998 13.363 14.4354L18.3769 20.7863C18.6938 21.1878 19.3026 21.1878 19.6196 20.7863L24.6337 14.4351C24.3355 14.1995 24.1442 13.8347 24.1442 13.4251C24.1442 12.7146 24.7201 12.1387 25.4306 12.1387C26.1411 12.1387 26.7171 12.7146 26.7171 13.4251Z" fill="#F9FAFA"/>
<path d="M20.5024 13.1288C20.2217 12.7468 20.3569 12.2046 20.6272 11.8151C20.8491 11.4953 20.9792 11.1069 20.9792 10.6882C20.9792 9.59509 20.0931 8.70898 19 8.70898C17.9069 8.70898 17.0208 9.59509 17.0208 10.6882C17.0208 11.1069 17.1509 11.4953 17.3728 11.8151C17.6431 12.2046 17.7783 12.7468 17.4976 13.1288L13.5629 18.4843C13.302 18.8395 12.8013 18.9132 12.4491 18.6483L9.26461 16.253C8.98033 16.0392 8.89249 15.6601 8.90511 15.3046C8.90587 15.2832 8.90625 15.2618 8.90625 15.2402C8.90625 14.2565 8.10876 13.459 7.125 13.459C6.14124 13.459 5.34375 14.2565 5.34375 15.2402C5.34375 15.9711 5.78398 16.5992 6.41376 16.8738C6.73333 17.0132 7.0314 17.2486 7.1057 17.5892L9.38658 28.0464C9.54522 28.7737 10.1891 29.2923 10.9335 29.2923H27.0665C27.8109 29.2923 28.4548 28.7737 28.6134 28.0464L31.0067 17.074C31.0134 17.0431 31.0413 17.0215 31.0729 17.0215C32.0567 17.0215 32.8542 16.224 32.8542 15.2402C32.8542 14.2565 32.0567 13.459 31.0729 13.459C30.0892 13.459 29.2917 14.2565 29.2917 15.2402C29.2917 15.5648 29.1995 15.9039 28.9401 16.099L25.5509 18.6483C25.1987 18.9132 24.698 18.8395 24.4371 18.4843L20.5024 13.1288Z" fill="#F9CC2E"/>
<circle cx="8.70747" cy="24.6743" r="1.71528" fill="#FF4D00"/>
<circle cx="29.2905" cy="24.6743" r="1.71528" fill="#FF4D00"/>
<circle cx="18.9987" cy="23.9479" r="2.57292" fill="#FF4D00"/>
<ellipse cx="13.0625" cy="23.7493" rx="1.1875" ry="1.58333" fill="#F9FAFA"/>
<ellipse cx="24.9375" cy="23.7493" rx="1.1875" ry="1.58333" fill="#F9FAFA"/>
</svg>
