<svg width="48" height="49" viewBox="0 0 48 49" fill="none" xmlns="http://www.w3.org/2000/svg">
<path d="M25.3111 38.44C25.3111 39.993 24.0522 41.2519 22.4992 41.2519C20.9462 41.2519 19.6873 39.993 19.6873 38.44C19.6873 36.887 20.9462 35.6281 22.4992 35.6281C24.0522 35.6281 25.3111 36.887 25.3111 38.44Z" fill="#FF4D00"/>
<path d="M39.9333 24.9418C39.9333 26.4948 38.6744 27.7537 37.1214 27.7537C35.5684 27.7537 34.3094 26.4948 34.3094 24.9418C34.3094 23.3888 35.5684 22.1299 37.1214 22.1299C38.6744 22.1299 39.9333 23.3888 39.9333 24.9418Z" fill="#FF4D00"/>
<path d="M6.80175 38.5342C4.5007 35.983 5.00484 31.9829 7.86695 30.0825L11.5855 27.6133C11.8163 27.46 12.0355 27.2899 12.2412 27.1044L28.2428 12.6718C28.4516 12.4834 28.646 12.2797 28.8244 12.0622L31.5357 8.75664C33.7177 6.0964 37.7557 6.00162 40.0601 8.55655L40.6965 9.26209C43.3046 12.1538 43.407 16.5177 40.9374 19.5286L38.3757 22.6518C38.1973 22.8693 38.0029 23.073 37.7941 23.2614L21.7925 37.694C21.5868 37.8795 21.3676 38.0496 21.1368 38.2029L17.6396 40.5251C14.39 42.6828 10.0503 42.1359 7.43773 39.2393L6.80175 38.5342Z" fill="#F9FAFA"/>
<path d="M6.81711 37.5763C4.52085 35.0304 5.0174 31.0399 7.86758 29.1344L11.4927 26.7108C11.5829 26.6505 11.6686 26.5838 11.7491 26.5112L27.5875 12.2258C27.6692 12.152 27.7454 12.0724 27.8155 11.9875L30.4779 8.76266C32.6638 6.11499 36.6913 6.02689 38.9909 8.57645L39.1154 8.71446C41.7299 11.6132 41.8257 15.9901 39.3404 19.0004L36.8555 22.0102C36.7854 22.0951 36.7092 22.1747 36.6274 22.2485L20.7891 36.5339C20.7085 36.6065 20.6228 36.6732 20.5327 36.7335L17.1637 38.9859C13.913 41.1591 9.56005 40.6174 6.94116 37.7139L6.81711 37.5763Z" fill="#57497E"/>
<path d="M30.0424 13.6622C30.0212 13.972 29.7529 14.2061 29.443 14.1849C29.1331 14.1637 28.8991 13.8953 28.9203 13.5855C28.9415 13.2756 29.2098 13.0416 29.5197 13.0627C29.8296 13.0839 30.0636 13.3523 30.0424 13.6622Z" fill="#F9FAFA"/>
<path d="M27.6446 15.7535C27.6234 16.0634 27.355 16.2974 27.0452 16.2763C26.7353 16.2551 26.5013 15.9867 26.5224 15.6768C26.5436 15.367 26.812 15.1329 27.1219 15.1541C27.4317 15.1753 27.6658 15.4437 27.6446 15.7535Z" fill="#F9FAFA"/>
<path d="M34.2241 18.4578C34.2029 18.7677 33.9345 19.0017 33.6246 18.9805C33.3148 18.9593 33.0807 18.691 33.1019 18.3811C33.1231 18.0712 33.3915 17.8372 33.7013 17.8584C34.0112 17.8796 34.2452 18.1479 34.2241 18.4578Z" fill="#F9FAFA"/>
<path d="M31.8273 20.5492C31.8062 20.859 31.5378 21.0931 31.2279 21.0719C30.918 21.0507 30.684 20.7823 30.7052 20.4725C30.7264 20.1626 30.9947 19.9286 31.3046 19.9497C31.6145 19.9709 31.8485 20.2393 31.8273 20.5492Z" fill="#F9FAFA"/>
<path d="M15.4193 27.1603C15.3981 27.4702 15.1297 27.7042 14.8199 27.6831C14.51 27.6619 14.2759 27.3935 14.2971 27.0837C14.3183 26.7738 14.5866 26.5397 14.8965 26.5609C15.2064 26.5821 15.4404 26.8504 15.4193 27.1603Z" fill="#F9FAFA"/>
<path d="M13.0214 29.2517C13.0003 29.5615 12.7319 29.7956 12.422 29.7744C12.1122 29.7533 11.8781 29.4849 11.8993 29.175C11.9204 28.8651 12.1888 28.6311 12.4987 28.6523C12.8086 28.6734 13.0426 28.9418 13.0214 29.2517Z" fill="#F9FAFA"/>
<path d="M19.602 31.9559C19.5808 32.2658 19.3125 32.4999 19.0026 32.4787C18.6927 32.4575 18.4587 32.1892 18.4798 31.8793C18.501 31.5694 18.7694 31.3354 19.0792 31.3565C19.3891 31.3777 19.6232 31.6461 19.602 31.9559Z" fill="#F9FAFA"/>
<path d="M17.2042 34.0451C17.183 34.355 16.9146 34.589 16.6048 34.5679C16.2949 34.5467 16.0608 34.2783 16.082 33.9685C16.1032 33.6586 16.3715 33.4246 16.6814 33.4457C16.9913 33.4669 17.2253 33.7352 17.2042 34.0451Z" fill="#F9FAFA"/>
</svg>
