<svg width="264" height="212" viewBox="0 0 264 212" fill="none" xmlns="http://www.w3.org/2000/svg">
<path d="M94.9659 36.1517L101.468 70.0358L75.587 65.5991L94.9659 91.4799L81.4537 122.007L150.887 158.97L161.677 139.839L194.772 125.899L182.338 104.025L218.679 87.4783L188.991 75.8086L198.677 55.1482L182.862 62.349L187.827 25.9639L145.317 61.9754L135.972 41.4496L130.476 60.6079L94.9659 36.1517Z" fill="#F9FAFA"/>
<path fill-rule="evenodd" clip-rule="evenodd" d="M45.1194 137.568C46.213 137.724 46.9732 138.736 46.8175 139.83C46.6073 141.306 47.066 143.049 48.0069 144.056C48.4431 144.522 48.9742 144.828 49.6337 144.928C50.3085 145.03 51.2763 144.939 52.595 144.327C56.2964 142.612 59.672 142.906 62.1283 144.68C64.4977 146.39 65.6889 149.259 65.547 152.051C65.491 153.154 64.5513 154.003 63.4481 153.947C62.345 153.891 61.4961 152.951 61.5522 151.848C61.6327 150.264 60.9421 148.757 59.7865 147.922C58.718 147.151 56.9256 146.729 54.277 147.956C52.4208 148.817 50.6563 149.128 49.0361 148.883C47.4007 148.636 46.0742 147.846 45.0847 146.787C43.174 144.743 42.5084 141.718 42.8575 139.266C43.0132 138.173 44.0259 137.412 45.1194 137.568Z" fill="#EFC0FF"/>
<path fill-rule="evenodd" clip-rule="evenodd" d="M37.7808 88.3207C35.378 89.235 34.1713 91.9241 35.0856 94.327C35.9999 96.7299 38.689 97.9366 41.0919 97.0222C43.4947 96.1079 44.7014 93.4188 43.7871 91.016C42.8728 88.6131 40.1837 87.4064 37.7808 88.3207ZM31.3471 95.7495C29.6471 91.282 31.8907 86.2822 36.3583 84.5822C40.8259 82.8823 45.8257 85.1259 47.5256 89.5935C49.2256 94.061 46.982 99.0608 42.5144 100.761C38.0468 102.461 33.0471 100.217 31.3471 95.7495Z" fill="#EFC0FF"/>
<path d="M197.227 155.071C197.227 156.705 195.902 158.029 194.269 158.029C192.635 158.029 191.311 156.705 191.311 155.071C191.311 153.438 192.635 152.113 194.269 152.113C195.902 152.113 197.227 153.438 197.227 155.071Z" fill="#FFF200"/>
<path d="M38.9094 127.52C39.4904 129.047 38.7236 130.756 37.1969 131.336C35.6701 131.917 33.9615 131.151 33.3805 129.624C32.7996 128.097 33.5663 126.389 35.0931 125.808C36.6198 125.227 38.3285 125.993 38.9094 127.52Z" fill="#FFF200"/>
<path d="M53.7726 67.8173C53.7726 69.4509 52.4483 70.7751 50.8148 70.7751C49.1812 70.7751 47.8569 69.4509 47.8569 67.8173C47.8569 66.1838 49.1812 64.8595 50.8148 64.8595C52.4483 64.8595 53.7726 66.1838 53.7726 67.8173Z" fill="#FFF200"/>
<path fill-rule="evenodd" clip-rule="evenodd" d="M210.353 166.209C211.068 167.05 210.966 168.312 210.124 169.028L198.383 179.008C197.541 179.723 196.279 179.621 195.564 178.779C194.848 177.938 194.951 176.676 195.792 175.96L207.533 165.98C208.375 165.265 209.637 165.367 210.353 166.209Z" fill="#EFC0FF"/>
<path d="M58.4642 128.521L53.7916 131.895L53.2059 126.162L58.4642 128.521Z" fill="#EFC0FF"/>
<path d="M220.784 144.479L215.217 145.971L216.709 140.404L220.784 144.479Z" fill="#EFC0FF"/>
<path d="M70.6746 77.9301L65.1075 79.4218L66.5992 73.8548L70.6746 77.9301Z" fill="#EFC0FF"/>
<path fill-rule="evenodd" clip-rule="evenodd" d="M215.965 105.538C215.436 105.75 214.621 106.321 213.464 107.575C212.375 108.754 210.372 109.892 208.106 110.925C205.797 111.977 203.068 112.983 200.396 113.856C197.723 114.729 195.088 115.474 192.961 116.002C191.898 116.266 190.955 116.477 190.192 116.623C189.456 116.764 188.817 116.859 188.4 116.859C187.848 116.859 187.4 116.412 187.4 115.859C187.4 115.307 187.848 114.859 188.4 114.859C188.604 114.859 189.073 114.801 189.816 114.659C190.533 114.522 191.439 114.319 192.479 114.061C194.559 113.545 197.147 112.813 199.776 111.954C202.406 111.095 205.059 110.115 207.276 109.105C209.536 108.076 211.203 107.075 211.994 106.219C213.22 104.89 214.279 104.059 215.221 103.682C215.705 103.488 216.193 103.399 216.671 103.457C217.159 103.516 217.573 103.72 217.904 104.008C218.327 104.377 218.6 104.868 218.781 105.353C219.093 105.151 219.447 105.008 219.843 104.934C221.089 104.7 222.443 105.22 223.71 106.065C225.353 107.16 227.466 109.403 227.974 112.521C228.493 115.713 227.286 119.529 222.84 123.621C220.284 125.972 212.89 131.209 205.632 135.831C201.99 138.15 198.351 140.334 195.333 141.942C193.825 142.745 192.456 143.413 191.31 143.883C190.208 144.335 189.176 144.664 188.4 144.664C187.848 144.664 187.4 144.216 187.4 143.664C187.4 143.111 187.848 142.664 188.4 142.664C188.742 142.664 189.447 142.485 190.551 142.033C191.61 141.599 192.913 140.965 194.392 140.177C197.347 138.603 200.938 136.449 204.558 134.144C211.823 129.518 219.076 124.366 221.485 122.149C225.6 118.364 226.379 115.179 226 112.842C225.608 110.433 223.937 108.62 222.601 107.729C221.485 106.985 220.687 106.81 220.212 106.899C219.856 106.966 219.426 107.236 219.157 108.248C219.027 108.733 218.558 109.047 218.061 108.982C217.563 108.916 217.191 108.492 217.191 107.99C217.191 107.542 217.15 106.984 217.034 106.482C216.909 105.949 216.735 105.643 216.59 105.516C216.537 105.469 216.491 105.45 216.432 105.443C216.363 105.434 216.217 105.437 215.965 105.538Z" fill="#8D8D8D"/>
<path fill-rule="evenodd" clip-rule="evenodd" d="M66.5303 89.2973C66.9592 89.6722 67.5396 90.4813 68.2167 92.0473C68.8537 93.5204 70.3671 95.2568 72.1644 96.9816C73.9952 98.7385 76.2374 100.591 78.4695 102.298C80.7036 104.007 82.9429 105.582 84.7756 106.784C85.6915 107.385 86.5117 107.896 87.1829 108.287C87.8307 108.663 88.4029 108.965 88.7959 109.102C89.3171 109.285 89.8878 109.011 90.0705 108.49C90.2533 107.968 89.9789 107.398 89.4578 107.215C89.2651 107.147 88.842 106.938 88.188 106.558C87.5572 106.191 86.7688 105.7 85.8725 105.112C84.0806 103.936 81.8807 102.389 79.6845 100.71C77.4862 99.0282 75.3071 97.2255 73.5492 95.5386C71.7578 93.8196 70.5151 92.3235 70.0524 91.2535C69.335 89.5944 68.6109 88.4597 67.8468 87.7916C67.4543 87.4485 67.0228 87.2034 66.5525 87.0997C66.0725 86.9938 65.615 87.0493 65.207 87.2119C64.6858 87.4198 64.2655 87.7928 63.9348 88.1909C63.7068 87.8973 63.4203 87.6451 63.0709 87.4437C61.9724 86.8106 60.5231 86.8533 59.0473 87.2313C57.1346 87.7212 54.3982 89.138 52.8876 91.9132C51.3415 94.7535 51.217 98.7538 54.0592 104.086C55.6927 107.151 60.9367 114.54 66.2566 121.303C68.9258 124.696 71.6373 127.961 73.9537 130.478C75.1109 131.735 76.1817 132.818 77.1076 133.641C77.9976 134.432 78.8631 135.083 79.595 135.34C80.1161 135.523 80.6868 135.249 80.8696 134.727C81.0523 134.206 80.778 133.636 80.2568 133.453C79.9344 133.34 79.3278 132.938 78.4361 132.146C77.5803 131.386 76.56 130.356 75.4252 129.123C73.1576 126.66 70.4816 123.439 67.8285 120.066C62.5039 113.297 57.3642 106.035 55.8242 103.146C53.1945 98.2118 53.5125 94.9484 54.6442 92.8694C55.8113 90.7253 57.9877 89.5672 59.5435 89.1687C60.8424 88.836 61.6533 88.9351 62.0722 89.1765C62.3862 89.3575 62.7021 89.7543 62.6219 90.798C62.5835 91.2986 62.9221 91.7501 63.4135 91.8533C63.9048 91.9564 64.3965 91.6793 64.5626 91.2055C64.711 90.7824 64.9335 90.269 65.2098 89.8346C65.5036 89.3724 65.7691 89.1409 65.9477 89.0697C66.0138 89.0434 66.0636 89.0399 66.1216 89.0527C66.1893 89.0676 66.3263 89.1189 66.5303 89.2973Z" fill="#8D8D8D"/>
<path fill-rule="evenodd" clip-rule="evenodd" d="M199.68 89.4544C203.738 101.827 202.366 120.469 189.978 139.008C175.735 160.324 146.089 181.155 130.954 181.688C123.363 181.955 110.887 173.229 105.74 167.688C95.3203 156.478 85.8795 144.016 80.5365 129.682C75.1935 115.348 74.2818 98.891 80.5941 84.9525C86.9063 71.0141 101.221 60.3492 116.52 60.7598C130.097 61.1279 143.104 71.5924 145.646 84.6431C144.038 86.3372 142.639 87.9781 141.399 89.7566C141.273 89.9397 141.177 90.1262 141.117 90.3124C140.842 91.1723 141.26 92.0063 141.934 92.4632C142.767 93.0316 144.054 93.0628 144.798 91.9969L144.797 92.0024C146.663 89.3265 149.045 86.9125 151.165 84.8491C156.918 79.7915 162.122 77.0335 171.042 75.3132C182.47 73.1095 196.055 78.3977 199.68 89.4544Z" fill="#F9CC2E"/>
<path d="M138.184 113.127C138.568 112.882 138.962 112.663 139.372 112.463C139.695 112.305 139.104 112.559 139.332 112.486C139.432 112.451 139.536 112.409 139.636 112.374C139.836 112.304 140.045 112.249 140.25 112.201C140.331 112.183 140.421 112.18 140.5 112.151C140.141 112.296 140.269 112.184 140.447 112.167C140.659 112.151 140.867 112.142 141.083 112.148C141.42 112.159 141.751 112.196 142.086 112.225C142.226 112.242 142.493 112.296 141.923 112.203C141.987 112.213 142.045 112.219 142.11 112.229C142.267 112.247 142.426 112.276 142.581 112.311C142.912 112.376 143.223 112.476 143.536 112.586C143.849 112.697 143.201 112.424 143.417 112.534C143.495 112.581 143.588 112.617 143.67 112.657C143.848 112.743 144.024 112.848 144.189 112.955C144.354 113.063 144.515 113.178 144.676 113.292C144.878 113.441 144.869 113.397 144.676 113.292C144.799 113.366 144.92 113.504 145.027 113.605C145.761 114.268 146.969 114.429 147.758 113.575C148.451 112.825 148.688 111.463 147.898 110.748C146.974 109.915 146.024 109.246 144.874 108.78C144.059 108.447 143.212 108.33 142.338 108.245C141.371 108.152 140.473 108.138 139.492 108.349C138.421 108.581 137.372 109.1 136.432 109.704C135.551 110.266 135.069 111.52 135.598 112.439C136.126 113.358 137.257 113.738 138.197 113.135L138.184 113.127Z" fill="#161616"/>
<path d="M119.399 112.852C119.578 112.699 119.772 112.565 119.948 112.402C119.83 112.511 119.627 112.631 119.879 112.459C119.972 112.39 120.069 112.331 120.165 112.273C120.337 112.161 120.522 112.057 120.699 111.966C120.798 111.918 120.897 111.869 121.002 111.825C121.299 111.681 120.691 111.934 120.911 111.86C121.106 111.798 121.295 111.732 121.499 111.684C121.61 111.66 121.72 111.637 121.827 111.62C122.175 111.551 121.407 111.647 121.795 111.628C122.096 111.61 122.4 111.586 122.7 111.569C123.001 111.551 123.303 111.544 123.611 111.558C123.767 111.561 123.922 111.582 124.081 111.596C124.273 111.612 123.554 111.506 123.945 111.587C124.022 111.606 124.096 111.614 124.173 111.633C124.53 111.711 124.877 111.882 125.227 111.957C124.935 111.828 124.879 111.803 125.073 111.892L125.178 111.936C125.29 111.985 125.397 112.04 125.505 112.095C125.74 112.217 125.967 112.352 126.194 112.487C127.036 113.006 128.31 112.71 128.796 111.805C129.282 110.899 129.053 109.746 128.153 109.193C126.475 108.16 124.655 107.631 122.677 107.738C121.721 107.794 120.762 107.857 119.858 108.211C118.715 108.655 117.737 109.295 116.807 110.107C116.055 110.765 116.026 112.13 116.736 112.811C117.51 113.547 118.607 113.549 119.42 112.846L119.399 112.852Z" fill="#161616"/>
<path d="M174.674 123.44C169.432 134.046 161.771 143.436 152.434 150.734C149.749 152.834 146.925 154.759 143.997 156.506C143.122 157.029 143.017 158.366 143.588 159.143C144.236 160.028 145.36 160.092 146.238 159.563C156.839 153.239 166.001 144.507 172.803 134.238C174.779 131.259 176.569 128.157 178.153 124.956C179.232 122.777 175.752 121.261 174.677 123.433L174.674 123.44Z" fill="#F9FAFA"/>
</svg>
