<svg width="41" height="40" viewBox="0 0 41 40" fill="none" xmlns="http://www.w3.org/2000/svg">
<g filter="url(#filter0_d_4753_92329)">
<path fill-rule="evenodd" clip-rule="evenodd" d="M33.4302 17.7653C33.4212 26.1966 28.3285 31.2903 19.9056 31.2903C11.4818 31.2903 6.38917 26.1966 6.38013 17.7653C6.38917 9.33397 11.4818 4.24023 19.9056 4.24023C28.3285 4.24023 33.4212 9.33397 33.4302 17.7653Z" fill="#F9CC2E"/>
<path fill-rule="evenodd" clip-rule="evenodd" d="M13.6038 13.2565C13.6038 11.7127 14.8553 10.4612 16.3991 10.4612C17.9429 10.4612 19.1944 11.7127 19.1944 13.2565C19.1944 13.6937 18.84 14.0482 18.4027 14.0482C17.9655 14.0482 17.6111 13.6937 17.6111 13.2565C17.6111 12.5871 17.0684 12.0445 16.3991 12.0445C15.7297 12.0445 15.1871 12.5871 15.1871 13.2565C15.1871 13.6937 14.8327 14.0482 14.3954 14.0482C13.9582 14.0482 13.6038 13.6937 13.6038 13.2565ZM20.6158 13.2565C20.6158 11.7127 21.8673 10.4612 23.4111 10.4612C24.9549 10.4612 26.2064 11.7127 26.2064 13.2565C26.2064 13.6937 25.852 14.0482 25.4147 14.0482C24.9775 14.0482 24.6231 13.6937 24.6231 13.2565C24.6231 12.5871 24.0804 12.0445 23.4111 12.0445C22.7417 12.0445 22.1991 12.5871 22.1991 13.2565C22.1991 13.6937 21.8446 14.0482 21.4074 14.0482C20.9702 14.0482 20.6158 13.6937 20.6158 13.2565ZM16.1331 15.5165C16.5448 15.3693 16.9979 15.5837 17.1451 15.9954C17.5073 17.0082 18.4669 17.6841 19.5425 17.6841H20.2697C21.3453 17.6841 22.3049 17.0082 22.6671 15.9954C22.8143 15.5837 23.2674 15.3693 23.6791 15.5165C24.0908 15.6637 24.3051 16.1168 24.1579 16.5285C23.5705 18.1712 22.0142 19.2674 20.2697 19.2674H19.5425C17.798 19.2674 16.2417 18.1712 15.6543 16.5285C15.507 16.1168 15.7214 15.6637 16.1331 15.5165Z" fill="#3D3D3D"/>
<g filter="url(#filter1_b_4753_92329)">
<path d="M11.7485 30.9688C10.9248 29.8269 11.1587 28.3949 12.127 27.8092C12.7977 27.4035 13.6487 27.494 14.3257 28.0379C14.4554 28.1421 14.6568 28.1106 14.7485 27.9718C15.2271 27.2472 16.0098 26.9012 16.7724 27.0828C17.8733 27.345 18.5331 28.6373 18.0973 29.9761C17.6443 31.3675 15.8971 32.8275 15.4585 33.1775C15.396 33.2273 15.3133 33.2402 15.2386 33.2118C14.7142 33.0125 12.6046 32.1555 11.7485 30.9688Z" fill="#FF4D00"/>
</g>
<g filter="url(#filter2_b_4753_92329)">
<path d="M26.6463 21.4246C26.2107 19.1638 27.4194 17.094 29.1228 16.7749C30.2796 16.5582 31.3817 17.1825 31.9915 18.3841C32.1241 18.6452 32.4813 18.7327 32.7195 18.5624C33.8156 17.7786 35.0814 17.7341 36.0072 18.4608C37.3704 19.5308 37.486 21.9249 36.055 23.7287C34.5876 25.5783 31.3334 26.7695 30.4555 27.0654C30.3179 27.1118 30.1711 27.0759 30.0704 26.9711C29.4287 26.3031 27.093 23.743 26.6463 21.4246Z" fill="#FF4D00"/>
</g>
<g filter="url(#filter3_b_4753_92329)">
<path d="M4.34849 10.2359C3.37835 8.91879 3.61009 7.24525 4.7026 6.5458C5.50031 6.03509 6.54064 6.16368 7.34809 6.88029C7.43199 6.95475 7.56756 6.93102 7.62117 6.83249C8.13716 5.88418 9.07193 5.40982 9.9957 5.61917C11.2608 5.90588 12.0473 7.40116 11.5823 8.96949C11.0822 10.6563 8.99914 12.4525 8.59892 12.7857C8.55725 12.8204 8.50189 12.8301 8.45091 12.8116C7.96128 12.6342 5.3919 11.6524 4.34849 10.2359Z" fill="#FF4D00"/>
</g>
</g>
<defs>
<filter id="filter0_d_4753_92329" x="-2.16667" y="0" width="44.3333" height="44.3333" filterUnits="userSpaceOnUse" color-interpolation-filters="sRGB">
<feFlood flood-opacity="0" result="BackgroundImageFix"/>
<feColorMatrix in="SourceAlpha" type="matrix" values="0 0 0 0 0 0 0 0 0 0 0 0 0 0 0 0 0 0 127 0" result="hardAlpha"/>
<feOffset dy="3.16667"/>
<feGaussianBlur stdDeviation="1.58333"/>
<feComposite in2="hardAlpha" operator="out"/>
<feColorMatrix type="matrix" values="0 0 0 0 0 0 0 0 0 0 0 0 0 0 0 0 0 0 0.25 0"/>
<feBlend mode="normal" in2="BackgroundImageFix" result="effect1_dropShadow_4753_92329"/>
<feBlend mode="normal" in="SourceGraphic" in2="effect1_dropShadow_4753_92329" result="shape"/>
</filter>
<filter id="filter1_b_4753_92329" x="8.07967" y="23.8685" width="13.3199" height="12.5249" filterUnits="userSpaceOnUse" color-interpolation-filters="sRGB">
<feFlood flood-opacity="0" result="BackgroundImageFix"/>
<feGaussianBlur in="BackgroundImageFix" stdDeviation="1.58333"/>
<feComposite in2="SourceAlpha" operator="in" result="effect1_backgroundBlur_4753_92329"/>
<feBlend mode="normal" in="SourceGraphic" in2="effect1_backgroundBlur_4753_92329" result="shape"/>
</filter>
<filter id="filter2_b_4753_92329" x="23.3902" y="13.5658" width="16.8563" height="16.6862" filterUnits="userSpaceOnUse" color-interpolation-filters="sRGB">
<feFlood flood-opacity="0" result="BackgroundImageFix"/>
<feGaussianBlur in="BackgroundImageFix" stdDeviation="1.58333"/>
<feComposite in2="SourceAlpha" operator="in" result="effect1_backgroundBlur_4753_92329"/>
<feBlend mode="normal" in="SourceGraphic" in2="effect1_backgroundBlur_4753_92329" result="shape"/>
</filter>
<filter id="filter3_b_4753_92329" x="0.569906" y="2.40365" width="14.314" height="13.5838" filterUnits="userSpaceOnUse" color-interpolation-filters="sRGB">
<feFlood flood-opacity="0" result="BackgroundImageFix"/>
<feGaussianBlur in="BackgroundImageFix" stdDeviation="1.58333"/>
<feComposite in2="SourceAlpha" operator="in" result="effect1_backgroundBlur_4753_92329"/>
<feBlend mode="normal" in="SourceGraphic" in2="effect1_backgroundBlur_4753_92329" result="shape"/>
</filter>
</defs>
</svg>
