<svg width="24" height="24" viewBox="0 0 24 24" fill="none" xmlns="http://www.w3.org/2000/svg">
<path d="M8.74215 13.0464C7.08037 13.6947 6 14.8291 6 16.2354C6 18.4724 8.73945 20 12 20C15.2603 20 18 18.4724 18 16.2354C18 14.8258 16.9012 13.6939 15.234 13.0464C14.8432 12.8941 14.433 13.1326 14.2965 13.5684C14.1607 14.0051 14.3512 14.4627 14.742 14.6141C15.8752 15.055 16.5 15.705 16.5 16.2354C16.5 17.2326 14.5387 18.3268 12 18.3268C9.46155 18.3268 7.5 17.2326 7.5 16.2354C7.5 15.7067 8.106 15.055 9.23438 14.6141C9.62535 14.4619 9.83993 14.0051 9.70312 13.5684C9.56632 13.1326 9.13312 12.8933 8.74215 13.0464Z" fill="#8D8D8D"/>
<path fill-rule="evenodd" clip-rule="evenodd" d="M8 8.0625C8 5.81919 9.79088 4 12 4C14.2088 4 16 5.81919 16 8.0625C16 8.823 15.6464 9.75818 15 10.8811C14.8452 11.1499 14.6631 11.4162 14.4737 11.6932C14.3997 11.8014 14.3246 11.9112 14.2496 12.0234C13.8896 12.5629 13.5096 13.1195 13.1248 13.6232C13.0719 13.6921 13.008 13.7775 12.9397 13.8686C12.8944 13.9291 12.8472 13.9922 12.8 14.0547V16.1875C12.8 16.636 12.4416 17 12 17C11.5584 17 11.2 16.636 11.2 16.1875V14.0547C11.1528 13.9922 11.1056 13.9291 11.0603 13.8686C10.992 13.7775 10.9281 13.6921 10.8752 13.6232C10.4904 13.1187 10.1103 12.5629 9.75 12.0234C9.67567 11.9122 9.60132 11.8034 9.52808 11.6962C9.33801 11.4181 9.1554 11.1508 9 10.8811C8.35368 9.75818 8 8.823 8 8.0625ZM12 9.6875C12.7984 9.6875 13.6016 8.875 13.6016 8.0625C13.6016 7.25 12.802 6.4375 12.0018 6.4375C11.2016 6.4375 10.4016 7.25 10.4016 8.0625C10.4016 8.875 11.2016 9.6875 12 9.6875Z" fill="#F9CC2E"/>
</svg>
