<svg width="38" height="38" viewBox="0 0 38 38" fill="none" xmlns="http://www.w3.org/2000/svg">
<path d="M15.8334 23.7507C15.8334 26.3741 13.5295 28.5007 10.6876 28.5007C7.84562 28.5007 5.54175 26.3741 5.54175 23.7507C5.54175 21.1274 7.84562 19.0007 10.6876 19.0007C13.5295 19.0007 15.8334 21.1274 15.8334 23.7507Z" fill="#F9FAFA"/>
<path d="M31.6664 23.7507C31.6664 26.3741 29.3626 28.5007 26.5206 28.5007C23.6786 28.5007 21.3748 26.3741 21.3748 23.7507C21.3748 21.1274 23.6786 19.0007 26.5206 19.0007C29.3626 19.0007 31.6664 21.1274 31.6664 23.7507Z" fill="#F9FAFA"/>
<path d="M12.6667 11.0835H15.8334V23.7502H12.6667V11.0835Z" fill="#F9FAFA"/>
<path d="M28.5 11.0835H31.6667V23.7502H28.5V11.0835Z" fill="#F9FAFA"/>
<path d="M12.6667 9.50033C12.6667 8.62588 13.3756 7.91699 14.2501 7.91699H30.0834C30.9579 7.91699 31.6667 8.62587 31.6667 9.50033V14.2503H12.6667V9.50033Z" fill="#F9CC2E"/>
</svg>
