<svg width="38" height="38" viewBox="0 0 38 38" fill="none" xmlns="http://www.w3.org/2000/svg">
<g filter="url(#filter0_b_4753_92305)">
<path d="M28.8238 7.62471C29.3771 7.07137 30.2743 7.07137 30.8276 7.62471C31.3809 8.17805 31.3809 9.07519 30.8276 9.62853L11.7188 28.7374C11.1654 29.2907 10.2683 29.2907 9.71495 28.7374C9.16161 28.184 9.16161 27.2869 9.71495 26.7335L28.8238 7.62471Z" fill="white"/>
</g>
<path d="M28.8665 6.37772L32.2304 5.1997C32.8566 4.98043 33.4585 5.58238 33.2393 6.20853L32.0612 9.57247C31.8149 10.2759 30.8217 10.2802 30.5692 9.57905L30.2428 8.67273C30.1629 8.45079 29.9882 8.27605 29.7662 8.19613L28.8599 7.86974C28.1587 7.61722 28.1631 6.62404 28.8665 6.37772Z" fill="#F9CC2E"/>
<g filter="url(#filter1_b_4753_92305)">
<path d="M7.57729 19.8963C5.34657 15.5974 6.92925 10.8763 10.5938 9.40702C13.151 8.38177 16.0682 9.15678 18.1173 11.3926C18.4872 11.7963 19.155 11.7963 19.525 11.3926C21.574 9.15678 24.4912 8.38177 27.0484 9.40702C30.713 10.8763 32.2957 15.5974 30.065 19.8963C28.475 22.9605 24.7626 25.8117 22.0367 27.6079C20.0738 28.9014 17.5685 28.9014 15.6055 27.6079C12.8796 25.8117 9.16728 22.9605 7.57729 19.8963Z" fill="#FF4D00"/>
</g>
<g filter="url(#filter2_b_4753_92305)">
<path d="M16.1558 20.2927C16.7091 19.7393 17.6063 19.7393 18.1596 20.2927C18.713 20.846 18.713 21.7432 18.1596 22.2965L10.6768 29.7793C10.1235 30.3326 9.22634 30.3326 8.67301 29.7793C8.11967 29.226 8.11967 28.3288 8.67301 27.7755L16.1558 20.2927Z" fill="#161616"/>
</g>
<g filter="url(#filter3_b_4753_92305)">
<path d="M15.7515 20.697C16.3048 20.1436 17.202 20.1436 17.7553 20.697C18.3087 21.2503 18.3087 22.1475 17.7553 22.7008L10.2725 30.1836C9.71919 30.7369 8.82205 30.7369 8.26871 30.1836C7.71537 29.6303 7.71537 28.7331 8.26871 28.1798L15.7515 20.697Z" fill="white"/>
</g>
<path d="M12.5103 30.1631C12.6777 29.9957 12.7614 29.7621 12.7385 29.5265L12.5055 27.1375C12.473 26.8037 12.0661 26.6591 11.8302 26.8974L8.85698 29.9011C8.62418 30.1363 8.56222 30.4915 8.70164 30.7916L9.23332 31.9361C9.46502 32.4349 10.1222 32.5512 10.5111 32.1623L12.5103 30.1631Z" fill="#F9CC2E"/>
<path fill-rule="evenodd" clip-rule="evenodd" d="M11.2956 27.4392L11.6433 31.0318L11.2807 31.3944L10.9333 27.8052L11.2956 27.4392Z" fill="white"/>
<path fill-rule="evenodd" clip-rule="evenodd" d="M10.2928 32.3193L9.95187 28.7966L9.5896 29.1626L9.90239 32.3948C10.0344 32.4031 10.169 32.3787 10.2928 32.3193Z" fill="white"/>
<path d="M8.34092 25.9953C8.50901 25.8272 8.74374 25.7436 8.98025 25.7674L11.3824 26.01C11.716 26.0437 11.8592 26.4511 11.6201 26.6861L8.60399 29.6503C8.36872 29.8816 8.01472 29.9427 7.71554 29.8037L6.56913 29.2711C6.07035 29.0394 5.95399 28.3822 6.34288 27.9934L8.34092 25.9953Z" fill="#F9CC2E"/>
<path fill-rule="evenodd" clip-rule="evenodd" d="M7.2146 27.1219L7.57719 26.7593L11.1901 27.1089L10.8218 27.471L7.2146 27.1219Z" fill="white"/>
<path fill-rule="evenodd" clip-rule="evenodd" d="M6.11304 28.4915C6.12314 28.3575 6.16737 28.2246 6.24821 28.1069L9.82236 28.4528L9.45399 28.8149L6.11304 28.4915Z" fill="white"/>
<defs>
<filter id="filter0_b_4753_92305" x="6.13338" y="4.04305" width="28.276" height="28.276" filterUnits="userSpaceOnUse" color-interpolation-filters="sRGB">
<feFlood flood-opacity="0" result="BackgroundImageFix"/>
<feGaussianBlur in="BackgroundImageFix" stdDeviation="1.58333"/>
<feComposite in2="SourceAlpha" operator="in" result="effect1_backgroundBlur_4753_92305"/>
<feBlend mode="normal" in="SourceGraphic" in2="effect1_backgroundBlur_4753_92305" result="shape"/>
</filter>
<filter id="filter1_b_4753_92305" x="1.00863" y="3.41927" width="35.6251" height="30.7005" filterUnits="userSpaceOnUse" color-interpolation-filters="sRGB">
<feFlood flood-opacity="0" result="BackgroundImageFix"/>
<feGaussianBlur in="BackgroundImageFix" stdDeviation="2.77083"/>
<feComposite in2="SourceAlpha" operator="in" result="effect1_backgroundBlur_4753_92305"/>
<feBlend mode="normal" in="SourceGraphic" in2="effect1_backgroundBlur_4753_92305" result="shape"/>
</filter>
<filter id="filter2_b_4753_92305" x="5.09139" y="16.711" width="16.65" height="16.65" filterUnits="userSpaceOnUse" color-interpolation-filters="sRGB">
<feFlood flood-opacity="0" result="BackgroundImageFix"/>
<feGaussianBlur in="BackgroundImageFix" stdDeviation="1.58333"/>
<feComposite in2="SourceAlpha" operator="in" result="effect1_backgroundBlur_4753_92305"/>
<feBlend mode="normal" in="SourceGraphic" in2="effect1_backgroundBlur_4753_92305" result="shape"/>
</filter>
<filter id="filter3_b_4753_92305" x="4.68709" y="17.1153" width="16.65" height="16.65" filterUnits="userSpaceOnUse" color-interpolation-filters="sRGB">
<feFlood flood-opacity="0" result="BackgroundImageFix"/>
<feGaussianBlur in="BackgroundImageFix" stdDeviation="1.58333"/>
<feComposite in2="SourceAlpha" operator="in" result="effect1_backgroundBlur_4753_92305"/>
<feBlend mode="normal" in="SourceGraphic" in2="effect1_backgroundBlur_4753_92305" result="shape"/>
</filter>
</defs>
</svg>
