<svg width="30" height="31" viewBox="0 0 30 31" fill="none" xmlns="http://www.w3.org/2000/svg">
<path fill-rule="evenodd" clip-rule="evenodd" d="M17.1838 7.25958C16.3266 7.35973 15.4974 7.51914 14.7293 7.73778C12.6482 8.33019 11.4936 10.1687 11.2453 11.9433C10.7433 15.5315 10.6753 19.2449 11.0352 23.0277C10.5649 23.0391 10.1069 23.0259 9.66957 22.9864C8.68281 22.8973 7.84238 22.2638 7.3438 21.4086C4.98645 17.3656 3.86238 13.014 3.98742 8.4151C4.01386 7.44243 4.45298 6.52238 5.28831 6.02525C7.63183 4.63054 11.2255 3.82817 13.9895 4.0838C14.963 4.17383 15.7944 4.79454 16.2939 5.63407C16.6131 6.17035 16.9097 6.71223 17.1838 7.25958Z" fill="#F9FAFA"/>
<path d="M25.5624 24.7356C25.3957 25.9289 24.6572 26.9912 23.4977 27.3192C21.0352 28.0158 17.7776 28.0175 15.3112 27.3243C14.1408 26.9954 13.3992 25.9199 13.2388 24.7148C12.6679 20.4252 12.6631 16.2325 13.2244 12.2204C13.3899 11.0375 14.1265 9.98841 15.2753 9.66139C17.7583 8.95455 21.0562 8.95642 23.535 9.66698C24.672 9.9929 25.4051 11.0277 25.577 12.1979C26.1686 16.2233 26.1637 20.4307 25.5624 24.7356Z" fill="#F9FAFA"/>
<path fill-rule="evenodd" clip-rule="evenodd" d="M15.8523 25.3989C17.9644 25.9925 20.8463 25.9907 22.9534 25.3947C23.1702 25.3334 23.4963 25.0697 23.5816 24.4589C24.1584 20.3294 24.1604 16.3136 23.5983 12.4887C23.5129 11.9074 23.1986 11.6511 22.9839 11.5895C20.8648 10.9821 17.9475 10.9802 15.8228 11.585C15.6064 11.6466 15.2879 11.9063 15.2051 12.4975C14.6706 16.3185 14.6727 20.3287 15.2213 24.451C15.3038 25.0707 15.6337 25.3375 15.8523 25.3989ZM23.4977 27.3192C24.6572 26.9912 25.3957 25.9289 25.5624 24.7356C26.1637 20.4307 26.1686 16.2233 25.577 12.1979C25.4051 11.0277 24.672 9.9929 23.535 9.66698C21.0562 8.95642 17.7583 8.95455 15.2753 9.66139C14.1265 9.98841 13.3899 11.0375 13.2244 12.2204C12.6631 16.2325 12.6679 20.4252 13.2388 24.7148C13.3992 25.9199 14.1408 26.9954 15.3112 27.3243C17.7776 28.0175 21.0352 28.0158 23.4977 27.3192Z" fill="#F9FAFA"/>
</svg>
