<svg width="28" height="29" viewBox="0 0 28 29" fill="none" xmlns="http://www.w3.org/2000/svg">
<path d="M17.5 21.7063C17.5 23.6393 15.933 25.2063 14 25.2063C12.067 25.2063 10.5 23.6393 10.5 21.7063" stroke="#F9FAFA"/>
<path d="M7 12.373C7 8.50705 10.134 5.37305 14 5.37305V5.37305C17.866 5.37305 21 8.50705 21 12.373V12.373V17.378C21 17.9084 21.2107 18.4171 21.5858 18.7922L22.7929 19.9993C23.4229 20.6292 22.9767 21.7064 22.0858 21.7064H5.91421C5.02331 21.7064 4.57714 20.6292 5.20711 19.9993L6.41421 18.7922C6.78929 18.4171 7 17.9084 7 17.378V12.373V12.373Z" stroke="#F9FAFA"/>
</svg>
