<svg width="38" height="38" viewBox="0 0 38 38" fill="none" xmlns="http://www.w3.org/2000/svg">
<g filter="url(#filter0_b_4753_92174)">
<path fill-rule="evenodd" clip-rule="evenodd" d="M8.09916 9.84937C8.63729 6.8508 11.5043 4.85622 14.5029 5.39434C14.5244 5.39821 14.5459 5.40219 14.5674 5.4063L15.326 5.54244C16.2921 4.9338 17.7605 4.68566 19.3219 4.96587C20.8834 5.24609 22.1739 5.98937 22.8681 6.89595L23.2725 6.96854L23.2725 6.96881C23.2729 6.96887 23.2733 6.96894 23.2736 6.96901C25.5802 7.38295 27.1145 9.58838 26.7006 11.895C26.2866 14.2016 24.0812 15.7359 21.7746 15.3219C21.1648 15.2125 20.609 14.9778 20.1289 14.6492C19.6605 15.0578 19.0177 15.2578 18.3584 15.1395C18.0072 15.0765 17.6918 14.9304 17.4288 14.7251C16.1952 15.9562 14.3996 16.5843 12.5542 16.2531C9.55561 15.715 7.56103 12.8479 8.09916 9.84937Z" fill="white"/>
</g>
<path fill-rule="evenodd" clip-rule="evenodd" d="M9.41048 10.6609C8.53603 10.6609 7.82715 11.3698 7.82715 12.2442V29.2925C7.82715 31.0414 9.24491 32.4592 10.9938 32.4592H23.6605C25.4094 32.4592 26.8271 31.0414 26.8271 29.2925V27.2852H29.2025C30.9514 27.2852 32.3691 25.8675 32.3691 24.1186V16.9936C32.3691 15.2447 30.9514 13.8269 29.2025 13.8269H26.8271V12.2442C26.8271 11.3698 26.1183 10.6609 25.2438 10.6609H9.41048ZM26.8271 24.1186V16.9936L29.2025 16.9936V24.1186L26.8271 24.1186Z" fill="#F9FAFA"/>
<g filter="url(#filter1_b_4753_92174)">
<path d="M10.292 10.2917H24.542V27.7084C24.542 29.0201 23.4787 30.0834 22.167 30.0834H12.667C11.3553 30.0834 10.292 29.0201 10.292 27.7084V10.2917Z" fill="#FFCD2D"/>
</g>
<g filter="url(#filter2_b_4753_92174)">
<path d="M10.292 19.0007H24.542V27.7091C24.542 29.0207 23.4787 30.0841 22.167 30.0841H12.667C11.3553 30.0841 10.292 29.0207 10.292 27.7091V19.0007Z" fill="#FFA906"/>
</g>
<g filter="url(#filter3_b_4753_92174)">
<path d="M10.292 27.2859H24.542V27.7092C24.542 29.0208 23.4787 30.0842 22.167 30.0842H12.667C11.3553 30.0842 10.292 29.0208 10.292 27.7092V27.2859Z" fill="#FF4D00"/>
</g>
<g filter="url(#filter4_b_4753_92174)">
<path d="M11.7849 10.2645C11.7849 8.7342 13.0255 7.49365 14.5557 7.49365C16.086 7.49365 17.3266 8.7342 17.3266 10.2645V16.5978C17.3266 18.1281 16.086 19.3687 14.5557 19.3687C13.0255 19.3687 11.7849 18.1281 11.7849 16.5978V10.2645Z" fill="white"/>
</g>
<defs>
<filter id="filter0_b_4753_92174" x="2.46981" y="-0.690593" width="29.8399" height="22.5731" filterUnits="userSpaceOnUse" color-interpolation-filters="sRGB">
<feFlood flood-opacity="0" result="BackgroundImageFix"/>
<feGaussianBlur in="BackgroundImageFix" stdDeviation="2.77083"/>
<feComposite in2="SourceAlpha" operator="in" result="effect1_backgroundBlur_4753_92174"/>
<feBlend mode="normal" in="SourceGraphic" in2="effect1_backgroundBlur_4753_92174" result="shape"/>
</filter>
<filter id="filter1_b_4753_92174" x="4.75033" y="4.75008" width="25.3333" height="30.8751" filterUnits="userSpaceOnUse" color-interpolation-filters="sRGB">
<feFlood flood-opacity="0" result="BackgroundImageFix"/>
<feGaussianBlur in="BackgroundImageFix" stdDeviation="2.77083"/>
<feComposite in2="SourceAlpha" operator="in" result="effect1_backgroundBlur_4753_92174"/>
<feBlend mode="normal" in="SourceGraphic" in2="effect1_backgroundBlur_4753_92174" result="shape"/>
</filter>
<filter id="filter2_b_4753_92174" x="4.75033" y="13.4591" width="25.3333" height="22.1666" filterUnits="userSpaceOnUse" color-interpolation-filters="sRGB">
<feFlood flood-opacity="0" result="BackgroundImageFix"/>
<feGaussianBlur in="BackgroundImageFix" stdDeviation="2.77083"/>
<feComposite in2="SourceAlpha" operator="in" result="effect1_backgroundBlur_4753_92174"/>
<feBlend mode="normal" in="SourceGraphic" in2="effect1_backgroundBlur_4753_92174" result="shape"/>
</filter>
<filter id="filter3_b_4753_92174" x="4.75033" y="21.7442" width="25.3333" height="13.8817" filterUnits="userSpaceOnUse" color-interpolation-filters="sRGB">
<feFlood flood-opacity="0" result="BackgroundImageFix"/>
<feGaussianBlur in="BackgroundImageFix" stdDeviation="2.77083"/>
<feComposite in2="SourceAlpha" operator="in" result="effect1_backgroundBlur_4753_92174"/>
<feBlend mode="normal" in="SourceGraphic" in2="effect1_backgroundBlur_4753_92174" result="shape"/>
</filter>
<filter id="filter4_b_4753_92174" x="6.24325" y="1.95199" width="16.6251" height="22.9583" filterUnits="userSpaceOnUse" color-interpolation-filters="sRGB">
<feFlood flood-opacity="0" result="BackgroundImageFix"/>
<feGaussianBlur in="BackgroundImageFix" stdDeviation="2.77083"/>
<feComposite in2="SourceAlpha" operator="in" result="effect1_backgroundBlur_4753_92174"/>
<feBlend mode="normal" in="SourceGraphic" in2="effect1_backgroundBlur_4753_92174" result="shape"/>
</filter>
</defs>
</svg>
