<svg width="36" height="37" viewBox="0 0 36 37" fill="none" xmlns="http://www.w3.org/2000/svg">
<path d="M9.28784 22.0555C9.28784 19.6735 9.60781 17.0427 13.0911 14.0208C15.191 12.1991 15.9351 9.73123 16.1716 8.01943C16.2785 7.24548 17.1476 6.71006 17.7788 7.1706C21.1013 9.59511 22.0097 13.2414 22.0499 15.4965C22.0538 15.7108 22.37 15.8056 22.4795 15.6213L23.2327 14.3535C23.6326 13.6803 24.6153 13.7169 24.9371 14.4308C29.7584 25.1284 23.8894 29.8768 17.8913 29.8768C11.5986 29.8768 9.28784 24.4374 9.28784 22.0555Z" stroke="#8D8D8D" stroke-width="2"/>
<path d="M13.3409 24.8808C13.3409 22.1535 15.7143 19.5041 17.5121 18.1259C17.8679 17.8531 18.4137 18.2148 18.4269 18.6629C18.4458 19.3073 18.5725 20.0644 18.9487 20.6191C20.2193 22.4927 22.1952 22.5947 22.3729 25.5293C22.5507 28.464 19.8101 29.8796 17.8719 29.8796C15.2372 29.8796 13.3409 27.5968 13.3409 24.8808Z" stroke="#8D8D8D" stroke-width="2"/>
<path d="M24.6304 6.49803C23.6883 7.09106 22.6479 8.37257 23.6487 10.3092C23.7799 10.6376 23.796 10.9332 23.7728 11.1615C23.7501 11.3852 23.9206 11.6225 24.1283 11.5362C25.2595 11.066 26.0982 9.06068 25.5678 8.11304C25.2872 7.61155 25.1656 7.14961 25.1237 6.79875C25.0953 6.56087 24.8332 6.37041 24.6304 6.49803Z" fill="#8D8D8D"/>
</svg>
