<svg width="24" height="24" viewBox="0 0 24 24" fill="none" xmlns="http://www.w3.org/2000/svg">
<path fill-rule="evenodd" clip-rule="evenodd" d="M4.58203 8.26356C4.92878 7.51602 5.41897 6.86337 5.99414 6.27294C7.29524 4.93721 8.86999 4.08179 10.7344 3.78993C13.3439 3.38169 15.6793 3.9842 17.6976 5.68699C17.8251 5.79442 17.8566 5.85754 17.7182 5.99049C17.006 6.67402 16.3047 7.36874 15.5993 8.05944C15.5272 8.13017 15.4783 8.21656 15.3499 8.10152C13.5732 6.50616 10.6727 6.52451 8.78456 8.24521C8.1363 8.83608 7.67534 9.54379 7.37382 10.3553C7.32996 10.3271 7.28336 10.3021 7.24179 10.2707C6.35505 9.60243 5.46877 8.93322 4.58249 8.26401L4.58203 8.26356Z" fill="#D7282A"/>
<path fill-rule="evenodd" clip-rule="evenodd" d="M7.35184 13.6123C7.60676 14.2462 7.9229 14.8455 8.39345 15.3545C9.58948 16.649 11.0724 17.2072 12.8486 17.0264C13.6741 16.9422 14.4261 16.6683 15.1287 16.2475C15.1964 16.3066 15.2603 16.3697 15.3316 16.4243C16.1539 17.0532 16.9776 17.6813 17.8004 18.3093C16.8926 19.154 15.8209 19.7162 14.6152 20.0148C11.7727 20.7189 9.15273 20.274 6.82601 18.4749C5.86435 17.731 5.10736 16.8124 4.57422 15.7251C5.49979 15.021 6.42582 14.3164 7.35139 13.6123H7.35184Z" fill="#45AC43"/>
<path fill-rule="evenodd" clip-rule="evenodd" d="M17.8006 18.3104C16.9774 17.6823 16.1541 17.0543 15.3318 16.4254C15.2605 16.3708 15.1966 16.3077 15.129 16.2486C15.6863 15.8318 16.1514 15.339 16.4566 14.7128C16.5781 14.463 16.664 14.2016 16.7448 13.9375C16.8006 13.7553 16.7832 13.6845 16.5534 13.6863C15.1833 13.6975 13.8133 13.6922 12.4432 13.6917C12.2498 13.6917 12.1529 13.5937 12.1526 13.3976C12.1526 12.4876 12.1572 11.578 12.1485 10.668C12.1467 10.4925 12.1782 10.4249 12.3801 10.4258C14.9069 10.433 17.4342 10.4316 19.961 10.428C20.0976 10.428 20.1831 10.4379 20.2068 10.6004C20.5211 12.766 20.2694 14.835 19.1122 16.7463C18.7582 17.3314 18.3324 17.8659 17.7997 18.3104H17.8006Z" fill="#5D7FBE"/>
<path fill-rule="evenodd" clip-rule="evenodd" d="M7.35479 13.6129C6.42922 14.317 5.50319 15.0211 4.57762 15.7257C4.12534 14.902 3.86494 14.0175 3.74296 13.0959C3.53235 11.4992 3.76398 9.96288 4.45518 8.49823C4.4931 8.41766 4.54107 8.34201 4.58447 8.26367C5.47075 8.93243 6.35703 9.60164 7.24377 10.27C7.28535 10.3013 7.33149 10.3264 7.3758 10.3546C7.00439 11.4383 7.02312 12.5247 7.35479 13.6124V13.6129Z" fill="#F4C300"/>
</svg>
