<svg width="48" height="48" viewBox="0 0 48 48" fill="none" xmlns="http://www.w3.org/2000/svg">
<rect x="6" y="8.75366" width="28" height="32" rx="2" transform="rotate(-7.70515 6 8.75366)" fill="#F9CC2E"/>
<rect x="14.0192" y="9.7334" width="28" height="32" rx="2" fill="#F9FAFA"/>
<path d="M16.0192 12.7313C16.0192 12.1802 16.4659 11.7334 17.0171 11.7334H39.0213C39.5724 11.7334 40.0192 12.1802 40.0192 12.7313V34.7355C40.0192 35.2866 39.5724 35.7334 39.0213 35.7334H17.0171C16.4659 35.7334 16.0192 35.2866 16.0192 34.7355V12.7313Z" fill="#3D3D3D"/>
<path fill-rule="evenodd" clip-rule="evenodd" d="M38.0188 30.3426C34.361 28.5472 28.3767 26.7334 26.0198 26.7334C23.8329 26.7334 20.4747 28.0999 18.0188 29.1252V33.7334H38.0188V30.3426Z" fill="#F9FAFA"/>
<path d="M20.3008 14.6679C20.3551 14.4362 20.6848 14.4362 20.739 14.6679L21.1118 16.2607C21.1276 16.3284 21.1738 16.385 21.237 16.4139L22.5741 17.0272C22.749 17.1074 22.749 17.356 22.5741 17.4362L21.237 18.0495C21.1738 18.0785 21.1276 18.1351 21.1118 18.2028L20.739 19.7956C20.6848 20.0272 20.3551 20.0272 20.3008 19.7956L19.9281 18.2028C19.9122 18.1351 19.866 18.0785 19.8028 18.0495L18.4658 17.4362C18.2909 17.356 18.2909 17.1074 18.4658 17.0272L19.8028 16.4139C19.866 16.385 19.9122 16.3284 19.9281 16.2607L20.3008 14.6679Z" fill="#F9FAFA"/>
<path d="M24.3 18.6695C24.3542 18.4378 24.6839 18.4378 24.7382 18.6695L25.1109 20.2623C25.1268 20.33 25.173 20.3865 25.2362 20.4155L26.5732 21.0288C26.7481 21.109 26.7481 21.3576 26.5732 21.4378L25.2362 22.0511C25.173 22.0801 25.1268 22.1366 25.1109 22.2043L24.7382 23.7972C24.6839 24.0288 24.3542 24.0288 24.3 23.7972L23.9272 22.2043C23.9114 22.1367 23.8651 22.0801 23.802 22.0511L22.4649 21.4378C22.29 21.3576 22.29 21.109 22.4649 21.0288L23.802 20.4155C23.8651 20.3865 23.9114 20.33 23.9272 20.2623L24.3 18.6695Z" fill="#F9FAFA"/>
<path d="M37.0192 17.7334C37.0192 19.3903 35.676 20.7334 34.0192 20.7334C32.3623 20.7334 31.0192 19.3903 31.0192 17.7334C31.0192 16.0765 32.3623 14.7334 34.0192 14.7334C35.676 14.7334 37.0192 16.0765 37.0192 17.7334Z" fill="#F9CC2E"/>
</svg>
