<svg width="181" height="168" viewBox="0 0 181 168" fill="none" xmlns="http://www.w3.org/2000/svg">
<path fill-rule="evenodd" clip-rule="evenodd" d="M36.8441 74.5903C37.1987 74.5655 37.466 74.2579 37.4412 73.9034C37.4164 73.5488 37.1088 73.2815 36.7543 73.3063C34.2687 73.4802 32.0737 74.9406 30.2666 77.0845C28.4569 79.2314 26.9866 82.1182 25.9421 85.2893C23.8594 91.6128 23.4122 99.2538 25.533 104.726C27.7917 110.554 32.2421 113.995 36.0746 115.821C35.6652 116.386 35.2486 116.996 34.9936 117.733C34.6546 118.713 34.6075 119.869 35.009 121.464C35.403 123.03 36.8231 123.748 38.1573 124.056C39.4422 124.352 40.8503 124.325 41.8183 124.206C43.3056 124.707 46.6138 124.771 50.0668 121.981C51.9173 120.486 52.9424 118.364 53.4828 116.372C54.0235 114.378 54.0964 112.452 53.9932 111.265L53.904 110.237L53.0204 110.769C51.6057 111.62 49.5319 112.718 47.642 113.72L47.5811 113.752C46.6324 114.255 45.7334 114.732 45.0012 115.134C44.282 115.529 43.6852 115.872 43.366 116.103L43.3064 116.147C42.6536 116.619 41.978 117.108 41.5618 117.783C41.0989 118.532 40.9957 119.423 41.2626 120.605C41.3409 120.951 41.6854 121.169 42.0321 121.091C42.3788 121.012 42.5964 120.668 42.5181 120.321C42.3005 119.358 42.4227 118.838 42.6569 118.459C42.9251 118.024 43.3896 117.676 44.1213 117.146C44.3632 116.97 44.8858 116.665 45.6208 116.262C46.3428 115.865 47.2326 115.393 48.1837 114.89L48.2689 114.844L48.2694 114.844C49.7667 114.051 51.4084 113.181 52.7449 112.42C52.7319 113.428 52.5985 114.715 52.2406 116.035C51.7421 117.873 50.8252 119.713 49.2579 120.98C46.0093 123.605 43.0649 123.32 42.1273 122.949L41.969 122.886L41.8004 122.91C40.9358 123.032 39.6069 123.069 38.4468 122.802C37.2623 122.528 36.4702 121.997 36.2572 121.15C35.8998 119.73 35.973 118.839 36.21 118.154C36.4256 117.53 36.7836 117.037 37.2394 116.409C37.253 116.39 37.2666 116.371 37.2804 116.352C38.7254 116.938 40.0279 117.287 41.0161 117.445C41.3671 117.501 41.6971 117.262 41.7531 116.911C41.8092 116.56 41.5701 116.23 41.2191 116.174C37.7272 115.616 29.9015 112.437 26.7331 104.261C24.7548 99.1563 25.1399 91.8395 27.1647 85.692C28.174 82.6276 29.5761 79.9007 31.2507 77.914C32.9279 75.9243 34.8289 74.7312 36.8441 74.5903Z" fill="white"/>
<path d="M154.784 101.275C168.696 80.4528 170.237 59.5157 165.679 45.62C161.608 33.2018 146.351 27.2626 133.516 29.7376C120.681 32.2127 114.696 36.6007 105.491 45.8807C105.81 28.7018 89.452 13.8578 72.2806 13.3923C55.0979 12.9311 39.0208 24.9092 31.9314 40.5638C24.842 56.2184 25.8659 74.7017 31.8667 90.8005C37.8676 106.899 48.4708 120.896 60.1731 133.486C65.9538 139.709 79.9661 149.509 88.4923 149.21C105.491 148.612 138.787 125.216 154.784 101.275Z" fill="#F9CC2E"/>
<path d="M137.594 83.7905C131.706 95.7022 123.103 106.249 112.616 114.444C109.6 116.804 106.429 118.966 103.14 120.928C102.157 121.515 102.039 123.017 102.681 123.889C103.409 124.883 104.671 124.955 105.657 124.361C117.564 117.259 127.854 107.451 135.493 95.9182C137.713 92.572 139.723 89.0877 141.502 85.4931C142.714 83.0461 138.806 81.3435 137.597 83.7828L137.594 83.7905Z" fill="white"/>
<path d="M73.1164 76.375C72.9729 79.7146 72.8313 83.0484 72.6877 86.388C72.6456 87.4272 73.4678 88.4685 74.5481 88.4856C75.6284 88.5028 76.5992 87.7346 76.6458 86.6253C76.7893 83.2857 76.9309 79.9519 77.0744 76.6123C77.1166 75.573 76.2944 74.5318 75.2141 74.5146C74.1338 74.4975 73.1629 75.2657 73.1164 76.375Z" fill="#161616"/>
<path d="M62.0793 73.8808C61.9358 77.2204 61.7942 80.5542 61.6506 83.8938C61.6085 84.9331 62.4307 85.9744 63.511 85.9915C64.5913 86.0086 65.5621 85.2405 65.6087 84.1312C65.7522 80.7916 65.8938 77.4578 66.0373 74.1182C66.0795 73.0789 65.2573 72.0376 64.177 72.0205C63.0967 72.0034 62.1258 72.7715 62.0793 73.8808Z" fill="#161616"/>
<path fill-rule="evenodd" clip-rule="evenodd" d="M93.5047 87.7767C93.8496 87.691 94.0598 87.3419 93.9741 86.997C93.8884 86.652 93.5393 86.4419 93.1943 86.5276C90.001 87.321 84.8093 88.2672 79.6416 88.5223C77.0583 88.6498 74.4967 88.6037 72.2018 88.2853C69.8997 87.9658 67.9104 87.3782 66.4388 86.4538C62.4376 83.9402 59.0301 82.6488 56.0183 82.2828C52.9941 81.9153 50.4079 82.4858 48.0684 83.6296C45.6154 84.8288 44.1538 87.1726 43.4545 89.5528C42.7583 91.9229 42.7799 94.4542 43.4266 96.1553C44.1052 97.9401 45.8615 99.0934 47.6396 98.9348C48.1383 98.8903 48.6178 98.7465 49.0616 98.5016C49.3077 99.2718 49.8153 99.8967 50.4723 100.407C51.3358 101.077 52.4882 101.576 53.7403 101.996C54.9143 102.389 56.2285 102.73 57.5491 103.072L57.5491 103.072L57.5491 103.072L57.5492 103.072L57.8315 103.145C59.2572 103.515 60.6866 103.894 62.0108 104.356C63.7238 104.954 66.6197 105.691 69.8611 106.391C69.9676 106.448 70.0866 106.473 70.2039 106.465C71.0185 106.639 71.8529 106.81 72.694 106.976C77.0278 107.83 81.5975 108.55 84.6396 108.749C84.9943 108.773 85.3006 108.504 85.3238 108.149C85.347 107.794 85.0783 107.488 84.7236 107.465C81.7658 107.271 77.261 106.564 72.9428 105.713C72.3865 105.604 71.8343 105.492 71.2898 105.378C71.7035 104.677 72.0438 103.798 72.3276 102.855C72.7595 101.42 73.0899 99.7314 73.329 98.0451C73.7975 94.7411 73.9296 91.3396 73.7508 89.7483C75.6653 89.9045 77.6891 89.9073 79.705 89.8078C84.9712 89.5479 90.2466 88.5862 93.5047 87.7767ZM72.474 89.6188C72.3234 89.6004 72.1736 89.5808 72.0249 89.5602C69.6327 89.2283 67.442 88.604 65.7541 87.5437C65.5579 87.4204 65.3633 87.3002 65.1704 87.1832C65.2857 88.908 65.1386 92.0134 64.7098 95.0373C64.4707 96.7236 64.1404 98.4119 63.7084 99.8473C63.322 101.132 62.8308 102.296 62.192 103.057C62.2733 103.085 62.3543 103.113 62.435 103.141C64.0452 103.703 66.8026 104.41 69.9405 105.092C70.3529 104.535 70.7464 103.643 71.0951 102.484C71.5018 101.133 71.8208 99.5133 72.0546 97.8644C72.5246 94.5495 72.6357 91.2241 72.4646 89.8322C72.4556 89.759 72.4593 89.6871 72.474 89.6188ZM61.0845 102.364C61.0022 102.448 60.9475 102.549 60.9203 102.655C60.0022 102.382 59.0668 102.136 58.1548 101.9L57.8848 101.83C56.551 101.484 55.2789 101.154 54.1495 100.775C52.9386 100.369 51.9515 99.9256 51.2616 99.39C50.5893 98.8682 50.2346 98.2897 50.1901 97.5816C50.1897 97.5749 50.1892 97.5683 50.1886 97.5617C50.843 96.7824 51.3325 95.6712 51.561 94.2183C51.6162 93.8672 51.3763 93.5378 51.0252 93.4826C50.6741 93.4273 50.3447 93.6672 50.2895 94.0183C49.8744 96.6576 48.6019 97.5567 47.5252 97.6527C46.3693 97.7559 45.121 96.9901 44.6297 95.6979C44.1067 94.3222 44.0511 92.0886 44.6895 89.9156C45.3248 87.7528 46.6095 85.7755 48.6337 84.7859C50.7713 83.7408 53.1085 83.2258 55.863 83.5606C58.1818 83.8423 60.8235 84.7297 63.9123 86.4507C63.8548 86.5619 63.8291 86.6909 63.8455 86.8244C64.0166 88.2162 63.9055 91.5417 63.4355 94.8566C63.2017 96.5055 62.8827 98.1248 62.4759 99.4764C62.061 100.855 61.5827 101.857 61.0845 102.364Z" fill="black"/>
<path fill-rule="evenodd" clip-rule="evenodd" d="M78.4052 90.2028C78.4068 90.1934 78.4084 90.1839 78.4099 90.1744C78.4114 90.165 78.4128 90.1555 78.4142 90.146L78.4731 89.7712L78.4355 89.7653C78.3652 87.4371 74.6703 85.0401 69.8314 84.279C64.9925 83.518 60.7403 84.6651 59.9586 86.8593L59.9207 86.8533L59.3526 90.4654L59.3499 90.4821L59.3473 90.499L59.2863 90.8864L59.3243 90.8924C59.3957 93.2203 63.0902 95.6166 67.9283 96.3775C72.7665 97.1385 77.0181 95.9919 77.8007 93.7983L77.8388 93.8043L78.4052 90.2028Z" fill="#F9CC2E"/>
<path fill-rule="evenodd" clip-rule="evenodd" d="M77.135 89.9945L77.1365 89.9862L77.1384 89.9745L77.1402 89.9627L77.1414 89.9543L77.1515 89.8896L77.149 89.8041C77.1336 89.2964 76.661 88.4372 75.2271 87.5181C73.8668 86.6462 71.9094 85.9088 69.6314 85.5505C67.3534 85.1923 65.2643 85.2932 63.7019 85.7055C62.0552 86.14 61.3416 86.8127 61.1711 87.2912L61.1418 87.3737L60.6233 90.6703L60.6214 90.6821L60.6188 90.6989L60.6081 90.7666L60.6108 90.8529C60.6264 91.3608 61.0994 92.22 62.5333 93.1389C63.8936 94.0106 65.8507 94.7478 68.1283 95.106C70.4059 95.4643 72.4948 95.3634 74.0571 94.9513C75.7037 94.5169 76.4177 93.8444 76.5884 93.3658L76.6177 93.2838L77.135 89.9945ZM77.8007 93.7983C77.0181 95.9919 72.7665 97.1385 67.9283 96.3775C63.0902 95.6166 59.3957 93.2203 59.3243 90.8924L59.2863 90.8864L59.3473 90.499L59.3499 90.4821L59.3526 90.4654L59.9207 86.8533L59.9586 86.8593C60.7403 84.6651 64.9925 83.518 69.8314 84.279C74.6703 85.0401 78.3652 87.4371 78.4355 89.7653L78.4731 89.7712L78.4142 90.146L78.4099 90.1744L78.4052 90.2028L77.8388 93.8043L77.8007 93.7983Z" fill="black"/>
<path fill-rule="evenodd" clip-rule="evenodd" d="M64.9945 87.2376C65.0497 86.8864 65.3791 86.6466 65.7302 86.7018L69.7634 87.3361C69.9978 87.373 70.193 87.5359 70.2711 87.76C70.3492 87.9842 70.2976 88.2331 70.1369 88.4077L69.14 89.4908C68.8993 89.7523 68.4921 89.7692 68.2306 89.5285C67.9691 89.2877 67.9522 88.8806 68.1929 88.6191L68.3755 88.4208L65.5303 87.9733C65.1791 87.9181 64.9393 87.5887 64.9945 87.2376Z" fill="black"/>
<path fill-rule="evenodd" clip-rule="evenodd" d="M63.7977 89.7603C63.9494 89.4388 64.333 89.3013 64.6544 89.453C65.938 90.059 67.4983 90.5411 69.217 90.8114C70.774 91.0563 72.2611 91.096 73.5745 90.9652C73.9282 90.93 74.2435 91.1881 74.2787 91.5418C74.3139 91.8955 74.0558 92.2107 73.7021 92.246C72.2716 92.3884 70.6741 92.3435 69.017 92.0829C67.1888 91.7953 65.5093 91.28 64.1049 90.617C63.7835 90.4652 63.6459 90.0817 63.7977 89.7603Z" fill="black"/>
</svg>
