<svg width="264" height="212" viewBox="0 0 264 212" fill="none" xmlns="http://www.w3.org/2000/svg">
<path fill-rule="evenodd" clip-rule="evenodd" d="M108.16 153.974C105.554 153.974 103.238 156.132 103.705 158.89C105.663 170.471 115.739 179.291 127.877 179.291C140.015 179.291 150.092 170.471 152.05 158.89C152.516 156.132 150.201 153.974 147.594 153.974L108.16 153.974Z" fill="#222222"/>
<path fill-rule="evenodd" clip-rule="evenodd" d="M138.753 35.9907C113.308 33.3163 90.5129 51.7756 87.8385 77.2207L84.3184 110.712C84.0565 113.204 82.7897 115.481 80.8107 117.017L71.9575 123.891C66.4073 128.2 68.9375 137.075 75.9255 137.809L182.833 149.045C189.821 149.78 194.141 141.625 189.608 136.256L182.378 127.692C180.761 125.778 179.996 123.287 180.258 120.796L183.778 87.3043C186.452 61.8592 167.993 39.0639 142.547 36.3895L138.753 35.9907Z" fill="#222222"/>
<path d="M114.202 79.4406C113.884 79.7044 113.552 79.9463 113.205 80.1732C112.931 80.3517 113.436 80.0568 113.238 80.1476C113.152 80.1904 113.062 80.24 112.976 80.2828C112.803 80.3684 112.621 80.4417 112.441 80.5082C112.37 80.5335 112.289 80.5464 112.221 80.5812C112.529 80.4097 112.426 80.5258 112.267 80.5612C112.078 80.5992 111.891 80.6304 111.695 80.6492C111.39 80.6768 111.087 80.6813 110.781 80.6926C110.653 80.6929 110.406 80.6734 110.931 80.6937C110.872 80.6919 110.819 80.6928 110.759 80.691C110.616 80.6927 110.469 80.6848 110.325 80.6701C110.018 80.6488 109.727 80.5936 109.432 80.5289C109.137 80.4642 109.753 80.6373 109.545 80.5624C109.469 80.5292 109.381 80.5068 109.302 80.4804C109.132 80.4221 108.962 80.3475 108.801 80.2688C108.64 80.1902 108.482 80.1048 108.324 80.0194C108.124 79.9079 108.138 79.9461 108.324 80.0194C108.204 79.9669 108.08 79.856 107.971 79.7764C107.235 79.2603 106.126 79.2505 105.509 80.1095C104.968 80.8645 104.907 82.1201 105.701 82.6775C106.628 83.3254 107.56 83.8227 108.651 84.1147C109.424 84.3243 110.201 84.3342 111 84.3131C111.883 84.2886 112.696 84.201 113.557 83.9007C114.499 83.571 115.387 82.9843 116.168 82.3343C116.9 81.7274 117.194 80.5415 116.614 79.7712C116.034 79.0009 114.971 78.7851 114.19 79.4351L114.202 79.4406Z" fill="#666666"/>
<path d="M131.189 77.5821C131.045 77.7397 130.885 77.8827 130.744 78.0495C130.838 77.9383 131.008 77.8072 130.8 77.9903C130.723 78.0632 130.643 78.1269 130.563 78.1906C130.42 78.3108 130.265 78.4255 130.115 78.5275C130.031 78.5821 129.947 78.6366 129.857 78.6885C129.606 78.8523 130.126 78.5549 129.936 78.6467C129.766 78.7248 129.604 78.8057 129.425 78.8719C129.327 78.9055 129.23 78.939 129.136 78.9662C128.829 79.0678 129.512 78.895 129.163 78.9553C128.894 79.0049 128.622 79.0608 128.353 79.1104C128.084 79.16 127.811 79.2004 127.532 79.2226C127.391 79.2369 127.249 79.2356 127.104 79.2407C126.929 79.2476 127.589 79.2629 127.227 79.2337C127.156 79.2253 127.088 79.2261 127.017 79.2177C126.685 79.1867 126.353 79.0718 126.028 79.0436C126.307 79.1274 126.36 79.143 126.175 79.085L126.075 79.0565C125.969 79.0252 125.866 78.9875 125.762 78.9498C125.536 78.8661 125.316 78.7697 125.096 78.6733C124.278 78.2996 123.161 78.7088 122.824 79.5811C122.487 80.4533 122.822 81.4679 123.697 81.8664C125.328 82.611 127.03 82.8845 128.804 82.5655C129.66 82.4077 130.519 82.2436 131.296 81.8227C132.277 81.2935 133.088 80.606 133.837 79.7694C134.442 79.0905 134.315 77.8554 133.598 77.3203C132.816 76.7422 131.826 76.864 131.171 77.5894L131.189 77.5821Z" fill="#666666"/>
<path fill-rule="evenodd" clip-rule="evenodd" d="M128.541 97.4635C129.256 98.2259 130.055 99.044 131.031 99.8578C131.825 100.519 133.323 101.159 135.34 101.647C137.323 102.128 139.69 102.434 142.115 102.507C144.542 102.579 146.996 102.416 149.159 101.974C151.337 101.528 153.133 100.815 154.321 99.8499C154.75 99.5017 155.379 99.5668 155.728 99.9955C156.076 100.424 156.011 101.054 155.582 101.402C154.041 102.655 151.889 103.456 149.56 103.933C147.214 104.413 144.6 104.582 142.056 104.506C139.51 104.43 137.004 104.108 134.869 103.591C132.768 103.082 130.905 102.356 129.751 101.394C128.681 100.502 127.816 99.615 127.082 98.8317C126.925 98.6643 126.776 98.504 126.633 98.3507C126.091 97.7681 125.643 97.2859 125.205 96.8948C124.661 96.4094 124.244 96.1694 123.855 96.0885C123.492 96.0129 123.02 96.0486 122.31 96.4037L122.307 96.4054C122.295 96.4657 122.291 96.5959 122.33 96.8456C122.35 96.9737 122.378 97.1103 122.411 97.2666L122.426 97.338L122.426 97.338L122.426 97.3382L122.426 97.3383L122.426 97.3385C122.454 97.4699 122.485 97.6164 122.511 97.7589C122.568 98.0754 122.635 98.526 122.546 98.9681C122.485 99.2677 122.342 99.4924 122.267 99.6054C121.673 100.497 120.549 100.917 119.502 100.572C118.15 100.128 117.171 99.7097 116.282 99.1875C115.398 98.6688 114.636 98.0666 113.718 97.3008C113.044 96.7392 112.624 96.7094 112.47 96.7381C112.371 96.7567 112.196 96.8338 112.086 97.223C111.849 98.0599 112.143 99.8868 114.031 101.952L116.374 103.96C116.793 104.32 116.841 104.951 116.482 105.37C116.123 105.79 115.491 105.838 115.072 105.479L113.997 104.557C113.994 104.607 113.993 104.661 113.993 104.72C113.993 105.249 113.944 105.842 113.903 106.343L113.903 106.343C113.887 106.529 113.873 106.702 113.863 106.854C113.842 107.162 113.836 107.385 113.847 107.536C113.848 107.548 113.849 107.559 113.85 107.568C113.935 107.709 113.982 107.867 113.992 108.027C114.178 108.401 114.115 108.868 113.803 109.179C113.635 109.348 113.356 110.1 114.222 111.349C115.029 112.513 116.738 113.853 119.738 114.671C120.779 114.955 122.123 115.575 123.614 116.284C123.843 116.393 124.077 116.504 124.315 116.618L124.315 116.618L124.315 116.618L124.315 116.618C125.667 117.264 127.174 117.983 128.819 118.681C132.694 120.323 137.239 121.799 141.988 121.799C142.54 121.799 142.988 122.247 142.988 122.799C142.988 123.352 142.54 123.799 141.988 123.799C139.85 123.799 137.765 123.524 135.773 123.081C135.765 123.083 135.757 123.085 135.749 123.087C131.011 124.271 126.062 125.733 121.409 127.25C110.224 130.896 101.04 127.031 94.7847 124.398C94.2226 124.162 93.6843 123.935 93.1702 123.725C92.659 123.516 92.4142 122.932 92.6233 122.42C92.8324 121.909 93.4163 121.664 93.9275 121.874C94.4473 122.086 94.985 122.312 95.5404 122.545L95.5405 122.545C101.816 125.177 110.342 128.754 120.789 125.348C124.403 124.17 128.2 123.023 131.946 122.011C130.572 121.553 129.264 121.042 128.039 120.522C126.349 119.806 124.797 119.065 123.447 118.42L123.446 118.42C123.21 118.307 122.979 118.197 122.755 118.09C121.218 117.36 120.046 116.828 119.211 116.601C116.852 115.957 115.079 114.987 113.84 113.891C113.815 113.887 113.789 113.881 113.763 113.874C111.326 113.236 107.48 111.971 103.816 110.238C100.2 108.527 96.5648 106.27 94.7642 103.569C94.4579 103.11 94.5821 102.489 95.0416 102.182C95.5011 101.876 96.122 102 96.4283 102.46C97.9026 104.671 101.09 106.735 104.671 108.43C107.18 109.617 109.785 110.578 111.922 111.256C111.528 110.223 111.491 109.15 111.977 108.303C111.96 108.257 111.946 108.215 111.935 108.176C111.885 108.003 111.863 107.829 111.852 107.678C111.831 107.379 111.846 107.038 111.868 106.719C111.882 106.505 111.899 106.295 111.917 106.087L111.917 106.087C111.955 105.618 111.993 105.162 111.993 104.72C111.993 104.095 112.098 103.592 112.312 103.164C112.326 103.135 112.341 103.107 112.356 103.079C110.372 100.805 109.677 98.3875 110.162 96.6774C110.423 95.756 111.074 94.9646 112.103 94.7722C113.077 94.5899 114.089 95.0066 114.998 95.7644C115.905 96.5201 116.561 97.0323 117.295 97.4628C118.022 97.8899 118.859 98.2557 120.126 98.6726C120.284 98.7244 120.474 98.6703 120.589 98.5152C120.59 98.4475 120.581 98.3252 120.543 98.1182C120.522 98.0052 120.498 97.89 120.47 97.7583L120.47 97.7582L120.47 97.7578L120.453 97.6779C120.42 97.5194 120.383 97.3397 120.354 97.1573C120.3 96.8111 120.254 96.3432 120.377 95.8779C120.516 95.3531 120.852 94.8965 121.416 94.6148C122.411 94.1171 123.346 93.9395 124.263 94.1305C125.153 94.3161 125.887 94.8223 126.537 95.4029C127.052 95.8623 127.583 96.4343 128.133 97.0263L128.135 97.0282C128.269 97.1726 128.404 97.3181 128.541 97.4635Z" fill="#666666"/>
</svg>
