<svg width="48" height="48" viewBox="0 0 48 48" fill="none" xmlns="http://www.w3.org/2000/svg">
<g filter="url(#filter0_b_4753_92102)">
<path d="M27.4723 31.4778C26.2274 30.2329 26.2274 28.2146 27.4723 26.9697C28.7172 25.7249 30.7355 25.7249 31.9803 26.9697L40.2451 35.2345C41.49 36.4794 41.49 38.4977 40.2451 39.7425C39.0002 40.9874 36.9819 40.9874 35.737 39.7425L27.4723 31.4778Z" fill="#F9CC2E"/>
</g>
<g filter="url(#filter1_b_4753_92102)">
<path fill-rule="evenodd" clip-rule="evenodd" d="M21.8583 26.7409C24.8321 26.7409 27.2428 24.3301 27.2428 21.3563C27.2428 18.3825 24.8321 15.9718 21.8583 15.9718C18.8845 15.9718 16.4737 18.3825 16.4737 21.3563C16.4737 24.3301 18.8845 26.7409 21.8583 26.7409ZM21.8583 35.7151C29.7884 35.7151 36.2171 29.2865 36.2171 21.3563C36.2171 13.4262 29.7884 6.99756 21.8583 6.99756C13.9282 6.99756 7.49951 13.4262 7.49951 21.3563C7.49951 29.2865 13.9282 35.7151 21.8583 35.7151Z" fill="#F9FAFA"/>
</g>
<path d="M37.5928 5.95437C37.6463 5.72143 37.978 5.72143 38.0315 5.95437L38.6051 8.45551C38.6206 8.52302 38.6663 8.57964 38.729 8.609L40.6893 9.52649C40.8621 9.60738 40.8621 9.85317 40.6893 9.93406L38.729 10.8516C38.6663 10.8809 38.6206 10.9375 38.6051 11.005L38.0315 13.5062C37.978 13.7391 37.6463 13.7391 37.5928 13.5062L37.0192 11.005C37.0037 10.9375 36.958 10.8809 36.8953 10.8516L34.935 9.93406C34.7622 9.85317 34.7622 9.60738 34.935 9.52649L36.8953 8.609C36.958 8.57964 37.0037 8.52302 37.0192 8.45551L37.5928 5.95437Z" fill="#F9FAFA"/>
<path d="M8.59333 32.9544C8.64676 32.7214 8.97852 32.7214 9.03194 32.9544L9.60557 35.4555C9.62105 35.523 9.66676 35.5796 9.72949 35.609L11.6897 36.5265C11.8626 36.6074 11.8626 36.8532 11.6897 36.9341L9.72949 37.8516C9.66676 37.8809 9.62105 37.9375 9.60557 38.005L9.03194 40.5062C8.97852 40.7391 8.64675 40.7391 8.59333 40.5062L8.01971 38.005C8.00423 37.9375 7.95852 37.8809 7.89578 37.8516L5.93553 36.9341C5.7627 36.8532 5.7627 36.6074 5.93553 36.5265L7.89578 35.609C7.95852 35.5796 8.00423 35.523 8.01971 35.4555L8.59333 32.9544Z" fill="#F9FAFA"/>
<defs>
<filter id="filter0_b_4753_92102" x="22.5386" y="22.0361" width="22.6401" height="22.64" filterUnits="userSpaceOnUse" color-interpolation-filters="sRGB">
<feFlood flood-opacity="0" result="BackgroundImageFix"/>
<feGaussianBlur in="BackgroundImageFix" stdDeviation="2"/>
<feComposite in2="SourceAlpha" operator="in" result="effect1_backgroundBlur_4753_92102"/>
<feBlend mode="normal" in="SourceGraphic" in2="effect1_backgroundBlur_4753_92102" result="shape"/>
</filter>
<filter id="filter1_b_4753_92102" x="0.499512" y="-0.00244141" width="42.7175" height="42.7175" filterUnits="userSpaceOnUse" color-interpolation-filters="sRGB">
<feFlood flood-opacity="0" result="BackgroundImageFix"/>
<feGaussianBlur in="BackgroundImageFix" stdDeviation="3.5"/>
<feComposite in2="SourceAlpha" operator="in" result="effect1_backgroundBlur_4753_92102"/>
<feBlend mode="normal" in="SourceGraphic" in2="effect1_backgroundBlur_4753_92102" result="shape"/>
</filter>
</defs>
</svg>
