<svg width="38" height="38" viewBox="0 0 38 38" fill="none" xmlns="http://www.w3.org/2000/svg">
<path d="M5.54199 16.2298C5.54199 19.509 8.02308 22.1673 11.0837 22.1673H26.1253C29.1859 22.1673 31.667 19.509 31.667 16.2298C31.667 12.9506 29.1859 10.2923 26.1253 10.2923C25.7146 10.2923 25.3143 10.3402 24.9291 10.431C23.8815 8.02005 21.479 6.33398 18.6827 6.33398C15.8727 6.33398 13.4604 8.03655 12.421 10.4664C11.9927 10.3527 11.5448 10.2923 11.0837 10.2923C8.02308 10.2923 5.54199 12.9506 5.54199 16.2298Z" fill="#F9FAFA"/>
<path d="M11.875 24.5417C11.875 24.1044 12.2294 23.75 12.6667 23.75C13.1039 23.75 13.4583 24.1044 13.4583 24.5417V26.9167C13.4583 27.3539 13.1039 27.7083 12.6667 27.7083C12.2294 27.7083 11.875 27.3539 11.875 26.9167V24.5417Z" fill="#8ED6FF"/>
<path d="M15.042 29.2917C15.042 28.8544 15.3964 28.5 15.8337 28.5C16.2709 28.5 16.6253 28.8544 16.6253 29.2917V31.6667C16.6253 32.1039 16.2709 32.4583 15.8337 32.4583C15.3964 32.4583 15.042 32.1039 15.042 31.6667V29.2917Z" fill="#8ED6FF"/>
<path d="M18.208 24.5417C18.208 24.1044 18.5624 23.75 18.9997 23.75C19.4369 23.75 19.7913 24.1044 19.7913 24.5417V26.9167C19.7913 27.3539 19.4369 27.7083 18.9997 27.7083C18.5624 27.7083 18.208 27.3539 18.208 26.9167V24.5417Z" fill="#8ED6FF"/>
<path d="M24.542 24.5417C24.542 24.1044 24.8964 23.75 25.3337 23.75C25.7709 23.75 26.1253 24.1044 26.1253 24.5417V26.9167C26.1253 27.3539 25.7709 27.7083 25.3337 27.7083C24.8964 27.7083 24.542 27.3539 24.542 26.9167V24.5417Z" fill="#8ED6FF"/>
<path d="M21.375 29.2917C21.375 28.8544 21.7294 28.5 22.1667 28.5C22.6039 28.5 22.9583 28.8544 22.9583 29.2917V31.6667C22.9583 32.1039 22.6039 32.4583 22.1667 32.4583C21.7294 32.4583 21.375 32.1039 21.375 31.6667V29.2917Z" fill="#8ED6FF"/>
</svg>
