<svg width="201" height="88" viewBox="0 0 201 88" fill="none" xmlns="http://www.w3.org/2000/svg">
<path fill-rule="evenodd" clip-rule="evenodd" d="M0.526548 88H195C198.314 88 201 85.3137 201 82V6C201 2.68629 198.314 0 195 0H143.287C135.236 8.8423 131.01 17.7403 126.907 29.5178C126.29 31.2938 124.678 32.5307 122.705 32.7265C120.7 32.9292 118.836 32.0402 117.844 30.4053C116.09 27.5422 115.104 26.2389 114.577 25.656C97.6948 6.90949 65.9208 1.06432 42.2389 12.3585C18.9351 23.4753 2.75519 48.7235 0.628782 77.0221L0.532028 78.9665C0.47716 79.757 0.442018 80.56 0.408007 81.3527C0.357036 83.457 0.397677 85.5917 0.5076 87.6716C0.513708 87.7811 0.520024 87.8905 0.526548 88ZM47.4975 71.7763C51.6773 69.6306 54.6374 66.581 56.5579 62.4291L56.5672 62.4405C57.2002 61.0902 57.2474 59.5026 56.6953 58.0898C56.1934 56.796 55.2376 55.7957 54.009 55.2631C51.1389 54.0201 47.928 55.1198 46.7105 57.7633L46.4601 58.3161C44.4522 62.014 40.3961 64.09 36.1583 63.4891C33.4285 63.1813 30.3002 64.6826 29.8048 67.7641C29.5651 69.2797 29.9861 70.927 30.937 72.1646C31.7588 73.2335 32.93 73.9048 34.2208 74.0613L34.5024 74.0909C39.2158 74.5867 43.4761 73.8249 47.4975 71.7763ZM80.8085 50.8535C84.8677 47.7851 87.3416 44.1672 88.5952 39.4592L88.5825 39.4785C88.9294 38.1396 88.6492 36.6519 87.8058 35.3946C86.9543 34.1157 85.6655 33.2666 84.2551 33.0458C80.8236 32.4987 78.8047 34.5615 78.0495 36.6434C77.9888 36.8129 77.9396 36.9732 77.9135 37.1152C76.9916 40.431 74.4937 42.9191 71.2356 43.7759C70.1492 44.065 69.2047 44.2138 68.2054 44.2845C66.7522 44.3592 65.3559 45.0706 64.355 46.2167C63.4003 47.3262 62.9412 48.7258 63.0993 50.0765C63.4035 52.6939 65.4926 54.7131 68.0369 54.9807C68.3185 55.0104 68.6034 55.0093 68.8999 54.9991C73.4298 54.7621 77.4317 53.3733 80.8085 50.8535Z" fill="#F9FAFA"/>
</svg>
