<svg width="38" height="38" viewBox="0 0 38 38" fill="none" xmlns="http://www.w3.org/2000/svg">
<g filter="url(#filter0_b_4753_92323)">
<path d="M14.1958 6.43277C15.5301 5.07368 17.7198 5.07368 19.0541 6.43277C19.833 7.22614 20.9502 7.58915 22.0467 7.40512C23.925 7.08985 25.6965 8.37694 25.9771 10.2607C26.1409 11.3604 26.8313 12.3108 27.8266 12.8064C29.5315 13.6553 30.2081 15.7379 29.3279 17.4268C28.814 18.4128 28.814 19.5875 29.3279 20.5734C30.2081 22.2624 29.5315 24.3449 27.8266 25.1939C26.8313 25.6895 26.1409 26.6399 25.9771 27.7395C25.6965 29.6233 23.925 30.9104 22.0467 30.5951C20.9502 30.4111 19.833 30.7741 19.0541 31.5675C17.7198 32.9266 15.5301 32.9266 14.1958 31.5675C13.417 30.7741 12.2997 30.4111 11.2032 30.5951C9.32495 30.9104 7.55344 29.6233 7.27285 27.7395C7.10905 26.6399 6.41856 25.6895 5.42333 25.1939C3.71845 24.3449 3.04179 22.2624 3.92205 20.5734C4.4359 19.5875 4.4359 18.4128 3.92205 17.4268C3.04179 15.7379 3.71845 13.6553 5.42333 12.8064C6.41856 12.3108 7.10905 11.3604 7.27285 10.2607C7.55344 8.37694 9.32496 7.08985 11.2032 7.40512C12.2997 7.58916 13.417 7.22614 14.1958 6.43277Z" fill="#F9CC2E"/>
</g>
<path fill-rule="evenodd" clip-rule="evenodd" d="M11.083 17.416C11.083 16.1043 12.1463 15.041 13.458 15.041C14.7697 15.041 15.833 16.1043 15.833 17.416C15.833 17.8532 15.4786 18.2077 15.0413 18.2077C14.6041 18.2077 14.2497 17.8532 14.2497 17.416C14.2497 16.9788 13.8952 16.6243 13.458 16.6243C13.0208 16.6243 12.6663 16.9788 12.6663 17.416C12.6663 17.8532 12.3119 18.2077 11.8747 18.2077C11.4374 18.2077 11.083 17.8532 11.083 17.416ZM16.6247 17.416C16.6247 16.1043 17.688 15.041 18.9997 15.041C20.3114 15.041 21.3747 16.1043 21.3747 17.416C21.3747 17.8532 21.0202 18.2077 20.583 18.2077C20.1458 18.2077 19.7913 17.8532 19.7913 17.416C19.7913 16.9788 19.4369 16.6243 18.9997 16.6243C18.5624 16.6243 18.208 16.9788 18.208 17.416C18.208 17.8532 17.8536 18.2077 17.4163 18.2077C16.9791 18.2077 16.6247 17.8532 16.6247 17.416Z" fill="#3D3D3D"/>
<g filter="url(#filter1_b_4753_92323)">
<path d="M19.122 30.96C20.1629 31.9096 21.8923 32.5309 23.8497 32.5309C25.807 32.5309 27.5364 31.9096 28.5773 30.96H29.6095C33.3689 30.9597 36.4164 27.9119 36.4164 24.1524C36.4164 20.3928 33.3686 17.3451 29.6091 17.3451C27.2952 17.3451 25.251 18.4995 24.021 20.2638C23.657 20.0719 23.2422 19.9634 22.8022 19.9634C21.9754 19.9634 21.2381 20.3466 20.7582 20.9451C20.1036 20.6508 19.3775 20.487 18.6131 20.487C15.7211 20.487 13.3767 22.8314 13.3767 25.7234C13.3767 28.6154 15.7211 30.9598 18.613 30.9599L19.122 30.96Z" fill="white"/>
</g>
<defs>
<filter id="filter0_b_4753_92323" x="0.369222" y="2.24679" width="32.5116" height="33.5067" filterUnits="userSpaceOnUse" color-interpolation-filters="sRGB">
<feFlood flood-opacity="0" result="BackgroundImageFix"/>
<feGaussianBlur in="BackgroundImageFix" stdDeviation="1.58333"/>
<feComposite in2="SourceAlpha" operator="in" result="effect1_backgroundBlur_4753_92323"/>
<feBlend mode="normal" in="SourceGraphic" in2="effect1_backgroundBlur_4753_92323" result="shape"/>
</filter>
<filter id="filter1_b_4753_92323" x="7.83504" y="11.8034" width="34.1231" height="26.2691" filterUnits="userSpaceOnUse" color-interpolation-filters="sRGB">
<feFlood flood-opacity="0" result="BackgroundImageFix"/>
<feGaussianBlur in="BackgroundImageFix" stdDeviation="2.77083"/>
<feComposite in2="SourceAlpha" operator="in" result="effect1_backgroundBlur_4753_92323"/>
<feBlend mode="normal" in="SourceGraphic" in2="effect1_backgroundBlur_4753_92323" result="shape"/>
</filter>
</defs>
</svg>
