<svg width="24" height="25" viewBox="0 0 24 25" fill="none" xmlns="http://www.w3.org/2000/svg">
<path fill-rule="evenodd" clip-rule="evenodd" d="M12 3.05542C6.75329 3.05542 2.5 7.30871 2.5 12.5554C2.5 17.8021 6.75329 22.0554 12 22.0554C17.2467 22.0554 21.5 17.8021 21.5 12.5554C21.5 7.30871 17.2467 3.05542 12 3.05542ZM11 8.55438C11 8.00238 11.448 7.55438 12 7.55438C12.552 7.55438 13 8.00238 13 8.55438V13.5544C13 14.1064 12.552 14.5544 12 14.5544C11.448 14.5544 11 14.1064 11 13.5544V8.55438ZM11 16.5544C11 16.0024 11.448 15.5544 12 15.5544C12.552 15.5544 13 16.0024 13 16.5544C13 17.1064 12.552 17.5544 12 17.5544C11.448 17.5544 11 17.1064 11 16.5544Z" fill="#F9FAFA"/>
</svg>
