<svg width="264" height="212" viewBox="0 0 264 212" fill="none" xmlns="http://www.w3.org/2000/svg">
<path d="M106.762 37.2754L111.276 60.8019L93.3068 57.7213L106.762 75.691L97.3802 96.8866L145.59 122.551L153.081 109.268L176.059 99.5893L167.427 84.4013L192.659 72.9126L172.046 64.81L178.771 50.4651L167.791 55.4648L171.237 30.2018L141.722 55.2053L135.233 40.9538L131.418 54.2559L106.762 37.2754Z" fill="#F9FAFA"/>
<path fill-rule="evenodd" clip-rule="evenodd" d="M63.6042 81.733C61.9359 82.3678 61.0981 84.2349 61.7329 85.9033C62.3677 87.5716 64.2348 88.4095 65.9032 87.7746C67.5715 87.1398 68.4094 85.2727 67.7745 83.6044C67.1397 81.936 65.2726 81.0982 63.6042 81.733ZM59.1372 86.891C57.9568 83.789 59.5146 80.3176 62.6166 79.1373C65.7185 77.9569 69.1899 79.5147 70.3703 82.6167C71.5506 85.7186 69.9928 89.19 66.8909 90.3704C63.7889 91.5507 60.3175 89.9929 59.1372 86.891Z" fill="#EFC0FF"/>
<path d="M202.764 61.8437C202.764 62.9779 201.844 63.8974 200.71 63.8974C199.576 63.8974 198.656 62.9779 198.656 61.8437C198.656 60.7095 199.576 59.79 200.71 59.79C201.844 59.79 202.764 60.7095 202.764 61.8437Z" fill="#F9FAFA"/>
<path d="M66.5692 102.92C66.9726 103.98 66.4402 105.166 65.3801 105.569C64.3201 105.973 63.1337 105.44 62.7304 104.38C62.327 103.32 62.8594 102.134 63.9194 101.731C64.9795 101.327 66.1658 101.86 66.5692 102.92Z" fill="#FFF200"/>
<path d="M203.7 96.9323C204.103 97.9924 203.571 99.1787 202.511 99.5821C201.451 99.9855 200.265 99.4531 199.861 98.3931C199.458 97.333 199.99 96.1466 201.05 95.7433C202.11 95.3399 203.297 95.8723 203.7 96.9323Z" fill="#FFF200"/>
<path d="M78.1601 59.2617C78.1601 60.3959 77.2406 61.3154 76.1064 61.3154C74.9722 61.3154 74.0527 60.3959 74.0527 59.2617C74.0527 58.1275 74.9722 57.208 76.1064 57.208C77.2406 57.208 78.1601 58.1275 78.1601 59.2617Z" fill="#FFF200"/>
<path fill-rule="evenodd" clip-rule="evenodd" d="M186.878 127.577C187.375 128.161 187.304 129.037 186.719 129.534L178.567 136.464C177.983 136.96 177.106 136.889 176.61 136.305C176.113 135.72 176.184 134.844 176.768 134.347L184.921 127.418C185.505 126.921 186.381 126.992 186.878 127.577Z" fill="#EFC0FF"/>
<path d="M79.6506 108.99L76.4063 111.333L75.9996 107.352L79.6506 108.99Z" fill="#F9FAFA"/>
<path d="M194.814 111.101L190.949 112.136L191.985 108.271L194.814 111.101Z" fill="#EFC0FF"/>
<path d="M89.8962 66.2828L86.0309 67.3185L87.0666 63.4531L89.8962 66.2828Z" fill="#EFC0FF"/>
<path fill-rule="evenodd" clip-rule="evenodd" d="M190.777 85.4512C190.41 85.5983 189.843 85.9951 189.04 86.8655C188.284 87.6844 186.894 88.4744 185.32 89.1915C183.716 89.922 181.822 90.6205 179.967 91.2262C178.111 91.8325 176.281 92.35 174.805 92.7165C174.066 92.8998 173.411 93.0465 172.882 93.1479C172.371 93.2458 171.927 93.3117 171.638 93.3117C171.254 93.3117 170.943 93.0009 170.943 92.6174C170.943 92.2339 171.254 91.9231 171.638 91.9231C171.779 91.9231 172.105 91.8829 172.621 91.784C173.118 91.6887 173.748 91.5481 174.47 91.3688C175.914 91.0104 177.711 90.5022 179.536 89.9062C181.363 89.3097 183.204 88.6292 184.744 87.9278C186.313 87.2131 187.471 86.5185 188.02 85.9237C188.871 85.0015 189.606 84.4244 190.26 84.1622C190.596 84.0276 190.935 83.9662 191.267 84.0062C191.606 84.0471 191.893 84.1886 192.123 84.3889C192.417 84.6449 192.606 84.9859 192.731 85.3227C192.948 85.1827 193.194 85.0833 193.469 85.0316C194.334 84.8692 195.274 85.2301 196.154 85.8169C197.295 86.5773 198.762 88.1344 199.114 90.2998C199.475 92.516 198.637 95.1656 195.55 98.0065C193.775 99.6392 188.642 103.275 183.602 106.484C181.074 108.094 178.547 109.611 176.451 110.727C175.404 111.285 174.454 111.749 173.658 112.075C172.893 112.389 172.176 112.617 171.638 112.617C171.254 112.617 170.943 112.306 170.943 111.923C170.943 111.539 171.254 111.228 171.638 111.228C171.875 111.228 172.365 111.105 173.131 110.79C173.866 110.489 174.771 110.049 175.798 109.502C177.85 108.409 180.343 106.913 182.856 105.313C187.9 102.101 192.937 98.5239 194.61 96.9846C197.466 94.3562 198.008 92.1449 197.744 90.5227C197.472 88.8497 196.312 87.5909 195.384 86.9723C194.609 86.4559 194.055 86.3345 193.725 86.3964C193.478 86.4429 193.18 86.6302 192.993 87.3325C192.903 87.6693 192.577 87.8873 192.232 87.842C191.886 87.7967 191.627 87.5022 191.627 87.1536C191.627 86.8423 191.6 86.4548 191.518 86.1067C191.432 85.7363 191.311 85.5237 191.211 85.436C191.173 85.4035 191.142 85.3898 191.101 85.3849C191.053 85.3791 190.951 85.3812 190.777 85.4512Z" fill="#8D8D8D"/>
<path fill-rule="evenodd" clip-rule="evenodd" d="M87.0187 74.1745C87.3165 74.4349 87.7195 74.9966 88.1896 76.0839C88.6319 77.1068 89.6826 78.3124 90.9306 79.51C92.2017 80.7298 93.7586 82.016 95.3083 83.2014C96.8595 84.3878 98.4144 85.4814 99.6868 86.316C100.323 86.7332 100.892 87.0884 101.358 87.3593C101.808 87.6208 102.205 87.8299 102.478 87.9256C102.84 88.0525 103.236 87.8621 103.363 87.5002C103.49 87.1383 103.3 86.7421 102.938 86.6152C102.804 86.5683 102.51 86.4227 102.056 86.1587C101.618 85.9041 101.071 85.5632 100.448 85.1549C99.2043 84.3388 97.6768 83.2647 96.152 82.0984C94.6257 80.9309 93.1126 79.6793 91.8921 78.508C90.6483 77.3145 89.7855 76.2757 89.4642 75.5328C88.9661 74.3808 88.4633 73.593 87.9328 73.1291C87.6603 72.8909 87.3606 72.7207 87.0341 72.6487C86.7009 72.5752 86.3832 72.6137 86.0999 72.7267C85.738 72.871 85.4462 73.13 85.2166 73.4064C85.0583 73.2025 84.8593 73.0274 84.6168 72.8876C83.8541 72.448 82.8478 72.4776 81.8231 72.7401C80.4951 73.0802 78.5951 74.064 77.5463 75.9908C76.4728 77.9629 76.3863 80.7404 78.3597 84.4429C79.4939 86.5708 83.1349 91.701 86.8287 96.3967C88.682 98.7527 90.5646 101.02 92.1729 102.767C92.9764 103.64 93.7199 104.392 94.3628 104.963C94.9807 105.512 95.5817 105.965 96.0898 106.143C96.4517 106.27 96.8479 106.08 96.9748 105.718C97.1017 105.356 96.9112 104.96 96.5493 104.833C96.3255 104.754 95.9043 104.476 95.2851 103.925C94.691 103.397 93.9826 102.683 93.1946 101.827C91.6202 100.116 89.7621 97.8799 87.9201 95.5381C84.2231 90.8382 80.6545 85.7959 79.5852 83.7898C77.7593 80.3641 77.9802 78.0982 78.7659 76.6547C79.5763 75.166 81.0874 74.362 82.1676 74.0853C83.0695 73.8543 83.6325 73.9231 83.9233 74.0907C84.1414 74.2164 84.3607 74.4918 84.305 75.2165C84.2783 75.5641 84.5135 75.8776 84.8546 75.9492C85.1958 76.0209 85.5372 75.8284 85.6525 75.4995C85.7555 75.2057 85.91 74.8492 86.1018 74.5476C86.3058 74.2267 86.4902 74.066 86.6142 74.0165C86.6601 73.9983 86.6947 73.9958 86.7349 74.0047C86.7819 74.0151 86.8771 74.0507 87.0187 74.1745Z" fill="#8D8D8D"/>
<path fill-rule="evenodd" clip-rule="evenodd" d="M179.467 74.2838C182.285 82.8743 181.332 95.8177 172.731 108.69C162.842 123.49 142.258 137.954 131.75 138.324C126.479 138.509 117.816 132.45 114.243 128.603C107.008 120.82 100.453 112.167 96.7434 102.215C93.0336 92.2623 92.4006 80.8358 96.7833 71.1581C101.166 61.4803 111.105 54.0754 121.727 54.3605C131.155 54.6161 140.185 61.8818 141.951 70.9433C140.834 72.1195 139.862 73.2588 139.001 74.4937C138.914 74.6208 138.847 74.7503 138.806 74.8796C138.615 75.4766 138.905 76.0557 139.373 76.3729C139.952 76.7676 140.845 76.7892 141.362 76.0492L141.361 76.053C142.656 74.195 144.311 72.519 145.782 71.0862C149.776 67.5747 153.39 65.6597 159.584 64.4653C167.518 62.9352 176.95 66.6069 179.467 74.2838Z" fill="#F9CC2E"/>
<path d="M136.77 90.7204C137.037 90.5506 137.31 90.3985 137.595 90.2594C137.819 90.1499 137.409 90.3258 137.567 90.2756C137.637 90.2513 137.709 90.2222 137.778 90.1979C137.917 90.1493 138.063 90.1109 138.205 90.0774C138.261 90.065 138.324 90.0628 138.378 90.0428C138.129 90.1437 138.218 90.0656 138.341 90.0536C138.488 90.0427 138.633 90.0367 138.783 90.0408C139.017 90.0487 139.247 90.0738 139.479 90.094C139.576 90.1058 139.762 90.1438 139.366 90.079C139.411 90.086 139.451 90.0903 139.496 90.0972C139.605 90.1095 139.715 90.1293 139.823 90.154C140.053 90.199 140.269 90.2682 140.486 90.345C140.704 90.4217 140.253 90.2327 140.404 90.309C140.458 90.3412 140.522 90.3664 140.58 90.3938C140.703 90.454 140.825 90.5266 140.939 90.6013C141.054 90.676 141.166 90.7555 141.278 90.8351C141.418 90.9383 141.411 90.9082 141.278 90.8351C141.363 90.8862 141.447 90.9819 141.521 91.0523C142.031 91.5126 142.87 91.6243 143.418 91.0317C143.899 90.5107 144.063 89.5654 143.515 89.0686C142.873 88.4906 142.214 88.0261 141.415 87.7023C140.85 87.4709 140.261 87.3901 139.654 87.331C138.983 87.2665 138.359 87.2563 137.679 87.4028C136.935 87.5639 136.206 87.9247 135.553 88.3435C134.942 88.7343 134.608 89.605 134.975 90.243C135.341 90.8811 136.127 91.1446 136.779 90.7258L136.77 90.7204Z" fill="#161616"/>
<path d="M123.729 90.529C123.852 90.4231 123.987 90.3299 124.109 90.2168C124.028 90.2922 123.887 90.3755 124.061 90.2564C124.126 90.2084 124.193 90.1677 124.26 90.127C124.38 90.0494 124.508 89.9771 124.631 89.914C124.7 89.8805 124.768 89.847 124.841 89.8163C125.047 89.7159 124.625 89.8922 124.778 89.8406C124.914 89.7973 125.045 89.7514 125.186 89.718C125.263 89.7018 125.34 89.6855 125.414 89.6738C125.656 89.6257 125.122 89.6924 125.392 89.6795C125.601 89.6672 125.812 89.6504 126.02 89.6382C126.229 89.626 126.439 89.621 126.653 89.6305C126.761 89.633 126.869 89.6473 126.979 89.657C127.112 89.6683 126.613 89.5946 126.885 89.6508C126.938 89.6638 126.99 89.6697 127.043 89.6827C127.291 89.7373 127.531 89.8556 127.775 89.9076C127.572 89.8179 127.533 89.8011 127.668 89.8624L127.741 89.8934C127.818 89.9271 127.893 89.9654 127.968 90.0037C128.131 90.0883 128.289 90.182 128.446 90.2758C129.031 90.6358 129.915 90.431 130.253 89.802C130.59 89.173 130.431 88.373 129.806 87.9888C128.641 87.2713 127.378 86.904 126.004 86.9787C125.341 87.0176 124.675 87.0611 124.047 87.3069C123.254 87.6154 122.575 88.0598 121.929 88.623C121.407 89.0804 121.386 90.0278 121.879 90.5006C122.417 91.0121 123.179 91.013 123.743 90.5252L123.729 90.529Z" fill="#161616"/>
<path d="M162.106 97.8809C158.466 105.245 153.147 111.765 146.664 116.831C144.8 118.29 142.839 119.626 140.806 120.84C140.198 121.202 140.125 122.131 140.522 122.67C140.972 123.285 141.752 123.329 142.362 122.962C149.723 118.571 156.084 112.508 160.807 105.378C162.179 103.31 163.422 101.156 164.522 98.9334C165.27 97.4206 162.854 96.3681 162.108 97.8761L162.106 97.8809Z" fill="#F9FAFA"/>
<path d="M44.3124 172.626C35.0838 161.807 32.8243 150.102 34.472 141.963C35.9431 134.69 44.1529 130.327 51.5554 130.871C58.9579 131.414 62.6243 133.491 68.4321 138.113C67.1109 128.447 75.3503 118.989 85.003 117.587C94.6624 116.185 104.524 121.873 109.562 130.23C114.599 138.588 115.249 149.079 112.934 158.556C110.619 168.034 105.569 176.631 99.806 184.508C96.9593 188.401 89.708 194.859 84.8799 195.256C75.2541 196.047 54.9234 185.065 44.3124 172.626Z" fill="#EFC0FF"/>
<path d="M69.4252 139.485C68.0033 137.884 66.2554 136.499 64.7274 135.329C63.6301 134.486 62.7032 133.812 61.8149 133.205C61.4346 132.943 61.2374 132.545 61.2723 132.11C61.3123 131.633 61.6246 131.189 62.0646 130.981C62.4707 130.788 62.9252 130.827 63.3139 131.089C64.2489 131.728 65.2144 132.433 66.3551 133.308C68.3663 134.859 69.9958 136.216 71.4098 137.809C71.5032 137.916 71.5781 138.027 71.6297 138.14C71.868 138.664 71.6653 139.224 71.2729 139.563C70.7873 139.986 69.9747 140.101 69.4237 139.482L69.4252 139.485Z" fill="#131313"/>
<path d="M87.0852 184.136C92.7814 179.188 97.337 172.945 100.33 166.005C101.193 164.009 101.924 161.956 102.529 159.867C102.709 159.243 103.518 158.962 104.089 159.189C104.74 159.446 104.961 160.129 104.776 160.756C102.588 168.318 98.6809 175.381 93.4448 181.237C91.926 182.938 90.3012 184.543 88.5826 186.037C87.4127 187.055 85.9153 185.153 87.0814 184.139L87.0852 184.136Z" fill="#F9FAFA"/>
<path fill-rule="evenodd" clip-rule="evenodd" d="M46.8301 152.889C46.9433 152.955 47.1584 153.148 47.4622 153.487C47.7526 153.811 48.0823 154.221 48.4195 154.665C49.0932 155.552 49.7756 156.545 50.1971 157.187C50.2545 157.274 50.3347 157.345 50.429 157.39L62.0637 163.023C62.3518 163.163 62.6984 163.042 62.8379 162.754C62.9774 162.466 62.8569 162.12 62.5688 161.98L51.0776 156.417C50.6425 155.76 49.9907 154.817 49.3425 153.964C48.9959 153.508 48.6452 153.07 48.3258 152.714C48.0217 152.374 47.6985 152.053 47.4102 151.885C47.0057 151.65 46.5883 151.697 46.2514 151.883C45.9483 152.05 45.7068 152.326 45.5226 152.589C45.2917 152.918 45.0949 153.31 44.9424 153.673C44.4731 153.457 43.8997 153.215 43.3177 153.01C42.8893 152.859 42.4465 152.725 42.031 152.637C41.6242 152.55 41.2035 152.499 40.8348 152.543C40.4653 152.586 40.0857 152.737 39.8856 153.106C39.6989 153.451 39.7651 153.818 39.8474 154.063C39.8641 154.112 39.883 154.162 39.904 154.211C39.506 154.252 39.0167 154.412 38.7611 154.914C38.4667 155.492 38.7151 156.042 38.9568 156.38C38.8949 156.4 38.8335 156.421 38.7729 156.444C38.5426 156.531 38.2985 156.646 38.093 156.801C37.8922 156.953 37.6696 157.188 37.5998 157.524C37.51 157.957 37.7237 158.343 37.9148 158.605C38.1226 158.889 38.4171 159.176 38.7358 159.455C39.1583 159.824 39.687 160.23 40.2131 160.633C40.4729 160.833 40.7322 161.031 40.9777 161.225C42.1995 162.19 51.6757 170.364 56.277 174.344C56.5191 174.554 56.8851 174.527 57.0945 174.285C57.3039 174.043 57.2774 173.677 57.0354 173.468C52.4531 169.504 42.9447 161.301 41.6959 160.315C41.4188 160.097 41.143 159.885 40.8757 159.68C40.3697 159.292 39.8942 158.928 39.4985 158.582C39.1992 158.32 38.9816 158.1 38.8503 157.92C38.7937 157.843 38.7657 157.79 38.7519 157.759C38.7616 157.75 38.7745 157.739 38.7914 157.726C38.8744 157.664 39.0055 157.595 39.1813 157.529C39.531 157.397 39.9503 157.315 40.2258 157.283C40.4703 157.254 40.6699 157.074 40.7237 156.834C40.7774 156.594 40.6736 156.346 40.4647 156.216C40.2949 156.11 40.0608 155.921 39.9111 155.721C39.8374 155.622 39.8037 155.546 39.7923 155.498C39.7836 155.461 39.789 155.45 39.7941 155.44C39.7942 155.44 39.7943 155.44 39.7945 155.439C39.797 155.434 39.8037 155.42 39.8477 155.402C39.9034 155.379 39.9967 155.359 40.1322 155.359C40.4061 155.357 40.7213 155.433 40.9227 155.505C41.1756 155.597 41.4579 155.502 41.6049 155.277C41.7518 155.052 41.7246 154.755 41.5393 154.561C41.2907 154.299 41.0331 153.948 40.9474 153.697C40.9546 153.696 40.9622 153.695 40.9704 153.694C41.1543 153.672 41.4309 153.694 41.7902 153.771C42.1409 153.845 42.5331 153.963 42.9327 154.104C43.7323 154.385 44.5226 154.745 45.0009 154.989C45.1524 155.066 45.3301 155.072 45.487 155.007C45.6439 154.942 45.7641 154.811 45.8159 154.649C45.9489 154.232 46.1907 153.655 46.4722 153.253C46.616 153.048 46.7349 152.94 46.8105 152.898C46.8186 152.894 46.8251 152.891 46.8301 152.889ZM40.8489 153.721C40.849 153.722 40.8509 153.721 40.854 153.719C40.8503 153.72 40.8487 153.721 40.8489 153.721ZM40.9245 153.601C40.9246 153.6 40.9246 153.599 40.9246 153.599L40.9245 153.601Z" fill="#161616"/>
<path fill-rule="evenodd" clip-rule="evenodd" d="M45.6244 155.309C45.3233 155.201 44.9912 155.357 44.8825 155.658C44.6639 156.263 44.6368 157.068 44.7202 157.776C44.7628 158.138 44.8368 158.497 44.942 158.818C45.0445 159.13 45.1888 159.444 45.393 159.684C45.6004 159.927 45.9662 159.957 46.21 159.749C46.4537 159.542 46.4831 159.176 46.2756 158.932C46.2088 158.854 46.1229 158.699 46.0434 158.456C45.9665 158.222 45.9067 157.94 45.8714 157.64C45.7988 157.024 45.8393 156.421 45.9728 156.051C46.0814 155.75 45.9255 155.418 45.6244 155.309Z" fill="#161616"/>
<path d="M99.4799 140.137C98.2601 141.592 97.0416 143.043 95.8218 144.497C95.4412 144.949 94.6976 145.07 94.2384 144.663C93.7792 144.256 93.6669 143.562 94.0725 143.079C95.2924 141.625 96.5108 140.174 97.7306 138.72C98.1112 138.268 98.8548 138.147 99.314 138.554C99.7732 138.961 99.8855 139.655 99.4799 140.137Z" fill="#161616"/>
<path d="M100.412 145.822C98.5404 145.504 96.6727 145.185 94.8014 144.867C94.2194 144.766 93.7392 144.186 93.8584 143.584C93.9776 142.982 94.5198 142.535 95.1412 142.641C97.0125 142.959 98.8802 143.278 100.751 143.596C101.333 143.696 101.814 144.277 101.694 144.879C101.575 145.481 101.033 145.928 100.412 145.822Z" fill="#161616"/>
<path d="M90.8196 145.811C89.6084 147.272 88.3987 148.731 87.1875 150.192C86.8095 150.646 86.0667 150.772 85.6051 150.367C85.1435 149.963 85.027 149.27 85.4298 148.785C86.641 147.324 87.8508 145.865 89.0619 144.404C89.4399 143.95 90.1827 143.824 90.6443 144.229C91.1059 144.633 91.2224 145.326 90.8196 145.811Z" fill="#161616"/>
<path d="M84.4399 142.969C86.3111 143.287 88.1789 143.606 90.0501 143.924C90.6321 144.024 91.1123 144.605 90.9931 145.207C90.8739 145.808 90.3318 146.256 89.7104 146.149C87.8391 145.831 85.9713 145.513 84.1001 145.195C83.5181 145.094 83.0379 144.514 83.1571 143.912C83.2763 143.31 83.8184 142.863 84.4399 142.969Z" fill="#161616"/>
<path fill-rule="evenodd" clip-rule="evenodd" d="M239.396 140.969C241.079 149.101 238.869 160.816 229.687 171.673C219.129 184.158 198.846 195.227 189.217 194.477C184.387 194.1 177.108 187.674 174.245 183.793C168.448 175.94 163.361 167.365 161.006 157.898C158.65 148.43 159.255 137.936 164.257 129.557C169.259 121.178 179.096 115.449 188.762 116.809C197.339 118.018 204.829 125.584 205.502 134.037C204.361 134.995 203.356 135.934 202.443 136.972C202.35 137.079 202.276 137.191 202.224 137.304C201.988 137.829 202.193 138.388 202.587 138.726C203.075 139.146 203.888 139.258 204.436 138.636L204.435 138.64C205.81 137.077 207.495 135.718 208.987 134.562C212.995 131.772 216.491 130.399 222.266 129.95C229.666 129.375 237.894 133.702 239.396 140.969Z" fill="#8D8D8D"/>
<path d="M221.107 160.709C217.023 167.053 211.494 172.453 205.052 176.406C203.2 177.544 201.272 178.561 199.291 179.458C198.699 179.726 198.536 180.566 198.842 181.099C199.189 181.707 199.897 181.828 200.491 181.556C207.664 178.311 214.097 173.436 219.145 167.417C220.612 165.671 221.969 163.834 223.203 161.92C224.043 160.617 221.947 159.406 221.109 160.705L221.107 160.709Z" fill="#F9FAFA"/>
<path d="M182.751 128.763C182.456 130.638 182.163 132.51 181.868 134.385C181.778 134.969 182.175 135.609 182.783 135.688C183.392 135.766 183.989 135.395 184.086 134.772C184.381 132.897 184.674 131.025 184.969 129.15C185.059 128.566 184.662 127.926 184.053 127.847C183.445 127.769 182.848 128.14 182.751 128.763Z" fill="#161616"/>
<path d="M176.524 128.056C176.229 129.931 175.936 131.803 175.641 133.678C175.551 134.262 175.948 134.902 176.557 134.981C177.165 135.06 177.762 134.689 177.859 134.066C178.154 132.191 178.447 130.319 178.742 128.444C178.832 127.86 178.435 127.22 177.827 127.141C177.218 127.062 176.621 127.433 176.524 128.056Z" fill="#161616"/>
<path fill-rule="evenodd" clip-rule="evenodd" d="M176.92 143.798C176.21 144.849 175.793 146.053 175.735 146.777C175.722 146.939 175.642 147.087 175.514 147.187C175.509 147.193 175.495 147.211 175.473 147.246C175.433 147.31 175.383 147.408 175.328 147.542C175.218 147.809 175.102 148.186 175.005 148.658C174.81 149.601 174.694 150.884 174.82 152.355C174.956 153.946 175.233 157.174 175.955 160.375C176.317 161.975 176.786 163.551 177.396 164.904C178.009 166.263 178.744 167.351 179.613 168.024C179.866 168.221 179.912 168.585 179.716 168.838C179.52 169.091 179.156 169.137 178.903 168.94C177.822 168.102 176.99 166.822 176.339 165.38C175.686 163.932 175.196 162.274 174.825 160.63C174.083 157.346 173.801 154.049 173.665 152.457L173.665 152.454C173.53 150.87 173.652 149.474 173.87 148.423C173.978 147.899 174.112 147.45 174.256 147.101C174.328 146.927 174.405 146.768 174.489 146.634C174.521 146.582 174.559 146.526 174.602 146.471C174.731 145.52 175.222 144.241 175.959 143.149C176.746 141.984 177.921 140.876 179.406 140.749C180.236 140.678 180.963 140.845 181.305 141.493C181.457 141.781 181.489 142.096 181.476 142.381C181.462 142.669 181.4 142.968 181.322 143.256C181.218 143.636 181.066 144.06 180.923 144.458C180.856 144.644 180.792 144.824 180.735 144.991C180.728 145.012 180.721 145.033 180.714 145.054C180.961 144.941 181.23 144.845 181.517 144.778C182.455 144.562 183.571 144.669 184.674 145.479C185.127 145.811 185.387 146.353 185.555 146.923C185.728 147.507 185.833 148.217 185.909 148.996C185.984 149.777 186.033 150.658 186.084 151.587L186.085 151.604C186.136 152.533 186.19 153.515 186.276 154.523C186.627 158.62 187.499 162.926 190.598 165.413C190.848 165.613 190.888 165.978 190.687 166.228C190.487 166.477 190.122 166.517 189.873 166.317C186.356 163.495 185.472 158.717 185.122 154.621C185.034 153.596 184.979 152.599 184.928 151.675L184.927 151.651C184.875 150.716 184.828 149.86 184.755 149.107C184.682 148.351 184.585 147.728 184.444 147.252C184.299 146.763 184.133 146.519 183.988 146.413C183.179 145.819 182.414 145.761 181.777 145.908C181.116 146.06 180.578 146.44 180.3 146.729C180.143 146.892 179.904 146.948 179.689 146.872C179.475 146.796 179.325 146.602 179.306 146.376C179.258 145.822 179.449 145.176 179.637 144.619C179.709 144.407 179.783 144.203 179.854 144.005C179.987 143.635 180.111 143.288 180.203 142.951C180.271 142.702 180.31 142.494 180.318 142.327C180.326 142.158 180.3 142.072 180.28 142.034C180.28 142.034 180.28 142.034 180.28 142.033C180.274 142.022 180.19 141.846 179.505 141.904C178.544 141.986 177.637 142.736 176.92 143.798Z" fill="#161616"/>
</svg>
