<svg width="22" height="23" viewBox="0 0 22 23" fill="none" xmlns="http://www.w3.org/2000/svg">
<circle cx="11" cy="11.9397" r="10" fill="#F9FAFA"/>
<path fill-rule="evenodd" clip-rule="evenodd" d="M13.5013 6.9397C13.7219 6.94036 13.9447 6.96872 14.1606 7.0119C14.5025 7.08027 14.9973 7.22986 15.3536 7.58613C15.7098 7.94239 15.8594 8.43725 15.9278 8.77909C15.971 8.99503 15.9993 9.21778 16 9.43846L16 9.43909V9.43962C16 9.57223 15.9473 9.6994 15.8536 9.79317L14.7031 10.9585L14.7022 10.9576L9.35338 16.2929L6.64646 13.586L11.9959 8.25021L11.9966 8.25091L13.1466 7.08614C13.24 6.99265 13.3691 6.93956 13.5013 6.9397ZM14.988 9.24134L13.9963 10.2504L12.7034 8.95762L13.697 7.95027C13.9761 7.99825 14.4377 8.08203 14.6565 8.29921C14.8665 8.50753 14.9305 8.89408 14.9816 9.20243L14.988 9.24134ZM9.09794 16.43C9.19473 16.4106 9.28363 16.3631 9.35343 16.2933L6.64643 13.5862C6.57663 13.656 6.52906 13.7449 6.5097 13.8417L6.00972 16.3416C5.97693 16.5056 6.02824 16.675 6.14645 16.7932C6.26466 16.9115 6.43412 16.9628 6.59804 16.93L9.09794 16.43Z" fill="#F9CC2E"/>
</svg>
