<svg width="72" height="23" viewBox="0 0 72 23" fill="none" xmlns="http://www.w3.org/2000/svg">
<path fill-rule="evenodd" clip-rule="evenodd" d="M66.7896 11.701C66.7883 12.8809 66.0756 13.5937 64.897 13.5937C63.7181 13.5937 63.0055 12.8809 63.0042 11.701C63.0055 10.5212 63.7181 9.80838 64.897 9.80838C66.0756 9.80838 66.7883 10.5212 66.7896 11.701ZM71.7497 7.60475C71.7461 10.2487 71.7445 12.8932 71.7445 15.5374C71.7445 20.0757 69.09 22.2377 64.616 22.2377C63.1838 22.2377 61.7308 22.0596 60.3775 21.5781C60.3775 21.5766 60.3775 21.575 60.3775 21.5735C59.509 21.1639 59.181 20.3571 59.5051 19.3764C59.8652 18.2946 60.7357 17.8577 61.8167 18.2162C62.5668 18.465 63.3264 18.6414 64.1237 18.6414C65.9956 18.6414 66.8077 17.8654 66.898 16.4736C66.0752 16.9469 65.0626 17.1986 63.8893 17.1986C60.5 17.1986 58.4509 15.0985 58.4473 11.6223C58.4509 8.14619 60.5 6.04608 63.8893 6.04608C65.2468 6.04608 66.3893 6.38303 67.2715 7.0104C67.5268 6.23064 68.3109 5.77734 69.4655 5.77734C70.8881 5.77734 71.7482 6.46557 71.7497 7.60475Z" fill="#F9FAFA"/>
<path d="M10.1905 2.30068C10.1445 2.30068 2.77186 2.2832 2.77186 2.2832C1.04401 2.2832 0 3.329 0 5.06141C0 5.06141 0.00317325 13.8771 0.00317325 15.3488C0.00317325 16.4804 0.944053 17.1638 2.50055 17.1638C4.05705 17.1638 5.04235 16.5139 5.04235 15.4124C5.04235 14.9038 5.01063 13.6281 5.0011 12.8525C4.99792 12.6236 5.17087 12.3979 5.43425 12.3979C6.3672 12.3979 9.25599 12.3947 9.25599 12.3947C10.4285 12.3947 11.1409 11.6811 11.1409 10.5066C11.1409 9.33202 10.4285 8.6184 9.25599 8.6184H6.62582C5.83567 8.6184 5.51201 8.13682 5.51201 7.34372C5.51201 6.55064 5.83408 6.06906 6.62582 6.06906C6.62582 6.06906 10.0937 6.06111 10.2191 6.05952C11.3472 6.04522 12.0278 5.32841 12.0278 4.18089C12.0278 3.03337 11.3361 2.31022 10.1921 2.30068H10.1905Z" fill="#F9FAFA"/>
<path d="M52.6964 5.9719C51.7841 5.90833 50.9701 6.09428 50.2562 6.44077C49.7024 6.70936 49.4598 7.09082 49.4137 7.11306C49.3661 7.13691 49.3264 7.1226 49.3026 7.07651C48.9487 6.28341 48.1904 5.83203 47.1368 5.83203C45.6454 5.83203 44.7441 6.73479 44.7441 8.2288V15.4795C44.7441 16.5602 45.6438 17.2166 47.1368 17.2166C48.6299 17.2166 49.5295 16.5602 49.5295 15.4795L49.5358 12.0894C49.5358 11.0928 50.1372 10.1535 51.1319 10.1535C52.1268 10.1535 52.7377 10.7559 52.7377 11.7524C52.7377 11.7524 52.7409 15.4556 52.7409 15.4652C52.7409 16.546 53.6421 17.215 55.1336 17.215C56.6249 17.215 57.5245 16.5444 57.5245 15.4652V11.2851C57.5245 8.53237 55.4382 6.16581 52.6964 5.9735V5.9719Z" fill="#F9FAFA"/>
<path d="M27.5489 0.269531C26.0575 0.269531 25.1562 1.17229 25.1562 2.66629V15.4797C25.1562 16.5606 26.0575 17.2169 27.5489 17.2169C29.0404 17.2169 29.9416 16.5606 29.9416 15.4797V2.66629C29.9416 1.17229 29.0404 0.269531 27.5489 0.269531Z" fill="#F9FAFA"/>
<path d="M17.3966 4.95312C16.2368 4.95312 14.9484 5.11207 13.8473 5.51894C12.9699 5.84318 12.5827 6.66646 12.8699 7.6185C13.1825 8.65158 13.9948 9.08865 15.0278 8.77714C15.5958 8.58164 16.0924 8.51807 16.6779 8.51807C17.6727 8.51807 18.3011 8.76919 18.6231 9.25554C18.6231 9.25554 18.8833 9.6799 18.8833 9.76732C18.8833 9.85473 18.8294 9.90558 18.7452 9.90558C18.6692 9.90558 15.6196 9.84201 15.38 9.84201C13.1159 9.84201 11.7402 11.2184 11.7402 13.488C11.7402 15.7576 13.1095 17.1356 15.3784 17.1356C17.1999 17.1356 18.4121 16.5063 19.2181 15.6178C19.2292 16.6095 20.0622 17.2119 21.441 17.2119C22.8198 17.2119 23.6559 16.6127 23.6655 15.6162V10.5334C23.6655 6.67283 21.3743 4.95631 17.395 4.95631L17.3966 4.95312ZM17.2824 14.0014C16.6318 14.0014 16.2368 13.6056 16.2336 12.9572C16.232 12.3739 16.7096 11.9018 17.2934 11.9018H18.6024C18.7564 11.9018 18.8753 11.9861 18.8753 12.1291C18.8753 12.7648 18.6373 14.003 17.2824 14.003V14.0014Z" fill="#F9FAFA"/>
<path d="M33.8517 0.269531C32.3602 0.269531 31.459 1.17229 31.459 2.66629V15.4797C31.459 16.5606 32.3602 17.2169 33.8517 17.2169C35.3432 17.2169 36.2444 16.5606 36.2444 15.4797V2.66629C36.2444 1.17229 35.3432 0.269531 33.8517 0.269531Z" fill="#F9FAFA"/>
<path d="M40.4689 6.01758C38.9774 6.01758 38.0762 6.92034 38.0762 8.41433V15.4786C38.0762 16.5593 38.9774 17.2158 40.4689 17.2158C41.9602 17.2158 42.8614 16.5593 42.8614 15.4786V8.41433C42.8614 6.92034 41.9602 6.01758 40.4689 6.01758Z" fill="#F9FAFA"/>
<path fill-rule="evenodd" clip-rule="evenodd" d="M42.9966 2.55299C42.9949 4.14449 42.0336 5.10598 40.4437 5.10598C38.8536 5.10598 37.8923 4.14449 37.8906 2.55299C37.8923 0.961494 38.8536 0 40.4437 0C42.0336 0 42.9949 0.961494 42.9966 2.55299Z" fill="#F9FAFA"/>
</svg>
