<svg width="24" height="24" viewBox="0 0 24 24" fill="none" xmlns="http://www.w3.org/2000/svg">
<rect width="24" height="24" fill="#FEE500"/>
<path d="M12.0007 3.50586C6.69749 3.50586 2.39844 6.89555 2.39844 11.0769C2.39844 13.7802 4.19572 16.1522 6.89932 17.4917C6.75224 17.9989 5.95414 20.755 5.92238 20.9715C5.92238 20.9715 5.90327 21.1342 6.00862 21.1962C6.11396 21.2582 6.23787 21.2101 6.23787 21.2101C6.53997 21.1679 9.74113 18.9193 10.2952 18.5288C10.8487 18.6072 11.4187 18.6479 12.0007 18.6479C17.3039 18.6479 21.603 15.2583 21.603 11.0769C21.603 6.89555 17.3039 3.50586 12.0007 3.50586Z" fill="black"/>
</svg>
