<svg width="48" height="48" viewBox="0 0 48 48" fill="none" xmlns="http://www.w3.org/2000/svg">
<path fill-rule="evenodd" clip-rule="evenodd" d="M14.7149 6.43243C14.3096 6.32156 13.8702 6.41199 13.5426 6.63187C13.2134 6.85286 12.9814 7.21744 13.0311 7.65662C13.3091 10.1094 14.6108 13.4848 17.8953 14.2728C20.3738 14.8676 22.2584 15.3561 23.5043 15.6939C24.3215 15.9154 25.1279 15.2089 24.921 14.3643C24.0675 10.8803 22.6384 9.12932 20.9597 8.16357C19.6538 7.41228 18.2009 7.14284 16.8023 6.88349L16.8023 6.88348C16.4215 6.81285 16.0446 6.74297 15.6759 6.66431C15.3082 6.58586 14.9895 6.50753 14.7149 6.43243Z" fill="#F9FAFA"/>
<path fill-rule="evenodd" clip-rule="evenodd" d="M33.2859 6.43243C33.6913 6.32156 34.1307 6.41199 34.4582 6.63187C34.7874 6.85286 35.0195 7.21744 34.9697 7.65662C34.6918 10.1094 33.3901 13.4848 30.1056 14.2728C27.6271 14.8676 25.7424 15.3561 24.4966 15.6939C23.6794 15.9154 22.8729 15.2089 23.0798 14.3643C23.9334 10.8803 25.3625 9.12932 27.0411 8.16357C28.347 7.41228 29.8 7.14284 31.1985 6.88349L31.1985 6.88348C31.5794 6.81285 31.9563 6.74297 32.325 6.66431C32.6927 6.58586 33.0114 6.50753 33.2859 6.43243Z" fill="#F9FAFA"/>
<path d="M23.9995 12.0865C25.5216 11.3878 27.2152 10.9983 28.9997 10.9983C35.6271 10.9983 40.9997 16.3709 40.9997 22.9983C40.9997 25.7733 40.0577 28.3283 38.4762 30.361C37.2455 32.3972 35.3459 34.4102 32.4989 36.498C24.9989 41.9981 22.9989 41.9981 15.4989 36.498C12.1163 34.0174 10.0354 31.847 8.84707 29.3991C7.67665 27.5466 6.99927 25.3516 6.99927 22.9983C6.99927 16.3709 12.3719 10.9983 18.9993 10.9983C20.7838 10.9983 22.4773 11.3878 23.9995 12.0865Z" fill="#FF4D00"/>
<g filter="url(#filter0_b_4753_92363)">
<path fill-rule="evenodd" clip-rule="evenodd" d="M26.4826 11.2649C28.9849 13.0402 30.8403 15.6673 31.627 18.7233C31.7647 19.2581 31.4427 19.8033 30.9078 19.941C30.373 20.0787 29.8278 19.7567 29.6901 19.2218C28.8905 16.1153 26.7878 13.532 24.0001 12.0885C24.7857 11.7279 25.6169 11.4497 26.4826 11.2649Z" fill="#F9FAFA"/>
</g>
<defs>
<filter id="filter0_b_4753_92363" x="17.0001" y="4.26489" width="21.6587" height="22.708" filterUnits="userSpaceOnUse" color-interpolation-filters="sRGB">
<feFlood flood-opacity="0" result="BackgroundImageFix"/>
<feGaussianBlur in="BackgroundImageFix" stdDeviation="3.5"/>
<feComposite in2="SourceAlpha" operator="in" result="effect1_backgroundBlur_4753_92363"/>
<feBlend mode="normal" in="SourceGraphic" in2="effect1_backgroundBlur_4753_92363" result="shape"/>
</filter>
</defs>
</svg>
