<svg width="38" height="38" viewBox="0 0 38 38" fill="none" xmlns="http://www.w3.org/2000/svg">
<path fill-rule="evenodd" clip-rule="evenodd" d="M22.7243 24.8518C25.0152 22.3673 24.9549 18.495 22.5434 16.0835C20.1319 13.6719 16.2594 13.6117 13.7749 15.9029C11.821 15.2054 9.5538 15.6389 7.98933 17.2034C5.82517 19.3676 5.82517 22.8763 7.98933 25.0405C9.08572 26.1369 10.5272 26.6778 11.9642 26.6633C11.9496 28.1003 12.4906 29.5418 13.587 30.6382C15.7511 32.8023 19.2599 32.8023 21.4241 30.6382C22.9888 29.0735 23.4222 26.8059 22.7243 24.8518Z" fill="#F9FAFA"/>
<path d="M16.7427 11.3066C15.7239 13.0712 13.7536 13.841 12.3419 13.026C10.9302 12.2109 10.6117 10.1197 11.6305 8.3551C12.6493 6.59049 14.6196 5.8207 16.0313 6.63574C17.443 7.45078 17.7615 9.54201 16.7427 11.3066Z" fill="#F9FAFA"/>
<path d="M25.0969 12.4104C23.7057 13.8016 21.5753 13.9269 20.3387 12.6903C19.102 11.4536 19.2273 9.32329 20.6186 7.93205C22.0098 6.5408 24.1401 6.41549 25.3768 7.65215C26.6135 8.88881 26.4882 11.0191 25.0969 12.4104Z" fill="#F9FAFA"/>
<path d="M30.9895 17.717C29.5982 19.1083 27.4679 19.2336 26.2313 17.9969C24.9946 16.7603 25.1199 14.6299 26.5111 13.2387C27.9024 11.8474 30.0327 11.7221 31.2694 12.9588C32.506 14.1954 32.3807 16.3258 30.9895 17.717Z" fill="#F9FAFA"/>
<path d="M29.75 27.5191C27.9854 28.5379 25.8941 28.2194 25.0791 26.8077C24.2641 25.396 25.0338 23.4257 26.7985 22.4069C28.5631 21.3881 30.6543 21.7066 31.4693 23.1183C32.2844 24.53 31.5146 26.5003 29.75 27.5191Z" fill="#F9FAFA"/>
</svg>
