<svg width="38" height="38" viewBox="0 0 38 38" fill="none" xmlns="http://www.w3.org/2000/svg">
<path d="M8.70801 20.1875C8.70801 19.5317 9.23967 19 9.89551 19C10.5513 19 11.083 19.5317 11.083 20.1875V23.3542C11.083 24.01 10.5513 24.5417 9.89551 24.5417C9.23967 24.5417 8.70801 24.01 8.70801 23.3542V20.1875Z" fill="#F9CC2E"/>
<path d="M26.917 20.1875C26.917 19.5317 27.4487 19 28.1045 19C28.7603 19 29.292 19.5317 29.292 20.1875V23.3542C29.292 24.01 28.7603 24.5417 28.1045 24.5417C27.4487 24.5417 26.917 24.01 26.917 23.3542V20.1875Z" fill="#F9CC2E"/>
<path fill-rule="evenodd" clip-rule="evenodd" d="M6.32102 16.2908C5.70269 16.5224 5.29297 17.1133 5.29297 17.7736V20.6202C5.29297 21.4946 6.00185 22.2035 6.8763 22.2035H18.9993H18.9994H31.1224C31.9968 22.2035 32.7057 21.4946 32.7057 20.6202V17.7736C32.7057 17.1133 32.296 16.5224 31.6777 16.2908L18.9994 11.543C18.9994 11.543 18.9993 11.543 18.9993 11.543C18.9993 11.543 18.9993 11.543 18.9993 11.543L6.32102 16.2908Z" fill="#F9FAFA"/>
<path fill-rule="evenodd" clip-rule="evenodd" d="M19.0003 3.95898C16.8142 3.95898 15.042 5.73119 15.042 7.91732V27.6092C15.042 27.8676 14.916 28.1097 14.7043 28.2578L12.0621 30.1074C11.6388 30.4037 11.3867 30.8878 11.3867 31.4045V33.2595C11.3867 34.4576 12.6658 35.2216 13.7207 34.6536L18.2505 32.2145C18.7191 31.9622 19.2831 31.9622 19.7518 32.2145L24.2815 34.6536C25.3364 35.2216 26.6155 34.4576 26.6155 33.2595V31.4045C26.6155 30.8878 26.3634 30.4037 25.9402 30.1074L23.2963 28.2567C23.0847 28.1086 22.9587 27.8665 22.9587 27.6081V7.91732C22.9587 5.73119 21.1865 3.95898 19.0003 3.95898Z" fill="#8ED6FF"/>
<path fill-rule="evenodd" clip-rule="evenodd" d="M18.2083 4.75C17.3339 4.75 16.625 5.45888 16.625 6.33333C16.625 6.77056 16.9794 7.125 17.4167 7.125H18.2083V4.75ZM19.7917 4.75L19.7917 7.125H20.5833C21.0206 7.125 21.375 6.77056 21.375 6.33333C21.375 5.45888 20.6661 4.75 19.7917 4.75Z" fill="#F9FAFA"/>
</svg>
