<svg width="38" height="38" viewBox="0 0 38 38" fill="none" xmlns="http://www.w3.org/2000/svg">
<g filter="url(#filter0_b_4753_92226)">
<path fill-rule="evenodd" clip-rule="evenodd" d="M23.056 17.6426C22.0357 17.0567 20.8724 16.7016 19.6399 16.6441C19.1574 16.6216 18.6861 16.619 18.213 16.6363C17.0349 16.6793 15.925 17.0095 14.9475 17.5608C14.3707 17.39 13.7291 17.4368 13.1562 17.742L7.8612 20.5633C6.70359 21.1801 6.26518 22.6185 6.88197 23.7762L6.9814 23.9628C7.59819 25.1204 9.03663 25.5588 10.1942 24.942L10.9211 24.5547C10.7984 25.4705 10.7277 26.3823 10.7266 27.2507C10.7233 29.7548 12.5449 31.7877 14.9398 32.5192C17.7504 33.3776 20.3731 33.3777 23.1348 32.5196C25.4815 31.7903 27.2562 29.7844 27.2646 27.3271C27.2678 26.3916 27.1892 25.4043 27.0509 24.4145L28.0409 24.942C29.1985 25.5588 30.637 25.1204 31.2538 23.9628L31.3532 23.7762C31.97 22.6185 31.5316 21.1801 30.374 20.5633L25.0789 17.742C24.4281 17.3952 23.6885 17.382 23.056 17.6426Z" fill="#F9FAFA"/>
</g>
<path d="M19.1434 19.9359C21.397 19.9902 23.2968 21.6639 23.7099 23.88C23.8543 24.6544 23.9463 25.4471 23.956 26.1911C23.9767 27.7707 22.8397 29.0735 21.3234 29.5165C19.7752 29.9688 18.2948 29.9688 16.7209 29.5165C15.1737 29.0719 14.0069 27.7519 14.0356 26.1424C14.0491 25.3856 14.1466 24.5803 14.2968 23.7963C14.712 21.6294 16.5529 19.9636 18.7589 19.9338C18.8866 19.9321 19.0146 19.9328 19.1434 19.9359Z" fill="#F9CC2E"/>
<path d="M24.2007 29.1203C24.6735 27.3558 26.4872 26.3087 28.2517 26.7815C30.0162 27.2543 31.0634 29.068 30.5906 30.8325L30.1625 32.4299C29.6897 34.1944 27.876 35.2416 26.1115 34.7688C24.347 34.296 23.2999 32.4823 23.7727 30.7178L24.2007 29.1203Z" fill="#F9CC2E"/>
<path d="M26.2631 29.7984C26.4995 28.9162 27.4064 28.3926 28.2886 28.629C29.1709 28.8654 29.6944 29.7723 29.458 30.6545L29.03 32.252C28.7936 33.1342 27.8868 33.6578 27.0045 33.4214C26.1223 33.185 25.5987 32.2782 25.8351 31.3959L26.2631 29.7984Z" fill="#F9FAFA"/>
<path d="M8.29419 30.6196C7.82139 28.8551 8.86853 27.0414 10.633 26.5686C12.3975 26.0958 14.2112 27.1429 14.684 28.9074L15.1121 30.5049C15.5849 32.2694 14.5377 34.0831 12.7732 34.5559C11.0087 35.0287 9.19502 33.9816 8.72223 32.2171L8.29419 30.6196Z" fill="#F9CC2E"/>
<path d="M9.5011 30.6252C9.2647 29.743 9.78827 28.8361 10.6705 28.5997C11.5528 28.3633 12.4596 28.8869 12.696 29.7692L13.1241 31.3666C13.3604 32.2489 12.8369 33.1557 11.9546 33.3921C11.0724 33.6285 10.1655 33.1049 9.92914 32.2227L9.5011 30.6252Z" fill="#F9FAFA"/>
<path d="M16.8621 7.6C16.8621 9.17401 15.5861 10.45 14.0121 10.45C12.4381 10.45 11.1621 9.17401 11.1621 7.6C11.1621 6.02599 12.4381 4.75 14.0121 4.75C15.5861 4.75 16.8621 6.02599 16.8621 7.6Z" fill="#F9FAFA"/>
<path d="M26.8367 7.6C26.8367 9.17401 25.5607 10.45 23.9867 10.45C22.4127 10.45 21.1367 9.17401 21.1367 7.6C21.1367 6.02599 22.4127 4.75 23.9867 4.75C25.5607 4.75 26.8367 6.02599 26.8367 7.6Z" fill="#F9FAFA"/>
<path d="M26.8371 11.875C26.8371 17.0568 23.3281 19 18.9996 19C14.6711 19 11.1621 17.3807 11.1621 11.875C11.1621 7.93997 14.6711 4.75 18.9996 4.75C23.3281 4.75 26.8371 7.93997 26.8371 11.875Z" fill="#F9CC2E"/>
<path d="M18.9889 15.4372C17.6431 15.4255 16.3507 14.4903 16.181 13.1553C16.0545 12.1604 16.8661 11.4563 17.8516 11.27C18.6099 11.1267 19.3445 11.1267 20.1137 11.27C21.1194 11.4573 21.9506 12.1759 21.8137 13.1897C21.6359 14.5054 20.3715 15.4397 19.0438 15.4375C19.0255 15.4375 19.0072 15.4374 18.9889 15.4372Z" fill="#F9FAFA"/>
<path d="M19.7121 12.5875C19.7121 12.981 19.3931 13.3 18.9996 13.3C18.6061 13.3 18.2871 12.981 18.2871 12.5875C18.2871 12.194 18.6061 11.875 18.9996 11.875C19.3931 11.875 19.7121 12.194 19.7121 12.5875Z" fill="#3D3D3D"/>
<path d="M15.4375 10.3063C15.4375 9.99153 15.6927 9.73633 16.0075 9.73633C16.3223 9.73633 16.5775 9.99153 16.5775 10.3063V10.9476C16.5775 11.2624 16.3223 11.5176 16.0075 11.5176C15.6927 11.5176 15.4375 11.2624 15.4375 10.9476V10.3063Z" fill="#3D3D3D"/>
<path d="M21.4229 10.3063C21.4229 9.99153 21.678 9.73633 21.9929 9.73633C22.3077 9.73633 22.5629 9.99153 22.5629 10.3063V10.9476C22.5629 11.2624 22.3077 11.5176 21.9929 11.5176C21.678 11.5176 21.4229 11.2624 21.4229 10.9476V10.3063Z" fill="#3D3D3D"/>
<defs>
<filter id="filter0_b_4753_92226" x="5.01921" y="15.0417" width="28.1967" height="19.7048" filterUnits="userSpaceOnUse" color-interpolation-filters="sRGB">
<feFlood flood-opacity="0" result="BackgroundImageFix"/>
<feGaussianBlur in="BackgroundImageFix" stdDeviation="0.791667"/>
<feComposite in2="SourceAlpha" operator="in" result="effect1_backgroundBlur_4753_92226"/>
<feBlend mode="normal" in="SourceGraphic" in2="effect1_backgroundBlur_4753_92226" result="shape"/>
</filter>
</defs>
</svg>
