<svg width="24" height="25" viewBox="0 0 24 25" fill="none" xmlns="http://www.w3.org/2000/svg">
<path fill-rule="evenodd" clip-rule="evenodd" d="M4.13112 5.98332C5.06399 5.62707 10.6676 3.48862 11.6016 3.13237C11.8693 3.02977 12.1976 3.02977 12.4654 3.13237L19.8689 5.98332C20.2588 6.13342 20.5 6.46498 20.5 6.84403C20.5 11.1114 20.3364 12.8822 19.5034 15.0112C18.409 17.8089 16.2319 20.0386 12.5312 21.93C12.2051 22.0972 11.7949 22.0972 11.4688 21.93C7.801 20.0557 5.63349 17.8184 4.52956 15.0112C3.68593 12.867 3.5 11.005 3.5 6.84403C3.5 6.46308 3.73906 6.13247 4.13112 5.98332ZM15.4571 10.3483C15.0666 9.95779 14.4334 9.95779 14.0429 10.3483L11.75 12.6412L10.4571 11.3483C10.0666 10.9578 9.43342 10.9578 9.04289 11.3483C8.65237 11.7388 8.65237 12.372 9.04289 12.7625L11.0429 14.7625C11.4334 15.1531 12.0666 15.1531 12.4571 14.7625L15.4571 11.7625C15.8476 11.372 15.8476 10.7388 15.4571 10.3483Z" fill="#2EF95A"/>
</svg>
