<svg width="48" height="48" viewBox="0 0 48 48" fill="none" xmlns="http://www.w3.org/2000/svg">
<g filter="url(#filter0_b_4753_92347)">
<path fill-rule="evenodd" clip-rule="evenodd" d="M10.2312 12.4399C10.9109 8.65225 14.5324 6.13278 18.3201 6.81252C18.3473 6.8174 18.3744 6.82243 18.4015 6.82762L19.3597 6.99958C20.5801 6.23079 22.435 5.91734 24.4073 6.2713C26.3796 6.62525 28.0098 7.56413 28.8866 8.70929L29.3975 8.80098L29.3975 8.80132C29.398 8.8014 29.3984 8.80149 29.3989 8.80157C32.3125 9.32445 34.2505 12.1103 33.7277 15.0238C33.2048 17.9374 30.419 19.8755 27.5054 19.3526C26.7351 19.2144 26.033 18.918 25.4266 18.5029C24.835 19.019 24.023 19.2717 23.1902 19.1222C22.7466 19.0426 22.3482 18.8581 22.016 18.5988C20.4578 20.1538 18.1896 20.9472 15.8586 20.5289C12.0709 19.8491 9.55141 16.2276 10.2312 12.4399Z" fill="white"/>
</g>
<path fill-rule="evenodd" clip-rule="evenodd" d="M11.887 13.4646C10.7824 13.4646 9.88696 14.36 9.88696 15.4646V36.9993C9.88696 39.2084 11.6778 40.9993 13.887 40.9993H29.887C32.0961 40.9993 33.887 39.2084 33.887 36.9993V34.4638H36.8874C39.0965 34.4638 40.8874 32.6729 40.8874 30.4638V21.4638C40.8874 19.2546 39.0965 17.4638 36.8874 17.4638H33.887V15.4646C33.887 14.36 32.9915 13.4646 31.887 13.4646H11.887ZM33.887 30.4638V21.4638L36.8874 21.4638V30.4638L33.887 30.4638Z" fill="#F9FAFA"/>
<g filter="url(#filter1_b_4753_92347)">
<path d="M13.0009 12.9976H31.0009V34.9976C31.0009 36.6544 29.6577 37.9976 28.0009 37.9976H16.0009C14.344 37.9976 13.0009 36.6544 13.0009 34.9976V12.9976Z" fill="#FFCD2D"/>
</g>
<g filter="url(#filter2_b_4753_92347)">
<path d="M13.0009 23.9983H31.0009V34.9983C31.0009 36.6551 29.6577 37.9983 28.0009 37.9983H16.0009C14.344 37.9983 13.0009 36.6551 13.0009 34.9983V23.9983Z" fill="#FFA906"/>
</g>
<g filter="url(#filter3_b_4753_92347)">
<path d="M13.0009 34.4639H31.0009V34.9985C31.0009 36.6554 29.6577 37.9985 28.0009 37.9985H16.0009C14.344 37.9985 13.0009 36.6554 13.0009 34.9985V34.4639Z" fill="#FF4D00"/>
</g>
<g filter="url(#filter4_b_4753_92347)">
<path d="M14.8865 12.9629C14.8865 11.0299 16.4535 9.46289 18.3865 9.46289C20.3195 9.46289 21.8865 11.0299 21.8865 12.9629V20.9629C21.8865 22.8959 20.3195 24.4629 18.3865 24.4629C16.4535 24.4629 14.8865 22.8959 14.8865 20.9629V12.9629Z" fill="white"/>
</g>
<defs>
<filter id="filter0_b_4753_92347" x="3.12036" y="-0.873779" width="37.6925" height="28.5134" filterUnits="userSpaceOnUse" color-interpolation-filters="sRGB">
<feFlood flood-opacity="0" result="BackgroundImageFix"/>
<feGaussianBlur in="BackgroundImageFix" stdDeviation="3.5"/>
<feComposite in2="SourceAlpha" operator="in" result="effect1_backgroundBlur_4753_92347"/>
<feBlend mode="normal" in="SourceGraphic" in2="effect1_backgroundBlur_4753_92347" result="shape"/>
</filter>
<filter id="filter1_b_4753_92347" x="6.00085" y="5.99756" width="32" height="39" filterUnits="userSpaceOnUse" color-interpolation-filters="sRGB">
<feFlood flood-opacity="0" result="BackgroundImageFix"/>
<feGaussianBlur in="BackgroundImageFix" stdDeviation="3.5"/>
<feComposite in2="SourceAlpha" operator="in" result="effect1_backgroundBlur_4753_92347"/>
<feBlend mode="normal" in="SourceGraphic" in2="effect1_backgroundBlur_4753_92347" result="shape"/>
</filter>
<filter id="filter2_b_4753_92347" x="6.00085" y="16.9983" width="32" height="28" filterUnits="userSpaceOnUse" color-interpolation-filters="sRGB">
<feFlood flood-opacity="0" result="BackgroundImageFix"/>
<feGaussianBlur in="BackgroundImageFix" stdDeviation="3.5"/>
<feComposite in2="SourceAlpha" operator="in" result="effect1_backgroundBlur_4753_92347"/>
<feBlend mode="normal" in="SourceGraphic" in2="effect1_backgroundBlur_4753_92347" result="shape"/>
</filter>
<filter id="filter3_b_4753_92347" x="6.00085" y="27.4639" width="32" height="17.5347" filterUnits="userSpaceOnUse" color-interpolation-filters="sRGB">
<feFlood flood-opacity="0" result="BackgroundImageFix"/>
<feGaussianBlur in="BackgroundImageFix" stdDeviation="3.5"/>
<feComposite in2="SourceAlpha" operator="in" result="effect1_backgroundBlur_4753_92347"/>
<feBlend mode="normal" in="SourceGraphic" in2="effect1_backgroundBlur_4753_92347" result="shape"/>
</filter>
<filter id="filter4_b_4753_92347" x="7.88647" y="2.46289" width="21" height="29" filterUnits="userSpaceOnUse" color-interpolation-filters="sRGB">
<feFlood flood-opacity="0" result="BackgroundImageFix"/>
<feGaussianBlur in="BackgroundImageFix" stdDeviation="3.5"/>
<feComposite in2="SourceAlpha" operator="in" result="effect1_backgroundBlur_4753_92347"/>
<feBlend mode="normal" in="SourceGraphic" in2="effect1_backgroundBlur_4753_92347" result="shape"/>
</filter>
</defs>
</svg>
