<svg width="38" height="38" viewBox="0 0 38 38" fill="none" xmlns="http://www.w3.org/2000/svg">
<path d="M20.0381 30.0346C20.0381 31.264 19.0415 32.2607 17.812 32.2607C16.5826 32.2607 15.5859 31.264 15.5859 30.0346C15.5859 28.8051 16.5826 27.8085 17.812 27.8085C19.0415 27.8085 20.0381 28.8051 20.0381 30.0346Z" fill="#FF4D00"/>
<path d="M31.6138 19.3487C31.6138 20.5781 30.6172 21.5748 29.3877 21.5748C28.1583 21.5748 27.1616 20.5781 27.1616 19.3487C27.1616 18.1192 28.1583 17.1226 29.3877 17.1226C30.6172 17.1226 31.6138 18.1192 31.6138 19.3487Z" fill="#FF4D00"/>
<path d="M5.38446 30.1099C3.56279 28.0902 3.96191 24.9235 6.22774 23.419L9.1716 21.4642C9.35433 21.3429 9.52785 21.2082 9.69073 21.0613L22.3586 9.63553C22.5239 9.48642 22.6779 9.32511 22.8191 9.15297L24.9655 6.53604C26.693 4.43002 29.8897 4.35498 31.714 6.37764L32.2178 6.93619C34.2826 9.22543 34.3637 12.6802 32.4086 15.0638L30.3805 17.5364C30.2393 17.7085 30.0854 17.8698 29.92 18.019L17.2522 29.4448C17.0893 29.5917 16.9158 29.7263 16.733 29.8477L13.9644 31.6861C11.3918 33.3943 7.95624 32.9613 5.88794 30.6681L5.38446 30.1099Z" fill="#F9FAFA"/>
<path d="M5.3969 29.3511C3.57902 27.3356 3.97213 24.1765 6.22852 22.668L9.09842 20.7493C9.16981 20.7015 9.23764 20.6487 9.3014 20.5912L21.8401 9.28196C21.9048 9.22358 21.9652 9.16054 22.0206 9.09333L24.1284 6.54031C25.8589 4.44425 29.0473 4.3745 30.8678 6.3929L30.9664 6.50216C33.0362 8.79702 33.112 12.262 31.1445 14.6452L29.1773 17.028C29.1218 17.0952 29.0614 17.1582 28.9967 17.2166L16.458 28.5258C16.3943 28.5834 16.3264 28.6362 16.2551 28.6839L13.5879 30.467C11.0145 32.1875 7.56839 31.7587 5.4951 29.46L5.3969 29.3511Z" fill="#57497E"/>
<path d="M23.7838 10.419C23.767 10.6643 23.5546 10.8495 23.3092 10.8328C23.0639 10.816 22.8787 10.6036 22.8954 10.3582C22.9122 10.1129 23.1247 9.92765 23.37 9.94441C23.6153 9.96118 23.8006 10.1736 23.7838 10.419Z" fill="#F9FAFA"/>
<path d="M21.8855 12.0746C21.8688 12.3199 21.6563 12.5052 21.411 12.4884C21.1657 12.4717 20.9804 12.2592 20.9971 12.0139C21.0139 11.7686 21.2264 11.5833 21.4717 11.6001C21.717 11.6168 21.9023 11.8293 21.8855 12.0746Z" fill="#F9FAFA"/>
<path d="M27.0943 14.2155C27.0775 14.4608 26.865 14.6461 26.6197 14.6293C26.3744 14.6126 26.1891 14.4001 26.2059 14.1548C26.2227 13.9095 26.4351 13.7242 26.6804 13.741C26.9257 13.7577 27.111 13.9702 27.0943 14.2155Z" fill="#F9FAFA"/>
<path d="M25.1968 15.8712C25.1801 16.1165 24.9676 16.3018 24.7223 16.285C24.477 16.2682 24.2917 16.0558 24.3085 15.8105C24.3252 15.5651 24.5377 15.3799 24.783 15.3966C25.0283 15.4134 25.2136 15.6259 25.1968 15.8712Z" fill="#F9FAFA"/>
<path d="M12.2071 21.105C12.1904 21.3503 11.9779 21.5356 11.7326 21.5188C11.4873 21.5021 11.302 21.2896 11.3188 21.0443C11.3355 20.799 11.548 20.6137 11.7933 20.6304C12.0386 20.6472 12.2239 20.8597 12.2071 21.105Z" fill="#F9FAFA"/>
<path d="M10.3089 22.7606C10.2921 23.006 10.0796 23.1912 9.83433 23.1745C9.58901 23.1577 9.40373 22.9453 9.42049 22.7C9.43724 22.4546 9.6497 22.2694 9.89501 22.2861C10.1403 22.3029 10.3256 22.5153 10.3089 22.7606Z" fill="#F9FAFA"/>
<path d="M15.5185 24.9015C15.5017 25.1468 15.2893 25.3321 15.0439 25.3154C14.7986 25.2986 14.6133 25.0862 14.6301 24.8408C14.6469 24.5955 14.8593 24.4102 15.1046 24.427C15.3499 24.4438 15.5352 24.6562 15.5185 24.9015Z" fill="#F9FAFA"/>
<path d="M13.6202 26.5555C13.6034 26.8008 13.391 26.9861 13.1457 26.9693C12.9003 26.9525 12.7151 26.7401 12.7318 26.4948C12.7486 26.2495 12.961 26.0642 13.2063 26.0809C13.4517 26.0977 13.6369 26.3101 13.6202 26.5555Z" fill="#F9FAFA"/>
</svg>
