<svg width="38" height="38" viewBox="0 0 38 38" fill="none" xmlns="http://www.w3.org/2000/svg">
<path fill-rule="evenodd" clip-rule="evenodd" d="M4.75 30.8816V30.0701C4.75715 26.5784 7.58994 23.75 11.0833 23.75H26.125C29.6228 23.75 32.4583 26.5855 32.4583 30.0833V30.875C32.4583 31.7495 31.7495 32.4583 30.875 32.4583H6.33332C5.46108 32.4583 4.75357 31.753 4.75 30.8816Z" fill="#F9CC2E"/>
<path d="M28.3273 9.57758C28.6365 9.26841 29.1378 9.26841 29.4469 9.57758C29.7561 9.88674 29.7561 10.388 29.4469 10.6972L10.414 29.7301C10.1048 30.0393 9.60354 30.0393 9.29437 29.7301C8.98521 29.421 8.98521 28.9197 9.29437 28.6105L28.3273 9.57758Z" fill="#F9FAFA"/>
<path d="M10.353 10.759L10.4779 10.634C15.4294 5.74976 23.4028 5.77051 28.3286 10.6963C33.2753 15.643 33.2753 23.663 28.3286 28.6097C28.3173 28.621 28.3059 28.6324 28.2945 28.6437C27.9976 28.9383 27.5208 28.9219 27.2251 28.6261L10.3703 11.7714C10.0905 11.4916 10.0751 11.0407 10.353 10.759Z" fill="#FF4D00"/>
<path d="M26.3214 26.6976C26.0329 26.9838 25.5692 26.9714 25.2818 26.6841L12.3606 13.7628C12.0619 13.4641 12.0489 12.982 12.3469 12.6827C12.3557 12.6738 12.3645 12.665 12.3734 12.6562C17.32 7.70956 24.4629 6.83237 28.3275 10.6969C32.1798 14.5493 31.3203 21.6594 26.4148 26.6042L26.3214 26.6976Z" fill="#F9FAFA"/>
<path d="M16.7705 17.2173L16.9346 17.0532C21.8558 12.1567 26.9447 9.31399 28.3282 10.6975C29.7195 12.0888 26.8372 17.2266 21.8906 22.1733C21.8873 22.1765 21.8841 22.1798 21.8808 22.183C21.5754 22.4883 21.0811 22.4835 20.7757 22.1782L16.7753 18.1778C16.51 17.9125 16.506 17.4832 16.7705 17.2173Z" fill="#FF4D00"/>
</svg>
