<svg width="264" height="212" viewBox="0 0 264 212" fill="none" xmlns="http://www.w3.org/2000/svg">
<path d="M208.005 182.312C208.005 189.771 174.261 195.817 132.636 195.817C91.0116 195.817 57.2681 189.771 57.2681 182.312C57.2681 174.853 91.0116 168.807 132.636 168.807C174.261 168.807 208.005 174.853 208.005 182.312Z" fill="url(#paint0_linear_4744_86909)"/>
<path d="M197.271 142.98C214.587 123.455 219.148 102.057 216.412 87.0642C213.97 73.6657 199.06 65.3701 185.457 66.1055C173.607 66.7461 166.919 69.6228 158.238 75.8249C156.77 76.8734 154.601 75.631 154.56 73.8277C154.197 57.923 140.556 43.188 124.552 40.5461C106.877 37.6335 88.5791 47.7205 79.0397 62.878C69.5003 78.0354 67.9364 97.2638 71.8492 114.736C75.762 132.208 84.7246 148.163 95.0213 162.822C100.107 170.066 113.185 182.172 122.03 183.071C139.665 184.864 177.36 165.43 197.271 142.98Z" fill="#222222"/>
<path d="M114.765 86.9109C114.612 90.4745 114.461 94.0319 114.308 97.5955C114.263 98.7044 115.14 99.8156 116.293 99.8338C117.446 99.8521 118.481 99.0325 118.531 97.8487C118.684 94.2851 118.835 90.7278 118.989 87.1642C119.034 86.0552 118.156 84.9441 117.003 84.9258C115.851 84.9075 114.815 85.7272 114.765 86.9109Z" fill="#8D8D8D"/>
<path d="M102.986 84.2468C102.833 87.8104 102.682 91.3678 102.528 94.9314C102.483 96.0404 103.361 97.1515 104.513 97.1698C105.666 97.1881 106.702 96.3684 106.752 95.1847C106.905 91.6211 107.056 88.0637 107.209 84.5001C107.254 83.3911 106.377 82.28 105.224 82.2617C104.071 82.2434 103.035 83.0631 102.986 84.2468Z" fill="#8D8D8D"/>
<path fill-rule="evenodd" clip-rule="evenodd" d="M197.313 53.5344C195.166 52.2183 192.806 51.1682 190.33 50.4008C189.802 50.2373 189.507 49.6772 189.67 49.1496C189.834 48.6221 190.394 48.327 190.922 48.4904C193.546 49.3037 196.06 50.4204 198.358 51.8292C198.829 52.1179 198.977 52.7335 198.688 53.2044C198.399 53.6753 197.784 53.823 197.313 53.5344ZM178.907 47.8918C178.945 48.4428 178.529 48.9202 177.978 48.9582C176.693 49.0467 175.421 49.2107 174.172 49.4515C172.18 49.8356 170.351 50.2622 168.649 50.7407C168.117 50.8902 167.565 50.5803 167.415 50.0487C167.266 49.517 167.576 48.9648 168.107 48.8154C169.871 48.3197 171.755 47.8807 173.794 47.4877C175.124 47.231 176.478 47.0568 177.84 46.9629C178.391 46.925 178.869 47.3409 178.907 47.8918ZM206.252 60.9091C206.736 60.6441 207.344 60.8222 207.609 61.3068C208.263 62.5045 208.816 63.7716 209.254 65.1056C209.664 66.3576 210.029 67.6603 210.344 69.0092C210.47 69.547 210.136 70.0848 209.598 70.2106C209.061 70.3363 208.523 70.0022 208.397 69.4645C208.094 68.1704 207.745 66.9238 207.353 65.7288C206.955 64.5132 206.451 63.3585 205.854 62.2662C205.589 61.7816 205.767 61.174 206.252 60.9091ZM126.685 36.5302C126.985 36.0664 127.604 35.9335 128.068 36.2334C130.787 37.9914 133.294 40.0724 135.501 42.4107C135.88 42.8124 135.861 43.4453 135.46 43.8243C135.058 44.2034 134.425 44.1851 134.046 43.7834C131.951 41.5635 129.568 39.5851 126.982 37.9129C126.518 37.6131 126.385 36.994 126.685 36.5302ZM114.324 31.6545C114.232 32.1991 113.716 32.5662 113.172 32.4744C111.664 32.2204 110.141 32.069 108.613 32.0275C107.478 31.9971 106.346 32.0189 105.222 32.0907C104.67 32.1259 104.195 31.7076 104.16 31.1564C104.125 30.6053 104.543 30.1299 105.094 30.0947C106.278 30.0191 107.47 29.9961 108.667 30.0283C110.291 30.0723 111.907 30.2332 113.504 30.5022C114.048 30.594 114.415 31.1098 114.324 31.6545ZM210.758 81.0374C211.31 81.04 211.756 81.4897 211.753 82.042C211.741 84.6377 211.568 87.3243 211.218 90.0829C211.148 90.6308 210.648 91.0186 210.1 90.949C209.552 90.8794 209.164 90.3789 209.234 89.831C209.574 87.1516 209.742 84.546 209.753 82.0328C209.756 81.4805 210.206 81.0349 210.758 81.0374ZM152.715 57.7488C153.065 58.1758 153.003 58.8059 152.576 59.1562C151.188 60.2946 149.787 61.5472 148.326 62.93C147.962 63.2749 147.54 63.5092 147.096 63.6406C146.566 63.7972 146.01 63.4948 145.853 62.9652C145.697 62.4355 145.999 61.8793 146.529 61.7227C146.68 61.678 146.822 61.5997 146.952 61.4775C148.438 60.071 149.875 58.7855 151.307 57.6101C151.734 57.2598 152.364 57.3219 152.715 57.7488ZM95.0492 33.052C95.2334 33.5727 94.9606 34.1441 94.44 34.3282C92.3065 35.0829 90.2266 36.0097 88.2177 37.0902C87.7313 37.3518 87.1249 37.1696 86.8633 36.6832C86.6017 36.1968 86.784 35.5904 87.2704 35.3288C89.3661 34.2016 91.5396 33.2327 93.773 32.4427C94.2937 32.2586 94.8651 32.5313 95.0492 33.052ZM142.33 55.1842C142.856 55.0142 143.42 55.3025 143.589 55.828C144.089 57.3721 144.471 58.9559 144.724 60.5706C144.752 60.7533 144.819 60.9213 144.918 61.0723C145.219 61.5351 145.088 62.1546 144.625 62.456C144.162 62.7573 143.543 62.6264 143.242 62.1636C142.997 61.7883 142.822 61.3556 142.748 60.8798C142.512 59.3723 142.154 57.8907 141.686 56.4433C141.517 55.9179 141.805 55.3541 142.33 55.1842ZM79.2296 42.0148C79.5945 42.4294 79.5542 43.0613 79.1397 43.4262C77.4326 44.9287 75.8229 46.55 74.3272 48.2716C73.965 48.6885 73.3334 48.7329 72.9165 48.3707C72.4996 48.0085 72.4552 47.3769 72.8174 46.96C74.3712 45.1715 76.0438 43.4868 77.8182 41.9249C78.2328 41.56 78.8647 41.6003 79.2296 42.0148ZM207.757 101.59C208.285 101.755 208.578 102.315 208.414 102.843C207.637 105.329 206.716 107.847 205.639 110.385C205.424 110.894 204.837 111.131 204.328 110.915C203.82 110.7 203.582 110.113 203.798 109.604C204.849 107.126 205.748 104.67 206.505 102.246C206.669 101.719 207.23 101.425 207.757 101.59ZM67.6087 56.0221C68.0946 56.2848 68.2754 56.8916 68.0127 57.3774C67.4707 58.3798 66.9643 59.3996 66.4957 60.4344C66.0232 61.4777 65.585 62.5331 65.1804 63.5994C64.9844 64.1158 64.4069 64.3755 63.8906 64.1795C63.3742 63.9836 63.1145 63.4061 63.3105 62.8898C63.7298 61.7851 64.1839 60.6911 64.6738 59.6093C65.1621 58.5311 65.6894 57.4693 66.2535 56.4261C66.5162 55.9403 67.1229 55.7594 67.6087 56.0221ZM199.337 120.6C199.808 120.888 199.958 121.503 199.67 121.975C198.983 123.103 198.262 124.232 197.508 125.36C196.723 126.535 195.9 127.708 195.043 128.877C194.716 129.322 194.09 129.418 193.645 129.091C193.199 128.764 193.103 128.138 193.43 127.693C194.271 126.547 195.078 125.398 195.845 124.249C196.584 123.144 197.289 122.038 197.962 120.934C198.25 120.462 198.865 120.313 199.337 120.6ZM61.4434 73.1888C61.9875 73.2833 62.3521 73.801 62.2576 74.3451C61.8665 76.5977 61.5994 78.8759 61.4498 81.1683C61.4138 81.7194 60.9379 82.137 60.3868 82.101C59.8357 82.065 59.4181 81.5891 59.4541 81.038C59.6081 78.6772 59.8834 76.3283 60.2871 74.003C60.3815 73.4589 60.8992 73.0943 61.4434 73.1888ZM186.074 138.192C186.479 138.567 186.503 139.2 186.128 139.605C184.2 141.683 182.19 143.724 180.118 145.714C179.72 146.097 179.086 146.084 178.704 145.686C178.321 145.288 178.334 144.655 178.732 144.272C180.778 142.307 182.761 140.293 184.661 138.245C185.037 137.84 185.669 137.816 186.074 138.192ZM60.5291 91.4383C61.0791 91.3876 61.566 91.7923 61.6167 92.3423C61.8271 94.6259 62.142 96.9049 62.5549 99.1682C62.6541 99.7115 62.294 100.232 61.7506 100.331C61.2073 100.431 60.6865 100.07 60.5874 99.5272C60.1642 97.2074 59.8411 94.8699 59.6251 92.5258C59.5744 91.9759 59.9792 91.489 60.5291 91.4383ZM169.822 153.507C170.169 153.937 170.102 154.566 169.672 154.913C167.425 156.729 165.148 158.469 162.866 160.12C162.418 160.443 161.793 160.343 161.47 159.896C161.146 159.448 161.246 158.823 161.694 158.499C163.947 156.87 166.195 155.151 168.415 153.357C168.845 153.01 169.475 153.077 169.822 153.507ZM64.0526 109.383C64.5775 109.211 65.1422 109.498 65.3139 110.023C65.6719 111.117 66.0518 112.203 66.4528 113.279C66.8555 114.359 67.278 115.431 67.7193 116.494C67.931 117.004 67.6891 117.589 67.179 117.801C66.6689 118.013 66.0838 117.771 65.8721 117.261C65.4216 116.176 64.9902 115.081 64.5787 113.977C64.1683 112.876 63.7794 111.765 63.413 110.644C63.2413 110.12 63.5277 109.555 64.0526 109.383ZM71.2394 126.222C71.7236 125.956 72.3315 126.133 72.5971 126.618C73.7063 128.639 74.8786 130.629 76.1067 132.589C76.4 133.057 76.2583 133.674 75.7903 133.967C75.3224 134.26 74.7052 134.119 74.412 133.651C73.1646 131.66 71.9725 129.637 70.8437 127.579C70.578 127.095 70.7552 126.487 71.2394 126.222ZM151.559 166.369C151.836 166.847 151.673 167.459 151.196 167.736C148.612 169.236 146.068 170.584 143.598 171.757C143.099 171.994 142.502 171.781 142.265 171.282C142.029 170.783 142.241 170.187 142.74 169.95C145.155 168.804 147.65 167.482 150.192 166.006C150.669 165.729 151.281 165.891 151.559 166.369ZM81.0823 141.675C81.5253 141.345 82.1517 141.437 82.4816 141.88C83.8622 143.734 85.2857 145.561 86.7446 147.361C87.0923 147.79 87.0264 148.42 86.5973 148.768C86.1682 149.115 85.5385 149.049 85.1908 148.62C83.7159 146.8 82.2756 144.952 80.8774 143.074C80.5476 142.631 80.6393 142.005 81.0823 141.675ZM92.6895 155.861C93.0991 155.491 93.7315 155.522 94.1019 155.932C94.8802 156.793 95.6642 157.647 96.4531 158.496C97.124 159.218 97.9072 159.993 98.7834 160.798C99.19 161.172 99.2166 161.805 98.8428 162.211C98.469 162.618 97.8364 162.644 97.4299 162.271C96.5221 161.436 95.7007 160.625 94.9882 159.858C94.1934 159.003 93.4031 158.141 92.6185 157.273C92.2481 156.864 92.2799 156.231 92.6895 155.861ZM131.13 175.247C131.237 175.789 130.885 176.314 130.343 176.422C128.814 176.723 127.353 176.906 125.974 176.954C124.842 176.994 123.646 176.88 122.415 176.644C121.872 176.541 121.517 176.017 121.62 175.474C121.724 174.932 122.248 174.576 122.79 174.68C123.908 174.893 124.951 174.989 125.904 174.955C127.158 174.911 128.513 174.744 129.956 174.459C130.497 174.352 131.023 174.705 131.13 175.247ZM105.879 167.693C106.186 167.235 106.808 167.112 107.266 167.42C109.101 168.652 111.013 169.819 112.93 170.852C113.416 171.114 113.598 171.72 113.336 172.206C113.074 172.693 112.467 172.874 111.981 172.612C110.001 171.545 108.034 170.344 106.152 169.081C105.693 168.773 105.571 168.152 105.879 167.693Z" fill="#3D3D3D"/>
<path fill-rule="evenodd" clip-rule="evenodd" d="M103.815 110.358C101.695 112.586 99.6819 115.794 97.8575 118.847C97.7476 119.031 97.6296 119.228 97.5044 119.436C95.6379 122.539 92.1837 128.281 90.552 135.002C88.8199 142.136 89.165 150.261 95.6211 157.471C95.9895 157.883 95.9546 158.515 95.5432 158.883C95.1317 159.252 94.4995 159.217 94.1311 158.806C87.1025 150.956 86.775 142.082 88.6085 134.53C90.3154 127.499 93.9155 121.519 95.7811 118.42C95.9096 118.207 96.0298 118.007 96.1407 117.821C97.9541 114.787 100.071 111.392 102.366 108.98C104.614 106.618 107.381 104.846 110.388 105.955C111.38 106.321 112.107 106.914 112.438 107.777C112.752 108.598 112.627 109.461 112.396 110.205C112.163 110.959 111.774 111.737 111.384 112.463C111.236 112.738 111.09 113.002 110.947 113.259C110.706 113.695 110.475 114.114 110.261 114.537C110.274 114.559 110.293 114.588 110.323 114.622C110.385 114.693 110.475 114.767 110.581 114.826C110.688 114.885 110.786 114.915 110.857 114.924C113.182 115.228 116.194 116.875 117.159 120.347C118.304 124.467 116.847 127.894 115.459 131.156L115.439 131.204C114.034 134.507 112.66 137.738 113.23 141.884C113.305 142.431 112.922 142.935 112.375 143.011C111.828 143.086 111.323 142.703 111.248 142.156C110.603 137.46 112.167 133.786 113.544 130.549C113.568 130.492 113.593 130.436 113.617 130.379C115.034 127.047 116.166 124.244 115.232 120.883C114.535 118.373 112.341 117.135 110.598 116.907C109.911 116.818 109.251 116.436 108.815 115.936C108.38 115.437 107.999 114.588 108.443 113.701C108.681 113.225 108.96 112.72 109.227 112.237C109.364 111.989 109.498 111.746 109.622 111.516C110.005 110.803 110.314 110.169 110.486 109.613C110.661 109.048 110.65 108.702 110.57 108.492C110.506 108.325 110.33 108.065 109.695 107.831C107.918 107.175 105.983 108.08 103.815 110.358Z" fill="#666666"/>
<defs>
<linearGradient id="paint0_linear_4744_86909" x1="132.636" y1="168.807" x2="132.636" y2="195.817" gradientUnits="userSpaceOnUse">
<stop stop-color="#222222"/>
<stop offset="1"/>
</linearGradient>
</defs>
</svg>
