<svg width="48" height="48" viewBox="0 0 48 48" fill="none" xmlns="http://www.w3.org/2000/svg">
<g clip-path="url(#clip0_4753_92109)">
<g filter="url(#filter0_d_4753_92109)">
<g filter="url(#filter1_b_4753_92109)">
<path fill-rule="evenodd" clip-rule="evenodd" d="M7.27604 19.0724C7.52982 18.8363 7.78066 18.5911 8.06077 18.3869C8.06663 18.3827 8.07252 18.3784 8.07845 18.3742L21.675 8.6623C23.0658 7.66888 24.9342 7.66888 26.325 8.6623L39.9215 18.3742C39.9275 18.3784 39.9334 18.3827 39.9392 18.3869C40.2193 18.5911 40.4702 18.8363 40.7239 19.0724C41.5089 19.8027 42 20.8448 42 22.0016V38.0016C42 40.2108 40.2091 42.0016 38 42.0016H10C7.79086 42.0016 6 40.2108 6 38.0016V22.0016C6 20.8449 6.49104 19.8028 7.27604 19.0724Z" fill="white"/>
</g>
<g filter="url(#filter2_b_4753_92109)">
<path d="M14.8362 28.0339C13.0183 24.4833 14.3081 20.5841 17.2945 19.3706C19.4351 18.5008 21.8853 19.1999 23.5603 21.1638C23.7864 21.429 24.2121 21.429 24.4382 21.1638C26.1132 19.1999 28.5634 18.5008 30.704 19.3706C33.6904 20.5841 34.9802 24.4833 33.1623 28.0339C31.2304 31.807 25.4537 35.1893 24.229 35.8756C24.0834 35.9572 23.9152 35.9572 23.7695 35.8756C22.5449 35.1893 16.7681 31.807 14.8362 28.0339Z" fill="#FF4D00"/>
</g>
<g filter="url(#filter3_b_4753_92109)">
<path d="M25.582 8.15509C25.3032 5.35815 27.1413 3.11935 29.4001 3.07775C30.9536 3.04914 32.3239 4.04309 32.9544 5.64015C33.083 5.96583 33.4831 6.12123 33.7978 5.96772C35.341 5.21495 37.023 5.4065 38.1499 6.47616C39.7885 8.03149 39.6336 10.924 37.54 12.7995C35.3725 14.7413 30.9186 15.5141 29.7894 15.6832C29.6231 15.7081 29.4603 15.6449 29.3544 15.5142C28.6353 14.6273 25.8707 11.0508 25.582 8.15509Z" fill="#FF4D00"/>
</g>
<g filter="url(#filter4_b_4753_92109)">
<path fill-rule="evenodd" clip-rule="evenodd" d="M7.84844 41.3712C6.73691 40.6607 6 39.4157 6 37.9986V21.9986C6 20.8948 6.44711 19.8954 7.1701 19.1716L19.0703 27.1814C21.4256 28.7667 21.4256 32.2328 19.0703 33.8181L7.84844 41.3712Z" fill="#DFDFDF"/>
</g>
<g filter="url(#filter5_b_4753_92109)">
<path fill-rule="evenodd" clip-rule="evenodd" d="M40.3926 18.7942C41.3681 19.5236 41.9995 20.6879 41.9995 21.9997V37.9997C41.9995 39.6423 41.0094 41.0536 39.5934 41.6695L27.9301 33.8191C25.5747 32.2338 25.5747 28.7678 27.9301 27.1824L40.3926 18.7942Z" fill="#DFDFDF"/>
</g>
<g filter="url(#filter6_b_4753_92109)">
<path fill-rule="evenodd" clip-rule="evenodd" d="M41.4695 39.992C40.779 41.1919 39.4839 41.9998 38.0001 41.9998H10.0001C8.27681 41.9998 6.80807 40.9101 6.24536 39.3822L21.6616 27.4267C22.7436 26.5876 24.2565 26.5876 25.3385 27.4267L41.0747 39.6303C41.2208 39.7435 41.3522 39.8646 41.4695 39.992Z" fill="white"/>
</g>
</g>
</g>
<defs>
<filter id="filter0_d_4753_92109" x="2" y="3.07715" width="44" height="46.9246" filterUnits="userSpaceOnUse" color-interpolation-filters="sRGB">
<feFlood flood-opacity="0" result="BackgroundImageFix"/>
<feColorMatrix in="SourceAlpha" type="matrix" values="0 0 0 0 0 0 0 0 0 0 0 0 0 0 0 0 0 0 127 0" result="hardAlpha"/>
<feOffset dy="4"/>
<feGaussianBlur stdDeviation="2"/>
<feComposite in2="hardAlpha" operator="out"/>
<feColorMatrix type="matrix" values="0 0 0 0 0 0 0 0 0 0 0 0 0 0 0 0 0 0 0.25 0"/>
<feBlend mode="normal" in2="BackgroundImageFix" result="effect1_dropShadow_4753_92109"/>
<feBlend mode="normal" in="SourceGraphic" in2="effect1_dropShadow_4753_92109" result="shape"/>
</filter>
<filter id="filter1_b_4753_92109" x="-1" y="0.917236" width="50" height="48.0845" filterUnits="userSpaceOnUse" color-interpolation-filters="sRGB">
<feFlood flood-opacity="0" result="BackgroundImageFix"/>
<feGaussianBlur in="BackgroundImageFix" stdDeviation="3.5"/>
<feComposite in2="SourceAlpha" operator="in" result="effect1_backgroundBlur_4753_92109"/>
<feBlend mode="normal" in="SourceGraphic" in2="effect1_backgroundBlur_4753_92109" result="shape"/>
</filter>
<filter id="filter2_b_4753_92109" x="9.99927" y="15.0022" width="28" height="24.9346" filterUnits="userSpaceOnUse" color-interpolation-filters="sRGB">
<feFlood flood-opacity="0" result="BackgroundImageFix"/>
<feGaussianBlur in="BackgroundImageFix" stdDeviation="2"/>
<feComposite in2="SourceAlpha" operator="in" result="effect1_backgroundBlur_4753_92109"/>
<feBlend mode="normal" in="SourceGraphic" in2="effect1_backgroundBlur_4753_92109" result="shape"/>
</filter>
<filter id="filter3_b_4753_92109" x="21.554" y="-0.922852" width="21.7053" height="20.6113" filterUnits="userSpaceOnUse" color-interpolation-filters="sRGB">
<feFlood flood-opacity="0" result="BackgroundImageFix"/>
<feGaussianBlur in="BackgroundImageFix" stdDeviation="2"/>
<feComposite in2="SourceAlpha" operator="in" result="effect1_backgroundBlur_4753_92109"/>
<feBlend mode="normal" in="SourceGraphic" in2="effect1_backgroundBlur_4753_92109" result="shape"/>
</filter>
<filter id="filter4_b_4753_92109" x="2" y="15.1716" width="22.8367" height="30.1997" filterUnits="userSpaceOnUse" color-interpolation-filters="sRGB">
<feFlood flood-opacity="0" result="BackgroundImageFix"/>
<feGaussianBlur in="BackgroundImageFix" stdDeviation="2"/>
<feComposite in2="SourceAlpha" operator="in" result="effect1_backgroundBlur_4753_92109"/>
<feBlend mode="normal" in="SourceGraphic" in2="effect1_backgroundBlur_4753_92109" result="shape"/>
</filter>
<filter id="filter5_b_4753_92109" x="22.1636" y="14.7942" width="23.8359" height="30.8752" filterUnits="userSpaceOnUse" color-interpolation-filters="sRGB">
<feFlood flood-opacity="0" result="BackgroundImageFix"/>
<feGaussianBlur in="BackgroundImageFix" stdDeviation="2"/>
<feComposite in2="SourceAlpha" operator="in" result="effect1_backgroundBlur_4753_92109"/>
<feBlend mode="normal" in="SourceGraphic" in2="effect1_backgroundBlur_4753_92109" result="shape"/>
</filter>
<filter id="filter6_b_4753_92109" x="2.24536" y="22.7974" width="43.2241" height="23.2024" filterUnits="userSpaceOnUse" color-interpolation-filters="sRGB">
<feFlood flood-opacity="0" result="BackgroundImageFix"/>
<feGaussianBlur in="BackgroundImageFix" stdDeviation="2"/>
<feComposite in2="SourceAlpha" operator="in" result="effect1_backgroundBlur_4753_92109"/>
<feBlend mode="normal" in="SourceGraphic" in2="effect1_backgroundBlur_4753_92109" result="shape"/>
</filter>
<clipPath id="clip0_4753_92109">
<rect width="48" height="48" fill="white"/>
</clipPath>
</defs>
</svg>
