<svg width="48" height="48" viewBox="0 0 48 48" fill="none" xmlns="http://www.w3.org/2000/svg">
<path d="M20.0007 29.999C20.0007 33.3127 17.0906 35.999 13.5007 35.999C9.91088 35.999 7.00073 33.3127 7.00073 29.999C7.00073 26.6853 9.91088 23.999 13.5007 23.999C17.0906 23.999 20.0007 26.6853 20.0007 29.999Z" fill="#F9FAFA"/>
<path d="M40.0002 29.999C40.0002 33.3127 37.0901 35.999 33.5002 35.999C29.9104 35.999 27.0002 33.3127 27.0002 29.999C27.0002 26.6853 29.9104 23.999 33.5002 23.999C37.0901 23.999 40.0002 26.6853 40.0002 29.999Z" fill="#F9FAFA"/>
<path d="M16.0007 13.9976H20.0007V29.9976H16.0007V13.9976Z" fill="#F9FAFA"/>
<path d="M36.0002 13.9976H40.0002V29.9976H36.0002V13.9976Z" fill="#F9FAFA"/>
<path d="M16.0007 11.9983C16.0007 10.8937 16.8962 9.99829 18.0007 9.99829H38.0007C39.1053 9.99829 40.0007 10.8937 40.0007 11.9983V17.9983H16.0007V11.9983Z" fill="#F9CC2E"/>
</svg>
