<svg width="48" height="48" viewBox="0 0 48 48" fill="none" xmlns="http://www.w3.org/2000/svg">
<g filter="url(#filter0_b_4753_92137)">
<path d="M17.9318 8.12825C19.6171 6.41151 22.3831 6.41151 24.0685 8.12825C25.0523 9.13041 26.4636 9.58895 27.8486 9.35649C30.2212 8.95826 32.4589 10.584 32.8133 12.9636C33.0202 14.3526 33.8924 15.5531 35.1495 16.1791C37.3031 17.2515 38.1578 19.8821 37.0459 22.0155C36.3968 23.2609 36.3968 24.7447 37.0459 25.9901C38.1578 28.1235 37.3031 30.7541 35.1495 31.8265C33.8924 32.4525 33.0202 33.653 32.8133 35.0421C32.4589 37.4216 30.2212 39.0474 27.8486 38.6491C26.4636 38.4167 25.0523 38.8752 24.0685 39.8774C22.3831 41.5941 19.6171 41.5941 17.9318 39.8774C16.9479 38.8752 15.5366 38.4167 14.1516 38.6491C11.7791 39.0474 9.54135 37.4216 9.18692 35.0421C8.98002 33.653 8.10782 32.4525 6.85068 31.8265C4.69716 30.7541 3.84243 28.1235 4.95433 25.9901C5.60342 24.7447 5.60342 23.2609 4.95433 22.0155C3.84243 19.8821 4.69716 17.2515 6.85068 16.1791C8.10782 15.5531 8.98002 14.3526 9.18693 12.9636C9.54135 10.584 11.7791 8.95826 14.1516 9.35649C15.5366 9.58895 16.9479 9.13041 17.9318 8.12825Z" fill="#F9CC2E"/>
</g>
<path fill-rule="evenodd" clip-rule="evenodd" d="M13.9995 22.0011C13.9995 20.3442 15.3427 19.0011 16.9995 19.0011C18.6564 19.0011 19.9995 20.3442 19.9995 22.0011C19.9995 22.5534 19.5518 23.0011 18.9995 23.0011C18.4472 23.0011 17.9995 22.5534 17.9995 22.0011C17.9995 21.4488 17.5518 21.0011 16.9995 21.0011C16.4472 21.0011 15.9995 21.4488 15.9995 22.0011C15.9995 22.5534 15.5518 23.0011 14.9995 23.0011C14.4472 23.0011 13.9995 22.5534 13.9995 22.0011ZM20.9995 22.0011C20.9995 20.3442 22.3427 19.0011 23.9995 19.0011C25.6564 19.0011 26.9995 20.3442 26.9995 22.0011C26.9995 22.5534 26.5518 23.0011 25.9995 23.0011C25.4472 23.0011 24.9995 22.5534 24.9995 22.0011C24.9995 21.4488 24.5518 21.0011 23.9995 21.0011C23.4472 21.0011 22.9995 21.4488 22.9995 22.0011C22.9995 22.5534 22.5518 23.0011 21.9995 23.0011C21.4472 23.0011 20.9995 22.5534 20.9995 22.0011Z" fill="#3D3D3D"/>
<g filter="url(#filter1_b_4753_92137)">
<path d="M24.1545 39.1091C25.4693 40.3086 27.6537 41.0934 30.1262 41.0934C32.5987 41.0934 34.7831 40.3086 36.0979 39.1091H37.4018C42.1505 39.1088 46 35.2589 46 30.5101C46 25.7612 42.1502 21.9114 37.4012 21.9114C34.4785 21.9114 31.8964 23.3696 30.3426 25.5981C29.8828 25.3558 29.359 25.2187 28.8031 25.2187C27.7587 25.2187 26.8274 25.7028 26.2213 26.4588C25.3943 26.087 24.4771 25.8801 23.5116 25.8801C19.8586 25.8801 16.8972 28.8415 16.8972 32.4945C16.8972 36.1475 19.8585 39.1089 23.5115 39.109L24.1545 39.1091Z" fill="white"/>
</g>
<defs>
<filter id="filter0_b_4753_92137" x="0.466553" y="2.8407" width="41.0671" height="42.3242" filterUnits="userSpaceOnUse" color-interpolation-filters="sRGB">
<feFlood flood-opacity="0" result="BackgroundImageFix"/>
<feGaussianBlur in="BackgroundImageFix" stdDeviation="2"/>
<feComposite in2="SourceAlpha" operator="in" result="effect1_backgroundBlur_4753_92137"/>
<feBlend mode="normal" in="SourceGraphic" in2="effect1_backgroundBlur_4753_92137" result="shape"/>
</filter>
<filter id="filter1_b_4753_92137" x="9.89722" y="14.9114" width="43.1028" height="33.182" filterUnits="userSpaceOnUse" color-interpolation-filters="sRGB">
<feFlood flood-opacity="0" result="BackgroundImageFix"/>
<feGaussianBlur in="BackgroundImageFix" stdDeviation="3.5"/>
<feComposite in2="SourceAlpha" operator="in" result="effect1_backgroundBlur_4753_92137"/>
<feBlend mode="normal" in="SourceGraphic" in2="effect1_backgroundBlur_4753_92137" result="shape"/>
</filter>
</defs>
</svg>
