<svg width="264" height="212" viewBox="0 0 264 212" fill="none" xmlns="http://www.w3.org/2000/svg">
<path d="M132 16.5586L148.332 36.1192L176.5 24.8738L176.619 47.5084L209.076 47.5915L192.951 67.2352L221 78.6244L192.951 90.0137L209.076 109.657L176.619 109.74L176.5 132.375L148.332 121.13L132 140.69L115.668 121.13L87.5 132.375L87.3809 109.74L54.9237 109.657L71.0491 90.0137L43 78.6244L71.0491 67.2352L54.9237 47.5915L87.3809 47.5084L87.5 24.8738L115.668 36.1192L132 16.5586Z" fill="#EF4444"/>
<path d="M132 16.5586L148.332 36.1192L176.5 24.8738L176.619 47.5084L209.076 47.5915L192.951 67.2352L221 78.6244L192.951 90.0137L209.076 109.657L176.619 109.74L176.5 132.375L148.332 121.13L132 140.69L115.668 121.13L87.5 132.375L87.3809 109.74L54.9237 109.657L71.0491 90.0137L43 78.6244L71.0491 67.2352L54.9237 47.5915L87.3809 47.5084L87.5 24.8738L115.668 36.1192L132 16.5586Z" fill="url(#paint0_linear_4744_86953)" fill-opacity="0.56"/>
<path fill-rule="evenodd" clip-rule="evenodd" d="M131.558 43.4922C129.873 43.4922 128.519 44.8782 128.558 46.5619L128.899 61.1994C128.937 62.8286 130.268 64.1296 131.898 64.1296H132.755C134.385 64.1296 135.716 62.8286 135.754 61.1994L136.095 46.5619C136.134 44.8782 134.78 43.4922 133.096 43.4922H131.558ZM132.16 72.7695C130.43 72.7695 129.058 71.3095 129.166 69.5824L129.211 68.8632C129.31 67.2821 130.621 66.0504 132.205 66.0504H132.448C134.032 66.0504 135.343 67.2821 135.442 68.8632L135.487 69.5824C135.595 71.3095 134.223 72.7695 132.493 72.7695H132.16Z" fill="#F9FAFA"/>
<path fill-rule="evenodd" clip-rule="evenodd" d="M188.724 81.3041C195.218 93.6034 197.119 113.479 187.403 135.223C176.232 160.225 148.754 187.481 132.914 190.758C124.968 192.402 110.265 185.453 103.851 180.543C90.8673 170.609 78.6897 159.181 70.4909 145.047C62.2922 130.913 58.3784 113.748 62.5231 97.9382C66.6679 82.1286 79.8265 68.3295 96.0095 66.0158C110.372 63.9664 125.946 72.651 130.966 85.937C129.576 88.0095 128.397 89.9886 127.411 92.0838C127.311 92.2992 127.243 92.5129 127.214 92.7197C127.079 93.6744 127.669 94.4775 128.46 94.8377C129.44 95.2867 130.8 95.0886 131.393 93.8326L131.392 93.8387C132.878 90.6821 134.957 87.7091 136.82 85.1537C141.967 78.8011 146.952 74.9649 156.032 71.554C167.669 67.1824 182.923 70.3123 188.724 81.3041Z" fill="#3D3D3D"/>
<path fill-rule="evenodd" clip-rule="evenodd" d="M119.999 154.571C119.942 154.568 119.828 154.575 119.639 154.638C118.851 154.901 117.927 155.787 117.045 157.044C116.195 158.255 115.514 159.624 115.155 160.561C114.957 161.077 114.379 161.335 113.863 161.137C113.348 160.939 113.09 160.361 113.287 159.845C113.547 159.17 113.647 158.474 113.612 157.883C113.575 157.271 113.404 156.881 113.242 156.7C113.139 156.585 113.017 156.506 112.708 156.593C112.316 156.703 111.67 157.089 110.797 158.075C107.932 161.309 102.5 166.354 93.9901 173.341C93.5632 173.692 92.9331 173.63 92.5826 173.203C92.2322 172.776 92.2941 172.146 92.7209 171.795C101.213 164.823 106.544 159.859 109.3 156.749C110.281 155.641 111.238 154.928 112.168 154.667C113.182 154.383 114.102 154.661 114.733 155.367C114.94 155.598 115.105 155.863 115.234 156.148C115.291 156.063 115.349 155.979 115.408 155.895C116.327 154.585 117.567 153.222 119.005 152.741C119.745 152.493 120.496 152.491 121.132 152.896C121.732 153.279 122.022 153.898 122.165 154.429C122.243 154.716 122.289 155.021 122.313 155.329C122.791 155.139 123.341 155.016 123.959 155.016C124.701 155.016 125.26 155.388 125.625 155.875C125.962 156.325 126.143 156.88 126.248 157.382C126.258 157.431 126.267 157.48 126.276 157.529C126.283 157.525 126.289 157.521 126.295 157.518C126.437 157.429 126.664 157.313 126.948 157.287C127.28 157.258 127.638 157.36 127.913 157.636C127.913 157.636 127.914 157.637 127.916 157.639L127.924 157.646C127.931 157.653 127.941 157.662 127.956 157.675C127.961 157.679 127.97 157.687 127.982 157.697C128.008 157.72 128.046 157.752 128.073 157.776C128.171 157.862 128.302 157.983 128.435 158.145C128.713 158.485 128.941 158.932 129.057 159.554C129.277 160.734 129.098 162.557 128.16 165.615C126.673 170.466 122.868 182.764 115.054 194.525C114.749 194.985 114.128 195.11 113.668 194.804C113.208 194.499 113.083 193.878 113.388 193.418C121.031 181.914 124.768 169.855 126.248 165.028C127.165 162.037 127.218 160.604 127.091 159.922C127.063 159.774 127.028 159.666 126.992 159.586C126.707 159.931 126.407 160.384 126.208 160.716C125.967 161.12 125.477 161.301 125.031 161.151C124.585 161.001 124.304 160.561 124.356 160.093C124.427 159.453 124.442 158.521 124.29 157.79C124.212 157.419 124.11 157.189 124.023 157.073C123.996 157.037 123.978 157.021 123.971 157.016C123.968 157.016 123.964 157.016 123.959 157.016C122.896 157.016 122.187 157.698 122.01 157.965C121.745 158.363 121.236 158.519 120.795 158.336C120.353 158.154 120.102 157.685 120.196 157.216C120.34 156.495 120.399 155.559 120.234 154.951C120.154 154.652 120.061 154.585 120.056 154.582C120.055 154.581 120.052 154.58 120.047 154.578C120.041 154.576 120.026 154.572 119.999 154.571ZM123.975 157.017C123.975 157.017 123.974 157.017 123.974 157.016L123.975 157.017Z" fill="#F9FAFA"/>
<path fill-rule="evenodd" clip-rule="evenodd" d="M136.63 154.571C136.687 154.568 136.801 154.575 136.99 154.638C137.778 154.901 138.702 155.787 139.584 157.044C140.433 158.255 141.115 159.624 141.474 160.561C141.672 161.077 142.25 161.335 142.766 161.137C143.281 160.939 143.539 160.361 143.341 159.845C143.082 159.17 142.982 158.474 143.017 157.883C143.054 157.271 143.225 156.881 143.387 156.7C143.49 156.585 143.612 156.506 143.921 156.593C144.313 156.703 144.959 157.089 145.832 158.075C148.697 161.309 154.129 166.354 162.639 173.341C163.066 173.692 163.696 173.63 164.046 173.203C164.397 172.776 164.335 172.146 163.908 171.795C155.416 164.823 150.084 159.859 147.329 156.749C146.348 155.641 145.391 154.928 144.461 154.667C143.447 154.383 142.527 154.661 141.896 155.367C141.689 155.598 141.524 155.863 141.395 156.148C141.338 156.063 141.28 155.979 141.221 155.895C140.302 154.585 139.062 153.222 137.624 152.741C136.884 152.493 136.132 152.491 135.497 152.896C134.897 153.279 134.607 153.898 134.464 154.429C134.386 154.716 134.339 155.021 134.316 155.329C133.838 155.139 133.288 155.016 132.67 155.016C131.927 155.016 131.368 155.388 131.004 155.875C130.667 156.325 130.486 156.88 130.381 157.382C130.371 157.431 130.362 157.48 130.353 157.529C130.346 157.525 130.34 157.521 130.334 157.518C130.192 157.429 129.965 157.313 129.68 157.287C129.348 157.258 128.991 157.36 128.716 157.636C128.716 157.636 128.715 157.637 128.713 157.639L128.705 157.646C128.698 157.653 128.688 157.662 128.673 157.675C128.668 157.679 128.659 157.687 128.647 157.697C128.621 157.72 128.583 157.752 128.556 157.776C128.457 157.862 128.327 157.983 128.194 158.145C127.916 158.485 127.688 158.932 127.572 159.554C127.352 160.734 127.531 162.557 128.468 165.615C129.956 170.466 133.761 182.764 141.575 194.525C141.88 194.985 142.501 195.11 142.961 194.804C143.421 194.499 143.546 193.878 143.241 193.418C135.598 181.914 131.861 169.855 130.381 165.028C129.463 162.037 129.411 160.604 129.538 159.922C129.566 159.774 129.601 159.666 129.637 159.586C129.921 159.931 130.222 160.384 130.421 160.716C130.662 161.12 131.152 161.301 131.598 161.151C132.044 161.001 132.325 160.561 132.273 160.093C132.202 159.453 132.187 158.521 132.339 157.79C132.416 157.419 132.519 157.189 132.606 157.073C132.633 157.037 132.651 157.021 132.658 157.016C132.661 157.016 132.665 157.016 132.67 157.016C133.733 157.016 134.442 157.698 134.619 157.965C134.884 158.363 135.392 158.519 135.834 158.336C136.275 158.154 136.526 157.685 136.433 157.216C136.289 156.495 136.23 155.559 136.395 154.951C136.475 154.652 136.568 154.585 136.573 154.582C136.574 154.581 136.577 154.58 136.582 154.578C136.588 154.576 136.603 154.572 136.63 154.571ZM132.654 157.017C132.654 157.017 132.655 157.017 132.655 157.016L132.654 157.017Z" fill="#F9FAFA"/>
<path d="M116.911 133.74C116.987 136.918 116.911 137.988 116.987 141.166C117.012 142.155 117.859 143.091 118.885 143.038C119.911 142.986 120.784 142.195 120.757 141.14C120.682 137.962 120.758 136.892 120.682 133.714C120.656 132.725 119.81 131.789 118.783 131.842C117.757 131.894 116.885 132.685 116.911 133.74Z" fill="#F9FAFA"/>
<path d="M139.494 133.74C139.418 136.918 139.494 137.988 139.418 141.166C139.392 142.155 138.546 143.091 137.52 143.038C136.494 142.986 135.621 142.195 135.647 141.14C135.723 137.962 135.647 136.892 135.723 133.714C135.749 132.725 136.595 131.789 137.621 131.842C138.648 131.894 139.52 132.685 139.494 133.74Z" fill="#F9FAFA"/>
<defs>
<linearGradient id="paint0_linear_4744_86953" x1="132" y1="110.243" x2="132" y2="42.3218" gradientUnits="userSpaceOnUse">
<stop/>
<stop offset="1" stop-opacity="0"/>
</linearGradient>
</defs>
</svg>
