<svg width="48" height="48" viewBox="0 0 48 48" fill="none" xmlns="http://www.w3.org/2000/svg">
<g filter="url(#filter0_b_4753_92356)">
<path fill-rule="evenodd" clip-rule="evenodd" d="M23.9991 25.9856C23.9523 25.9856 23.9124 26.0197 23.9042 26.0658C23.212 29.9732 18.8173 32.9856 13.4991 32.9856C8.49606 32.9856 4.31024 30.3196 3.25549 26.7504C3.07249 26.1312 2.64721 25.5943 2.30394 25.0474C2.11082 24.7397 1.99915 24.3757 1.99915 23.9856V21.9856C1.99915 20.881 2.89458 19.9856 3.99915 19.9856C4.08617 19.9856 4.16721 19.9429 4.21899 19.873C5.52497 18.1087 8.17937 16.9856 13.4991 16.9856C19.3769 16.9856 22.0008 18.3567 23.1473 20.4487C23.3204 20.7647 23.6388 20.9856 23.9991 20.9856C24.3595 20.9856 24.6779 20.7647 24.851 20.4487C25.9975 18.3567 28.6214 16.9856 34.4991 16.9856C39.8189 16.9856 42.4733 18.1087 43.7793 19.873C43.8311 19.9429 43.9121 19.9856 43.9991 19.9856C45.1037 19.9856 45.9991 20.881 45.9991 21.9856V23.9856C45.9991 24.3757 45.8875 24.7397 45.6943 25.0474C45.3511 25.5943 44.9258 26.1312 44.7428 26.7504C43.6881 30.3196 39.5022 32.9856 34.4991 32.9856C29.181 32.9856 24.7863 29.9732 24.094 26.0658C24.0859 26.0197 24.046 25.9856 23.9991 25.9856Z" fill="#F9FAFA"/>
</g>
<path d="M41.9995 24.9856C41.9995 27.747 38.6416 29.9856 34.4995 29.9856C30.3574 29.9856 26.9995 27.747 26.9995 24.9856C26.9995 22.2242 27.9995 19.9856 34.4995 19.9856C40.9995 19.9856 41.9995 22.2242 41.9995 24.9856Z" fill="#F9CC2E"/>
<path d="M20.9995 24.9856C20.9995 27.747 17.6416 29.9856 13.4995 29.9856C9.35738 29.9856 5.99951 27.747 5.99951 24.9856C5.99951 22.2242 6.99951 19.9856 13.4995 19.9856C19.9995 19.9856 20.9995 22.2242 20.9995 24.9856Z" fill="#F9CC2E"/>
<path d="M8.78491 20.2324L11.1593 18.8616L17.6389 30.0845L15.2645 31.4554L8.78491 20.2324Z" fill="white" fill-opacity="0.4"/>
<path d="M28.9991 20.2324L31.3736 18.8616L37.8531 30.0845L35.4787 31.4554L28.9991 20.2324Z" fill="white" fill-opacity="0.4"/>
<defs>
<filter id="filter0_b_4753_92356" x="-0.000854492" y="14.9856" width="48" height="20" filterUnits="userSpaceOnUse" color-interpolation-filters="sRGB">
<feFlood flood-opacity="0" result="BackgroundImageFix"/>
<feGaussianBlur in="BackgroundImageFix" stdDeviation="1"/>
<feComposite in2="SourceAlpha" operator="in" result="effect1_backgroundBlur_4753_92356"/>
<feBlend mode="normal" in="SourceGraphic" in2="effect1_backgroundBlur_4753_92356" result="shape"/>
</filter>
</defs>
</svg>
