<svg width="38" height="38" viewBox="0 0 38 38" fill="none" xmlns="http://www.w3.org/2000/svg">
<g filter="url(#filter0_b_4753_92288)">
<path d="M21.7493 24.9216C20.7638 23.9361 20.7638 22.3383 21.7493 21.3528C22.7348 20.3673 24.3326 20.3673 25.3182 21.3528L31.8611 27.8957C32.8466 28.8812 32.8466 30.4791 31.8611 31.4646C30.8756 32.4501 29.2777 32.4501 28.2922 31.4646L21.7493 24.9216Z" fill="#F9CC2E"/>
</g>
<g filter="url(#filter1_b_4753_92288)">
<path fill-rule="evenodd" clip-rule="evenodd" d="M17.3049 21.1711C19.6591 21.1711 21.5676 19.2626 21.5676 16.9084C21.5676 14.5541 19.6591 12.6456 17.3049 12.6456C14.9506 12.6456 13.0421 14.5541 13.0421 16.9084C13.0421 19.2626 14.9506 21.1711 17.3049 21.1711ZM17.3049 28.2757C23.5829 28.2757 28.6722 23.1864 28.6722 16.9084C28.6722 10.6304 23.5829 5.54102 17.3049 5.54102C11.0268 5.54102 5.9375 10.6304 5.9375 16.9084C5.9375 23.1864 11.0268 28.2757 17.3049 28.2757Z" fill="#F9FAFA"/>
</g>
<path d="M29.7614 4.71448C29.8037 4.53007 30.0663 4.53007 30.1086 4.71448L30.5628 6.69455C30.575 6.748 30.6112 6.79282 30.6609 6.81606L32.2127 7.54241C32.3495 7.60645 32.3495 7.80103 32.2127 7.86507L30.6609 8.59142C30.6112 8.61466 30.575 8.65948 30.5628 8.71293L30.1086 10.693C30.0663 10.8774 29.8037 10.8774 29.7614 10.693L29.3073 8.71293C29.295 8.65948 29.2588 8.61466 29.2092 8.59142L27.6573 7.86507C27.5205 7.80103 27.5205 7.60645 27.6573 7.54241L29.2092 6.81606C29.2588 6.79282 29.295 6.748 29.3073 6.69455L29.7614 4.71448Z" fill="#F9FAFA"/>
<path d="M6.80339 26.0895C6.84568 25.9051 7.10833 25.9051 7.15063 26.0895L7.60474 28.0696C7.617 28.123 7.65319 28.1678 7.70285 28.1911L9.25472 28.9174C9.39154 28.9815 9.39154 29.176 9.25472 29.2401L7.70285 29.9664C7.65319 29.9897 7.617 30.0345 7.60474 30.0879L7.15063 32.068C7.10833 32.2524 6.84568 32.2524 6.80339 32.068L6.34927 30.0879C6.33702 30.0345 6.30083 29.9897 6.25117 29.9664L4.6993 29.2401C4.56247 29.176 4.56247 28.9815 4.6993 28.9174L6.25117 28.1911C6.30083 28.1678 6.33702 28.123 6.34927 28.0696L6.80339 26.0895Z" fill="#F9FAFA"/>
<defs>
<filter id="filter0_b_4753_92288" x="17.8436" y="17.447" width="17.9234" height="17.9234" filterUnits="userSpaceOnUse" color-interpolation-filters="sRGB">
<feFlood flood-opacity="0" result="BackgroundImageFix"/>
<feGaussianBlur in="BackgroundImageFix" stdDeviation="1.58333"/>
<feComposite in2="SourceAlpha" operator="in" result="effect1_backgroundBlur_4753_92288"/>
<feBlend mode="normal" in="SourceGraphic" in2="effect1_backgroundBlur_4753_92288" result="shape"/>
</filter>
<filter id="filter1_b_4753_92288" x="0.395833" y="-0.00065136" width="33.818" height="33.8181" filterUnits="userSpaceOnUse" color-interpolation-filters="sRGB">
<feFlood flood-opacity="0" result="BackgroundImageFix"/>
<feGaussianBlur in="BackgroundImageFix" stdDeviation="2.77083"/>
<feComposite in2="SourceAlpha" operator="in" result="effect1_backgroundBlur_4753_92288"/>
<feBlend mode="normal" in="SourceGraphic" in2="effect1_backgroundBlur_4753_92288" result="shape"/>
</filter>
</defs>
</svg>
