<svg width="18" height="19" viewBox="0 0 18 19" fill="none" xmlns="http://www.w3.org/2000/svg">
<path d="M6.38262 2.3589C6.46447 1.95921 7.03553 1.95921 7.11738 2.3589L8.10245 7.1695C8.12503 7.2798 8.19599 7.37412 8.29572 7.4264L11.7414 9.23269C12.0093 9.3731 12.0093 9.75654 11.7414 9.89695L8.29572 11.7032C8.19599 11.7555 8.12503 11.8498 8.10245 11.9601L7.11738 16.7707C7.03553 17.1704 6.46447 17.1704 6.38262 16.7707L5.39755 11.9601C5.37497 11.8498 5.30401 11.7555 5.20428 11.7032L1.75858 9.89695C1.49072 9.75654 1.49072 9.3731 1.75858 9.23269L5.20428 7.4264C5.30401 7.37412 5.37497 7.2798 5.39755 7.1695L6.38262 2.3589Z" fill="#F9FAFA"/>
<path d="M14.0308 2.27093C14.0842 2.03799 14.4159 2.03799 14.4694 2.27093L14.8733 4.03231C14.8888 4.09981 14.9345 4.15643 14.9973 4.18579L16.4397 4.86091C16.6125 4.9418 16.6125 5.18759 16.4397 5.26848L14.9973 5.9436C14.9345 5.97296 14.8888 6.02958 14.8733 6.09709L14.4694 7.85846C14.4159 8.0914 14.0842 8.0914 14.0308 7.85846L13.6268 6.09709C13.6113 6.02958 13.5656 5.97296 13.5029 5.9436L12.0605 5.26848C11.8876 5.18759 11.8876 4.9418 12.0605 4.86091L13.5029 4.18579C13.5656 4.15643 13.6113 4.09981 13.6268 4.03231L14.0308 2.27093Z" fill="#F9FAFA"/>
<path d="M14.0308 12.7712C14.0842 12.5382 14.4159 12.5382 14.4694 12.7712L14.8733 14.5325C14.8888 14.6001 14.9345 14.6567 14.9973 14.686L16.4397 15.3612C16.6125 15.442 16.6125 15.6878 16.4397 15.7687L14.9973 16.4438C14.9345 16.4732 14.8888 16.5298 14.8733 16.5973L14.4694 18.3587C14.4159 18.5916 14.0842 18.5916 14.0308 18.3587L13.6268 16.5973C13.6113 16.5298 13.5656 16.4732 13.5029 16.4438L12.0605 15.7687C11.8876 15.6878 11.8876 15.442 12.0605 15.3612L13.5029 14.686C13.5656 14.6567 13.6113 14.6001 13.6268 14.5325L14.0308 12.7712Z" fill="#F9FAFA"/>
</svg>
