<svg width="30" height="31" viewBox="0 0 30 31" fill="none" xmlns="http://www.w3.org/2000/svg">
<path d="M11.1255 14.6897C11.1255 15.4491 10.5099 16.0647 9.75049 16.0647C8.9911 16.0647 8.37549 15.4491 8.37549 14.6897C8.37549 13.9303 8.9911 13.3147 9.75049 13.3147C10.5099 13.3147 11.1255 13.9303 11.1255 14.6897Z" fill="#353535"/>
<path d="M16.3755 14.6897C16.3755 15.4491 15.7599 16.0647 15.0005 16.0647C14.2411 16.0647 13.6255 15.4491 13.6255 14.6897C13.6255 13.9303 14.2411 13.3147 15.0005 13.3147C15.7599 13.3147 16.3755 13.9303 16.3755 14.6897Z" fill="#353535"/>
<path d="M21.6255 14.6897C21.6255 15.4491 21.0099 16.0647 20.2505 16.0647C19.4911 16.0647 18.8755 15.4491 18.8755 14.6897C18.8755 13.9303 19.4911 13.3147 20.2505 13.3147C21.0099 13.3147 21.6255 13.9303 21.6255 14.6897Z" fill="#353535"/>
<mask id="path-4-inside-1_3672_55532" fill="white">
<path fill-rule="evenodd" clip-rule="evenodd" d="M4.15293 18.6616C4.58921 20.6935 6.29083 22.1264 8.3093 22.6212C9.76503 22.9779 11.2231 23.2181 12.682 23.3416L13.4296 24.8037C14.1724 26.2564 16.2483 26.2564 16.991 24.8037L17.7596 23.3006C19.0711 23.1684 20.3818 22.9419 21.6907 22.6211C23.7092 22.1264 25.4108 20.6935 25.8471 18.6616C26.381 16.1747 26.3843 13.2042 25.8568 10.7115C25.4208 8.65083 23.6875 7.20493 21.6375 6.72133C17.2196 5.67915 12.7804 5.67915 8.36249 6.72133C6.31247 7.20493 4.57922 8.65083 4.14318 10.7115C3.61571 13.2042 3.61896 16.1747 4.15293 18.6616Z"/>
</mask>
<path d="M8.3093 22.6212L7.83321 24.5637H7.83321L8.3093 22.6212ZM4.15293 18.6616L2.1975 19.0815L4.15293 18.6616ZM12.682 23.3416L14.4627 22.4311L13.9572 21.4424L12.8507 21.3487L12.682 23.3416ZM13.4296 24.8037L11.6489 25.7143L13.4296 24.8037ZM16.991 24.8037L15.2103 23.8932L16.991 24.8037ZM17.7596 23.3006L17.559 21.3107L16.4749 21.42L15.9789 22.3901L17.7596 23.3006ZM21.6907 22.6211L22.1667 24.5637H22.1668L21.6907 22.6211ZM25.8471 18.6616L27.8025 19.0814V19.0814L25.8471 18.6616ZM25.8568 10.7115L27.8135 10.2975L27.8135 10.2975L25.8568 10.7115ZM21.6375 6.72133L22.0967 4.77476V4.77476L21.6375 6.72133ZM8.36249 6.72133L7.90329 4.77476V4.77476L8.36249 6.72133ZM4.14318 10.7115L6.09986 11.1255L4.14318 10.7115ZM8.78539 20.6786C7.33301 20.3227 6.34864 19.3608 6.10836 18.2417L2.1975 19.0815C2.82978 22.0262 5.24866 23.9302 7.83321 24.5637L8.78539 20.6786ZM12.8507 21.3487C11.4977 21.2342 10.1424 21.0112 8.78539 20.6786L7.83321 24.5637C9.38765 24.9446 10.9484 25.202 12.5132 25.3345L12.8507 21.3487ZM15.2103 23.8932L14.4627 22.4311L10.9013 24.2521L11.6489 25.7143L15.2103 23.8932ZM15.2103 23.8932L11.6489 25.7143C13.1344 28.6195 17.2862 28.6195 18.7717 25.7143L15.2103 23.8932ZM15.9789 22.3901L15.2103 23.8932L18.7717 25.7143L19.5403 24.2112L15.9789 22.3901ZM21.2146 20.6786C19.9944 20.9777 18.7757 21.1881 17.559 21.3107L17.9602 25.2906C19.3665 25.1488 20.7692 24.9062 22.1667 24.5637L21.2146 20.6786ZM23.8916 18.2417C23.6514 19.3608 22.667 20.3227 21.2146 20.6786L22.1668 24.5637C24.7513 23.9302 27.1702 22.0262 27.8025 19.0814L23.8916 18.2417ZM23.9001 11.1255C24.3696 13.3441 24.3664 16.0304 23.8916 18.2417L27.8025 19.0814C28.3956 16.319 28.399 13.0643 27.8135 10.2975L23.9001 11.1255ZM21.1783 8.6679C22.6571 9.01675 23.6599 9.99035 23.9001 11.1255L27.8135 10.2975C27.1816 7.31132 24.7179 5.3931 22.0967 4.77476L21.1783 8.6679ZM8.82168 8.6679C12.9376 7.69696 17.0624 7.69696 21.1783 8.6679L22.0967 4.77476C17.3768 3.66134 12.6232 3.66134 7.90329 4.77476L8.82168 8.6679ZM6.09986 11.1255C6.34006 9.99035 7.34285 9.01675 8.82168 8.6679L7.90329 4.77476C5.28209 5.3931 2.81839 7.31131 2.18651 10.2974L6.09986 11.1255ZM6.10836 18.2417C5.63356 16.0305 5.6304 13.3441 6.09986 11.1255L2.18651 10.2974C1.60102 13.0643 1.60435 16.319 2.1975 19.0815L6.10836 18.2417Z" fill="#353535" mask="url(#path-4-inside-1_3672_55532)"/>
</svg>
