<svg width="38" height="38" viewBox="0 0 38 38" fill="none" xmlns="http://www.w3.org/2000/svg">
<rect x="4.75" y="6.92969" width="22.1667" height="25.3333" rx="1.58333" transform="rotate(-7.70515 4.75 6.92969)" fill="#F9CC2E"/>
<rect x="11.0986" y="7.70508" width="22.1667" height="25.3333" rx="1.58333" fill="#F9FAFA"/>
<path d="M12.6816 10.0791C12.6816 9.64276 13.0353 9.28906 13.4716 9.28906H30.8916C31.3279 9.28906 31.6816 9.64276 31.6816 10.0791V27.4991C31.6816 27.9354 31.3279 28.2891 30.8916 28.2891H13.4716C13.0353 28.2891 12.6816 27.9354 12.6816 27.4991V10.0791Z" fill="#3D3D3D"/>
<path fill-rule="evenodd" clip-rule="evenodd" d="M30.098 24.0214C27.2022 22.6 22.4646 21.1641 20.5988 21.1641C18.8675 21.1641 16.2089 22.2459 14.2646 23.0576V26.7057H30.098V24.0214Z" fill="#F9FAFA"/>
<path d="M16.0713 11.6121C16.1142 11.4288 16.3752 11.4288 16.4181 11.6121L16.7132 12.8731C16.7258 12.9267 16.7624 12.9715 16.8124 12.9944L17.8709 13.48C18.0094 13.5435 18.0094 13.7402 17.8709 13.8038L16.8124 14.2893C16.7624 14.3122 16.7258 14.357 16.7132 14.4106L16.4181 15.6716C16.3752 15.855 16.1142 15.855 16.0713 15.6716L15.7762 14.4106C15.7636 14.357 15.727 14.3122 15.677 14.2893L14.6185 13.8038C14.48 13.7402 14.48 13.5435 14.6185 13.48L15.677 12.9944C15.727 12.9715 15.7636 12.9267 15.7762 12.8731L16.0713 11.6121Z" fill="#F9FAFA"/>
<path d="M19.2373 14.7801C19.2802 14.5967 19.5412 14.5967 19.5842 14.7801L19.8793 16.0411C19.8918 16.0947 19.9284 16.1395 19.9784 16.1624L21.0369 16.6479C21.1754 16.7114 21.1754 16.9082 21.0369 16.9717L19.9784 17.4572C19.9284 17.4802 19.8918 17.525 19.8793 17.5786L19.5842 18.8396C19.5412 19.0229 19.2802 19.0229 19.2373 18.8395L18.9422 17.5786C18.9296 17.525 18.893 17.4802 18.843 17.4572L17.7845 16.9717C17.646 16.9082 17.646 16.7114 17.7845 16.6479L18.843 16.1624C18.893 16.1395 18.9296 16.0947 18.9422 16.0411L19.2373 14.7801Z" fill="#F9FAFA"/>
<path d="M29.3066 14.0391C29.3066 15.3507 28.2433 16.4141 26.9316 16.4141C25.62 16.4141 24.5566 15.3507 24.5566 14.0391C24.5566 12.7274 25.62 11.6641 26.9316 11.6641C28.2433 11.6641 29.3066 12.7274 29.3066 14.0391Z" fill="#F9CC2E"/>
</svg>
