<svg width="24" height="24" viewBox="0 0 24 24" fill="none" xmlns="http://www.w3.org/2000/svg">
<path d="M11.7227 6.38461C12.5547 6.38461 13.5977 5.80483 14.2188 5.03179C14.7812 4.33121 15.1914 3.35283 15.1914 2.37444C15.1914 2.24158 15.1797 2.10871 15.1562 2C14.2305 2.03624 13.1172 2.64018 12.4492 3.44946C11.9219 4.06548 11.4414 5.03179 11.4414 6.02225C11.4414 6.1672 11.4648 6.31214 11.4766 6.36046C11.5352 6.37254 11.6289 6.38461 11.7227 6.38461ZM8.79297 21C9.92969 21 10.4336 20.2149 11.8516 20.2149C13.293 20.2149 13.6094 20.9758 14.875 20.9758C16.1172 20.9758 16.9492 19.7921 17.7344 18.6325C18.6133 17.3039 18.9766 15.9994 19 15.939C18.918 15.9148 16.5391 14.9123 16.5391 12.0979C16.5391 9.65798 18.4141 8.5588 18.5195 8.47425C17.2773 6.63827 15.3906 6.58996 14.875 6.58996C13.4805 6.58996 12.3438 7.45963 11.6289 7.45963C10.8555 7.45963 9.83594 6.63827 8.62891 6.63827C6.33203 6.63827 4 8.59504 4 12.2912C4 14.5861 4.86719 17.014 5.93359 18.5842C6.84766 19.9129 7.64453 21 8.79297 21Z" fill="black"/>
</svg>
