<svg width="146" height="138" viewBox="0 0 146 138" fill="none" xmlns="http://www.w3.org/2000/svg">
<path fill-rule="evenodd" clip-rule="evenodd" d="M13.6991 62.2108C14.0536 62.1859 14.321 61.8784 14.2962 61.5238C14.2713 61.1693 13.9638 60.902 13.6092 60.9268C11.1237 61.1007 8.92866 62.5611 7.12157 64.7049C5.31189 66.8519 3.84156 69.7387 2.79712 72.9098C0.714413 79.2332 0.267188 86.8743 2.38796 92.3467C4.64665 98.175 9.09704 101.616 12.9296 103.441C12.5201 104.006 12.1036 104.616 11.8486 105.353C11.5096 106.333 11.4625 107.49 11.864 109.085C12.258 110.651 13.6781 111.368 15.0123 111.676C16.2972 111.973 17.7053 111.945 18.6733 111.826C20.1606 112.328 23.4688 112.392 26.9218 109.602C28.7722 108.106 29.7974 105.985 30.3378 103.992C30.8785 101.999 30.9514 100.073 30.8482 98.885L30.759 97.8577L29.8754 98.3892C28.4607 99.2401 26.3869 100.339 24.497 101.34L24.436 101.373C23.4874 101.875 22.5884 102.352 21.8562 102.754C21.137 103.149 20.5401 103.493 20.221 103.724L20.1614 103.767C19.5086 104.24 18.833 104.729 18.4167 105.403C17.9538 106.153 17.8507 107.044 18.1176 108.225C18.1959 108.572 18.5404 108.79 18.8871 108.711C19.2338 108.633 19.4514 108.288 19.3731 107.942C19.1555 106.978 19.2777 106.459 19.5119 106.079C19.7801 105.645 20.2446 105.296 20.9762 104.766C21.2182 104.591 21.7408 104.286 22.4757 103.882C23.1978 103.486 24.0876 103.014 25.0387 102.51L25.1238 102.465L25.1244 102.465C26.6217 101.671 28.2634 100.801 29.5999 100.04C29.5869 101.049 29.4535 102.336 29.0956 103.655C28.5971 105.493 27.6802 107.334 26.1128 108.6C22.8642 111.225 19.9199 110.94 18.9822 110.569L18.824 110.506L18.6554 110.53C17.7908 110.652 16.4619 110.69 15.3018 110.422C14.1173 110.149 13.3252 109.617 13.1122 108.771C12.7548 107.351 12.828 106.459 13.065 105.774C13.2806 105.151 13.6385 104.657 14.0944 104.029C14.108 104.01 14.1216 103.992 14.1354 103.973C15.5804 104.559 16.8829 104.907 17.8711 105.065C18.2221 105.121 18.552 104.882 18.6081 104.531C18.6641 104.18 18.4251 103.85 18.0741 103.794C14.5822 103.237 6.7565 100.057 3.58811 91.8816C1.60978 86.7767 1.99488 79.46 4.01964 73.3125C5.02893 70.2481 6.43112 67.5212 8.10571 65.5345C9.78289 63.5448 11.6839 62.3517 13.6991 62.2108Z" fill="white"/>
<path d="M131.64 88.8952C145.552 68.0734 147.094 47.1363 142.536 33.2406C138.465 20.8224 123.207 14.8832 110.372 17.3582C97.5372 19.8333 91.5526 24.2213 82.3468 33.5013C82.6666 16.3224 66.3082 1.47841 49.1368 1.01288C31.9541 0.551729 15.877 12.5298 8.78758 28.1844C1.69817 43.839 2.7221 62.3223 8.72295 78.4211C14.7238 94.5198 25.327 108.516 37.0293 121.107C42.81 127.33 56.8223 137.13 65.3485 136.83C82.3468 136.232 115.643 112.836 131.64 88.8952Z" fill="#F9CC2E"/>
<path d="M114.449 71.411C108.561 83.3227 99.9579 93.8693 89.4712 102.065C86.4552 104.424 83.2838 106.586 79.9949 108.549C79.012 109.135 78.894 110.637 79.5355 111.51C80.2636 112.504 81.5258 112.576 82.5121 111.982C94.4186 104.879 104.709 95.0716 112.348 83.5387C114.567 80.1925 116.578 76.7082 118.357 73.1136C119.568 70.6665 115.66 68.964 114.452 71.4033L114.449 71.411Z" fill="white"/>
<path d="M49.9714 63.9955C49.8278 67.3351 49.6863 70.6688 49.5427 74.0085C49.5006 75.0477 50.3227 76.089 51.4031 76.1061C52.4834 76.1233 53.4542 75.3551 53.5007 74.2458C53.6443 70.9062 53.7859 67.5724 53.9294 64.2328C53.9716 63.1935 53.1494 62.1522 52.0691 62.1351C50.9888 62.118 50.0179 62.8861 49.9714 63.9955Z" fill="#161616"/>
<path d="M38.9343 61.5013C38.7907 64.8409 38.6492 68.1747 38.5056 71.5143C38.4635 72.5536 39.2856 73.5949 40.366 73.612C41.4463 73.6291 42.4171 72.861 42.4636 71.7516C42.6072 68.412 42.7488 65.0783 42.8923 61.7387C42.9345 60.6994 42.1123 59.6581 41.032 59.641C39.9517 59.6239 38.9808 60.392 38.9343 61.5013Z" fill="#161616"/>
<path fill-rule="evenodd" clip-rule="evenodd" d="M70.3599 75.3973C70.7049 75.3116 70.915 74.9625 70.8293 74.6176C70.7436 74.2727 70.3945 74.0625 70.0496 74.1482C66.8562 74.9416 61.6646 75.8878 56.4968 76.1429C53.9135 76.2704 51.3519 76.2243 49.057 75.9059C46.7549 75.5864 44.7656 74.9988 43.294 74.0744C39.2928 71.5608 35.8854 70.2694 32.8735 69.9034C29.8494 69.5359 27.2632 70.1064 24.9236 71.2502C22.4706 72.4495 21.009 74.7932 20.3098 77.1734C19.6135 79.5435 19.6351 82.0749 20.2819 83.7759C20.9605 85.5607 22.7167 86.714 24.4948 86.5554C24.9935 86.5109 25.473 86.3671 25.9168 86.1223C26.1629 86.8924 26.6705 87.5173 27.3275 88.0274C28.191 88.6976 29.3435 89.1965 30.5955 89.6164C31.7696 90.0101 33.0837 90.3506 34.4043 90.6929L34.4043 90.6929L34.4044 90.6929L34.4044 90.6929L34.6867 90.7661C36.1124 91.1361 37.5418 91.5142 38.866 91.9765C40.579 92.5745 43.4749 93.3121 46.7163 94.0121C46.8229 94.0686 46.9418 94.0931 47.0591 94.0857C47.8738 94.2596 48.7081 94.4309 49.5492 94.5966C53.883 95.4508 58.4528 96.1709 61.4948 96.3699C61.8495 96.3931 62.1558 96.1244 62.179 95.7697C62.2022 95.4151 61.9335 95.1087 61.5788 95.0855C58.621 94.892 54.1162 94.1848 49.7981 93.3338C49.2417 93.2242 48.6895 93.1123 48.145 92.9991C48.5587 92.2975 48.899 91.4188 49.1828 90.4757C49.6148 89.0403 49.9451 87.3521 50.1842 85.6657C50.6527 82.3617 50.7849 78.9602 50.606 77.3689C52.5205 77.5251 54.5443 77.5279 56.5603 77.4284C61.8264 77.1685 67.1018 76.2068 70.3599 75.3973ZM49.3292 77.2394C49.1786 77.221 49.0289 77.2014 48.8801 77.1808C46.4879 76.8489 44.2973 76.2246 42.6094 75.1643C42.4131 75.041 42.2185 74.9208 42.0256 74.8038C42.1409 76.5286 41.9938 79.6341 41.5651 82.6579C41.326 84.3442 40.9956 86.0325 40.5637 87.4679C40.1772 88.7521 39.686 89.9171 39.0473 90.6777C39.1286 90.7053 39.2095 90.7331 39.2902 90.7613C40.9004 91.3234 43.6578 92.0302 46.7957 92.7123C47.2081 92.1558 47.6016 91.2634 47.9503 90.1048C48.357 88.7532 48.676 87.1339 48.9098 85.485C49.3799 82.1701 49.491 78.8447 49.3199 77.4528C49.3109 77.3796 49.3145 77.3077 49.3292 77.2394ZM37.9397 89.9847C37.8574 90.0685 37.8027 90.1691 37.7755 90.2753C36.8574 90.0024 35.922 89.7569 35.01 89.5202L34.74 89.4502C33.4063 89.1045 32.1341 88.7748 31.0048 88.3961C29.7938 87.99 28.8067 87.5462 28.1168 87.0106C27.4445 86.4888 27.0898 85.9104 27.0454 85.2022C27.0449 85.1955 27.0444 85.1889 27.0438 85.1823C27.6982 84.403 28.1877 83.2918 28.4162 81.8389C28.4714 81.4878 28.2316 81.1584 27.8805 81.1032C27.5293 81.0479 27.1999 81.2878 27.1447 81.6389C26.7296 84.2782 25.4571 85.1773 24.3804 85.2733C23.2245 85.3765 21.9763 84.6107 21.485 83.3185C20.9619 81.9428 20.9064 79.7092 21.5447 77.5362C22.1801 75.3734 23.4647 73.3961 25.4889 72.4065C27.6265 71.3614 29.9637 70.8464 32.7183 71.1812C35.0371 71.4629 37.6788 72.3503 40.7675 74.0714C40.7101 74.1825 40.6843 74.3115 40.7007 74.445C40.8718 75.8369 40.7607 79.1623 40.2907 82.4772C40.0569 84.1261 39.7379 85.7454 39.3311 87.097C38.9162 88.4757 38.4379 89.4773 37.9397 89.9847Z" fill="black"/>
<path fill-rule="evenodd" clip-rule="evenodd" d="M55.2604 77.8236C55.2621 77.8141 55.2636 77.8047 55.2651 77.7952C55.2666 77.7857 55.268 77.7762 55.2694 77.7667L55.3283 77.3919L55.2907 77.386C55.2204 75.0578 51.5255 72.6608 46.6866 71.8998C41.8477 71.1387 37.5955 72.2858 36.8139 74.48L36.7759 74.474L36.2078 78.0861L36.2051 78.1029L36.2025 78.1197L36.1416 78.5072L36.1795 78.5131C36.251 80.841 39.9454 83.2373 44.7836 83.9983C49.6217 84.7592 53.8734 83.6126 54.6559 81.4191L54.694 81.4251L55.2604 77.8236Z" fill="#F9CC2E"/>
<path fill-rule="evenodd" clip-rule="evenodd" d="M53.9903 77.6153L53.9917 77.6069L53.9936 77.5952L53.9954 77.5834L53.9966 77.5751L54.0068 77.5103L54.0042 77.4249C53.9888 76.9172 53.5162 76.0579 52.0823 75.1388C50.722 74.2669 48.7647 73.5295 46.4867 73.1713C44.2087 72.813 42.1195 72.9139 40.5572 73.3262C38.9104 73.7607 38.1968 74.4334 38.0264 74.9119L37.997 74.9944L37.4785 78.291L37.4766 78.3028L37.474 78.3197L37.4634 78.3873L37.466 78.4736C37.4816 78.9815 37.9547 79.8408 39.3885 80.7596C40.7488 81.6314 42.7059 82.3686 44.9835 82.7268C47.2612 83.085 49.35 82.9842 50.9123 82.572C52.5589 82.1377 53.2729 81.4651 53.4437 80.9866L53.4729 80.9045L53.9903 77.6153ZM54.6559 81.4191C53.8734 83.6126 49.6217 84.7592 44.7836 83.9983C39.9454 83.2373 36.251 80.841 36.1795 78.5131L36.1416 78.5072L36.2025 78.1197L36.2051 78.1029L36.2078 78.0861L36.7759 74.474L36.8139 74.48C37.5955 72.2858 41.8477 71.1387 46.6866 71.8998C51.5255 72.6608 55.2204 75.0578 55.2907 77.386L55.3283 77.3919L55.2694 77.7667L55.2651 77.7952L55.2604 77.8236L54.694 81.4251L54.6559 81.4191Z" fill="black"/>
<path fill-rule="evenodd" clip-rule="evenodd" d="M41.8492 74.8584C41.9045 74.5073 42.2339 74.2674 42.585 74.3226L46.6181 74.957C46.8526 74.9938 47.0477 75.1568 47.1258 75.3809C47.2039 75.605 47.1524 75.8539 46.9916 76.0286L45.9947 77.1116C45.754 77.3731 45.3469 77.39 45.0853 77.1493C44.8238 76.9086 44.807 76.5015 45.0477 76.2399L45.2302 76.0416L42.385 75.5941C42.0339 75.5389 41.794 75.2095 41.8492 74.8584Z" fill="black"/>
<path fill-rule="evenodd" clip-rule="evenodd" d="M40.6531 77.3809C40.8049 77.0594 41.1885 76.9219 41.5099 77.0736C42.7935 77.6796 44.3537 78.1617 46.0725 78.432C47.6294 78.6769 49.1166 78.7166 50.43 78.5858C50.7837 78.5506 51.099 78.8087 51.1342 79.1624C51.1694 79.5161 50.9112 79.8313 50.5576 79.8666C49.127 80.009 47.5296 79.9641 45.8725 79.7035C44.0442 79.4159 42.3648 78.9006 40.9604 78.2376C40.639 78.0858 40.5014 77.7023 40.6531 77.3809Z" fill="black"/>
</svg>
