<svg width="18" height="19" viewBox="0 0 18 19" fill="none" xmlns="http://www.w3.org/2000/svg">
<path d="M14.25 8.8147C14.25 12.898 9 16.398 9 16.398C9 16.398 3.75 12.898 3.75 8.8147C3.75 7.42231 4.30312 6.08695 5.28769 5.10239C6.27226 4.11782 7.60761 3.5647 9 3.5647C10.3924 3.5647 11.7277 4.11782 12.7123 5.10239C13.6969 6.08695 14.25 7.42231 14.25 8.8147Z" stroke="#F9FAFA" stroke-width="1.2" stroke-linecap="round" stroke-linejoin="round"/>
<path d="M8.99951 10.5647C9.96601 10.5647 10.7495 9.7812 10.7495 8.8147C10.7495 7.8482 9.96601 7.0647 8.99951 7.0647C8.03301 7.0647 7.24951 7.8482 7.24951 8.8147C7.24951 9.7812 8.03301 10.5647 8.99951 10.5647Z" stroke="#F9FAFA" stroke-width="1.2" stroke-linecap="round" stroke-linejoin="round"/>
</svg>
