<svg width="264" height="212" viewBox="0 0 264 212" fill="none" xmlns="http://www.w3.org/2000/svg">
<path d="M78.6388 10.1902C78.4978 9.09465 79.2717 8.09226 80.3672 7.95129L87.7497 7.00132C88.8452 6.86035 89.8476 7.63417 89.9886 8.72971L111.02 172.172C111.161 173.267 110.387 174.27 109.292 174.411L101.909 175.361C100.814 175.502 99.8113 174.728 99.6703 173.632L78.6388 10.1902Z" fill="#3D3D3D"/>
<path d="M71.4748 19.1928C67.7913 19.6615 63.4675 22.095 61.1977 25.0291L44.8639 46.1814C42.5888 49.1161 41.1884 53.9439 41.6571 57.6273L45.063 84.0959C45.5316 87.7794 47.9652 92.1031 50.9 94.3782L72.0515 110.707C74.9863 112.982 79.8141 114.382 83.4975 113.914L109.966 110.508C113.65 110.039 117.973 107.606 120.248 104.671L136.577 83.5192C138.852 80.5844 140.252 75.7567 139.784 72.0732L136.378 45.6046C135.909 41.9211 133.476 37.5973 130.542 35.3275L109.389 18.9937C106.455 16.7186 101.627 15.3182 97.9434 15.7869L71.4748 19.1928Z" fill="#2C2C2E"/>
<path d="M87.3575 38.7229C84.4534 39.0966 82.3997 41.7569 82.7734 44.661L86.1584 70.9665C86.5321 73.8706 89.1924 75.9243 92.0965 75.5506C95.0006 75.1769 97.0543 72.5167 96.6806 69.6125L93.2956 43.307C92.9219 40.4029 90.2617 38.3492 87.3575 38.7229ZM92.7735 80.8117C89.8693 81.1854 87.8157 83.8457 88.1894 86.7498C88.5631 89.654 91.2233 91.7076 94.1275 91.3339C97.0316 90.9602 99.0853 88.3 98.7116 85.3958C98.3379 82.4917 95.6776 80.438 92.7735 80.8117Z" fill="#3D3D3D"/>
<path d="M232.132 185.025C193.501 173.437 109.067 159.91 31.8208 184.92C28.2708 186.07 25.9163 189.41 25.9163 193.141C25.9163 197.996 29.852 201.932 34.7069 201.932H229.344C234.171 201.932 238.084 198.019 238.084 193.193C238.084 189.44 235.726 186.103 232.132 185.025Z" fill="#2C2C2E"/>
<path d="M217.647 168.665C231.675 158.484 237.699 145.261 238.074 135.145C238.41 126.106 229.929 118.589 221.002 117.117C212.075 115.644 207.137 117.057 198.933 120.874C203.263 109.797 196.203 96.2348 185.167 91.8127C174.121 87.3908 160.809 91.3102 152.451 99.7731C144.092 108.236 140.322 120.482 140.356 132.374C140.389 144.266 143.915 155.897 148.492 166.879C150.752 172.306 157.498 182.031 163.106 183.882C174.286 187.572 201.517 180.371 217.647 168.665Z" fill="#222222"/>
<path d="M163.892 124.08C162.802 126.134 161.714 128.183 160.624 130.237C160.284 130.875 159.424 131.21 158.77 130.84C158.116 130.47 157.804 129.667 158.167 128.986C159.256 126.932 160.345 124.883 161.434 122.829C161.775 122.191 162.634 121.856 163.288 122.226C163.942 122.596 164.254 123.398 163.892 124.08Z" fill="#8D8D8D"/>
<path d="M173.567 127.787C172.478 129.841 171.39 131.89 170.3 133.944C169.96 134.582 169.1 134.917 168.446 134.547C167.792 134.177 167.48 133.374 167.843 132.693C168.932 130.639 170.021 128.59 171.11 126.536C171.45 125.898 172.31 125.563 172.964 125.933C173.618 126.303 173.93 127.105 173.567 127.787Z" fill="#8D8D8D"/>
<path fill-rule="evenodd" clip-rule="evenodd" d="M166.371 139.861C165.953 139.343 165.418 138.913 164.761 138.64C163.687 138.193 162.426 138.222 161.058 138.757C160.15 139.113 159.443 139.666 158.963 140.394C158.488 141.116 158.277 141.949 158.257 142.805C158.218 144.488 158.909 146.369 159.972 148.118C160.432 148.874 161.27 149.885 162.27 150.988C163.284 152.106 164.514 153.371 165.799 154.648C168.37 157.203 171.187 159.83 172.999 161.471C173.408 161.841 174.04 161.81 174.411 161.401C174.782 160.992 174.751 160.359 174.341 159.988C172.547 158.363 169.753 155.757 167.209 153.23C165.937 151.965 164.733 150.727 163.751 149.644C162.754 148.545 162.032 147.657 161.681 147.079C160.719 145.497 160.23 144.001 160.257 142.851C160.27 142.291 160.404 141.843 160.634 141.494C160.859 141.151 161.218 140.843 161.787 140.62C162.784 140.229 163.497 140.28 163.992 140.486C164.496 140.696 164.914 141.125 165.201 141.748C165.347 142.065 165.648 142.283 165.995 142.323C166.338 142.362 166.677 142.222 166.891 141.953L166.894 141.95C166.899 141.944 166.911 141.93 166.929 141.912C166.965 141.874 167.022 141.819 167.096 141.763C167.251 141.644 167.427 141.556 167.604 141.538C167.812 141.516 168.664 141.54 169.822 143.855C169.91 144.031 170.048 144.177 170.218 144.274C170.969 144.706 172.239 145.53 173.787 146.534C174.892 147.251 176.14 148.061 177.444 148.886C180.504 150.824 183.871 152.848 186.105 153.712C186.62 153.912 187.199 153.656 187.398 153.141C187.597 152.625 187.341 152.046 186.826 151.847C184.808 151.066 181.61 149.157 178.514 147.197C177.282 146.417 176.065 145.627 174.965 144.914C173.523 143.98 172.283 143.175 171.473 142.692C170.23 140.337 168.829 139.398 167.395 139.549C166.998 139.59 166.654 139.715 166.371 139.861Z" fill="#3D3D3D"/>
<path fill-rule="evenodd" clip-rule="evenodd" d="M152.194 137.533C152.612 137.015 153.147 136.584 153.804 136.311C154.878 135.864 156.139 135.893 157.507 136.429C158.415 136.784 159.122 137.337 159.602 138.065C160.077 138.788 160.288 139.62 160.308 140.476C160.347 142.16 159.656 144.04 158.593 145.79C158.085 146.624 157.138 147.503 156.045 148.326C154.927 149.167 153.565 150.017 152.131 150.776C150.696 151.535 149.17 152.214 147.723 152.705C146.289 153.191 144.869 153.515 143.666 153.515C143.114 153.515 142.666 153.067 142.666 152.515C142.666 151.963 143.114 151.515 143.666 151.515C144.554 151.515 145.736 151.267 147.08 150.811C148.41 150.36 149.837 149.727 151.195 149.008C152.553 148.29 153.823 147.495 154.842 146.728C155.886 145.942 156.581 145.249 156.884 144.751C157.846 143.168 158.335 141.672 158.308 140.523C158.295 139.962 158.161 139.514 157.931 139.165C157.706 138.822 157.347 138.514 156.778 138.291C155.781 137.901 155.068 137.952 154.573 138.158C154.069 138.367 153.651 138.796 153.364 139.419C153.218 139.736 152.917 139.954 152.57 139.994C152.227 140.034 151.888 139.894 151.674 139.624L151.671 139.622C151.666 139.615 151.654 139.602 151.636 139.583C151.6 139.545 151.543 139.491 151.469 139.434C151.314 139.315 151.138 139.228 150.961 139.209C150.753 139.187 149.901 139.211 148.743 141.526C148.574 141.865 148.227 142.079 147.849 142.079H139.627C139.074 142.079 138.627 141.631 138.627 141.079C138.627 140.527 139.074 140.079 139.627 140.079L147.247 140.079C148.451 137.933 149.796 137.076 151.17 137.22C151.567 137.262 151.911 137.386 152.194 137.533Z" fill="#3D3D3D"/>
</svg>
