<svg width="37" height="37" viewBox="0 0 37 37" fill="none" xmlns="http://www.w3.org/2000/svg">
<path d="M7.7536 23.2475C6.78276 21.211 7.47157 18.9745 9.06645 18.2785C10.3141 17.7341 12.0536 18.1111 12.6471 20.5269C13.2403 18.1111 14.9801 17.7341 16.2277 18.2785C17.8226 18.9745 18.5114 21.211 17.5405 23.2475C16.7999 24.8011 15.001 26.2392 13.803 27.0726C13.1029 27.5597 12.1913 27.5597 11.4911 27.0726C10.2931 26.2392 8.49426 24.8011 7.7536 23.2475Z" stroke="#8D8D8D" stroke-width="2" stroke-linejoin="round"/>
<path d="M20.0681 13.4897C19.0972 11.4532 19.786 9.21674 21.3809 8.52072C22.6286 7.97625 24.368 8.3533 24.9615 10.769C25.5548 8.3533 27.2945 7.97625 28.5422 8.52072C30.137 9.21674 30.8258 11.4532 29.855 13.4897C29.1143 15.0433 27.3154 16.4814 26.1175 17.3148C25.4173 17.8019 24.5057 17.8019 23.8056 17.3148C22.6076 16.4814 20.8087 15.0433 20.0681 13.4897Z" stroke="#8D8D8D" stroke-width="2" stroke-linejoin="round"/>
</svg>
