<svg width="21" height="21" viewBox="0 0 21 21" fill="none" xmlns="http://www.w3.org/2000/svg">
<path fill-rule="evenodd" clip-rule="evenodd" d="M2.9792 0.513788C2.29758 -0.171425 1.19246 -0.171425 0.510847 0.513788C-0.170771 1.199 -0.170771 2.30995 0.510847 2.99516L7.92639 10.4498L0.51821 17.8971C-0.163407 18.5823 -0.163408 19.6933 0.51821 20.3785C1.19983 21.0637 2.30495 21.0637 2.98656 20.3785L10.3947 12.9312L17.8029 20.3785C18.4845 21.0637 19.5897 21.0637 20.2713 20.3785C20.9529 19.6933 20.9529 18.5823 20.2713 17.8971L12.8631 10.4498L20.2786 2.99516C20.9603 2.30995 20.9603 1.199 20.2786 0.513788C19.597 -0.171425 18.4919 -0.171425 17.8103 0.513788L10.3947 7.96845L2.9792 0.513788Z" fill="#F9FAFA"/>
</svg>
