<svg width="48" height="48" viewBox="0 0 48 48" fill="none" xmlns="http://www.w3.org/2000/svg">
<path d="M7.00073 20.5017C7.00073 24.6438 10.1347 28.0017 14.0007 28.0017H33.0007C36.8667 28.0017 40.0007 24.6438 40.0007 20.5017C40.0007 16.3596 36.8667 13.0017 33.0007 13.0017C32.4819 13.0017 31.9763 13.0622 31.4897 13.1769C30.1665 10.1315 27.1317 8.00171 23.5995 8.00171C20.05 8.00171 17.0029 10.1523 15.69 13.2216C15.149 13.0779 14.5832 13.0017 14.0007 13.0017C10.1347 13.0017 7.00073 16.3596 7.00073 20.5017Z" fill="#F9FAFA"/>
<path d="M15.0002 31.001C15.0002 30.4487 15.448 30.001 16.0002 30.001C16.5525 30.001 17.0002 30.4487 17.0002 31.001V34.001C17.0002 34.5533 16.5525 35.001 16.0002 35.001C15.448 35.001 15.0002 34.5533 15.0002 34.001V31.001Z" fill="#8ED6FF"/>
<path d="M19.0007 37.001C19.0007 36.4487 19.4484 36.001 20.0007 36.001C20.553 36.001 21.0007 36.4487 21.0007 37.001V40.001C21.0007 40.5533 20.553 41.001 20.0007 41.001C19.4484 41.001 19.0007 40.5533 19.0007 40.001V37.001Z" fill="#8ED6FF"/>
<path d="M22.9998 31.001C22.9998 30.4487 23.4475 30.001 23.9998 30.001C24.552 30.001 24.9998 30.4487 24.9998 31.001V34.001C24.9998 34.5533 24.552 35.001 23.9998 35.001C23.4475 35.001 22.9998 34.5533 22.9998 34.001V31.001Z" fill="#8ED6FF"/>
<path d="M31.0007 31.001C31.0007 30.4487 31.4484 30.001 32.0007 30.001C32.553 30.001 33.0007 30.4487 33.0007 31.001V34.001C33.0007 34.5533 32.553 35.001 32.0007 35.001C31.4484 35.001 31.0007 34.5533 31.0007 34.001V31.001Z" fill="#8ED6FF"/>
<path d="M27.0002 37.001C27.0002 36.4487 27.448 36.001 28.0002 36.001C28.5525 36.001 29.0002 36.4487 29.0002 37.001V40.001C29.0002 40.5533 28.5525 41.001 28.0002 41.001C27.448 41.001 27.0002 40.5533 27.0002 40.001V37.001Z" fill="#8ED6FF"/>
</svg>
