<svg width="264" height="212" viewBox="0 0 264 212" fill="none" xmlns="http://www.w3.org/2000/svg">
<path fill-rule="evenodd" clip-rule="evenodd" d="M251.553 35.1254C254.427 43.887 253.455 57.0883 244.683 70.2169C234.596 85.3123 213.602 100.064 202.884 100.441C197.508 100.63 188.673 94.4507 185.028 90.5272C177.65 82.5884 170.964 73.7634 167.181 63.6127C163.397 53.4621 162.751 41.8079 167.221 31.9374C171.692 22.0668 181.829 14.5144 192.663 14.8051C202.278 15.0658 211.488 22.4764 213.289 31.7185C212.15 32.9182 211.159 34.0803 210.281 35.3397C210.192 35.4694 210.123 35.6015 210.081 35.7333C209.886 36.3422 210.183 36.9329 210.66 37.2564C211.25 37.6589 212.161 37.681 212.688 36.9262L212.687 36.9301C214.009 35.0337 215.698 33.3232 217.2 31.8612C221.272 28.2815 224.957 26.3291 231.273 25.1112C239.366 23.5506 248.986 27.2955 251.553 35.1254Z" fill="#8D8D8D"/>
<path d="M233.844 59.1937C230.132 66.7043 224.707 73.3541 218.095 78.5217C216.193 80.0093 214.194 81.3724 212.12 82.6098C211.5 82.9797 211.426 83.9266 211.83 84.477C212.289 85.1037 213.085 85.1491 213.707 84.7743C221.215 80.2962 227.703 74.1122 232.519 66.8405C233.919 64.7306 235.186 62.5337 236.308 60.2672C237.072 58.7243 234.608 57.6508 233.846 59.1888L233.844 59.1937Z" fill="#F9FAFA"/>
<path d="M187.528 28.7463C187.437 30.852 187.348 32.954 187.258 35.0597C187.231 35.715 187.749 36.3716 188.431 36.3824C189.112 36.3932 189.724 35.9088 189.753 35.2094C189.844 33.1037 189.933 31.0017 190.023 28.896C190.05 28.2407 189.532 27.5841 188.85 27.5733C188.169 27.5625 187.557 28.0469 187.528 28.7463Z" fill="#161616"/>
<path d="M180.569 28.7463C180.478 30.852 180.389 32.954 180.299 35.0597C180.272 35.715 180.79 36.3716 181.472 36.3824C182.153 36.3932 182.765 35.9088 182.794 35.2094C182.885 33.1037 182.974 31.0017 183.064 28.896C183.091 28.2407 182.573 27.5841 181.891 27.5733C181.21 27.5625 180.598 28.0469 180.569 28.7463Z" fill="#161616"/>
<path fill-rule="evenodd" clip-rule="evenodd" d="M182.976 46.064C182.324 47.3124 182.014 48.6935 182.041 49.4993C182.047 49.6795 181.977 49.8534 181.849 49.9793C181.844 49.9867 181.831 50.0081 181.811 50.0497C181.775 50.1259 181.732 50.2395 181.688 50.3942C181.6 50.7029 181.52 51.1333 181.471 51.6665C181.374 52.7309 181.407 54.1608 181.73 55.7684C182.079 57.507 182.788 61.0335 183.986 64.4747C184.585 66.1951 185.3 67.8754 186.142 69.2912C186.989 70.714 187.936 71.8222 188.979 72.457C189.283 72.6417 189.379 73.0377 189.195 73.3413C189.01 73.6449 188.614 73.7413 188.31 73.5565C187.013 72.767 185.934 71.4587 185.036 69.9493C184.134 68.4327 183.386 66.6648 182.771 64.8979C181.541 61.3669 180.818 57.7645 180.469 56.0256L180.468 56.0218C180.12 54.2911 180.081 52.7363 180.189 51.5493C180.243 50.9568 180.335 50.4448 180.45 50.0419C180.507 49.8408 180.573 49.6563 180.648 49.498C180.678 49.4362 180.712 49.3698 180.753 49.3038C180.776 48.2385 181.158 46.7657 181.835 45.4685C182.557 44.0844 183.714 42.7157 185.337 42.3896C186.245 42.2074 187.067 42.3005 187.525 42.9721C187.729 43.2708 187.804 43.6152 187.825 43.9314C187.846 44.25 187.815 44.5882 187.765 44.9157C187.698 45.3474 187.583 45.8352 187.475 46.2917C187.425 46.5055 187.376 46.7124 187.335 46.9035C187.329 46.9278 187.324 46.9519 187.319 46.9758C187.577 46.8194 187.862 46.6798 188.171 46.5707C189.178 46.2147 190.423 46.1932 191.741 46.9483C192.282 47.2581 192.637 47.8236 192.895 48.4316C193.158 49.0539 193.363 49.825 193.544 50.6741C193.725 51.5272 193.889 52.493 194.062 53.5117L194.065 53.53C194.237 54.5481 194.42 55.6249 194.641 56.7262C195.541 61.2035 197.042 65.8443 200.772 68.2009C201.073 68.3907 201.162 68.7882 200.973 69.0887C200.783 69.3892 200.385 69.4789 200.085 69.2891C195.852 66.6152 194.278 61.455 193.379 56.9797C193.154 55.8591 192.969 54.7662 192.797 53.7527L192.793 53.7268C192.619 52.7012 192.46 51.7636 192.285 50.9419C192.109 50.1163 191.925 49.4412 191.71 48.9338C191.489 48.4122 191.275 48.1643 191.102 48.0652C190.135 47.5113 189.283 47.5427 188.599 47.7843C187.889 48.0353 187.343 48.5218 187.072 48.8747C186.919 49.0751 186.662 49.1671 186.416 49.11C186.17 49.053 185.98 48.8574 185.931 48.6099C185.809 48.005 185.938 47.2681 186.077 46.6306C186.13 46.3868 186.185 46.1525 186.239 45.9258C186.339 45.5008 186.433 45.1025 186.493 44.7189C186.536 44.4355 186.553 44.2016 186.541 44.0164C186.529 43.8286 186.489 43.7373 186.462 43.6976C186.462 43.6975 186.462 43.6974 186.462 43.6971C186.454 43.6852 186.34 43.5011 185.591 43.6515C184.541 43.8625 183.634 44.8028 182.976 46.064Z" fill="#161616"/>
<path fill-rule="evenodd" clip-rule="evenodd" d="M129.744 88.9824C129.769 89.337 129.502 89.6445 129.147 89.6693C127.964 89.7521 126.819 90.455 125.786 91.6811C124.755 92.9041 123.883 94.5939 123.253 96.5064C121.987 100.35 121.756 104.904 122.977 108.054C124.934 113.104 129.776 115.073 131.927 115.417C132.278 115.473 132.517 115.803 132.461 116.154C132.405 116.505 132.075 116.744 131.724 116.688C129.299 116.301 123.956 114.141 121.777 108.519C120.414 105.001 120.707 100.123 122.031 96.1037C122.696 94.0846 123.636 92.2348 124.802 90.8515C125.965 89.4713 127.403 88.5011 129.057 88.3853C129.412 88.3605 129.72 88.6279 129.744 88.9824Z" fill="#161616"/>
<path fill-rule="evenodd" clip-rule="evenodd" d="M140.091 111.508L140.18 112.535C140.248 113.31 140.2 114.552 139.851 115.838C139.503 117.123 138.836 118.513 137.617 119.498C135.419 121.274 133.284 121.285 132.243 120.958C131.616 121.03 130.726 121.042 129.905 120.853C129.036 120.652 128.025 120.165 127.743 119.045C127.482 118.007 127.506 117.229 127.739 116.557C127.93 116.004 128.257 115.556 128.541 115.168C128.584 115.109 128.626 115.051 128.666 114.995C128.874 114.706 129.276 114.64 129.564 114.847C129.853 115.054 129.92 115.456 129.713 115.745C129.663 115.814 129.616 115.879 129.571 115.941C129.282 116.34 129.079 116.62 128.955 116.977C128.825 117.355 128.774 117.868 128.991 118.731C129.092 119.132 129.475 119.433 130.195 119.599C130.889 119.759 131.696 119.737 132.222 119.663L132.391 119.639L132.549 119.702C133.056 119.902 134.822 120.101 136.808 118.497C137.744 117.74 138.302 116.632 138.609 115.501C138.782 114.863 138.869 114.238 138.903 113.7C138.135 114.128 137.257 114.593 136.45 115.021L136.392 115.052C135.792 115.37 135.232 115.666 134.779 115.915C134.313 116.171 133.997 116.356 133.858 116.457C133.386 116.799 133.137 116.991 132.998 117.217C132.893 117.388 132.812 117.647 132.94 118.214C133.018 118.561 132.801 118.905 132.454 118.983C132.107 119.062 131.763 118.844 131.685 118.498C131.507 117.712 131.569 117.082 131.903 116.541C132.191 116.075 132.652 115.741 133.052 115.451C133.069 115.439 133.086 115.427 133.103 115.414C133.319 115.258 133.709 115.034 134.159 114.787C134.623 114.533 135.191 114.231 135.789 113.914L135.823 113.896C137.018 113.263 138.321 112.573 139.207 112.04L140.091 111.508Z" fill="#161616"/>
<path d="M203.494 106.257C212.266 93.1283 213.238 79.927 210.364 71.1654C207.797 63.3355 198.177 59.5907 190.084 61.1513C181.992 62.7119 178.218 65.4786 172.414 71.3298C172.615 60.4982 162.301 51.1387 151.474 50.8452C140.64 50.5544 130.503 58.1068 126.033 67.9774C121.563 77.848 122.209 89.5021 125.992 99.6528C129.776 109.803 136.461 118.628 143.84 126.567C147.485 130.491 156.32 136.67 161.696 136.481C172.414 136.104 193.408 121.352 203.494 106.257Z" fill="#F9CC2E"/>
<path d="M171.498 72.9711C172.859 71.0206 174.606 69.2667 176.139 67.7777C177.24 66.7061 178.175 65.8422 179.075 65.0572C179.461 64.7188 179.627 64.2546 179.532 63.7796C179.425 63.2583 179.023 62.8091 178.511 62.6367C178.038 62.4769 177.542 62.579 177.148 62.9188C176.199 63.7441 175.226 64.647 174.082 65.7602C172.065 67.7316 170.445 69.4405 169.092 71.3806C169.003 71.5103 168.935 71.6424 168.893 71.7743C168.698 72.3832 168.994 72.9738 169.471 73.2973C170.061 73.6999 170.972 73.722 171.5 72.9672L171.498 72.9711Z" fill="#8D8D8D"/>
<path d="M192.655 95.2339C188.943 102.745 183.519 109.394 176.906 114.562C175.005 116.05 173.005 117.413 170.931 118.65C170.312 119.02 170.237 119.967 170.642 120.517C171.101 121.144 171.897 121.189 172.519 120.815C180.026 116.336 186.514 110.152 191.331 102.881C192.73 100.771 193.998 98.5739 195.12 96.3074C195.883 94.7645 193.419 93.691 192.658 95.229L192.655 95.2339Z" fill="#F9FAFA"/>
<path d="M152.001 90.5588C151.91 92.6645 151.821 94.7666 151.73 96.8723C151.704 97.5275 152.222 98.1841 152.903 98.1949C153.584 98.2057 154.197 97.7214 154.226 97.0219C154.316 94.9162 154.406 92.8142 154.496 90.7085C154.523 90.0532 154.004 89.3967 153.323 89.3859C152.642 89.3751 152.03 89.8594 152.001 90.5588Z" fill="#161616"/>
<path d="M145.042 88.9846C144.951 91.0903 144.862 93.1923 144.771 95.298C144.745 95.9533 145.263 96.6099 145.944 96.6207C146.625 96.6315 147.238 96.1471 147.267 95.4477C147.357 93.342 147.447 91.24 147.537 89.1343C147.564 88.479 147.045 87.8224 146.364 87.8116C145.683 87.8008 145.071 88.2852 145.042 88.9846Z" fill="#161616"/>
<path fill-rule="evenodd" clip-rule="evenodd" d="M164.913 97.9778C165.258 97.8921 165.468 97.543 165.382 97.1981C165.297 96.8532 164.947 96.643 164.603 96.7287C162.601 97.226 159.343 97.8198 156.103 97.9797C154.483 98.0596 152.884 98.0303 151.456 97.8322C150.021 97.6331 148.804 97.2693 147.916 96.7116C145.374 95.1147 143.192 94.2833 141.248 94.047C139.292 93.8092 137.615 94.1792 136.102 94.9186C134.477 95.7135 133.522 97.259 133.07 98.7999C132.62 100.331 132.627 101.982 133.058 103.114C133.52 104.331 134.722 105.13 135.958 105.019C136.218 104.996 136.468 104.935 136.705 104.836C136.897 105.259 137.205 105.609 137.577 105.897C138.153 106.345 138.91 106.67 139.707 106.937C140.456 107.188 141.292 107.405 142.123 107.62L142.303 107.667C143.203 107.9 144.095 108.136 144.919 108.424C146.006 108.804 147.829 109.268 149.863 109.708C149.953 109.75 150.05 109.771 150.147 109.769C150.652 109.877 151.168 109.983 151.688 110.085C154.423 110.624 157.317 111.081 159.25 111.207C159.605 111.23 159.911 110.962 159.934 110.607C159.958 110.252 159.689 109.946 159.334 109.923C157.485 109.802 154.656 109.358 151.937 108.822C151.693 108.774 151.45 108.725 151.21 108.676C151.415 108.268 151.586 107.802 151.73 107.323C152.007 106.402 152.217 105.325 152.369 104.255C152.64 102.341 152.736 100.362 152.661 99.2483C153.797 99.3266 154.986 99.3235 156.166 99.2652C159.505 99.1005 162.847 98.4912 164.913 97.9778ZM151.358 99.1178C151.332 99.1143 151.306 99.1107 151.279 99.1071C149.762 98.8965 148.349 98.4989 147.248 97.8114C147.276 98.9624 147.173 100.685 146.935 102.359C146.784 103.429 146.573 104.506 146.296 105.427C146.091 106.108 145.833 106.762 145.498 107.262C146.49 107.594 148.081 108 149.892 108.397C150.097 108.076 150.305 107.591 150.497 106.952C150.749 106.115 150.948 105.107 151.095 104.074C151.385 102.028 151.454 99.9917 151.358 99.1178ZM144.244 106.778C144.224 106.799 144.205 106.821 144.188 106.843C143.666 106.692 143.139 106.554 142.626 106.421L142.458 106.377L142.458 106.377L142.458 106.377C141.615 106.159 140.82 105.953 140.117 105.717C139.361 105.463 138.769 105.194 138.366 104.881C138.009 104.603 137.831 104.319 137.789 103.991C138.201 103.467 138.502 102.748 138.644 101.846C138.699 101.494 138.459 101.165 138.108 101.11C137.757 101.055 137.428 101.294 137.372 101.646C137.121 103.242 136.378 103.69 135.843 103.737C135.229 103.792 134.536 103.381 134.261 102.657C133.954 101.85 133.913 100.496 134.305 99.1627C134.693 97.8392 135.471 96.6602 136.668 96.0749C137.978 95.4342 139.406 95.1197 141.093 95.3247C142.477 95.4929 144.061 96.0138 145.918 97.0286C145.913 97.0765 145.913 97.1258 145.919 97.1758C146.023 98.0226 145.956 100.095 145.661 102.178C145.515 103.211 145.316 104.219 145.064 105.056C144.804 105.919 144.515 106.502 144.244 106.778Z" fill="#161616"/>
<path fill-rule="evenodd" clip-rule="evenodd" d="M143.704 97.1688C144.197 95.7854 146.878 95.0622 149.929 95.542C152.98 96.0219 155.31 97.5332 155.354 99.0011L155.378 99.0049L154.978 101.548L154.954 101.544C154.461 102.928 151.78 103.651 148.729 103.171C145.678 102.691 143.348 101.18 143.304 99.7117L143.28 99.708L143.317 99.4751L143.32 99.4539L143.324 99.4328L143.637 97.4381C143.638 97.4318 143.639 97.4256 143.64 97.4193C143.641 97.4131 143.642 97.4069 143.643 97.4006L143.68 97.1651L143.704 97.1688Z" fill="#F9CC2E"/>
<path fill-rule="evenodd" clip-rule="evenodd" d="M143.324 99.4328L143.637 97.4381L143.64 97.4193L143.643 97.4006L143.68 97.1651L143.704 97.1688C144.197 95.7854 146.878 95.0622 149.929 95.542C152.98 96.0219 155.31 97.5332 155.354 99.0011L155.378 99.0049L154.978 101.548L154.954 101.544C154.461 102.928 151.78 103.651 148.729 103.171C145.678 102.691 143.348 101.18 143.304 99.7117L143.28 99.708L143.317 99.4751L143.32 99.4539L143.324 99.4328ZM144.59 99.6635L144.591 99.673C144.593 99.7505 144.718 100.173 145.584 100.728C146.376 101.236 147.545 101.682 148.929 101.9C150.313 102.117 151.563 102.052 152.473 101.812C153.467 101.549 153.716 101.185 153.742 101.112L153.745 101.102L154.068 99.0508L154.068 99.04C154.065 98.9624 153.94 98.5396 153.074 97.9846C152.282 97.4768 151.113 97.0312 149.729 96.8135C148.345 96.5958 147.096 96.6611 146.186 96.9012C145.191 97.1636 144.943 97.5276 144.917 97.6007L144.913 97.6097L144.912 97.618L144.912 97.6193L144.912 97.6206L144.91 97.6293L144.594 99.6426L144.592 99.6539L144.59 99.6635Z" fill="#161616"/>
<path fill-rule="evenodd" clip-rule="evenodd" d="M146.645 97.3708C146.7 97.0197 147.029 96.7798 147.38 96.835L149.923 97.235C150.158 97.2718 150.353 97.4348 150.431 97.6589C150.509 97.883 150.458 98.1319 150.297 98.3066L149.668 98.9895C149.428 99.251 149.02 99.2678 148.759 99.0271C148.561 98.8446 148.503 98.5663 148.592 98.3285L147.18 98.1065C146.829 98.0513 146.589 97.7219 146.645 97.3708Z" fill="#161616"/>
<path fill-rule="evenodd" clip-rule="evenodd" d="M145.91 98.8961C146.061 98.5747 146.445 98.4371 146.766 98.5889C147.553 98.9604 148.515 99.2582 149.579 99.4255C150.542 99.577 151.459 99.601 152.266 99.5207C152.619 99.4855 152.935 99.7437 152.97 100.097C153.005 100.451 152.747 100.766 152.393 100.802C151.47 100.893 150.442 100.864 149.379 100.697C148.206 100.512 147.125 100.181 146.217 99.7528C145.896 99.6011 145.758 99.2175 145.91 98.8961Z" fill="#161616"/>
<path opacity="0.28" fill-rule="evenodd" clip-rule="evenodd" d="M107.797 13.1247L87.5756 15.4754C84.9796 15.7772 83.0216 17.9761 83.0216 20.5895V35.3118C88.3724 33.2468 93.9799 30.2356 99.0861 25.3985C103.056 21.6377 105.811 17.4277 107.797 13.1247ZM83.0216 67.232V44.1603C84.8498 43.6508 86.5963 43.2189 88.2132 42.819L88.2245 42.8162L88.2438 42.8114C88.6678 42.7066 89.0828 42.6039 89.488 42.5026C97.8283 40.4176 103.513 38.7001 108.235 34.2262C112.51 30.1772 113.978 24.7733 115.843 14.4454C115.926 13.9849 116.01 13.5164 116.095 13.0402L116.099 13.0189L116.101 13.0066L116.102 13.0037C116.153 12.7189 116.204 12.4314 116.256 12.1413L139.071 9.48901C138.489 12.1699 137.987 14.949 137.462 17.86L137.327 18.6069C135.61 28.1163 133.364 40.5621 123.283 50.1114C113.965 58.9384 102.978 61.6849 94.9278 63.6972L94.7947 63.7304C89.8278 64.9721 86.0637 65.952 83.0216 67.232ZM83.0216 139.206V85.7733C84.297 84.0141 85.8036 82.2773 87.5919 80.598C96.5057 72.2272 107.559 69.4938 115.818 67.4516L115.818 67.4515C116.281 67.3369 116.736 67.2245 117.181 67.1133C126.303 64.8352 132.785 62.9076 138.179 57.8034C143.139 53.1098 144.781 46.8602 146.817 35.5982C146.909 35.089 147.001 34.5714 147.096 34.0459L147.096 34.0457C148.453 26.4705 150.105 17.2469 154.314 7.71698L182.448 4.44635C180.836 5.9814 179.461 7.56902 178.321 9.2721C172.138 18.5125 170.431 27.9654 168.457 38.8941L168.349 39.4904L168.31 39.7054C166.422 50.1532 164.013 63.4815 153.219 73.6963C143.213 83.1655 131.406 86.1141 122.573 88.3197L122.483 88.3424C112.893 90.7373 107.102 92.2934 102.571 96.5484C98.8177 100.073 98.2291 103.423 96.8649 111.189L96.7303 111.955C95.3446 119.826 93.0919 129.89 83.0216 139.206ZM112.677 176.21L91.9134 169.192C93.2146 166.164 93.8904 162.915 94.5423 159.2C94.654 158.563 94.7649 157.898 94.8799 157.209L94.8799 157.208L94.88 157.208L94.88 157.208C96.2101 149.231 98.093 137.938 108.33 128.293C118.273 118.926 130.619 115.859 140.18 113.484L140.18 113.484C140.692 113.357 141.196 113.232 141.691 113.108C152.177 110.48 160.052 108.176 166.62 101.94C172.793 96.0799 174.743 88.2914 177.078 75.3313C177.142 74.9742 177.207 74.6138 177.272 74.2504L177.392 73.5803V73.5802C179.537 61.5742 182.26 46.3322 192.162 31.4873C195.44 26.572 199.384 22.5011 203.496 19.0258V57.7841C201.286 64.3554 200.061 71.1608 198.758 78.4022L198.758 78.4023L198.758 78.4024L198.612 79.2113L198.594 79.314C196.404 91.4665 193.716 106.387 181.686 117.809C170.474 128.453 157.226 131.773 147.016 134.331L147.008 134.333C136.053 137.077 128.927 138.951 123.335 144.219C118.592 148.688 117.819 153.109 116.293 161.847L116.286 161.887C116.223 162.245 116.159 162.61 116.094 162.982C115.384 167.03 114.483 171.532 112.677 176.21ZM147.874 188.108L126.889 181.014C128.217 173.982 130.744 165.073 138.998 157.315C148.377 148.498 160.014 145.616 168.861 143.424C169.347 143.304 169.824 143.186 170.292 143.069C180.032 140.634 187.144 138.537 193.069 132.925C198.577 127.708 200.358 120.769 202.529 108.747C202.624 108.221 202.719 107.688 202.816 107.147L202.823 107.105C203.038 105.903 203.26 104.665 203.496 103.394V152.688C194.07 159.679 183.758 162.257 175.653 164.283L175.653 164.283L175.599 164.297C165.391 166.849 158.995 168.547 153.984 173.258C149.981 177.021 149.184 180.677 147.874 188.108ZM197.04 204.715C196.927 204.684 196.813 204.65 196.699 204.612L174.465 197.096C175.886 194.842 177.675 192.602 179.95 190.464C187.347 183.511 196.315 180.72 203.496 178.881V199.734C203.496 200.487 203.338 201.192 203.058 201.825C200.706 202.641 198.754 203.541 197.04 204.715Z" fill="#F9FAFA"/>
<path fill-rule="evenodd" clip-rule="evenodd" d="M197.64 1.70874C201.272 1.28653 204.46 4.12535 204.46 7.78168V199.735C204.46 203.919 200.352 206.867 196.389 205.527L86.2108 168.284C83.7268 167.444 82.0548 165.114 82.0548 162.492V20.59C82.0548 17.4866 84.38 14.8755 87.4626 14.5171L197.64 1.70874ZM202.53 7.78168C202.53 5.27998 200.348 3.33763 197.863 3.62651L87.6856 16.4349C85.5764 16.6801 83.9855 18.4666 83.9855 20.59V162.492C83.9855 164.286 85.1295 165.881 86.8291 166.455L197.007 203.698C199.719 204.615 202.53 202.598 202.53 199.735V7.78168Z" fill="#666666"/>
<path d="M112.365 118.612C112.365 142.924 92.6572 162.632 68.3459 162.632C44.0345 162.632 24.3263 142.924 24.3263 118.612C24.3263 94.3011 44.0345 74.5928 68.3459 74.5928C92.6572 74.5928 112.365 94.3011 112.365 118.612Z" fill="#F9FAFA"/>
<path fill-rule="evenodd" clip-rule="evenodd" d="M15.8537 134.266C16.4758 134.61 16.7013 135.394 16.3574 136.016C15.8425 136.947 15.7025 138.228 16.0797 139.151C16.2561 139.582 16.541 139.932 16.9681 140.173C17.4039 140.419 18.078 140.601 19.1031 140.529C21.906 140.331 23.9897 141.347 25.1241 143.071C26.2206 144.739 26.2859 146.862 25.5151 148.614C25.2289 149.265 24.4694 149.561 23.8187 149.274C23.168 148.988 22.8725 148.229 23.1587 147.578C23.6162 146.538 23.5404 145.348 22.9734 144.486C22.4443 143.682 21.3422 142.952 19.2842 143.097C17.8788 143.196 16.6752 142.963 15.7035 142.415C14.7231 141.862 14.0706 141.039 13.6969 140.125C12.9738 138.356 13.2829 136.256 14.1045 134.77C14.4484 134.148 15.2316 133.923 15.8537 134.266Z" fill="#EFC0FF"/>
<path fill-rule="evenodd" clip-rule="evenodd" d="M23.2945 117.583C21.4463 117.583 19.948 119.081 19.948 120.929C19.948 122.777 21.4463 124.276 23.2945 124.276C25.1427 124.276 26.641 122.777 26.641 120.929C26.641 119.081 25.1427 117.583 23.2945 117.583ZM17.3737 120.929C17.3737 117.659 20.0245 115.008 23.2945 115.008C26.5644 115.008 29.2152 117.659 29.2152 120.929C29.2152 124.199 26.5644 126.85 23.2945 126.85C20.0245 126.85 17.3737 124.199 17.3737 120.929Z" fill="#EFC0FF"/>
<path d="M23.2965 100.335C23.2965 101.473 22.3745 102.395 21.2371 102.395C20.0998 102.395 19.1777 101.473 19.1777 100.335C19.1777 99.1979 20.0998 98.2759 21.2371 98.2759C22.3745 98.2759 23.2965 99.1979 23.2965 100.335Z" fill="#F9CC2E"/>
<path d="M43.3717 73.5634C43.3717 74.7008 42.4496 75.6228 41.3123 75.6228C40.1749 75.6228 39.2529 74.7008 39.2529 73.5634C39.2529 72.426 40.1749 71.504 41.3123 71.504C42.4496 71.504 43.3717 72.426 43.3717 73.5634Z" fill="#F9CC2E"/>
<path d="M35.5801 110.981L31.7039 112.019L32.7425 108.143L35.5801 110.981Z" fill="#666666"/>
<path d="M53.5954 71.8522L49.7193 72.8908L50.7579 69.0147L53.5954 71.8522Z" fill="#EFC0FF"/>
<path d="M116.479 159.028C116.479 160.166 115.557 161.088 114.42 161.088C113.282 161.088 112.36 160.166 112.36 159.028C112.36 157.891 113.282 156.969 114.42 156.969C115.557 156.969 116.479 157.891 116.479 159.028Z" fill="#F9CC2E"/>
<path fill-rule="evenodd" clip-rule="evenodd" d="M125.55 166.702C126.011 167.243 125.945 168.056 125.403 168.516L117.068 175.601C116.526 176.062 115.714 175.996 115.253 175.454C114.793 174.913 114.859 174.1 115.4 173.64L123.736 166.555C124.278 166.094 125.09 166.16 125.55 166.702Z" fill="#EFC0FF"/>
<path d="M132.881 151.654L129.005 152.692L130.044 148.816L132.881 151.654Z" fill="#EFC0FF"/>
<path fill-rule="evenodd" clip-rule="evenodd" d="M47.1835 95.8813C47.2285 96.0201 47.2655 96.3384 47.2679 96.8441C47.2703 97.3274 47.242 97.9112 47.1952 98.5283C47.1017 99.7613 46.9372 101.089 46.8144 101.933C46.7976 102.048 46.8124 102.165 46.8571 102.273L52.3736 115.524C52.5102 115.852 52.887 116.007 53.2151 115.871C53.5432 115.734 53.6985 115.357 53.5619 115.029L48.1134 101.942C48.2358 101.075 48.3887 99.812 48.4786 98.6257C48.5267 97.9914 48.5576 97.3696 48.5551 96.8378C48.5526 96.3316 48.521 95.8264 48.4048 95.4749C48.2419 94.9816 47.8603 94.7134 47.4437 94.6194C47.0689 94.5347 46.6651 94.5859 46.3183 94.6688C45.8835 94.7727 45.4312 94.9534 45.037 95.1427C44.8065 94.6172 44.5084 93.9938 44.1758 93.3947C43.931 92.9538 43.662 92.516 43.3818 92.1367C43.1075 91.7652 42.7957 91.4127 42.4574 91.1772C42.1184 90.9411 41.692 90.7865 41.2535 90.9463C40.8442 91.0954 40.6294 91.4485 40.5173 91.7127C40.4946 91.7661 40.4739 91.8212 40.4549 91.8777C40.0945 91.618 39.5699 91.3908 38.9874 91.6198C38.3169 91.8834 38.1183 92.523 38.0705 92.9814C38.0042 92.9526 37.9373 92.9252 37.8702 92.8995C37.615 92.8019 37.3272 92.718 37.0421 92.6955C36.7636 92.6735 36.4058 92.7045 36.0997 92.9328C35.7064 93.2261 35.5993 93.7047 35.5656 94.0624C35.529 94.4514 35.5617 94.9075 35.6214 95.3736C35.7004 95.9916 35.8408 96.718 35.9806 97.4409C36.0496 97.798 36.1185 98.1543 36.1797 98.4962C36.4843 100.197 38.3354 113.97 39.2258 120.667C39.2726 121.019 39.5962 121.267 39.9486 121.22C40.3009 121.173 40.5485 120.849 40.5017 120.497C39.615 113.828 37.7581 100.008 37.4467 98.2693C37.3776 97.8835 37.3042 97.5046 37.2331 97.1373C37.0986 96.4423 36.9721 95.7891 36.8981 95.2103C36.8421 94.7725 36.824 94.4287 36.8471 94.1829C36.8571 94.0769 36.8724 94.0127 36.8839 93.9767C36.8985 93.9764 36.9173 93.9768 36.9408 93.9787C37.056 93.9877 37.2155 94.0272 37.4103 94.1017C37.7979 94.25 38.2065 94.4908 38.4593 94.6669C38.6836 94.8231 38.9821 94.8205 39.2037 94.6606C39.4253 94.5006 39.5217 94.2181 39.4441 93.9561C39.3811 93.743 39.3253 93.4141 39.3486 93.1371C39.3601 93.0009 39.388 92.9131 39.4141 92.8645C39.4342 92.8272 39.4467 92.8222 39.4583 92.8176C39.4586 92.8175 39.4589 92.8174 39.4592 92.8173C39.4651 92.8149 39.4807 92.8084 39.5309 92.8256C39.5942 92.8473 39.6861 92.9 39.7991 92.9992C40.0276 93.1999 40.2341 93.4946 40.3479 93.7034C40.4907 93.9655 40.795 94.095 41.0828 94.0162C41.3707 93.9374 41.5667 93.671 41.5561 93.3727C41.542 92.9725 41.5867 92.491 41.7006 92.219C41.7074 92.2235 41.7145 92.2283 41.722 92.2335C41.8907 92.351 42.1041 92.5732 42.3465 92.9014C42.583 93.2215 42.8222 93.6082 43.0505 94.0195C43.5074 94.8424 43.8987 95.7239 44.1167 96.2786C44.1858 96.4542 44.3285 96.5907 44.5071 96.6519C44.6856 96.7131 44.882 96.6928 45.0443 96.5964C45.4614 96.3487 46.0874 96.0473 46.6174 95.9207C46.8884 95.856 47.0668 95.8538 47.1601 95.8749C47.1702 95.8771 47.1779 95.8794 47.1835 95.8813ZM41.6007 92.1669C41.6008 92.1671 41.6029 92.1678 41.6069 92.1684C41.6027 92.167 41.6007 92.1667 41.6007 92.1669ZM41.7521 92.1228C41.7532 92.1217 41.7537 92.1211 41.7537 92.121L41.7521 92.1228Z" fill="#161616"/>
<path fill-rule="evenodd" clip-rule="evenodd" d="M44.4263 95.3636C44.7563 95.2316 45.1309 95.3922 45.2629 95.7222L45.7777 97.0093C45.9097 97.3393 45.7492 97.7138 45.4192 97.8458C45.0892 97.9778 44.7147 97.8173 44.5827 97.4873L44.0678 96.2002C43.9358 95.8702 44.0963 95.4956 44.4263 95.3636Z" fill="#161616"/>
<path d="M120.088 142.296C128.86 129.167 129.832 115.966 126.958 107.204C124.391 99.3744 114.771 95.6295 106.678 97.1901C98.5854 98.7507 94.812 101.517 89.0075 107.369C89.2092 96.537 78.8949 87.1775 68.0679 86.884C57.2338 86.5932 47.0968 94.1457 42.6268 104.016C38.1568 113.887 38.8024 125.541 42.586 135.692C46.3697 145.842 53.0553 154.667 60.4338 162.606C64.0787 166.53 72.9137 172.709 78.2897 172.52C89.0075 172.143 110.002 157.391 120.088 142.296Z" fill="#EFC0FF"/>
<path d="M88.0921 109.01C89.4522 107.059 91.1999 105.306 92.733 103.817C93.8336 102.745 94.7683 101.881 95.669 101.096C96.0544 100.758 96.2202 100.293 96.1253 99.8184C96.0192 99.2971 95.6171 98.8479 95.1048 98.6755C94.6319 98.5157 94.1358 98.6178 93.7413 98.9576C92.793 99.783 91.8199 100.686 90.6756 101.799C88.6591 103.77 87.0384 105.479 85.6859 107.42C85.5968 107.549 85.5286 107.681 85.4864 107.813C85.2916 108.422 85.5878 109.013 86.0647 109.336C86.6549 109.739 87.5661 109.761 88.0933 109.006L88.0921 109.01Z" fill="#F9FAFA"/>
<path d="M109.249 131.273C105.537 138.783 100.113 145.433 93.5005 150.601C91.5988 152.088 89.5992 153.452 87.5255 154.689C86.9057 155.059 86.8313 156.006 87.2358 156.556C87.6949 157.183 88.4907 157.228 89.1126 156.853C96.6199 152.375 103.108 146.191 107.925 138.92C109.324 136.81 110.592 134.613 111.713 132.346C112.477 130.803 110.013 129.73 109.252 131.268L109.249 131.273Z" fill="#F9FAFA"/>
<path fill-rule="evenodd" clip-rule="evenodd" d="M107.6 112.951C107.484 113.039 107.272 113.279 106.981 113.693C106.703 114.088 106.392 114.584 106.078 115.117C105.45 116.182 104.827 117.365 104.445 118.128C104.393 118.232 104.314 118.32 104.216 118.383L92.117 126.106C91.8174 126.297 91.4195 126.209 91.2282 125.909C91.037 125.61 91.1249 125.212 91.4245 125.021L103.374 117.393C103.769 116.612 104.365 115.488 104.969 114.463C105.292 113.915 105.622 113.387 105.928 112.952C106.219 112.538 106.534 112.142 106.83 111.92C107.246 111.608 107.712 111.606 108.108 111.767C108.464 111.911 108.766 112.184 109.003 112.45C109.3 112.784 109.568 113.191 109.784 113.571C110.273 113.272 110.874 112.931 111.489 112.629C111.942 112.407 112.413 112.201 112.86 112.05C113.297 111.902 113.754 111.791 114.167 111.791C114.58 111.791 115.018 111.908 115.287 112.289C115.537 112.646 115.512 113.058 115.453 113.339C115.441 113.396 115.427 113.453 115.41 113.51C115.854 113.503 116.414 113.616 116.762 114.137C117.161 114.736 116.959 115.375 116.736 115.778C116.807 115.793 116.877 115.808 116.947 115.826C117.212 115.891 117.496 115.987 117.743 116.131C117.984 116.272 118.26 116.502 118.381 116.865C118.536 117.33 118.351 117.784 118.174 118.097C117.982 118.437 117.694 118.793 117.379 119.141C116.961 119.603 116.431 120.119 115.903 120.632C115.642 120.886 115.382 121.139 115.137 121.385C113.914 122.607 104.526 132.852 99.9685 137.839C99.7288 138.101 99.3217 138.12 99.0593 137.88C98.7969 137.64 98.7786 137.233 99.0184 136.971C103.557 132.004 112.977 121.724 114.226 120.474C114.504 120.197 114.78 119.928 115.048 119.667C115.556 119.174 116.033 118.71 116.425 118.277C116.721 117.95 116.932 117.678 117.053 117.463C117.106 117.371 117.13 117.309 117.141 117.273C117.129 117.265 117.114 117.254 117.093 117.242C116.994 117.184 116.84 117.125 116.638 117.075C116.235 116.975 115.762 116.939 115.454 116.939C115.18 116.939 114.937 116.767 114.846 116.509C114.756 116.251 114.838 115.964 115.052 115.793C115.225 115.655 115.459 115.417 115.598 115.176C115.666 115.057 115.694 114.969 115.7 114.915C115.705 114.873 115.698 114.861 115.691 114.851C115.69 114.851 115.69 114.85 115.69 114.85C115.687 114.845 115.677 114.831 115.627 114.816C115.562 114.798 115.457 114.788 115.307 114.805C115.005 114.839 114.667 114.963 114.454 115.07C114.187 115.203 113.864 115.135 113.673 114.906C113.481 114.677 113.473 114.347 113.652 114.108C113.892 113.787 114.131 113.367 114.192 113.078C114.184 113.078 114.176 113.078 114.167 113.078C113.961 113.078 113.659 113.139 113.273 113.269C112.896 113.397 112.478 113.578 112.056 113.785C111.211 114.199 110.386 114.699 109.89 115.029C109.733 115.134 109.538 115.165 109.356 115.113C109.175 115.061 109.025 114.932 108.947 114.76C108.746 114.319 108.405 113.714 108.042 113.307C107.857 113.099 107.712 112.995 107.623 112.959C107.613 112.955 107.606 112.953 107.6 112.951ZM114.304 113.093C114.304 113.093 114.302 113.092 114.298 113.09C114.303 113.092 114.304 113.093 114.304 113.093ZM114.205 112.97C114.205 112.969 114.205 112.968 114.205 112.968L114.205 112.97Z" fill="#161616"/>
<path fill-rule="evenodd" clip-rule="evenodd" d="M109.245 115.464C109.563 115.305 109.949 115.434 110.108 115.751C110.428 116.391 110.562 117.275 110.562 118.066C110.562 118.471 110.527 118.877 110.453 119.244C110.38 119.602 110.262 119.967 110.068 120.258C109.871 120.553 109.471 120.633 109.176 120.436C108.88 120.239 108.8 119.839 108.997 119.544C109.06 119.448 109.135 119.266 109.191 118.989C109.246 118.72 109.275 118.402 109.275 118.066C109.275 117.378 109.152 116.717 108.957 116.327C108.798 116.009 108.927 115.623 109.245 115.464Z" fill="#161616"/>
<path d="M55.0325 113.633C56.5666 115.078 58.0986 116.52 59.6327 117.965C60.1111 118.414 60.9468 118.451 61.4003 117.943C61.8539 117.434 61.8877 116.654 61.3777 116.175C59.8436 114.73 58.3116 113.288 56.7775 111.842C56.2991 111.394 55.4634 111.357 55.0098 111.865C54.5563 112.373 54.5225 113.153 55.0325 113.633Z" fill="#161616"/>
<path d="M54.7452 120.022C56.7674 119.428 58.7858 118.835 60.808 118.241C61.4368 118.054 61.891 117.352 61.6814 116.704C61.4718 116.055 60.8158 115.632 60.1443 115.83C58.1221 116.424 56.1037 117.018 54.0815 117.612C53.4527 117.798 52.9985 118.501 53.2081 119.149C53.4177 119.797 54.0737 120.22 54.7452 120.022Z" fill="#161616"/>
<path d="M65.3214 118.765C66.8468 120.219 68.3703 121.67 69.8957 123.124C70.3715 123.576 71.207 123.618 71.6635 123.112C72.1201 122.607 72.1585 121.827 71.6513 121.344C70.1259 119.89 68.6024 118.439 67.077 116.985C66.6012 116.533 65.7658 116.491 65.3092 116.997C64.8526 117.502 64.8142 118.282 65.3214 118.765Z" fill="#161616"/>
<path d="M71.9875 114.802C69.9652 115.396 67.9469 115.99 65.9246 116.584C65.2958 116.77 64.8417 117.473 65.0513 118.121C65.2609 118.769 65.9169 119.192 66.5884 118.994C68.6106 118.4 70.629 117.806 72.6512 117.212C73.28 117.026 73.7341 116.324 73.5245 115.675C73.3149 115.027 72.659 114.604 71.9875 114.802Z" fill="#161616"/>
</svg>
