<svg width="38" height="38" viewBox="0 0 38 38" fill="none" xmlns="http://www.w3.org/2000/svg">
<g clip-path="url(#clip0_4753_92295)">
<g filter="url(#filter0_d_4753_92295)">
<g filter="url(#filter1_b_4753_92295)">
<path fill-rule="evenodd" clip-rule="evenodd" d="M5.7602 15.0978C5.9611 14.9109 6.15969 14.7167 6.38144 14.5551C6.38608 14.5517 6.39075 14.5484 6.39544 14.545L17.1594 6.85645C18.2605 6.06999 19.7395 6.06999 20.8406 6.85645L31.6046 14.545C31.6092 14.5484 31.6139 14.5517 31.6185 14.5551C31.8403 14.7167 32.0389 14.9109 32.2398 15.0978C32.8613 15.676 33.25 16.501 33.25 17.4167V30.0834C33.25 31.8323 31.8322 33.2501 30.0833 33.2501H7.91667C6.16776 33.2501 4.75 31.8323 4.75 30.0834V17.4167C4.75 16.501 5.13874 15.676 5.7602 15.0978Z" fill="white"/>
</g>
<g filter="url(#filter2_b_4753_92295)">
<path d="M11.7456 22.1923C10.3064 19.3815 11.3275 16.2946 13.6918 15.3339C15.3864 14.6453 17.3261 15.1987 18.6522 16.7535C18.8312 16.9634 19.1682 16.9634 19.3472 16.7535C20.6732 15.1987 22.6129 14.6453 24.3076 15.3339C26.6719 16.2946 27.6929 19.3815 26.2538 22.1923C24.7243 25.1794 20.1511 27.857 19.1816 28.4003C19.0663 28.4649 18.9331 28.4649 18.8178 28.4003C17.8483 27.857 13.275 25.1794 11.7456 22.1923Z" fill="#FF4D00"/>
</g>
<g filter="url(#filter3_b_4753_92295)">
<path d="M20.2524 6.45534C20.0317 4.2411 21.4869 2.46871 23.2751 2.43578C24.5049 2.41313 25.5898 3.20001 26.0889 4.46434C26.1907 4.72217 26.5075 4.8452 26.7566 4.72367C27.9783 4.12773 29.3099 4.27938 30.202 5.12619C31.4992 6.35749 31.3766 8.64743 29.7192 10.1322C28.0032 11.6694 24.4772 12.2812 23.5833 12.4151C23.4516 12.4348 23.3227 12.3848 23.2389 12.2813C22.6696 11.5792 20.481 8.74781 20.2524 6.45534Z" fill="#FF4D00"/>
</g>
<g filter="url(#filter4_b_4753_92295)">
<path fill-rule="evenodd" clip-rule="evenodd" d="M6.21335 32.7534C5.33339 32.1909 4.75 31.2053 4.75 30.0834V17.4167C4.75 16.5429 5.10396 15.7517 5.67633 15.1787L15.0973 21.5198C16.9619 22.7748 16.9619 25.5188 15.0973 26.7738L6.21335 32.7534Z" fill="#DFDFDF"/>
</g>
<g filter="url(#filter5_b_4753_92295)">
<path fill-rule="evenodd" clip-rule="evenodd" d="M31.9778 14.8792C32.7501 15.4566 33.2499 16.3783 33.2499 17.4168V30.0835C33.2499 31.3839 32.4661 32.5012 31.3451 32.9888L22.1116 26.7739C20.247 25.5189 20.247 22.7749 22.1116 21.5199L31.9778 14.8792Z" fill="#DFDFDF"/>
</g>
<g filter="url(#filter6_b_4753_92295)">
<path fill-rule="evenodd" clip-rule="evenodd" d="M32.8299 31.6606C32.2832 32.6105 31.2579 33.2501 30.0832 33.2501H7.91657C6.55232 33.2501 5.38957 32.3874 4.94409 31.1778L17.1486 21.7131C18.0052 21.0488 19.2029 21.0488 20.0595 21.7131L32.5174 31.3742C32.633 31.4639 32.737 31.5597 32.8299 31.6606Z" fill="white"/>
</g>
</g>
</g>
<defs>
<filter id="filter0_d_4753_92295" x="1.58333" y="2.4353" width="34.8333" height="37.148" filterUnits="userSpaceOnUse" color-interpolation-filters="sRGB">
<feFlood flood-opacity="0" result="BackgroundImageFix"/>
<feColorMatrix in="SourceAlpha" type="matrix" values="0 0 0 0 0 0 0 0 0 0 0 0 0 0 0 0 0 0 127 0" result="hardAlpha"/>
<feOffset dy="3.16667"/>
<feGaussianBlur stdDeviation="1.58333"/>
<feComposite in2="hardAlpha" operator="out"/>
<feColorMatrix type="matrix" values="0 0 0 0 0 0 0 0 0 0 0 0 0 0 0 0 0 0 0.25 0"/>
<feBlend mode="normal" in2="BackgroundImageFix" result="effect1_dropShadow_4753_92295"/>
<feBlend mode="normal" in="SourceGraphic" in2="effect1_dropShadow_4753_92295" result="shape"/>
</filter>
<filter id="filter1_b_4753_92295" x="-0.791667" y="0.724935" width="39.5833" height="38.0667" filterUnits="userSpaceOnUse" color-interpolation-filters="sRGB">
<feFlood flood-opacity="0" result="BackgroundImageFix"/>
<feGaussianBlur in="BackgroundImageFix" stdDeviation="2.77083"/>
<feComposite in2="SourceAlpha" operator="in" result="effect1_backgroundBlur_4753_92295"/>
<feBlend mode="normal" in="SourceGraphic" in2="effect1_backgroundBlur_4753_92295" result="shape"/>
</filter>
<filter id="filter2_b_4753_92295" x="7.91634" y="11.8756" width="22.1666" height="19.7398" filterUnits="userSpaceOnUse" color-interpolation-filters="sRGB">
<feFlood flood-opacity="0" result="BackgroundImageFix"/>
<feGaussianBlur in="BackgroundImageFix" stdDeviation="1.58333"/>
<feComposite in2="SourceAlpha" operator="in" result="effect1_backgroundBlur_4753_92295"/>
<feBlend mode="normal" in="SourceGraphic" in2="effect1_backgroundBlur_4753_92295" result="shape"/>
</filter>
<filter id="filter3_b_4753_92295" x="17.0636" y="-0.731364" width="17.1834" height="16.3175" filterUnits="userSpaceOnUse" color-interpolation-filters="sRGB">
<feFlood flood-opacity="0" result="BackgroundImageFix"/>
<feGaussianBlur in="BackgroundImageFix" stdDeviation="1.58333"/>
<feComposite in2="SourceAlpha" operator="in" result="effect1_backgroundBlur_4753_92295"/>
<feBlend mode="normal" in="SourceGraphic" in2="effect1_backgroundBlur_4753_92295" result="shape"/>
</filter>
<filter id="filter4_b_4753_92295" x="1.58333" y="12.012" width="18.0792" height="23.908" filterUnits="userSpaceOnUse" color-interpolation-filters="sRGB">
<feFlood flood-opacity="0" result="BackgroundImageFix"/>
<feGaussianBlur in="BackgroundImageFix" stdDeviation="1.58333"/>
<feComposite in2="SourceAlpha" operator="in" result="effect1_backgroundBlur_4753_92295"/>
<feBlend mode="normal" in="SourceGraphic" in2="effect1_backgroundBlur_4753_92295" result="shape"/>
</filter>
<filter id="filter5_b_4753_92295" x="17.5465" y="11.7125" width="18.8702" height="24.443" filterUnits="userSpaceOnUse" color-interpolation-filters="sRGB">
<feFlood flood-opacity="0" result="BackgroundImageFix"/>
<feGaussianBlur in="BackgroundImageFix" stdDeviation="1.58333"/>
<feComposite in2="SourceAlpha" operator="in" result="effect1_backgroundBlur_4753_92295"/>
<feBlend mode="normal" in="SourceGraphic" in2="effect1_backgroundBlur_4753_92295" result="shape"/>
</filter>
<filter id="filter6_b_4753_92295" x="1.77743" y="18.0482" width="34.2191" height="18.3685" filterUnits="userSpaceOnUse" color-interpolation-filters="sRGB">
<feFlood flood-opacity="0" result="BackgroundImageFix"/>
<feGaussianBlur in="BackgroundImageFix" stdDeviation="1.58333"/>
<feComposite in2="SourceAlpha" operator="in" result="effect1_backgroundBlur_4753_92295"/>
<feBlend mode="normal" in="SourceGraphic" in2="effect1_backgroundBlur_4753_92295" result="shape"/>
</filter>
<clipPath id="clip0_4753_92295">
<rect width="38" height="38" fill="white"/>
</clipPath>
</defs>
</svg>
