<svg width="32" height="27" viewBox="0 0 32 27" fill="none" xmlns="http://www.w3.org/2000/svg">
<g filter="url(#filter0_b_1043_792)">
<path d="M1.33911 14.3444C-1.56955 8.70534 0.494128 2.51243 5.27241 0.585144C8.70156 -0.79797 12.6272 0.316635 15.3075 3.44458C15.665 3.86181 16.335 3.86181 16.6925 3.44458C19.3728 0.316635 23.2984 -0.79797 26.7276 0.585144C31.5059 2.51243 33.5695 8.70534 30.6609 14.3444C27.6169 20.2458 18.6073 25.5451 16.4622 26.7461C16.1728 26.9082 15.8272 26.9082 15.5378 26.7461C13.3927 25.5451 4.38306 20.2458 1.33911 14.3444Z" fill="#F9FAFA"/>
<path d="M1.78347 14.1152C-1.01988 8.68027 1.0109 2.84314 5.45944 1.04885C8.66152 -0.242682 12.3665 0.780724 14.9278 3.76992C15.4848 4.42003 16.5152 4.42003 17.0722 3.76992C19.6335 0.780724 23.3385 -0.242682 26.5406 1.04885C30.9891 2.84314 33.0199 8.68027 30.2165 14.1152C28.7477 16.9629 25.8093 19.7076 22.9212 21.9103C20.0462 24.1031 17.2799 25.7153 16.2179 26.3098C16.0803 26.3869 15.9197 26.3869 15.7821 26.3098C14.7201 25.7153 11.9538 24.1031 9.07875 21.9103C6.19068 19.7076 3.25235 16.9629 1.78347 14.1152Z" stroke="#F9FAFA"/>
</g>
<defs>
<filter id="filter0_b_1043_792" x="-3.16667" y="-3.16667" width="38.3333" height="33.201" filterUnits="userSpaceOnUse" color-interpolation-filters="sRGB">
<feFlood flood-opacity="0" result="BackgroundImageFix"/>
<feGaussianBlur in="BackgroundImageFix" stdDeviation="1.58333"/>
<feComposite in2="SourceAlpha" operator="in" result="effect1_backgroundBlur_1043_792"/>
<feBlend mode="normal" in="SourceGraphic" in2="effect1_backgroundBlur_1043_792" result="shape"/>
</filter>
</defs>
</svg>
