<svg width="38" height="38" viewBox="0 0 38 38" fill="none" xmlns="http://www.w3.org/2000/svg">
<path fill-rule="evenodd" clip-rule="evenodd" d="M11.6489 5.09223C11.328 5.00446 10.9801 5.07605 10.7208 5.25012C10.4602 5.42507 10.2765 5.71369 10.3159 6.06138C10.5359 8.00315 11.5664 10.6753 14.1667 11.2992C16.1288 11.77 17.6208 12.1568 18.6071 12.4242C19.254 12.5996 19.8925 12.0403 19.7287 11.3717C19.053 8.61344 17.9216 7.22727 16.5927 6.46272C15.5588 5.86794 14.4086 5.65463 13.3014 5.44931L13.3014 5.44931C12.9999 5.3934 12.7015 5.33807 12.4096 5.2758C12.1185 5.2137 11.8662 5.15169 11.6489 5.09223Z" fill="#F9FAFA"/>
<path fill-rule="evenodd" clip-rule="evenodd" d="M26.3509 5.09223C26.6718 5.00446 27.0197 5.07605 27.279 5.25012C27.5396 5.42507 27.7233 5.71369 27.684 6.06138C27.4639 8.00315 26.4334 10.6753 23.8332 11.2992C21.871 11.77 20.379 12.1568 19.3927 12.4242C18.7458 12.5996 18.1073 12.0403 18.2711 11.3717C18.9468 8.61344 20.0782 7.22727 21.4071 6.46272C22.441 5.86794 23.5912 5.65463 24.6984 5.44931L24.6984 5.44931C24.9999 5.3934 25.2983 5.33807 25.5902 5.2758C25.8813 5.2137 26.1336 5.15169 26.3509 5.09223Z" fill="#F9FAFA"/>
<path d="M18.9995 9.56851C20.2046 9.0154 21.5453 8.70703 22.958 8.70703C28.2047 8.70703 32.458 12.9603 32.458 18.207C32.458 20.4039 31.7123 22.4266 30.4602 24.0358C29.486 25.6478 27.9821 27.2414 25.7282 28.8943C19.7907 33.2485 18.2074 33.2485 12.2699 28.8943C9.59201 26.9305 7.94461 25.2123 7.00386 23.2743C6.07728 21.8078 5.54102 20.07 5.54102 18.207C5.54102 12.9603 9.79431 8.70703 15.041 8.70703C16.4538 8.70703 17.7945 9.0154 18.9995 9.56851Z" fill="#FF4D00"/>
<g filter="url(#filter0_b_4753_92190)">
<path fill-rule="evenodd" clip-rule="evenodd" d="M20.9653 8.91797C22.9463 10.3234 24.4152 12.4032 25.0379 14.8225C25.1469 15.2459 24.892 15.6775 24.4686 15.7865C24.0452 15.8955 23.6136 15.6406 23.5046 15.2172C22.8715 12.7578 21.2069 10.7128 19 9.56997C19.6219 9.28454 20.2799 9.06429 20.9653 8.91797Z" fill="#F9FAFA"/>
</g>
<defs>
<filter id="filter0_b_4753_92190" x="13.4583" y="3.3763" width="17.1466" height="17.9771" filterUnits="userSpaceOnUse" color-interpolation-filters="sRGB">
<feFlood flood-opacity="0" result="BackgroundImageFix"/>
<feGaussianBlur in="BackgroundImageFix" stdDeviation="2.77083"/>
<feComposite in2="SourceAlpha" operator="in" result="effect1_backgroundBlur_4753_92190"/>
<feBlend mode="normal" in="SourceGraphic" in2="effect1_backgroundBlur_4753_92190" result="shape"/>
</filter>
</defs>
</svg>
