<svg width="24" height="25" viewBox="0 0 24 25" fill="none" xmlns="http://www.w3.org/2000/svg">
<path d="M3.3 12.9397C3.3 8.13482 7.19512 4.2397 12 4.2397C16.8049 4.2397 20.7 8.13482 20.7 12.9397C20.7 17.7446 16.8049 21.6397 12 21.6397C7.19512 21.6397 3.3 17.7446 3.3 12.9397Z" stroke="#F9FAFA" stroke-width="1.6"/>
<path d="M11.9995 7.9386C11.4475 7.9386 10.9995 8.3866 10.9995 8.9386V13.9386C10.9995 14.4906 11.4475 14.9386 11.9995 14.9386C12.5515 14.9386 12.9995 14.4906 12.9995 13.9386V8.9386C12.9995 8.3866 12.5515 7.9386 11.9995 7.9386ZM11.9995 15.9386C11.4475 15.9386 10.9995 16.3866 10.9995 16.9386C10.9995 17.4906 11.4475 17.9386 11.9995 17.9386C12.5515 17.9386 12.9995 17.4906 12.9995 16.9386C12.9995 16.3866 12.5515 15.9386 11.9995 15.9386Z" fill="#F9FAFA"/>
</svg>
