<svg width="48" height="48" viewBox="0 0 48 48" fill="none" xmlns="http://www.w3.org/2000/svg">
<path fill-rule="evenodd" clip-rule="evenodd" d="M28.7039 31.3922C31.5977 28.2538 31.5215 23.3625 28.4754 20.3164C25.4292 17.2702 20.5376 17.1942 17.3993 20.0882C14.9312 19.2072 12.0674 19.7548 10.0913 21.731C7.3576 24.4647 7.3576 28.8968 10.0913 31.6305C11.4762 33.0154 13.297 33.6987 15.1121 33.6804C15.0938 35.4955 15.7771 37.3163 17.162 38.7012C19.8957 41.4349 24.3278 41.4349 27.0615 38.7012C29.0379 36.7248 29.5854 33.8605 28.7039 31.3922Z" fill="#F9FAFA"/>
<path d="M21.1483 14.2825C19.8614 16.5115 17.3726 17.4839 15.5894 16.4543C13.8062 15.4248 13.4039 12.7833 14.6908 10.5543C15.9777 8.32529 18.4665 7.35293 20.2497 8.38246C22.0329 9.41198 22.4352 12.0535 21.1483 14.2825Z" fill="#F9FAFA"/>
<path d="M31.7008 15.6768C29.9435 17.4341 27.2525 17.5924 25.6904 16.0303C24.1283 14.4682 24.2866 11.7773 26.044 10.0199C27.8013 8.26255 30.4923 8.10426 32.0544 9.66635C33.6165 11.2285 33.4582 13.9194 31.7008 15.6768Z" fill="#F9FAFA"/>
<path d="M39.1442 22.3799C37.3868 24.1372 34.6959 24.2955 33.1338 22.7334C31.5717 21.1713 31.73 18.4804 33.4873 16.723C35.2447 14.9657 37.9356 14.8074 39.4977 16.3695C41.0598 17.9316 40.9015 20.6225 39.1442 22.3799Z" fill="#F9FAFA"/>
<path d="M37.5784 34.7615C35.3494 36.0484 32.7079 35.6461 31.6784 33.8629C30.6488 32.0797 31.6212 29.5909 33.8502 28.304C36.0792 27.0171 38.7207 27.4194 39.7502 29.2026C40.7798 30.9858 39.8074 33.4746 37.5784 34.7615Z" fill="#F9FAFA"/>
</svg>
