<svg width="24" height="25" viewBox="0 0 24 25" fill="none" xmlns="http://www.w3.org/2000/svg">
<path d="M19 11.4397C19 16.8841 12 21.5508 12 21.5508C12 21.5508 5 16.8841 5 11.4397C5 9.58318 5.7375 7.8027 7.05025 6.48995C8.36301 5.1772 10.1435 4.4397 12 4.4397C13.8565 4.4397 15.637 5.1772 16.9497 6.48995C18.2625 7.8027 19 9.58318 19 11.4397Z" stroke="#F9FAFA" stroke-width="1.6" stroke-linecap="round" stroke-linejoin="round"/>
<path d="M11.9993 13.773C13.288 13.773 14.3327 12.7283 14.3327 11.4397C14.3327 10.151 13.288 9.10632 11.9993 9.10632C10.7107 9.10632 9.66602 10.151 9.66602 11.4397C9.66602 12.7283 10.7107 13.773 11.9993 13.773Z" stroke="#F9FAFA" stroke-width="1.6" stroke-linecap="round" stroke-linejoin="round"/>
</svg>
