<svg width="72" height="80" viewBox="0 0 72 80" fill="none" xmlns="http://www.w3.org/2000/svg">
<path d="M62.2421 44.6544C66.412 35.7507 65.7733 27.5332 63.1832 22.409C60.8695 17.8296 54.5967 16.4257 49.7611 18.1446C46.723 19.2246 44.7791 20.4379 43.0035 22.2189C41.73 23.4963 39.0712 22.9492 38.0759 21.445C35.3502 17.3258 30.0393 14.7936 25.0277 15.418C18.3313 16.2541 12.7987 21.853 10.9719 28.3479C9.14503 34.8429 10.6344 41.9565 13.9146 47.8505C17.1948 53.7445 22.1372 58.5507 27.4231 62.7463C30.0345 64.82 36.0521 67.7961 39.3437 67.176C45.9061 65.9397 57.4475 54.8919 62.2421 44.6544Z" fill="#222222"/>
<path d="M36.6353 35.5416C36.5776 36.8841 36.5207 38.2243 36.463 39.5668C36.4461 39.9846 36.7766 40.4032 37.2108 40.4101C37.6451 40.4169 38.0354 40.1081 38.0541 39.6622C38.1118 38.3197 38.1687 36.9795 38.2264 35.637C38.2434 35.2192 37.9129 34.8007 37.4786 34.7938C37.0443 34.7869 36.654 35.0957 36.6353 35.5416Z" fill="#8D8D8D"/>
<path d="M30.7271 34.5568C30.6694 35.8993 30.6125 37.2394 30.5548 38.5819C30.5379 38.9997 30.8684 39.4183 31.3026 39.4252C31.7369 39.4321 32.1272 39.1233 32.1459 38.6773C32.2036 37.3348 32.2605 35.9947 32.3182 34.6522C32.3352 34.2344 32.0047 33.8158 31.5704 33.8089C31.1361 33.802 30.7458 34.1108 30.7271 34.5568Z" fill="#8D8D8D"/>
</svg>
