<svg width="48" height="48" viewBox="0 0 48 48" fill="none" xmlns="http://www.w3.org/2000/svg">
<g filter="url(#filter0_b_4753_92380)">
<path fill-rule="evenodd" clip-rule="evenodd" d="M29.1237 22.2854C27.8348 21.5453 26.3654 21.0968 24.8085 21.0241C24.1992 20.9957 23.6038 20.9924 23.0061 21.0142C21.5181 21.0686 20.1161 21.4857 18.8813 22.1821C18.1527 21.9663 17.3423 22.0254 16.6187 22.411L9.93022 25.9747C8.46798 26.7538 7.91419 28.5708 8.6933 30.033L8.81889 30.2687C9.598 31.731 11.415 32.2848 12.8772 31.5057L13.7954 31.0164C13.6404 32.1733 13.5511 33.325 13.5497 34.422C13.5455 37.585 15.8465 40.1529 18.8716 41.0769C22.4219 42.1612 25.7348 42.1613 29.2232 41.0773C32.1875 40.1562 34.4292 37.6224 34.4398 34.5184C34.4438 33.3367 34.3445 32.0896 34.1699 30.8394L35.4204 31.5057C36.8826 32.2848 38.6996 31.731 39.4787 30.2687L39.6043 30.033C40.3834 28.5708 39.8296 26.7538 38.3674 25.9747L31.6789 22.411C30.8568 21.9729 29.9226 21.9562 29.1237 22.2854Z" fill="#F9FAFA"/>
</g>
<path d="M24.1813 25.1831C27.028 25.2518 29.4277 27.3659 29.9495 30.1652C30.1319 31.1434 30.2481 32.1447 30.2604 33.0845C30.2865 35.0798 28.8503 36.7254 26.9349 37.285C24.9793 37.8563 23.1094 37.8563 21.1213 37.285C19.167 36.7234 17.6931 35.056 17.7294 33.0229C17.7464 32.067 17.8695 31.0498 18.0593 30.0594C18.5837 27.3224 20.909 25.2181 23.6956 25.1805C23.8569 25.1783 24.0185 25.1792 24.1813 25.1831Z" fill="#F9CC2E"/>
<path d="M30.5693 36.7839C31.1666 34.555 33.4575 33.2323 35.6864 33.8296C37.9152 34.4268 39.2379 36.7178 38.6407 38.9466L38.1 40.9644C37.5028 43.1933 35.2118 44.516 32.983 43.9188C30.7541 43.3215 29.4314 41.0306 30.0287 38.8017L30.5693 36.7839Z" fill="#F9CC2E"/>
<path d="M33.1744 37.6404C33.473 36.526 34.6185 35.8646 35.7329 36.1633C36.8473 36.4619 37.5087 37.6073 37.2101 38.7218L36.6694 40.7396C36.3708 41.854 35.2253 42.5154 34.1109 42.2168C32.9965 41.9182 32.3351 40.7727 32.6337 39.6583L33.1744 37.6404Z" fill="#F9FAFA"/>
<path d="M10.4779 38.6783C9.88066 36.4494 11.2034 34.1585 13.4322 33.5612C15.661 32.964 17.952 34.2867 18.5492 36.5156L19.0899 38.5334C19.6871 40.7623 18.3644 43.0532 16.1356 43.6505C13.9067 44.2477 11.6158 42.925 11.0186 40.6961L10.4779 38.6783Z" fill="#F9CC2E"/>
<path d="M12.0024 38.6854C11.7038 37.571 12.3651 36.4255 13.4795 36.1269C14.5939 35.8283 15.7394 36.4896 16.038 37.604L16.5787 39.6219C16.8773 40.7363 16.216 41.8818 15.1016 42.1804C13.9871 42.479 12.8417 41.8177 12.543 40.7032L12.0024 38.6854Z" fill="#F9FAFA"/>
<path d="M21.2997 9.6C21.2997 11.5882 19.688 13.2 17.6997 13.2C15.7115 13.2 14.0997 11.5882 14.0997 9.6C14.0997 7.61177 15.7115 6 17.6997 6C19.688 6 21.2997 7.61177 21.2997 9.6Z" fill="#F9FAFA"/>
<path d="M33.8991 9.6C33.8991 11.5882 32.2873 13.2 30.2991 13.2C28.3109 13.2 26.6991 11.5882 26.6991 9.6C26.6991 7.61177 28.3109 6 30.2991 6C32.2873 6 33.8991 7.61177 33.8991 9.6Z" fill="#F9FAFA"/>
<path d="M33.8997 15C33.8997 21.5455 29.4674 24 23.9997 24C18.5321 24 14.0997 21.9545 14.0997 15C14.0997 10.0294 18.5321 6 23.9997 6C29.4674 6 33.8997 10.0294 33.8997 15Z" fill="#F9CC2E"/>
<path d="M23.9858 19.4995C22.2859 19.4847 20.6535 18.3035 20.4391 16.6171C20.2793 15.3603 21.3044 14.471 22.5493 14.2357C23.5072 14.0546 24.435 14.0546 25.4067 14.2356C26.6771 14.4723 27.727 15.3799 27.554 16.6605C27.3295 18.3224 25.7323 19.5027 24.0553 19.4999C24.0322 19.4998 24.009 19.4997 23.9858 19.4995Z" fill="#F9FAFA"/>
<path d="M24.8994 15.8999C24.8994 16.3969 24.4964 16.7999 23.9994 16.7999C23.5023 16.7999 23.0994 16.3969 23.0994 15.8999C23.0994 15.4028 23.5023 14.9999 23.9994 14.9999C24.4964 14.9999 24.8994 15.4028 24.8994 15.8999Z" fill="#3D3D3D"/>
<path d="M19.5001 13.0182C19.5001 12.6206 19.8225 12.2982 20.2201 12.2982C20.6178 12.2982 20.9401 12.6206 20.9401 13.0182V13.8282C20.9401 14.2259 20.6178 14.5482 20.2201 14.5482C19.8225 14.5482 19.5001 14.2259 19.5001 13.8282V13.0182Z" fill="#3D3D3D"/>
<path d="M27.0605 13.0182C27.0605 12.6206 27.3829 12.2982 27.7805 12.2982C28.1782 12.2982 28.5005 12.6206 28.5005 13.0182V13.8282C28.5005 14.2259 28.1782 14.5482 27.7805 14.5482C27.3829 14.5482 27.0605 14.2259 27.0605 13.8282V13.0182Z" fill="#3D3D3D"/>
<defs>
<filter id="filter0_b_4753_92380" x="6.34033" y="19" width="35.6169" height="24.8903" filterUnits="userSpaceOnUse" color-interpolation-filters="sRGB">
<feFlood flood-opacity="0" result="BackgroundImageFix"/>
<feGaussianBlur in="BackgroundImageFix" stdDeviation="1"/>
<feComposite in2="SourceAlpha" operator="in" result="effect1_backgroundBlur_4753_92380"/>
<feBlend mode="normal" in="SourceGraphic" in2="effect1_backgroundBlur_4753_92380" result="shape"/>
</filter>
</defs>
</svg>
