<svg width="24" height="25" viewBox="0 0 24 25" fill="none" xmlns="http://www.w3.org/2000/svg">
<path d="M11.8867 4.26411L11.8878 4.26368C11.9711 4.23175 12.0953 4.2317 12.1787 4.26353C12.1788 4.26358 12.179 4.26363 12.1791 4.26368L19.5814 7.11416L19.5815 7.1142C19.6433 7.13798 19.6728 7.16776 19.685 7.18448C19.6963 7.19987 19.7 7.21285 19.7 7.22831C19.7 11.4864 19.5324 13.1256 18.7584 15.1039L18.7584 15.104C17.7546 17.6701 15.7476 19.7719 12.1672 21.6019L12.1663 21.6024C12.0692 21.6521 11.9308 21.6521 11.8337 21.6024L11.8328 21.6019C8.28905 19.791 6.2885 17.6823 5.27406 15.1027L5.27401 15.1025C4.48895 13.1072 4.3 11.3743 4.3 7.22831C4.3 7.20958 4.30459 7.19654 4.31455 7.1829C4.32545 7.16798 4.35343 7.13896 4.41557 7.11532L4.41652 7.11496C5.34927 6.75876 10.9528 4.62034 11.8867 4.26411ZM11.6016 3.51679L11.6016 3.51679L11.6016 3.51679Z" stroke="#2EF95A" stroke-width="1.6"/>
<path fill-rule="evenodd" clip-rule="evenodd" d="M14.0429 10.7326C14.4334 10.3421 15.0666 10.3421 15.4571 10.7326C15.8476 11.1231 15.8476 11.7563 15.4571 12.1468L12.4571 15.1468C12.0666 15.5373 11.4334 15.5373 11.0429 15.1468L9.04289 13.1468C8.65237 12.7563 8.65237 12.1231 9.04289 11.7326C9.43342 11.3421 10.0666 11.3421 10.4571 11.7326L11.75 13.0255L14.0429 10.7326Z" fill="#2EF95A"/>
</svg>
