<svg width="30" height="31" viewBox="0 0 30 31" fill="none" xmlns="http://www.w3.org/2000/svg">
<path fill-rule="evenodd" clip-rule="evenodd" d="M8.3093 22.6212C6.29083 22.1264 4.58921 20.6935 4.15293 18.6616C3.61896 16.1747 3.61571 13.2042 4.14318 10.7115C4.57922 8.65083 6.31247 7.20493 8.36249 6.72133C12.7804 5.67915 17.2196 5.67915 21.6375 6.72133C23.6875 7.20493 25.4208 8.65083 25.8568 10.7115C26.3843 13.2042 26.381 16.1747 25.8471 18.6616C25.4108 20.6935 23.7092 22.1264 21.6907 22.6211C20.3818 22.9419 19.0711 23.1684 17.7596 23.3006L16.991 24.8037C16.2483 26.2564 14.1724 26.2564 13.4296 24.8037L12.682 23.3416C11.2231 23.2181 9.76503 22.9779 8.3093 22.6212ZM9.75049 16.0647C10.5099 16.0647 11.1255 15.4491 11.1255 14.6897C11.1255 13.9303 10.5099 13.3147 9.75049 13.3147C8.9911 13.3147 8.37549 13.9303 8.37549 14.6897C8.37549 15.4491 8.9911 16.0647 9.75049 16.0647ZM16.3755 14.6897C16.3755 15.4491 15.7599 16.0647 15.0005 16.0647C14.2411 16.0647 13.6255 15.4491 13.6255 14.6897C13.6255 13.9303 14.2411 13.3147 15.0005 13.3147C15.7599 13.3147 16.3755 13.9303 16.3755 14.6897ZM20.2505 16.0647C21.0099 16.0647 21.6255 15.4491 21.6255 14.6897C21.6255 13.9303 21.0099 13.3147 20.2505 13.3147C19.4911 13.3147 18.8755 13.9303 18.8755 14.6897C18.8755 15.4491 19.4911 16.0647 20.2505 16.0647Z" fill="#F9FAFA"/>
</svg>
