<svg width="264" height="212" viewBox="0 0 264 212" fill="none" xmlns="http://www.w3.org/2000/svg">
<g clip-path="url(#clip0_4744_86939)">
<path fill-rule="evenodd" clip-rule="evenodd" d="M146.368 76.1854C155.03 79.7977 164.556 89.3258 168.838 104.816C173.762 122.627 171.167 148.614 164.33 157.123C160.9 161.392 150.263 164.09 144.816 164.289C133.792 164.695 122.546 163.978 112.208 160.143C101.87 156.307 92.4609 149.055 87.828 139.046C83.1951 129.037 84.1171 116.204 91.5461 108.049C98.1413 100.813 109.977 98.6445 118.296 103.404C118.463 105.079 118.699 106.616 119.085 108.13C119.126 108.285 119.183 108.425 119.256 108.545C119.596 109.1 120.248 109.265 120.814 109.112C121.517 108.925 122.14 108.238 121.909 107.33L121.911 107.333C121.33 105.054 121.135 102.616 121.007 100.487C120.957 94.9674 121.903 90.8291 125.165 85.152C129.344 77.8783 138.627 72.9561 146.368 76.1854Z" fill="#EFC0FF"/>
<path fill-rule="evenodd" clip-rule="evenodd" d="M146.368 76.1854C155.03 79.7977 164.556 89.3258 168.838 104.816C173.762 122.627 171.167 148.614 164.33 157.123C160.9 161.392 150.263 164.09 144.816 164.289C133.792 164.695 122.546 163.978 112.208 160.143C101.87 156.307 92.4609 149.055 87.828 139.046C83.1951 129.037 84.1171 116.204 91.5461 108.049C98.1413 100.813 109.977 98.6445 118.296 103.404C118.463 105.079 118.699 106.616 119.085 108.13C119.126 108.285 119.183 108.425 119.256 108.545C119.596 109.1 120.248 109.265 120.814 109.112C121.517 108.925 122.14 108.238 121.909 107.33L121.911 107.333C121.33 105.054 121.135 102.616 121.007 100.487C120.957 94.9674 121.903 90.8291 125.165 85.152C129.344 77.8783 138.627 72.9561 146.368 76.1854Z" fill="url(#paint0_linear_4744_86939)" fill-opacity="0.52"/>
<path fill-rule="evenodd" clip-rule="evenodd" d="M100.677 132.151C101.505 132.176 102.121 132.866 102.053 133.692C102.043 133.804 102.085 134.055 102.463 134.35C102.837 134.642 103.447 134.881 104.211 134.904C104.974 134.928 105.62 134.727 106.041 134.459C106.466 134.189 106.549 133.941 106.558 133.829C106.626 133.004 107.353 132.355 108.181 132.38C109.009 132.405 109.625 133.095 109.557 133.921C109.445 135.266 108.579 136.312 107.567 136.955C106.551 137.601 105.272 137.934 103.963 137.894C102.655 137.854 101.437 137.445 100.533 136.74C99.6317 136.039 98.9427 134.945 99.054 133.6C99.1223 132.775 99.849 132.126 100.677 132.151Z" fill="#161616"/>
<path fill-rule="evenodd" clip-rule="evenodd" d="M114.881 132.583C115.709 132.608 116.325 133.298 116.256 134.124C116.247 134.236 116.289 134.488 116.667 134.782C117.041 135.074 117.651 135.313 118.414 135.336C119.178 135.36 119.824 135.159 120.244 134.891C120.669 134.621 120.752 134.373 120.762 134.261C120.83 133.436 121.557 132.787 122.385 132.812C123.213 132.838 123.828 133.527 123.76 134.353C123.649 135.698 122.783 136.744 121.771 137.387C120.754 138.034 119.475 138.366 118.167 138.326C116.858 138.286 115.641 137.877 114.736 137.173C113.835 136.471 113.146 135.377 113.258 134.032C113.326 133.207 114.053 132.558 114.881 132.583Z" fill="#161616"/>
<path fill-rule="evenodd" clip-rule="evenodd" d="M75.6042 109.265C72.503 112.515 70.9986 114.973 70.5867 116.765C70.3859 117.639 70.4534 118.315 70.6825 118.855C70.9133 119.399 71.3479 119.899 72.0416 120.345C73.467 121.263 75.8177 121.849 78.9654 122.095C82.08 122.339 85.8417 122.242 89.9813 121.9C106.558 120.527 128.699 115.261 138.226 112.858C147.655 110.481 161.586 104.58 169.864 98.6801C171.928 97.2091 173.603 95.7644 174.763 94.4038C175.94 93.0243 176.494 91.8427 176.531 90.8864C176.532 90.8583 176.533 90.8301 176.533 90.8018L176.484 90.5885C176.44 90.3958 176.405 90.2416 176.38 90.1356L176.343 89.9725C176.328 89.9083 176.319 89.8441 176.317 89.7805C176.087 89.2736 175.654 88.7649 174.934 88.2602C173.651 87.36 171.528 86.5387 168.313 85.9106C155.43 83.3944 137.771 84.9274 120.508 89.2797C103.28 93.6231 86.6018 100.735 75.6042 109.265ZM178.528 90.5531C178.452 89.0208 177.605 87.6902 176.083 86.6227C174.464 85.4876 172.023 84.5975 168.696 83.9477C155.41 81.3528 137.428 82.9513 120.019 87.3404C102.605 91.7307 85.6103 98.9523 74.3187 107.731C71.9364 109.88 69.3724 113.12 68.6375 116.317C68.3612 117.519 68.4173 118.637 68.8414 119.636C69.2638 120.632 70.0117 121.417 70.9589 122.027C72.8152 123.222 75.5792 123.836 78.8093 124.089C82.0725 124.345 85.9518 124.24 90.1463 123.893C106.907 122.505 129.194 117.198 138.715 114.798C148.335 112.372 162.506 106.38 171.025 100.309C173.16 98.787 174.978 97.2341 176.285 95.7019C176.667 95.2544 177.014 94.7987 177.314 94.337C177.443 94.9425 177.565 95.537 177.667 96.0656C177.836 96.9368 178.034 98.061 178.191 98.9719C178.27 99.4264 178.337 99.826 178.385 100.112L178.442 100.448L178.462 100.569C178.552 101.114 179.067 101.483 179.612 101.393C180.157 101.302 180.525 100.787 180.435 100.242L180.415 100.119L180.358 99.7802C180.309 99.4923 180.241 99.09 180.162 98.6323C180.005 97.7189 179.804 96.5778 179.631 95.6852C179.395 94.4682 179.059 92.9244 178.784 91.691C178.69 91.2678 178.602 90.8801 178.528 90.5531ZM72.1906 125.818C72.7307 125.702 73.2622 126.046 73.3778 126.586C75.9111 138.417 81.0434 153.236 90.9309 163.91C100.756 174.516 115.347 181.113 137.087 176.458L137.088 176.458L137.088 176.457C157.952 171.989 169.187 161.547 174.83 149.369C173.104 148.408 171.675 147.14 170.515 145.689C169.36 144.245 168.914 142.706 169.016 141.211C169.117 139.739 169.744 138.389 170.6 137.27C171.456 136.15 172.572 135.221 173.73 134.581C174.874 133.949 176.143 133.555 177.304 133.619C178.195 133.668 179.075 133.844 179.884 134.007C179.933 134.016 179.981 134.026 180.029 134.036C180.078 134.045 180.127 134.055 180.175 134.065C181.092 134.246 181.942 134.395 182.813 134.39C184.466 134.381 186.358 133.819 188.739 131.313C189.8 130.196 190.097 129.002 189.938 127.864C189.774 126.689 189.109 125.494 188.106 124.497C186.033 122.437 183.039 121.642 181.021 122.969C178.208 124.819 173.844 125.661 170.277 124.879C168.475 124.484 166.787 123.655 165.625 122.232C164.446 120.788 163.904 118.848 164.2 116.438L164.217 116.297L164.273 116.166C166.301 111.44 171.546 107.998 177.466 106.583C183.417 105.161 190.3 105.718 195.806 109.282C201.424 112.918 204.639 121.152 204.922 129.013C205.204 136.864 202.569 144.97 195.733 148.039C189.344 150.908 184.146 151.714 179.964 151.086C178.768 150.906 177.662 150.61 176.642 150.217C174.763 154.27 172.296 158.124 169.122 161.645C175.877 163.341 181.542 165.553 185.622 168.139C189.999 170.913 192.745 174.25 192.745 177.995C192.745 179.565 192.261 181.064 191.379 182.478C192.261 183.894 192.745 185.397 192.745 186.962C192.745 189.962 190.977 192.701 188.051 195.082C185.117 197.469 180.922 199.583 175.808 201.343C165.572 204.865 151.484 207.029 135.96 207.029C120.435 207.029 106.347 204.865 96.1113 201.343C90.9974 199.583 86.8016 197.469 83.8685 195.082C80.9416 192.701 79.1737 189.962 79.1737 186.962C79.1737 185.397 79.6582 183.894 80.5402 182.479C79.6579 181.065 79.1731 179.566 79.1731 177.995C79.1731 175.46 80.4385 173.107 82.5924 171.007C84.4603 169.186 87.0356 167.513 90.1707 166.017C89.9324 165.77 89.6968 165.52 89.4637 165.269C79.2189 154.209 73.9861 138.979 71.4222 127.005C71.3065 126.465 71.6506 125.933 72.1906 125.818ZM171.35 192.093C172.719 191.704 174.033 191.293 175.286 190.862C175.287 190.862 175.287 190.862 175.287 190.862C177.403 190.134 179.338 189.35 181.073 188.521C183.454 187.384 185.46 186.16 187.04 184.874C189.779 182.645 191.145 180.316 191.145 177.995C191.145 175.092 189 172.174 184.765 169.49C180.71 166.92 174.912 164.683 167.865 162.984C161.063 169.939 151.293 175.453 137.554 178.403C137.538 178.407 137.522 178.411 137.506 178.414C116.423 182.928 101.631 177.171 91.3709 167.221C88.0994 168.732 85.5107 170.397 83.71 172.153C81.7478 174.066 80.7737 176.031 80.7737 177.995C80.7737 180.315 82.139 182.645 84.8783 184.874C87.6112 187.097 91.6143 189.135 96.6319 190.862C106.659 194.313 120.564 196.461 135.96 196.461C149.431 196.461 161.76 194.816 171.35 192.093ZM181.155 190.25C179.514 191.005 177.726 191.715 175.808 192.375C175.808 192.375 175.807 192.375 175.807 192.375C175.647 192.43 175.487 192.485 175.325 192.539C174.193 192.919 173.014 193.284 171.794 193.63C162.028 196.405 149.543 198.062 135.959 198.062C120.435 198.062 106.346 195.897 96.1106 192.375C90.9968 190.615 86.801 188.501 83.8678 186.115C82.9946 185.404 82.2245 184.662 81.5738 183.89C81.0403 184.908 80.7737 185.933 80.7737 186.962C80.7737 189.283 82.139 191.613 84.8783 193.841C87.6112 196.065 91.6144 198.103 96.6319 199.83C106.659 203.28 120.564 205.429 135.96 205.429C151.355 205.429 165.26 203.28 175.287 199.83C180.305 198.103 184.308 196.065 187.041 193.841C189.78 191.613 191.145 189.283 191.145 186.962C191.145 185.933 190.879 184.908 190.345 183.89C189.694 184.662 188.924 185.404 188.051 186.115C186.217 187.606 183.891 188.991 181.155 190.25ZM166.168 116.824C165.966 118.712 166.415 120.038 167.174 120.967C167.969 121.941 169.199 122.595 170.705 122.925C173.754 123.594 177.567 122.848 179.922 121.298C183.073 119.225 187.114 120.691 189.516 123.079C190.75 124.305 191.681 125.881 191.919 127.588C192.163 129.333 191.668 131.134 190.189 132.69C187.49 135.531 185.099 136.378 182.824 136.39C181.733 136.396 180.709 136.209 179.787 136.027L179.507 135.971L179.497 135.969L179.497 135.969C178.667 135.803 177.932 135.657 177.193 135.616C176.53 135.579 175.64 135.811 174.697 136.332C173.768 136.845 172.868 137.597 172.189 138.485C171.509 139.374 171.08 140.358 171.012 141.348C170.945 142.316 171.218 143.366 172.076 144.44C173.945 146.777 176.595 148.558 180.261 149.108C183.949 149.662 188.751 148.982 194.914 146.215C200.631 143.648 203.194 136.636 202.923 129.085C202.652 121.545 199.56 114.094 194.719 110.961C189.768 107.756 183.473 107.204 177.931 108.528C172.421 109.846 167.9 112.952 166.168 116.824Z" fill="#3D3D3D"/>
<path d="M125.198 85.2364C129.378 77.9628 138.661 73.0406 146.401 76.2698C151.642 78.4555 157.2 82.8068 161.72 89.3342C162.319 93.1451 131.682 107.735 121.027 99.3073C121.027 99.3073 120.877 91.9918 125.198 85.2364Z" fill="#EFC0FF"/>
<path fill-rule="evenodd" clip-rule="evenodd" d="M99.7752 12.7856C99.7752 17.0854 102.165 20.5711 111.588 20.5711C121.011 20.5711 123.4 17.0854 123.4 12.7856C123.4 8.48571 121.011 5 111.588 5C102.165 5 99.7752 8.48571 99.7752 12.7856ZM135.902 47.4824C135.682 46.3417 136.339 45.1776 137.428 44.7725C142.74 42.7957 144.341 39.025 144.341 34.6985C144.341 28.3229 140.865 23.1544 127.159 23.1544C116.048 23.1544 111.66 26.5511 110.397 31.234C110.126 32.2366 109.266 33.0176 108.227 33.0161C108.184 33.016 108.141 33.016 108.098 33.016C85.6117 33.016 79.9086 41.4298 79.9086 51.8087C79.9086 62.1877 85.6117 70.6015 108.098 70.6015C110.077 70.6015 111.926 70.5363 113.652 70.4104C114.418 70.3545 115.148 70.7299 115.601 71.3493C115.747 71.5496 115.904 71.7545 116.071 71.9641C119.335 76.0559 121.732 75.8416 123.669 74.2971C124.804 73.3919 125.528 72.2307 125.277 70.6007C125.088 69.3744 125.537 68.0169 126.665 67.5005C134.011 64.1382 136.287 58.3656 136.287 51.8087C136.287 50.3198 136.169 48.8714 135.902 47.4824Z" fill="#585858" fill-opacity="0.28"/>
<path fill-rule="evenodd" clip-rule="evenodd" d="M103.391 16.7242C102.246 15.8152 101.775 14.5496 101.775 12.7856C101.775 11.0215 102.246 9.75597 103.391 8.84694C104.646 7.85136 107.054 7 111.588 7C116.122 7 118.53 7.85136 119.784 8.84694C120.93 9.75597 121.4 11.0215 121.4 12.7856C121.4 14.5496 120.93 15.8152 119.784 16.7242C118.53 17.7198 116.122 18.5711 111.588 18.5711C107.054 18.5711 104.646 17.7198 103.391 16.7242ZM141.173 39.569C140.379 40.8596 139.039 42.0389 136.73 42.8981C134.729 43.6428 133.533 45.7571 133.938 47.8606C134.177 49.1039 134.287 50.4233 134.287 51.8087C134.287 54.8661 133.755 57.5852 132.481 59.8829C131.223 62.1529 129.16 64.1588 125.832 65.682C123.599 66.7044 123.031 69.1595 123.3 70.9057C123.409 71.6123 123.19 72.121 122.422 72.7335C121.737 73.2799 121.25 73.3868 120.782 73.2877C120.197 73.1636 119.148 72.6147 117.635 70.717C117.484 70.5278 117.344 70.345 117.215 70.1684C116.397 69.0501 115.028 68.3047 113.507 68.4157C111.833 68.5377 110.033 68.6015 108.098 68.6015C97.036 68.6015 90.5375 66.5194 86.8229 63.5375C83.2123 60.6392 81.9086 56.6199 81.9086 51.8087C81.9086 46.9976 83.2123 42.9782 86.8229 40.0799C90.5375 37.0981 97.036 35.016 108.098 35.016L108.224 35.0161C110.328 35.0191 111.866 33.4665 112.328 31.7549C112.821 29.9259 113.891 28.3614 116.039 27.196C118.272 25.9843 121.77 25.1544 127.159 25.1544C133.828 25.1544 137.572 26.4242 139.632 28.0905C141.591 29.6753 142.341 31.8839 142.341 34.6985C142.341 36.6267 141.983 38.2514 141.173 39.569ZM111.588 20.5711C102.165 20.5711 99.7752 17.0854 99.7752 12.7856C99.7752 8.48571 102.165 5 111.588 5C121.011 5 123.4 8.48571 123.4 12.7856C123.4 17.0854 121.011 20.5711 111.588 20.5711ZM137.428 44.7725C136.339 45.1776 135.682 46.3417 135.902 47.4824C136.169 48.8714 136.287 50.3198 136.287 51.8087C136.287 58.3656 134.011 64.1382 126.665 67.5005C125.537 68.0169 125.088 69.3744 125.277 70.6007C125.528 72.2307 124.804 73.3919 123.669 74.2971C121.732 75.8416 119.335 76.0559 116.071 71.9641C115.904 71.7545 115.747 71.5496 115.601 71.3493C115.148 70.7299 114.418 70.3545 113.652 70.4104C111.926 70.5363 110.077 70.6015 108.098 70.6015C85.6117 70.6015 79.9086 62.1877 79.9086 51.8087C79.9086 41.4298 85.6117 33.016 108.098 33.016L108.227 33.0161C109.266 33.0176 110.126 32.2366 110.397 31.234C111.66 26.5511 116.048 23.1544 127.159 23.1544C140.865 23.1544 144.341 28.3229 144.341 34.6985C144.341 39.025 142.74 42.7957 137.428 44.7725Z" fill="#3D3D3D"/>
<path d="M102.947 51.7005C102.947 52.7702 102.08 53.6374 101.01 53.6374C99.9404 53.6374 99.0732 52.7702 99.0732 51.7005C99.0732 50.6308 99.9404 49.7637 101.01 49.7637C102.08 49.7637 102.947 50.6308 102.947 51.7005Z" fill="#8D8D8D"/>
<path d="M110.156 51.7005C110.156 52.7702 109.289 53.6374 108.219 53.6374C107.149 53.6374 106.282 52.7702 106.282 51.7005C106.282 50.6308 107.149 49.7637 108.219 49.7637C109.289 49.7637 110.156 50.6308 110.156 51.7005Z" fill="#8D8D8D"/>
<path d="M117.363 51.7005C117.363 52.7702 116.496 53.6374 115.426 53.6374C114.356 53.6374 113.489 52.7702 113.489 51.7005C113.489 50.6308 114.356 49.7637 115.426 49.7637C116.496 49.7637 117.363 50.6308 117.363 51.7005Z" fill="#8D8D8D"/>
</g>
<defs>
<linearGradient id="paint0_linear_4744_86939" x1="135.209" y1="159.571" x2="151.732" y2="114.265" gradientUnits="userSpaceOnUse">
<stop stop-color="#3D3D3D"/>
<stop offset="1" stop-color="#3D3D3D" stop-opacity="0"/>
</linearGradient>
<clipPath id="clip0_4744_86939">
<rect width="264" height="212" fill="white"/>
</clipPath>
</defs>
</svg>
