<svg width="264" height="212" viewBox="0 0 264 212" fill="none" xmlns="http://www.w3.org/2000/svg">
<path fill-rule="evenodd" clip-rule="evenodd" d="M122.82 63.8936L76.9827 97.9344L78.5871 169.296L187.054 187.883C187.714 187.996 188.296 187.442 188.216 186.778L179.687 115.845L122.82 63.8936Z" fill="#F9CC2E"/>
<path fill-rule="evenodd" clip-rule="evenodd" d="M171.754 118.254L175.476 116.628L172.674 116.134C172.395 116.837 172.089 117.544 171.754 118.254ZM109.488 102.967C109.793 100.268 110.48 97.6251 111.608 95.1361C114.91 87.8494 122.399 82.274 130.403 82.4887C138.402 82.7053 146.022 89.6147 145.873 97.6109C150.161 93.2914 152.949 91.2489 158.928 90.0969C164.907 88.9448 172.014 91.7093 173.91 97.4896C175.357 101.897 175.485 107.828 173.368 114.225L179.084 115.233C179.519 115.31 179.851 115.661 179.904 116.099C179.956 116.537 179.715 116.958 179.311 117.134L144.356 132.412L188.255 186.44C188.518 186.763 188.552 187.216 188.342 187.575C188.132 187.935 187.721 188.127 187.31 188.056L79.283 169.6C78.9201 169.538 78.6206 169.281 78.5035 168.932C78.3863 168.583 78.4703 168.198 78.7222 167.93L117.533 126.574L79.442 99.6055C79.0601 99.3352 78.9168 98.8362 79.0969 98.4043C79.2771 97.9725 79.7326 97.7234 80.1934 97.8046L109.488 102.967ZM109.332 104.971L84.2336 100.547L112.357 120.458C112.082 119.819 111.821 119.173 111.578 118.52C109.972 114.216 109.132 109.547 109.332 104.971ZM119.296 127.72C119.27 127.715 119.244 127.708 119.218 127.701L81.4538 167.942L185.025 185.637L141.808 132.447L119.296 127.72Z" fill="#F9FAFA"/>
<path d="M141.429 104.035C141.325 106.45 141.222 108.86 141.119 111.275C141.088 112.026 141.683 112.779 142.465 112.791C143.246 112.804 143.949 112.248 143.982 111.446C144.086 109.032 144.189 106.622 144.293 104.207C144.323 103.456 143.728 102.703 142.947 102.69C142.165 102.678 141.462 103.233 141.429 104.035Z" fill="#161616"/>
<path d="M133.442 104.035C133.338 106.45 133.236 108.86 133.132 111.275C133.102 112.026 133.696 112.779 134.478 112.791C135.26 112.804 135.962 112.248 135.996 111.446C136.1 109.032 136.202 106.622 136.306 104.207C136.336 103.456 135.742 102.703 134.96 102.69C134.178 102.678 133.476 103.233 133.442 104.035Z" fill="#161616"/>
<path d="M72.7946 58.1088L70.4274 51.2631L66.1213 57.0928L63.6509 55.0853L68.4538 49.6278L61.2282 48.8256L61.7035 45.678L68.8122 47.0899L65.9541 40.4342L68.8998 39.2942L71.267 46.1398L75.5731 40.3101L78.0435 42.3176L73.2406 47.7751L80.4662 48.5773L79.9909 51.7249L72.8821 50.313L75.7403 56.9687L72.7946 58.1088Z" fill="#8D8D8D"/>
<path d="M101.584 50.3688L100.9 43.1577L95.3391 47.8053L93.4128 45.2711L99.3689 41.1025L92.5373 38.6162L93.7426 35.67L100.317 38.7211L99.1115 31.5787L102.243 31.1666L102.926 38.3778L108.488 33.7301L110.414 36.2644L104.458 40.433L111.29 42.9192L110.084 45.8655L103.51 42.8143L104.715 49.9568L101.584 50.3688Z" fill="#8D8D8D"/>
<path d="M131.386 49.6482L132.426 42.4797L125.924 45.6822L124.651 42.7647L131.423 40.1209L125.372 36.0913L127.239 33.5132L132.906 38.0308L133.423 30.8058L136.563 31.1452L135.523 38.3136L142.025 35.1111L143.298 38.0287L136.526 40.6724L142.577 44.702L140.71 47.2801L135.043 42.7625L134.527 49.9875L131.386 49.6482Z" fill="#8D8D8D"/>
<path d="M160.516 55.9873L163.219 49.2672L156.145 50.8434L155.597 47.7076L162.802 46.7383L157.874 41.3935L160.297 39.3293L164.737 45.0578L166.945 38.1591L169.917 39.2307L167.213 45.9508L174.288 44.3746L174.836 47.5103L167.63 48.4796L172.558 53.8245L170.135 55.8886L165.695 50.1602L163.487 57.0589L160.516 55.9873Z" fill="#8D8D8D"/>
<path d="M187.324 69.0282L191.538 63.1368L184.292 62.9974L184.5 59.8209L191.73 60.581L188.204 54.2233L191.046 52.79L194.007 59.4051L197.782 53.2232L200.416 54.9663L196.202 60.8577L203.449 60.9971L203.241 64.1735L196.01 63.4135L199.536 69.7711L196.694 71.2045L193.733 64.5894L189.958 70.7713L187.324 69.0282Z" fill="#8D8D8D"/>
<path fill-rule="evenodd" clip-rule="evenodd" d="M33.3706 44.4459C33.7997 44.0983 34.4294 44.1643 34.777 44.5935L63.2861 79.7844C63.6338 80.2135 63.5677 80.8432 63.1386 81.1909C62.7095 81.5385 62.0798 81.4725 61.7321 81.0433L33.223 45.8524C32.8754 45.4233 32.9414 44.7936 33.3706 44.4459Z" fill="#161616"/>
<path fill-rule="evenodd" clip-rule="evenodd" d="M42.6962 69.6762C43.0612 69.2617 43.6931 69.2216 44.1075 69.5867L62.1776 85.5017C62.5921 85.8667 62.6321 86.4986 62.2671 86.913C61.9021 87.3275 61.2702 87.3676 60.8557 87.0025L42.7857 71.0875C42.3712 70.7225 42.3311 70.0906 42.6962 69.6762Z" fill="#161616"/>
<path fill-rule="evenodd" clip-rule="evenodd" d="M230.629 59.1459C230.2 58.7982 229.571 58.8643 229.223 59.2934L200.714 94.4843C200.366 94.9134 200.432 95.5432 200.861 95.8908C201.291 96.2385 201.92 96.1724 202.268 95.7433L230.777 60.5524C231.125 60.1232 231.059 59.4935 230.629 59.1459Z" fill="#161616"/>
<path fill-rule="evenodd" clip-rule="evenodd" d="M221.304 84.3764C220.939 83.9619 220.307 83.9218 219.892 84.2869L201.822 100.202C201.408 100.567 201.368 101.199 201.733 101.613C202.098 102.028 202.73 102.068 203.144 101.703L221.214 85.7877C221.629 85.4227 221.669 84.7908 221.304 84.3764Z" fill="#161616"/>
</svg>
