<svg width="30" height="32" viewBox="0 0 30 32" fill="none" xmlns="http://www.w3.org/2000/svg">
<g filter="url(#filter0_d_3695_65419)">
<path fill-rule="evenodd" clip-rule="evenodd" d="M5 20.0836C4.99899 23.6479 7.50842 23.5555 12.0666 21.5614C16.687 19.5401 22.8081 15.4466 24.5311 14.2705C24.7608 14.1137 24.7608 13.782 24.5311 13.6252C22.8081 12.4491 16.687 8.35557 12.0666 6.33427C7.50842 4.34017 5 4.19746 5 7.81206C5 9.56275 5.02941 10.8145 5.81174 11.9554C7.46249 11.9931 9.51934 12.0969 11.9532 12.2496C13.268 12.3321 14.6611 12.43 16.0761 12.5367C18.0011 12.6818 18.0011 15.2013 16.0761 15.3464C14.6611 15.453 13.268 15.551 11.9532 15.6334C9.4972 15.7875 7.42491 15.8905 5.76642 15.926C5.02868 16.9885 5.00054 18.1824 5 20.0836Z" fill="#8D8D8D"/>
<path d="M12.0666 21.5614L11.746 20.8285L12.0666 21.5614ZM5 20.0836L4.2 20.0834V20.0834L5 20.0836ZM24.5311 14.2705L24.0801 13.6098L24.0801 13.6098L24.5311 14.2705ZM24.5311 13.6252L24.0801 14.286L24.5311 13.6252ZM12.0666 6.33427L11.746 7.0672H11.746L12.0666 6.33427ZM5.81174 11.9554L5.15196 12.4078C5.29749 12.6201 5.53622 12.7493 5.79348 12.7552L5.81174 11.9554ZM11.9532 12.2496L11.9032 13.048L11.9532 12.2496ZM16.0761 12.5367L16.016 13.3344L16.0761 12.5367ZM16.0761 15.3464L16.016 14.5486L16.0761 15.3464ZM11.9532 15.6334L12.0033 16.4319H12.0033L11.9532 15.6334ZM5.76642 15.926L5.74929 15.1262C5.49327 15.1316 5.25535 15.2594 5.1093 15.4697L5.76642 15.926ZM11.746 20.8285C10.6246 21.319 9.65455 21.6812 8.83342 21.8999C8.00285 22.1212 7.38252 22.1794 6.93815 22.1151C6.52595 22.0555 6.28939 21.8974 6.12922 21.6561C5.94599 21.3802 5.79977 20.8984 5.8 20.0838L4.2 20.0834C4.19973 21.051 4.3668 21.8943 4.79625 22.5411C5.24876 23.2227 5.92426 23.5851 6.70905 23.6987C7.46169 23.8076 8.32332 23.6916 9.24522 23.446C10.1766 23.198 11.2295 22.8008 12.3872 22.2944L11.746 20.8285ZM24.0801 13.6098C22.3502 14.7905 16.2877 18.8416 11.746 20.8285L12.3872 22.2944C17.0862 20.2387 23.2659 16.1026 24.9821 14.9313L24.0801 13.6098ZM24.0801 14.286C23.8445 14.1251 23.8445 13.7706 24.0801 13.6098L24.9821 14.9313C25.6771 14.4569 25.6771 13.4389 24.9821 12.9645L24.0801 14.286ZM11.746 7.0672C16.2877 9.05412 22.3502 13.1052 24.0801 14.286L24.9821 12.9645C23.2659 11.7931 17.0862 7.65701 12.3872 5.60134L11.746 7.0672ZM5.8 7.81206C5.8 6.98284 5.94704 6.49473 6.13065 6.2168C6.29009 5.97547 6.52425 5.81944 6.93446 5.76224C7.37823 5.70036 7.99839 5.76245 8.83031 5.98779C9.65246 6.21048 10.6234 6.57611 11.746 7.0672L12.3872 5.60134C11.2307 5.09539 10.1788 4.69539 9.24862 4.44344C8.32822 4.19413 7.46661 4.07256 6.7135 4.17757C5.92684 4.28726 5.24901 4.64866 4.79567 5.33485C4.36652 5.98445 4.2 6.83398 4.2 7.81206H5.8ZM6.47152 11.503C5.85069 10.5976 5.8 9.60184 5.8 7.81206H4.2C4.2 9.52366 4.20814 11.0315 5.15196 12.4078L6.47152 11.503ZM5.79348 12.7552C7.42834 12.7925 9.47282 12.8956 11.9032 13.048L12.0033 11.4512C9.56587 11.2983 7.49663 11.1937 5.83001 11.1556L5.79348 12.7552ZM11.9032 13.048C13.2138 13.1302 14.6035 13.228 16.016 13.3344L16.1362 11.739C14.7188 11.6321 13.3222 11.5339 12.0033 11.4512L11.9032 13.048ZM16.016 13.3344C16.3164 13.3571 16.4826 13.464 16.573 13.5612C16.669 13.6645 16.7198 13.8 16.7198 13.9415C16.7198 14.0831 16.669 14.2186 16.573 14.3219C16.4826 14.4191 16.3164 14.526 16.016 14.5486L16.1362 16.1441C17.5144 16.0402 18.3198 15.0278 18.3198 13.9415C18.3198 12.8553 17.5144 11.8428 16.1362 11.739L16.016 13.3344ZM16.016 14.5486C14.6035 14.6551 13.2138 14.7528 11.9032 14.835L12.0033 16.4319C13.3222 16.3491 14.7188 16.2509 16.1362 16.1441L16.016 14.5486ZM11.9032 14.835C9.45102 14.9888 7.39145 15.091 5.74929 15.1262L5.78356 16.7258C7.45836 16.6899 9.54339 16.5862 12.0033 16.4319L11.9032 14.835ZM5.8 20.0838C5.80056 18.1283 5.85315 17.2037 6.42355 16.3822L5.1093 15.4697C4.2042 16.7732 4.20053 18.2365 4.2 20.0834L5.8 20.0838Z" fill="#8D8D8D"/>
</g>
<defs>
<filter id="filter0_d_3695_65419" x="0.200012" y="4.13977" width="29.3033" height="27.5999" filterUnits="userSpaceOnUse" color-interpolation-filters="sRGB">
<feFlood flood-opacity="0" result="BackgroundImageFix"/>
<feColorMatrix in="SourceAlpha" type="matrix" values="0 0 0 0 0 0 0 0 0 0 0 0 0 0 0 0 0 0 127 0" result="hardAlpha"/>
<feOffset dy="4"/>
<feGaussianBlur stdDeviation="2"/>
<feComposite in2="hardAlpha" operator="out"/>
<feColorMatrix type="matrix" values="0 0 0 0 0 0 0 0 0 0 0 0 0 0 0 0 0 0 0.25 0"/>
<feBlend mode="normal" in2="BackgroundImageFix" result="effect1_dropShadow_3695_65419"/>
<feBlend mode="normal" in="SourceGraphic" in2="effect1_dropShadow_3695_65419" result="shape"/>
</filter>
</defs>
</svg>
