<svg width="30" height="31" viewBox="0 0 30 31" fill="none" xmlns="http://www.w3.org/2000/svg">
<path fill-rule="evenodd" clip-rule="evenodd" d="M11.0006 21.0444C10.6246 21.052 10.26 21.0409 9.91349 21.0096C9.72717 20.9928 9.43304 20.8551 9.20131 20.4576C7.03323 16.7392 6.00413 12.7552 6.11913 8.52559C6.13142 8.07351 6.32611 7.82632 6.48384 7.73245C8.4682 6.5515 11.6389 5.84401 13.9766 6.06021C14.1605 6.07721 14.4499 6.21234 14.6811 6.60086C14.8833 6.9407 15.0757 7.28282 15.2581 7.62721C15.9079 7.46437 16.5951 7.34173 17.3014 7.25931C17.0273 6.71205 16.7307 6.17026 16.4117 5.63407C15.9121 4.79454 15.0808 4.17384 14.1072 4.0838C11.3432 3.82817 7.74952 4.63054 5.40599 6.02525C4.57066 6.52238 4.13154 7.44243 4.10509 8.4151C3.98005 13.014 5.10413 17.3656 7.46148 21.4086C7.96007 22.2638 8.8005 22.8973 9.78727 22.9864C10.2239 23.0259 10.681 23.039 11.1504 23.0277C11.0873 22.3644 11.0374 21.7032 11.0006 21.0444Z" fill="#353535"/>
<path d="M24.6882 24.5972C24.5622 25.4993 24.0299 26.1623 23.3418 26.3569C21.057 27.0032 17.9872 27.005 15.6979 26.3616C15.0035 26.1664 14.4677 25.4953 14.3463 24.5829C13.7865 20.3769 13.7831 16.2755 14.331 12.359C14.4551 11.4719 14.9826 10.8175 15.6653 10.6232C17.9691 9.96736 21.0767 9.96926 23.3757 10.6283C24.0515 10.822 24.5752 11.4676 24.7039 12.3433C25.2807 16.2685 25.2773 20.38 24.6882 24.5972Z" stroke="#353535" stroke-width="2"/>
</svg>
