<svg width="265" height="212" viewBox="0 0 265 212" fill="none" xmlns="http://www.w3.org/2000/svg">
<path fill-rule="evenodd" clip-rule="evenodd" d="M37.7001 89.3C37.9001 88.8 38.4001 88.5 38.9001 88.6L73.1001 98.3C73.6001 98.5 73.9001 99 73.8001 99.5C73.6001 100 73.1001 100.3 72.6001 100.2L38.4001 90.5C37.9001 90.4 37.6001 89.8 37.7001 89.3Z" fill="#161616"/>
<path fill-rule="evenodd" clip-rule="evenodd" d="M14.4 94.4001C14.6 93.9001 15.1 93.6001 15.6 93.7001L49.8 103.4C50.3 103.6 50.6 104.1 50.5 104.6C50.3 105.1 49.8 105.4 49.3 105.3L15 95.6001C14.5 95.5001 14.2 94.9001 14.4 94.4001Z" fill="#161616"/>
<path fill-rule="evenodd" clip-rule="evenodd" d="M27.8 110C28 109.5 28.5 109.2 29 109.3L63.2 119C63.7 119.2 64 119.7 63.9 120.2C63.7 120.7 63.2 121 62.7 120.9L28.5 111.2C27.9 111.1 27.6 110.6 27.8 110Z" fill="#161616"/>
<path d="M88.7 173.8L95.2 114.7L244.2 150.7L91.0001 176C89.7001 176.2 88.6 175.1 88.7 173.8Z" fill="#F9FAFA"/>
<path d="M247.3 149L167.5 97.0001C166.9 96.6001 166.2 96.4001 165.5 96.5001L112.4 103.4C111.6 103.5 111 104.1 110.7 104.8L101.8 134.3C101.6 134.9 102 135.5 102.7 135.6L246.8 150.9C247.7 151 248.2 149.6 247.3 149Z" fill="#666666"/>
<path fill-rule="evenodd" clip-rule="evenodd" d="M229.2 78C229.3 78.1 229.4 78.3 229.4 78.4C232 84.4 229 91.3 225.3 96.8C217.9 107.7 207.7 116.7 195.9 122.7C193.2 124.1 190.3 125.3 187.5 126.4C192.4 131.7 195.7 143.3 189.1 148.1C180.6 154.3 172 154.1 163 153.9C161.3 153.9 159.7 153.8 158 153.8C151.2 153.8 149.6 149.8 146.6 142.5C146 140.9 145.3 139.2 144.4 137.3C136.6 119.5 128.6 100.4 130.2 81C130.5 77.1 132.9 70.5 135.3 66.3C145.8 49 167 43.2 186.7 37.8C187.5 37.6 188.4 37.3 189.2 37.1C193.4 36 197.6 34.9 201.9 35C206.2 35.1 210.6 36.5 213.6 39.6C218.6 44.9 218.1 53.6 214.4 59.9C212.7 62.8 210.4 65.3 207.9 67.6C204.8 69.4 201.6 70.9 198.2 72.1C197.4 72.4 197 73.5 197.4 74.3C197.8 75.2 198.8 75.5 199.6 75.2C202.6 74.1 205.5 72.8 208.3 71.2C210.6 70.6 212.9 70.3 215.2 70.3C220.7 70.3 226.6 72.9 229.1 77.8C229.2 77.9 229.2 78 229.2 78Z" fill="#F9FAFA"/>
<path d="M111.4 71.1C128.3 75.5 136.9 89.6 133 104.6C130.2 115.3 123.7 120.2 116.3 118.3C112.2 117.2 109.8 114.7 109.4 110.9C106.4 113.7 102.5 114.7 97.8 113.5C90.1 111.5 85.5 103.8 87.9 94.7C90.2 85.7 97.9 81.1 105.7 83.2C109.7 84.2 112.4 86.4 113.9 89.6L114.8 86.1L123 88.2L118 107.6C117.3 110.5 118.3 111.8 119.9 112.2C122.7 112.9 125.2 110.2 127 103.2C130.2 91 123.3 80.3 110 76.8C96.6 73.3 85.3 80.1 82.1 92.7C78.8 105.5 85.2 116.8 98.5 120.3C101.4 121.1 104.7 121.4 108 121.1C109.7 121 111.1 122.2 111.2 123.9C111.3 125.6 110.1 127 108.4 127.2C104.8 127.5 100.6 127 97 126.1C79.7 121.6 71.2 106.9 75.4 91C79.3 75.3 93.9 66.6 111.4 71.1ZM101.5 107.1C105.8 108.2 109.8 106 111.2 100.8C112.6 95.6 110.1 91.8 105.8 90.7C101.4 89.6 97.6 91.8 96.2 96.9C94.8 102 97.1 106 101.5 107.1Z" fill="#F9CC2E"/>
<path d="M184.7 79.5001C185.6 82.0001 186.6 84.6001 187.5 87.1001C187.8 87.9001 188.7 88.4001 189.5 88.1001C190.3 87.8001 190.8 86.9001 190.5 86.1001C189.6 83.6001 188.6 81.0001 187.7 78.5001C187.4 77.7001 186.5 77.2001 185.7 77.5001C184.9 77.8001 184.4 78.6001 184.7 79.5001Z" fill="#161616"/>
<path d="M176.5 82.9C177.4 85.4 178.4 88 179.3 90.5C179.6 91.3 180.5 91.8 181.3 91.5C182.1 91.2 182.6 90.3 182.3 89.5C181.4 87 180.4 84.4 179.5 81.9C179.2 81.1 178.3 80.6 177.5 80.9C176.7 81.2 176.2 82.1 176.5 82.9Z" fill="#161616"/>
<path d="M247.6 149.3L98.5001 106.4C96.7001 105.9 94.9001 106 93.2001 106.7L17.4001 138.9C16.4001 139.3 16.7001 140.8 17.7001 140.8L247.3 151.2C248.5 151.3 248.7 149.6 247.6 149.3Z" fill="#8D8D8D"/>
</svg>
