<svg width="72" height="80" viewBox="0 0 72 80" fill="none" xmlns="http://www.w3.org/2000/svg">
<path d="M64.294 31.1947C69.1692 25.3848 70.3236 19.1323 69.4096 14.7985C68.5935 10.9256 64.196 8.63441 60.2502 8.9563C58.2646 9.11829 56.7853 9.48332 55.4134 10.1234C53.7788 10.8859 51.2305 9.67129 50.4572 8.04175C48.9782 4.92507 45.8293 2.49237 42.3535 2.01601C37.1957 1.31055 31.9605 4.38653 29.3099 8.86575C26.6593 13.345 26.3581 18.9434 27.6338 23.988C28.9096 29.0326 31.6402 33.596 34.7481 37.7725C36.2833 39.8366 40.1787 43.2492 42.7555 43.44C47.8928 43.8206 58.6885 37.8749 64.294 31.1947Z" fill="#F9FAFA"/>
<path d="M47.0136 19.3205C46.7042 20.3098 46.3959 21.2976 46.0865 22.2869C45.9909 22.595 46.1543 22.9726 46.4766 23.0639C46.799 23.1552 47.1512 23.0024 47.2536 22.6737C47.563 21.6844 47.8714 20.6966 48.1808 19.7073C48.2763 19.3992 48.113 19.0216 47.7906 18.9303C47.4683 18.839 47.1161 18.9918 47.0136 19.3205Z" fill="#111111"/>
<path d="M42.8046 17.4142C42.4952 18.4036 42.1869 19.3913 41.8775 20.3806C41.782 20.6887 41.9453 21.0663 42.2677 21.1576C42.59 21.2489 42.9422 21.0962 43.0447 20.7675C43.3541 19.7781 43.6624 18.7904 43.9718 17.8011C44.0673 17.493 43.904 17.1154 43.5816 17.0241C43.2593 16.9328 42.9071 17.0855 42.8046 17.4142Z" fill="#111111"/>
<path d="M54.8778 53.4842C58.0798 44.1885 56.573 36.085 53.454 31.2645C50.6676 26.9563 44.2812 26.2257 39.6553 28.4479C36.7489 29.844 34.9447 31.2567 33.368 33.216C32.2372 34.6212 29.5353 34.3593 28.3861 32.9691C25.2388 29.1623 19.6893 27.2078 14.7722 28.3602C8.20222 29.9019 3.29481 36.0561 2.16722 42.7082C1.03963 49.3603 3.27515 56.2757 7.16207 61.7886C11.049 67.3014 16.4733 71.5562 22.1744 75.1674C24.991 76.9525 31.2904 79.2735 34.4977 78.3077C40.8919 76.3822 51.1962 64.1725 54.8778 53.4842Z" fill="#F9CC2E"/>
<path d="M28.4492 47.139C28.5343 48.48 28.6198 49.8187 28.7049 51.1597C28.7323 51.5769 29.1054 51.9581 29.5379 51.9189C29.9705 51.8797 30.3258 51.5312 30.2971 51.0858C30.2121 49.7448 30.1265 48.4061 30.0415 47.0651C30.014 46.6478 29.641 46.2667 29.2084 46.3059C28.7759 46.3451 28.4205 46.6936 28.4492 47.139Z" fill="#111111"/>
<path d="M22.4695 46.7864C22.5545 48.1275 22.6401 49.4661 22.7251 50.8072C22.7526 51.2244 23.1256 51.6056 23.5582 51.5664C23.9908 51.5271 24.3461 51.1787 24.3174 50.7333C24.2324 49.3922 24.1468 48.0536 24.0618 46.7125C24.0343 46.2953 23.6612 45.9141 23.2287 45.9534C22.7961 45.9926 22.4408 46.341 22.4695 46.7864Z" fill="#111111"/>
</svg>
