<svg width="24" height="25" viewBox="0 0 24 25" fill="none" xmlns="http://www.w3.org/2000/svg">
<path d="M9.22108 3.7397H9.22222H14.8116C15.3662 3.74069 16.1309 4.06811 16.5376 4.47646L16.5387 4.47753L20.496 8.43591C20.496 8.43597 20.4961 8.43603 20.4961 8.43609C20.8917 8.83253 21.2008 9.5906 21.2 10.1608V10.1619V15.7508C21.1992 16.3054 20.8717 17.0705 20.4632 17.4773L20.4621 17.4784L16.5054 21.4351C16.5054 21.4352 16.5053 21.4352 16.5052 21.4353C16.1073 21.8315 15.3489 22.1405 14.7789 22.1397H14.7778H9.18892C8.63425 22.1389 7.86922 21.8114 7.46239 21.4029L7.46125 21.4018L3.5046 17.4451C3.50447 17.445 3.50433 17.4449 3.5042 17.4447C3.10813 17.0468 2.79919 16.2885 2.8 15.7186V15.7175V10.1281C2.801 9.57347 3.12842 8.80879 3.53677 8.40209L3.53783 8.40102L7.49621 4.44373C7.49633 4.44362 7.49644 4.4435 7.49655 4.44339C7.89304 4.04796 8.65098 3.73888 9.22108 3.7397Z" stroke="#666666" stroke-width="1.6"/>
<path d="M12 7.94067C11.448 7.94067 11 8.38867 11 8.94067V13.9407C11 14.4927 11.448 14.9407 12 14.9407C12.552 14.9407 13 14.4927 13 13.9407V8.94067C13 8.38867 12.552 7.94067 12 7.94067ZM12 15.9407C11.448 15.9407 11 16.3887 11 16.9407C11 17.4927 11.448 17.9407 12 17.9407C12.552 17.9407 13 17.4927 13 16.9407C13 16.3887 12.552 15.9407 12 15.9407Z" fill="#666666"/>
</svg>
