<svg width="22" height="23" viewBox="0 0 22 23" fill="none" xmlns="http://www.w3.org/2000/svg">
<path d="M1.00005 11.9397C1.00005 17.4625 5.47705 21.9397 11 21.9397C16.523 21.9397 21 17.4625 21 11.9397C21 6.4167 16.523 1.9397 11 1.9397C5.47705 1.9397 1.00005 6.4167 1.00005 11.9397Z" fill="#F9FAFA"/>
<path fill-rule="evenodd" clip-rule="evenodd" d="M8.94975 8.40416C8.55922 8.01364 7.92606 8.01364 7.53553 8.40416C7.14501 8.79469 7.14501 9.42785 7.53553 9.81838L9.65685 11.9397L7.53553 14.061C7.14501 14.4515 7.14501 15.0847 7.53553 15.4752C7.92606 15.8658 8.55922 15.8658 8.94975 15.4752L11.0711 13.3539L13.1924 15.4752C13.5829 15.8658 14.2161 15.8658 14.6066 15.4752C14.9971 15.0847 14.9971 14.4515 14.6066 14.061L12.4853 11.9397L14.6066 9.81838C14.9971 9.42785 14.9971 8.79469 14.6066 8.40416C14.2161 8.01364 13.5829 8.01364 13.1924 8.40416L11.0711 10.5255L8.94975 8.40416Z" fill="#666666"/>
</svg>
