<svg width="24" height="25" viewBox="0 0 24 25" fill="none" xmlns="http://www.w3.org/2000/svg">
<path d="M2 12.5C2 18.0228 6.477 22.5 12 22.5C17.523 22.5 22 18.0228 22 12.5C22 6.977 17.523 2.5 12 2.5C6.477 2.5 2 6.977 2 12.5Z" fill="#8D8D8D"/>
<path fill-rule="evenodd" clip-rule="evenodd" d="M9.94975 8.96447C9.55922 8.57394 8.92606 8.57394 8.53553 8.96447C8.14501 9.35499 8.14501 9.98816 8.53553 10.3787L10.6569 12.5L8.53553 14.6213C8.14501 15.0118 8.14501 15.645 8.53553 16.0355C8.92606 16.4261 9.55922 16.4261 9.94975 16.0355L12.0711 13.9142L14.1924 16.0355C14.5829 16.4261 15.2161 16.4261 15.6066 16.0355C15.9971 15.645 15.9971 15.0118 15.6066 14.6213L13.4853 12.5L15.6066 10.3787C15.9971 9.98816 15.9971 9.35499 15.6066 8.96447C15.2161 8.57394 14.5829 8.57394 14.1924 8.96447L12.0711 11.0858L9.94975 8.96447Z" fill="#161616"/>
</svg>
