<svg width="51" height="50" viewBox="0 0 51 50" fill="none" xmlns="http://www.w3.org/2000/svg">
<g filter="url(#filter0_d_4753_92143)">
<path fill-rule="evenodd" clip-rule="evenodd" d="M41.9644 22.4409C41.953 33.0911 35.5202 39.5252 24.8807 39.5252C14.2401 39.5252 7.80733 33.0911 7.7959 22.4409C7.80733 11.7909 14.2401 5.35669 24.8807 5.35669C35.5202 5.35669 41.953 11.7909 41.9644 22.4409Z" fill="#F9CC2E"/>
<path fill-rule="evenodd" clip-rule="evenodd" d="M16.9204 16.7454C16.9204 14.7953 18.5013 13.2145 20.4513 13.2145C22.4014 13.2145 23.9823 14.7953 23.9823 16.7454C23.9823 17.2977 23.5346 17.7454 22.9823 17.7454C22.43 17.7454 21.9823 17.2977 21.9823 16.7454C21.9823 15.8999 21.2969 15.2145 20.4513 15.2145C19.6058 15.2145 18.9204 15.8999 18.9204 16.7454C18.9204 17.2977 18.4727 17.7454 17.9204 17.7454C17.3681 17.7454 16.9204 17.2977 16.9204 16.7454ZM25.7777 16.7454C25.7777 14.7953 27.3585 13.2145 29.3086 13.2145C31.2587 13.2145 32.8395 14.7953 32.8395 16.7454C32.8395 17.2977 32.3918 17.7454 31.8395 17.7454C31.2873 17.7454 30.8395 17.2977 30.8395 16.7454C30.8395 15.8999 30.1541 15.2145 29.3086 15.2145C28.4631 15.2145 27.7777 15.8999 27.7777 16.7454C27.7777 17.2977 27.33 17.7454 26.7777 17.7454C26.2254 17.7454 25.7777 17.2977 25.7777 16.7454ZM20.1154 19.6002C20.6354 19.4142 21.2078 19.685 21.3937 20.2051C21.8512 21.4844 23.0633 22.3382 24.4219 22.3382H25.3406C26.6992 22.3382 27.9113 21.4844 28.3688 20.2051C28.5547 19.685 29.1271 19.4142 29.6471 19.6002C30.1671 19.7861 30.438 20.3585 30.252 20.8785C29.51 22.9534 27.5441 24.3382 25.3406 24.3382H24.4219C22.2184 24.3382 20.2525 22.9534 19.5105 20.8785C19.3245 20.3585 19.5954 19.7861 20.1154 19.6002Z" fill="#3D3D3D"/>
<g filter="url(#filter1_b_4753_92143)">
<path d="M14.5775 39.1182C13.537 37.6758 13.8324 35.8669 15.0555 35.1271C15.9028 34.6146 16.9777 34.729 17.8329 35.4161C17.9966 35.5477 18.2511 35.5079 18.3668 35.3326C18.9714 34.4172 19.9601 33.9802 20.9234 34.2096C22.314 34.5408 23.1475 36.1731 22.5969 37.8643C22.0248 39.6218 19.8177 41.4661 19.2637 41.9081C19.1848 41.9711 19.0803 41.9874 18.986 41.9515C18.3235 41.6997 15.6588 40.6172 14.5775 39.1182Z" fill="#FF4D00"/>
</g>
<g filter="url(#filter2_b_4753_92143)">
<path d="M33.3957 27.0624C32.8454 24.2066 34.3722 21.5921 36.5238 21.189C37.9851 20.9153 39.3772 21.7039 40.1475 23.2217C40.315 23.5516 40.7662 23.6621 41.0671 23.4469C42.4516 22.4568 44.0506 22.4006 45.22 23.3186C46.9418 24.6702 47.0879 27.6943 45.2803 29.9727C43.4268 32.3091 39.3162 33.8138 38.2073 34.1876C38.0334 34.2462 37.848 34.2008 37.7209 34.0684C36.9102 33.2247 33.96 29.9908 33.3957 27.0624Z" fill="#FF4D00"/>
</g>
<g filter="url(#filter3_b_4753_92143)">
<path d="M5.22999 12.9292C4.00454 11.2655 4.29727 9.15161 5.67728 8.26809C6.68491 7.62297 7.99901 7.7854 9.01895 8.6906C9.12493 8.78466 9.29617 8.75468 9.36389 8.63021C10.0157 7.43236 11.1964 6.83316 12.3633 7.0976C13.9614 7.45976 14.9548 9.34854 14.3675 11.3296C13.7357 13.4602 11.1045 15.7291 10.5989 16.1501C10.5463 16.1939 10.4764 16.2062 10.412 16.1828C9.7935 15.9586 6.54797 14.7186 5.22999 12.9292Z" fill="#FF4D00"/>
</g>
</g>
<defs>
<filter id="filter0_d_4753_92143" x="-3" y="0" width="56" height="56" filterUnits="userSpaceOnUse" color-interpolation-filters="sRGB">
<feFlood flood-opacity="0" result="BackgroundImageFix"/>
<feColorMatrix in="SourceAlpha" type="matrix" values="0 0 0 0 0 0 0 0 0 0 0 0 0 0 0 0 0 0 127 0" result="hardAlpha"/>
<feOffset dy="4"/>
<feGaussianBlur stdDeviation="2"/>
<feComposite in2="hardAlpha" operator="out"/>
<feColorMatrix type="matrix" values="0 0 0 0 0 0 0 0 0 0 0 0 0 0 0 0 0 0 0.25 0"/>
<feBlend mode="normal" in2="BackgroundImageFix" result="effect1_dropShadow_4753_92143"/>
<feBlend mode="normal" in="SourceGraphic" in2="effect1_dropShadow_4753_92143" result="shape"/>
</filter>
<filter id="filter1_b_4753_92143" x="9.94312" y="30.1494" width="16.8252" height="15.8208" filterUnits="userSpaceOnUse" color-interpolation-filters="sRGB">
<feFlood flood-opacity="0" result="BackgroundImageFix"/>
<feGaussianBlur in="BackgroundImageFix" stdDeviation="2"/>
<feComposite in2="SourceAlpha" operator="in" result="effect1_backgroundBlur_4753_92143"/>
<feBlend mode="normal" in="SourceGraphic" in2="effect1_backgroundBlur_4753_92143" result="shape"/>
</filter>
<filter id="filter2_b_4753_92143" x="29.2827" y="17.1354" width="21.292" height="21.0774" filterUnits="userSpaceOnUse" color-interpolation-filters="sRGB">
<feFlood flood-opacity="0" result="BackgroundImageFix"/>
<feGaussianBlur in="BackgroundImageFix" stdDeviation="2"/>
<feComposite in2="SourceAlpha" operator="in" result="effect1_backgroundBlur_4753_92143"/>
<feBlend mode="normal" in="SourceGraphic" in2="effect1_backgroundBlur_4753_92143" result="shape"/>
</filter>
<filter id="filter3_b_4753_92143" x="0.457031" y="3.03589" width="18.0811" height="17.1586" filterUnits="userSpaceOnUse" color-interpolation-filters="sRGB">
<feFlood flood-opacity="0" result="BackgroundImageFix"/>
<feGaussianBlur in="BackgroundImageFix" stdDeviation="2"/>
<feComposite in2="SourceAlpha" operator="in" result="effect1_backgroundBlur_4753_92143"/>
<feBlend mode="normal" in="SourceGraphic" in2="effect1_backgroundBlur_4753_92143" result="shape"/>
</filter>
</defs>
</svg>
