<svg width="20" height="21" viewBox="0 0 20 21" fill="none" xmlns="http://www.w3.org/2000/svg">
<g clip-path="url(#clip0_3928_69323)">
<path d="M6.69476 9.83227C6.69476 10.4802 6.16955 11.0054 5.52167 11.0054C4.87378 11.0054 4.34857 10.4802 4.34857 9.83227C4.34857 9.18439 4.87378 8.65918 5.52167 8.65918C6.16955 8.65918 6.69476 9.18439 6.69476 9.83227Z" fill="#F9FAFA"/>
<path d="M11.1735 9.83227C11.1735 10.4802 10.6483 11.0054 10.0004 11.0054C9.35254 11.0054 8.82733 10.4802 8.82733 9.83227C8.82733 9.18439 9.35254 8.65918 10.0004 8.65918C10.6483 8.65918 11.1735 9.18439 11.1735 9.83227Z" fill="#F9FAFA"/>
<path d="M15.6523 9.83227C15.6523 10.4802 15.1271 11.0054 14.4792 11.0054C13.8313 11.0054 13.3061 10.4802 13.3061 9.83227C13.3061 9.18439 13.8313 8.65918 14.4792 8.65918C15.1271 8.65918 15.6523 9.18439 15.6523 9.83227Z" fill="#F9FAFA"/>
<mask id="path-4-inside-1_3928_69323" fill="white">
<path fill-rule="evenodd" clip-rule="evenodd" d="M0.286668 13.7384C0.674638 15.355 2.03459 16.4938 3.64438 16.9094C5.06402 17.2758 6.48625 17.5193 7.90934 17.6397L8.76495 19.3131C9.35917 20.4752 11.0199 20.4752 11.6141 19.3131L12.4886 17.6028C13.7788 17.4728 15.0683 17.2417 16.3555 16.9094C17.9653 16.4938 19.3253 15.355 19.7133 13.7383C20.2923 11.3256 20.2952 8.33759 19.722 5.91909C19.3334 4.27948 17.9482 3.13036 16.313 2.72356C12.1118 1.67841 7.88811 1.67841 3.68695 2.72356C2.05176 3.13036 0.666557 4.27948 0.277957 5.91909C-0.295248 8.3376 -0.292345 11.3256 0.286668 13.7384Z"/>
</mask>
<path d="M3.64438 16.9094L3.94432 15.7475H3.94432L3.64438 16.9094ZM0.286668 13.7384L1.45354 13.4583V13.4583L0.286668 13.7384ZM7.90934 17.6397L8.97777 17.0934L8.67444 16.5002L8.01054 16.444L7.90934 17.6397ZM8.76495 19.3131L7.69653 19.8594L8.76495 19.3131ZM11.6141 19.3131L10.5457 18.7667V18.7667L11.6141 19.3131ZM12.4886 17.6028L12.3683 16.4089L11.7178 16.4744L11.4201 17.0565L12.4886 17.6028ZM16.3555 16.9094L16.0556 15.7475H16.0556L16.3555 16.9094ZM19.7133 13.7383L20.8802 14.0184L19.7133 13.7383ZM19.722 5.91909L20.8896 5.64234V5.64234L19.722 5.91909ZM16.313 2.72356L16.6027 1.55906L16.313 2.72356ZM3.68695 2.72356L3.39725 1.55906V1.55906L3.68695 2.72356ZM0.277957 5.91909L-0.889696 5.64234L0.277957 5.91909ZM3.94432 15.7475C2.66302 15.4167 1.71557 14.5502 1.45354 13.4583L-0.880201 14.0184C-0.366293 16.1599 1.40616 17.5709 3.34444 18.0713L3.94432 15.7475ZM8.01054 16.444C6.65621 16.3294 5.30043 16.0975 3.94432 15.7475L3.34444 18.0713C4.82761 18.4542 6.31629 18.7092 7.80814 18.8355L8.01054 16.444ZM9.83338 18.7667L8.97777 17.0934L6.84091 18.1861L7.69653 19.8594L9.83338 18.7667ZM10.5457 18.7667C10.3971 19.0573 9.98193 19.0573 9.83338 18.7667L7.69653 19.8594C8.73641 21.8931 11.6426 21.893 12.6825 19.8594L10.5457 18.7667ZM11.4201 17.0565L10.5457 18.7667L12.6825 19.8594L13.557 18.1492L11.4201 17.0565ZM16.0556 15.7475C14.8259 16.0649 13.5965 16.2851 12.3683 16.4089L12.6089 18.7968C13.9612 18.6605 15.3106 18.4184 16.6555 18.0713L16.0556 15.7475ZM18.5464 13.4583C18.2844 14.5502 17.3369 15.4167 16.0556 15.7475L16.6555 18.0713C18.5938 17.5709 20.3662 16.1598 20.8802 14.0184L18.5464 13.4583ZM18.5543 6.19583C19.0843 8.43178 19.0814 11.2291 18.5464 13.4583L20.8802 14.0184C21.5032 11.4221 21.5061 8.2434 20.8896 5.64234L18.5543 6.19583ZM16.0233 3.88807C17.3267 4.21232 18.2918 5.08829 18.5543 6.19583L20.8896 5.64234C20.3749 3.47068 18.5697 2.0484 16.6027 1.55906L16.0233 3.88807ZM3.97665 3.88807C7.98757 2.89024 12.0124 2.89024 16.0233 3.88807L16.6027 1.55906C12.2113 0.466577 7.78864 0.466577 3.39725 1.55906L3.97665 3.88807ZM1.44561 6.19583C1.70811 5.08829 2.67326 4.21232 3.97665 3.88807L3.39725 1.55906C1.43026 2.0484 -0.374993 3.47068 -0.889696 5.64234L1.44561 6.19583ZM1.45354 13.4583C0.91856 11.2291 0.915671 8.43179 1.44561 6.19583L-0.889696 5.64234C-1.50617 8.24341 -1.50325 11.4222 -0.880201 14.0184L1.45354 13.4583Z" fill="#F9FAFA" mask="url(#path-4-inside-1_3928_69323)"/>
</g>
<defs>
<clipPath id="clip0_3928_69323">
<rect width="20" height="20" fill="white" transform="translate(0 0.939697)"/>
</clipPath>
</defs>
</svg>
